<svg width="800" height="600" viewBox="0 0 800 600" fill="none" xmlns="http://www.w3.org/2000/svg">
<path d="M150 531.75C213.55 531.75 277.15 531.75 340.7 531.75C403.95 531.75 467.15 531.75 530.4 531.75C566 531.75 601.6 531.75 637.25 531.75C638.2 531.75 638.2 530.25 637.25 530.25C573.7 530.25 510.1 530.25 446.55 530.25C383.3 530.25 320.1 530.25 256.85 530.25C221.25 530.25 185.65 530.25 150 530.25C149 530.25 149 531.75 150 531.75Z" fill="#E8E8E8"/>
<path d="M258.95 542.5C305.85 542.5 352.8 542.5 399.7 542.5C413 542.5 426.3 542.5 439.65 542.5C440.6 542.5 440.6 541 439.65 541C392.75 541 345.8 541 298.9 541C285.6 541 272.3 541 258.95 541C258 541 258 542.5 258.95 542.5Z" fill="#E8E8E8"/>
<path d="M416.45 553.2C461.6 553.2 506.75 553.2 551.85 553.2C564.7 553.2 577.5 553.2 590.35 553.2C591.3 553.2 591.3 551.7 590.35 551.7C545.2 551.7 500.05 551.7 454.95 551.7C442.1 551.7 429.3 551.7 416.45 551.7C415.5 551.7 415.5 553.2 416.45 553.2Z" fill="#E8E8E8"/>
<path d="M157.9 544.75C176.9 544.75 195.9 544.75 214.9 544.75C215.85 544.75 215.85 543.25 214.9 543.25C195.9 543.25 176.9 543.25 157.9 543.25C156.9 543.25 156.9 544.75 157.9 544.75Z" fill="#E8E8E8"/>
<path d="M197.3 485.45C199.35 500.4 202.75 515.15 207.5 529.45C207.8 530.35 209.25 529.95 208.95 529.05C204.2 514.7 200.8 500 198.75 485.05C198.6 484.1 197.15 484.5 197.3 485.45Z" fill="#E8E8E8"/>
<path d="M197.9 486.05C215.7 492.6 235.25 493.3 253.5 488.05C254.45 487.8 254.05 486.35 253.1 486.6C235.1 491.8 215.9 491.05 198.3 484.6C197.4 484.25 197 485.7 197.9 486.05Z" fill="#E8E8E8"/>
<path d="M252.55 487.6C251.4 502.15 249.4 516.55 246.45 530.85C246.25 531.8 247.7 532.2 247.9 531.25C250.9 516.85 252.95 502.3 254.05 487.6C254.15 486.65 252.65 486.65 252.55 487.6Z" fill="#E8E8E8"/>
<path d="M213.75 488.65C208.25 484 204.65 477.7 203.4 470.6C203.25 470.9 203.05 471.2 202.9 471.5C204.2 471.2 205.2 471.35 206.35 472C207 472.4 207.7 471.6 207.4 470.95C206.55 469.35 205.75 467.8 204.9 466.2C204.5 465.4 204.05 464.65 203.65 463.85C203 462.45 202.35 458.8 205.05 459.35C205.65 459.45 206.1 459 205.95 458.45C204.2 449.7 202.5 440.8 201.95 431.9C201.7 427.8 201.75 423.6 202.7 419.55C203.15 417.6 203.8 415.7 204.65 413.9C205.25 412.65 205.65 411.1 207.65 412.1C208.35 412.45 209.05 413.35 209.6 413.95C214.85 419.45 217.55 426.85 219.5 434.05C221.8 442.3 223.7 450.7 225.35 459.1C227.35 469.3 228.55 479.65 228.2 490.1C228.15 491.05 229.65 491.05 229.7 490.1C230.05 479.9 228.85 469.7 226.95 459.65C225.15 450.05 223 440.4 220.15 431.05C217.9 423.65 214.6 415.85 208.4 410.85C202.6 406.2 200.5 422.8 200.35 426C199.9 436.9 202.3 448.2 204.45 458.85C204.75 458.55 205.05 458.25 205.35 457.95C203.15 457.5 201.45 459.15 201.35 461.35C201.3 462.95 202.15 464.45 202.85 465.8C203.9 467.8 204.9 469.75 205.95 471.75C206.3 471.4 206.65 471.05 207 470.7C205.5 469.85 204.05 469.65 202.4 470.05C202 470.15 201.8 470.6 201.9 470.95C203.2 478.25 206.95 484.85 212.6 489.65C213.45 490.3 214.5 489.25 213.75 488.65Z" fill="#E8E8E8"/>
<path d="M227.35 459.85C227.2 454.4 229.75 449.5 232.45 444.9C235.1 440.35 238.15 436.05 241.5 431.95C241.1 431.85 240.65 431.75 240.25 431.6C240.5 432.3 240.75 433.05 241.05 433.75C241.25 434.35 242.05 434.5 242.4 433.95C246.3 428.2 250.5 422.7 255.05 417.45C254.6 417.25 254.2 417.1 253.75 416.9C253.95 424.1 253.4 431.25 251.95 438.3C250.8 443.8 249.65 452.5 243.8 455C243.05 455.35 243.55 456.3 244.2 456.4C249.85 457.1 243.75 468.1 242.7 470.95C240.35 477.3 238.3 483.8 236.3 490.25C236 491.15 237.45 491.55 237.75 490.65C240.15 483.05 242.5 475.35 245.5 467.95C246.35 465.9 247.65 463.85 248.1 461.65C248.7 458.6 247.65 455.3 244.25 454.9C244.4 455.35 244.5 455.85 244.65 456.3C250.45 453.8 251.85 446 253.1 440.55C254.85 432.8 255.6 424.85 255.35 416.9C255.35 416.3 254.5 415.85 254.05 416.35C249.45 421.7 245.15 427.3 241.15 433.15C241.6 433.2 242.05 433.25 242.5 433.35C242.25 432.65 242 431.9 241.7 431.2C241.55 430.7 240.85 430.4 240.45 430.85C236.85 435.25 233.55 439.9 230.75 444.85C228.1 449.45 225.75 454.35 225.9 459.8C225.85 460.85 227.35 460.85 227.35 459.85Z" fill="#E8E8E8"/>
<path d="M198.4 485.85C200.1 485.3 202.05 486.05 203.75 486.3C205.65 486.55 207.55 486.7 209.45 486.75C210.4 486.75 210.4 485.25 209.45 485.25C207.05 485.2 204.7 485 202.35 484.55C200.85 484.3 199.5 483.9 198 484.4C197.1 484.7 197.45 486.15 198.4 485.85Z" fill="#E8E8E8"/>
<path d="M238.55 487.85C243.45 487.95 248.35 488.15 253.2 488.45C254.15 488.5 254.15 487 253.2 486.95C248.3 486.65 243.45 486.45 238.55 486.35C237.6 486.3 237.6 487.8 238.55 487.85Z" fill="#E8E8E8"/>
<path d="M204.4 487.05C206.45 487.55 208.5 488.05 210.5 488.5C211.45 488.75 211.85 487.3 210.9 487.05C208.85 486.55 206.8 486.05 204.8 485.6C203.85 485.4 203.45 486.85 204.4 487.05Z" fill="#E8E8E8"/>
<path d="M238.5 486.9C237.35 487.15 237 488.7 238.15 489.25C239.25 489.75 241.5 489.15 242.65 489.1C244.4 489 246.15 488.85 247.9 488.75C248.85 488.7 248.85 487.2 247.9 487.25C246.3 487.35 244.65 487.45 243.05 487.6C242.3 487.65 241.55 487.7 240.8 487.75C240.45 487.8 240.05 487.8 239.7 487.85C239.05 487.65 238.8 487.85 238.95 488.4C239.85 488.15 239.45 486.7 238.5 486.9Z" fill="#E8E8E8"/>
<path d="M205.4 521.2C207.5 524.95 210.3 528.25 213.7 530.9C214.45 531.5 215.5 530.45 214.75 529.85C211.45 527.25 208.75 524.15 206.7 520.45C206.25 519.55 204.95 520.35 205.4 521.2Z" fill="#E8E8E8"/>
<path d="M199.95 500.2C207.2 511.8 216.2 522.15 226.75 530.9C227.5 531.5 228.55 530.45 227.8 529.85C217.35 521.2 208.4 511 201.2 499.45C200.75 498.6 199.45 499.35 199.95 500.2Z" fill="#E8E8E8"/>
<path d="M202.75 487.2C207.55 495.7 212.55 504.2 219.2 511.4C226.2 518.95 234.65 525.35 242.85 531.45C243.65 532.05 244.35 530.7 243.6 530.15C235.45 524.1 227.15 517.8 220.25 510.35C213.7 503.25 208.8 494.8 204.05 486.45C203.55 485.6 202.25 486.35 202.75 487.2Z" fill="#E8E8E8"/>
<path d="M217.45 490.6C225.25 502.95 235.85 513.3 248.45 520.75C249.3 521.25 250.05 519.95 249.2 519.45C236.85 512.1 226.4 501.95 218.75 489.8C218.2 489.05 216.9 489.8 217.45 490.6Z" fill="#E8E8E8"/>
<path d="M234.45 491.5C238.65 497.65 243.7 503.15 249.55 507.75C250.3 508.35 251.35 507.3 250.6 506.7C244.85 502.15 239.85 496.8 235.75 490.75C235.2 489.95 233.9 490.7 234.45 491.5Z" fill="#E8E8E8"/>
<path d="M245.35 490.25C247.25 492.95 249.4 495.35 251.8 497.55C252.5 498.2 253.6 497.15 252.85 496.5C250.5 494.4 248.45 492.05 246.6 489.5C246.1 488.75 244.75 489.5 245.35 490.25Z" fill="#E8E8E8"/>
<path d="M530.95 491.85C532.6 505.05 535.1 518.15 538.6 531C538.85 531.95 540.3 531.55 540.05 530.6C536.6 517.9 534.1 504.95 532.45 491.85C532.3 490.9 530.8 490.9 530.95 491.85Z" fill="#E8E8E8"/>
<path d="M531.8 492.2C545.3 495.9 559.5 495.95 573 492.35C573.95 492.1 573.55 490.65 572.6 490.9C559.35 494.45 545.45 494.4 532.2 490.75C531.25 490.5 530.9 491.9 531.8 492.2Z" fill="#E8E8E8"/>
<path d="M572.25 491.85C571.4 505.15 568.85 518.2 564.6 530.8C564.3 531.7 565.75 532.1 566.05 531.2C570.3 518.45 572.9 505.25 573.75 491.85C573.8 490.9 572.3 490.9 572.25 491.85Z" fill="#E8E8E8"/>
<path d="M544.25 493.2C541.65 489.75 539.6 485.95 538.35 481.8C537.75 479.8 537.3 477.8 537 475.7C536.75 473.8 535.65 469.85 538.5 469.95C538.95 469.95 539.4 469.45 539.2 469C538.55 467 538.15 465.1 538.05 463C537.85 463.25 537.7 463.5 537.5 463.7C538.95 463.2 539.55 462.05 539.8 460.6C540.3 457.7 540.05 454.5 540.1 451.55C540.3 444.75 540.45 437.95 540.65 431.1C540.25 431.3 539.9 431.55 539.5 431.75C543.9 434.75 545.95 440.85 547.65 445.7C549.4 450.8 550.6 456.1 551.35 461.4C552.9 472.3 552.75 483.35 552.2 494.35C552.15 495.3 553.65 495.3 553.7 494.35C554.25 482.65 554.4 470.85 552.5 459.3C551.55 453.55 550.15 447.85 548 442.45C546.25 438.05 544.3 433.25 540.25 430.5C539.75 430.15 539.15 430.6 539.1 431.15C538.95 436.35 538.85 441.55 538.7 446.7C538.65 449.3 538.55 451.9 538.5 454.5C538.45 456.15 539.15 461.55 537.05 462.3C536.75 462.4 536.5 462.7 536.5 463C536.6 465.2 537 467.3 537.7 469.4C537.95 469.1 538.2 468.75 538.4 468.45C536.9 468.4 535.35 468.75 535.1 470.35C534.75 472.9 535.35 476 535.85 478.55C537 484.15 539.45 489.4 542.85 494C543.5 494.75 544.8 494 544.25 493.2Z" fill="#E8E8E8"/>
<path d="M552.95 459.15C554.25 454.65 555.75 450.2 557.3 445.8C556.95 445.95 556.55 446.1 556.2 446.25C556.7 446.55 557.2 446.9 557.75 447.2C558.1 447.4 558.55 447.25 558.8 446.95C562.4 440.95 566 435 569.6 429C569.15 428.85 568.65 428.75 568.2 428.6C570.35 450.7 566.85 473.1 558.05 493.55C557.65 494.45 558.95 495.2 559.35 494.3C568.25 473.65 571.85 451 569.7 428.6C569.65 427.9 568.7 427.55 568.3 428.2C564.7 434.2 561.1 440.15 557.5 446.15C557.85 446.05 558.2 445.95 558.55 445.9C558.05 445.6 557.55 445.25 557 444.95C556.55 444.7 556.05 444.95 555.9 445.4C554.3 449.8 552.85 454.25 551.55 458.75C551.25 459.65 552.7 460.05 552.95 459.15Z" fill="#E8E8E8"/>
<path d="M532.5 492.25C535.35 492.35 538.15 492.5 541 492.6C541.95 492.65 541.95 491.15 541 491.1C538.15 491 535.35 490.85 532.5 490.75C531.55 490.7 531.55 492.2 532.5 492.25Z" fill="#E8E8E8"/>
<path d="M539.45 492.55C540.4 492.95 541.4 493.3 542.4 493.45C543.35 493.6 543.75 492.15 542.8 492C541.9 491.85 541 491.6 540.2 491.25C539.3 490.9 538.55 492.15 539.45 492.55Z" fill="#E8E8E8"/>
<path d="M560.1 493.1C564.25 492.5 568.35 492.1 572.55 491.85C573.5 491.8 573.5 490.3 572.55 490.35C568.25 490.6 563.95 491 559.7 491.65C558.75 491.8 559.15 493.25 560.1 493.1Z" fill="#E8E8E8"/>
<path d="M559.6 493.8C561.8 493.45 564.05 493.25 566.3 493.05C567.25 493 567.25 491.5 566.3 491.55C563.9 491.7 561.55 492 559.2 492.35C558.25 492.5 558.65 493.9 559.6 493.8Z" fill="#E8E8E8"/>
<path d="M533.05 499.5C536.35 499.4 539.05 501.35 542.25 501.8C545.8 502.3 548 499.35 551.35 499.4C554.7 499.45 557.6 501.65 561 501.65C562.5 501.65 564 501.35 565.35 500.75C567.35 499.95 569.2 498.35 571.45 499.25C572.35 499.6 572.75 498.15 571.85 497.8C568.75 496.6 566.25 499.15 563.35 499.85C559.25 500.85 556 498.4 552.1 497.95C548.45 497.55 545.9 500.8 542.35 500.3C539.15 499.8 536.4 497.9 533.05 498.05C532.05 498.05 532.05 499.55 533.05 499.5Z" fill="#E8E8E8"/>
<path d="M533.7 507.4C545.8 512.2 559.35 512.35 571.55 507.8C572.45 507.45 572.05 506 571.15 506.35C559.15 510.8 546 510.65 534.1 505.95C533.2 505.6 532.8 507.05 533.7 507.4Z" fill="#E8E8E8"/>
<path d="M104.85 292.85C104.85 323.3 104.85 353.7 104.85 384.15C104.85 385.1 106.35 385.1 106.35 384.15C106.35 353.7 106.35 323.3 106.35 292.85C106.35 291.85 104.85 291.85 104.85 292.85Z" fill="#E8E8E8"/>
<path d="M105.85 293.4C126.6 293.4 147.35 293.4 168.1 293.4C169.05 293.4 169.05 291.9 168.1 291.9C147.35 291.9 126.6 291.9 105.85 291.9C104.9 291.9 104.9 293.4 105.85 293.4Z" fill="#E8E8E8"/>
<path d="M168.25 292.65C168.25 322.85 168.25 353.05 168.25 383.3C168.25 384.25 169.75 384.25 169.75 383.3C169.75 353.1 169.75 322.9 169.75 292.65C169.75 291.65 168.25 291.65 168.25 292.65Z" fill="#E8E8E8"/>
<path d="M106.3 385.1C127.1 385.1 147.95 385.1 168.75 385.1C169.7 385.1 169.7 383.6 168.75 383.6C147.95 383.6 127.1 383.6 106.3 383.6C105.35 383.6 105.35 385.1 106.3 385.1Z" fill="#E8E8E8"/>
<path d="M163.4 300.3C162.65 300.1 161.85 299.5 161.9 298.6C161.95 297.6 162.95 297 163.85 297.4C164.6 297.75 165.2 298.6 165.05 299.4C165 300.15 164.05 300.8 163.4 300.3C162.65 299.65 161.55 300.7 162.3 301.35C163.55 302.35 165.4 302 166.25 300.6C167.15 299 166.15 296.95 164.65 296.15C163.05 295.3 161.1 296.1 160.55 297.85C160 299.6 161.3 301.35 163 301.75C163.95 301.95 164.35 300.5 163.4 300.3Z" fill="#E8E8E8"/>
<path d="M161.4 377.25C160.7 376.65 160.5 375.45 161.2 374.75C161.95 373.95 163.35 374.2 163.9 375.1C164.25 375.7 164.75 377.25 163.9 377.7C163.45 377.95 162.85 377.55 162.5 377.3C162 377 161.5 376.75 160.95 376.55C160.05 376.2 159.65 377.65 160.55 378C161.5 378.35 162.25 379.05 163.25 379.25C164.05 379.4 164.9 379.05 165.35 378.4C166.3 377 165.75 374.75 164.6 373.6C163.35 372.4 161.1 372.5 160 373.85C158.9 375.15 159.1 377.2 160.35 378.3C161.05 379 162.15 377.9 161.4 377.25Z" fill="#E8E8E8"/>
<path d="M109.8 298.85C122.25 298.8 134.7 298.8 147.1 298.75C148.05 298.75 148.05 297.25 147.1 297.25C134.65 297.3 122.2 297.3 109.8 297.35C108.85 297.35 108.85 298.85 109.8 298.85Z" fill="#E8E8E8"/>
<path d="M109.8 302.45C114.9 302.8 120.1 303.6 125.2 302.65C126.15 302.45 125.75 301.05 124.8 301.2C119.9 302.1 114.75 301.3 109.8 300.95C108.85 300.9 108.85 302.4 109.8 302.45Z" fill="#E8E8E8"/>
<path d="M110.55 378.9C110.15 378.75 110 378.2 110.05 377.8C110.15 377.25 110.7 377.05 111.2 377.15C111.85 377.25 112.35 377.7 112.4 378.35C112.45 378.85 111.85 379.65 111.3 379.2C110.55 378.6 109.5 379.65 110.25 380.25C111.45 381.2 113.25 380.75 113.8 379.25C114.3 377.8 113.4 376.2 111.95 375.75C110.65 375.35 109.1 375.9 108.7 377.25C108.3 378.5 108.95 379.9 110.2 380.3C111.1 380.65 111.5 379.25 110.55 378.9Z" fill="#E8E8E8"/>
<path d="M111.45 314.55C124.8 314.55 138.2 314.55 151.55 314.55C152.5 314.55 152.5 313.05 151.55 313.05C138.2 313.05 124.8 313.05 111.45 313.05C110.5 313.05 110.5 314.55 111.45 314.55Z" fill="#E8E8E8"/>
<path d="M113.7 319.5C124.2 319.5 134.75 319.5 145.25 319.5C146.2 319.5 146.2 318 145.25 318C134.75 318 124.2 318 113.7 318C112.75 318 112.75 319.5 113.7 319.5Z" fill="#E8E8E8"/>
<path d="M113.25 328.1C123.4 328.1 133.55 328.1 143.65 328.1C144.6 328.1 144.6 326.6 143.65 326.6C133.5 326.6 123.35 326.6 113.25 326.6C112.3 326.6 112.3 328.1 113.25 328.1Z" fill="#E8E8E8"/>
<path d="M103.75 250.9C103.75 248.65 103.75 246.4 103.75 244.15C103.75 243.2 102.25 243.2 102.25 244.15C102.25 246.4 102.25 248.65 102.25 250.9C102.25 251.85 103.75 251.85 103.75 250.9Z" fill="#E8E8E8"/>
<path d="M103.5 244C146 244 188.5 244 231 244C242.95 244 254.9 244 266.85 244C267.8 244 267.8 242.5 266.85 242.5C224.35 242.5 181.85 242.5 139.35 242.5C127.4 242.5 115.45 242.5 103.5 242.5C102.55 242.5 102.55 244 103.5 244Z" fill="#E8E8E8"/>
<path d="M103.15 251.8C145.75 251.8 188.35 251.8 230.95 251.8C243.05 251.8 255.15 251.8 267.25 251.8C268.2 251.8 268.2 250.3 267.25 250.3C224.65 250.3 182.05 250.3 139.45 250.3C127.35 250.3 115.25 250.3 103.15 250.3C102.15 250.3 102.15 251.8 103.15 251.8Z" fill="#E8E8E8"/>
<path d="M266.7 243.3C266.7 245.65 266.7 248 266.7 250.35C266.7 251.3 268.2 251.3 268.2 250.35C268.2 248 268.2 245.65 268.2 243.3C268.2 242.35 266.7 242.35 266.7 243.3Z" fill="#E8E8E8"/>
<path d="M183.6 242.85C183.6 239.2 183.6 235.6 183.6 231.95C183.6 231 182.1 231 182.1 231.95C182.1 235.6 182.1 239.2 182.1 242.85C182.1 243.8 183.6 243.8 183.6 242.85Z" fill="#E8E8E8"/>
<path d="M188.15 231C188.15 234.65 188.15 238.25 188.15 241.9C188.15 242.85 189.65 242.85 189.65 241.9C189.65 238.25 189.65 234.65 189.65 231C189.65 230 188.15 230 188.15 231Z" fill="#E8E8E8"/>
<path d="M188.95 231.75C200.55 231.75 212.15 231.75 223.8 231.75C224.75 231.75 224.75 230.25 223.8 230.25C212.2 230.25 200.6 230.25 188.95 230.25C188 230.25 188 231.75 188.95 231.75Z" fill="#E8E8E8"/>
<path d="M224.75 230.8C224.75 216.55 224.75 202.35 224.75 188.1C224.75 187.15 223.25 187.15 223.25 188.1C223.25 202.35 223.25 216.55 223.25 230.8C223.25 231.75 224.75 231.75 224.75 230.8Z" fill="#E8E8E8"/>
<path d="M224 187.25C199.7 187.25 175.4 187.25 151.1 187.25C150.15 187.25 150.15 188.75 151.1 188.75C175.4 188.75 199.7 188.75 224 188.75C224.95 188.75 224.95 187.25 224 187.25Z" fill="#E8E8E8"/>
<path d="M150 188.1C150 201.2 150 214.35 150 227.45C150 228.4 151.5 228.4 151.5 227.45C151.5 214.35 151.5 201.2 151.5 188.1C151.5 187.15 150 187.15 150 188.1Z" fill="#E8E8E8"/>
<path d="M182.75 231.05C172.15 231.05 161.55 231.05 151 231.05C150.05 231.05 150.05 232.55 151 232.55C161.6 232.55 172.2 232.55 182.75 232.55C183.7 232.55 183.7 231.05 182.75 231.05Z" fill="#E8E8E8"/>
<path d="M150 226.1C150 227.75 150 229.45 150 231.1C150 232.05 151.5 232.05 151.5 231.1C151.5 229.45 151.5 227.75 151.5 226.1C151.5 225.15 150 225.15 150 226.1Z" fill="#E8E8E8"/>
<path d="M154.35 191.45C154.35 203.3 154.35 215.15 154.35 227C154.35 227.95 155.85 227.95 155.85 227C155.85 215.15 155.85 203.3 155.85 191.45C155.85 190.5 154.35 190.5 154.35 191.45Z" fill="#E8E8E8"/>
<path d="M155.3 227.85C176.45 227.85 197.6 227.85 218.75 227.85C219.7 227.85 219.7 226.35 218.75 226.35C197.6 226.35 176.45 226.35 155.3 226.35C154.35 226.35 154.35 227.85 155.3 227.85Z" fill="#E8E8E8"/>
<path d="M219.75 226.35C219.75 215.15 219.75 203.9 219.75 192.7C219.75 191.75 218.25 191.75 218.25 192.7C218.25 203.9 218.25 215.15 218.25 226.35C218.25 227.3 219.75 227.3 219.75 226.35Z" fill="#E8E8E8"/>
<path d="M155.45 192.1C176.65 192.1 197.8 192.1 219 192.1C219.95 192.1 219.95 190.6 219 190.6C197.8 190.6 176.65 190.6 155.45 190.6C154.45 190.6 154.45 192.1 155.45 192.1Z" fill="#E8E8E8"/>
<path d="M218.1 192.1C218.1 192.2 218.1 192.3 218.1 192.45C218.1 192.85 218.45 193.2 218.85 193.2C219.25 193.2 219.6 192.85 219.6 192.45C219.6 192.35 219.6 192.25 219.6 192.1C219.6 191.7 219.25 191.35 218.85 191.35C218.45 191.4 218.1 191.7 218.1 192.1Z" fill="#E8E8E8"/>
<path d="M518.75 272.3C525.4 274.2 532.6 274.4 539.4 275.15C547.1 276 554.8 276.8 562.5 277.65C577.75 279.3 592.95 280.9 608.2 282.55C609.15 282.65 609.15 281.15 608.2 281.05C593.3 279.45 578.4 277.85 563.5 276.25C556.15 275.45 548.75 274.65 541.4 273.9C534.05 273.1 526.25 272.95 519.15 270.9C518.25 270.6 517.85 272.05 518.75 272.3Z" fill="black"/>
<path d="M625.7 249.25C620.8 260.4 615.05 271.15 608.5 281.45C608 282.25 609.3 283 609.8 282.2C616.35 271.9 622.1 261.15 627 250C627.4 249.15 626.1 248.4 625.7 249.25Z" fill="black"/>
<path d="M519.65 271.8C529.85 264.45 539.75 256.65 549.2 248.4C549.95 247.75 548.85 246.7 548.15 247.35C538.75 255.5 529 263.25 518.9 270.5C518.15 271.05 518.9 272.4 519.65 271.8Z" fill="black"/>
<path d="M549 248.2C561.7 246.7 574.55 247.7 587.3 248.35C600.25 249 613.25 249.65 626.2 250.3C627.15 250.35 627.15 248.85 626.2 248.8C613.25 248.15 600.25 247.5 587.3 246.85C574.55 246.2 561.7 245.2 549 246.7C548.05 246.8 548.05 248.3 549 248.2Z" fill="black"/>
<path d="M565.3 257.7C564.5 259.05 563.65 260.35 562.85 261.7C562.55 262.15 562.95 262.85 563.5 262.85C565.3 262.8 567.1 262.8 568.9 263.05C569.9 263.15 571.6 263.85 572.65 263.5C574.25 262.95 575.35 260 576 258.7C576.45 257.85 575.15 257.1 574.7 257.95C574.25 258.8 573.8 259.9 573.2 260.65C572.15 261.9 571.15 261.9 569.65 261.65C567.6 261.35 565.55 261.3 563.5 261.35C563.7 261.75 563.95 262.1 564.15 262.5C564.95 261.15 565.8 259.85 566.6 258.5C567.1 257.65 565.8 256.9 565.3 257.7Z" fill="#E8E8E8"/>
<path d="M566.3 258.45C569.2 257.7 572 257.7 574.8 258.9C575.7 259.3 576.45 258 575.55 257.6C572.35 256.2 569.2 256.1 565.85 257C564.95 257.25 565.35 258.7 566.3 258.45Z" fill="#E8E8E8"/>
<path d="M543.2 259.6C545.85 259.5 548.4 259.75 550.95 260.4C551.9 260.65 552.3 259.2 551.35 258.95C548.65 258.3 545.95 258 543.2 258.1C542.25 258.15 542.25 259.65 543.2 259.6Z" fill="#E8E8E8"/>
<path d="M543.5 258.95C545.1 257.2 546.8 255.55 548.55 253.95C549.25 253.3 548.2 252.25 547.5 252.9C545.75 254.5 544.1 256.2 542.45 257.9C541.8 258.6 542.85 259.7 543.5 258.95Z" fill="#E8E8E8"/>
<path d="M547.55 254C549.75 255.1 552.6 254.8 555.05 254.85C556 254.9 556 253.4 555.05 253.35C553 253.3 550.2 253.65 548.3 252.7C547.45 252.3 546.7 253.55 547.55 254Z" fill="#E8E8E8"/>
<path d="M553.95 253.9C552.75 255.55 551.55 257.25 550.45 259C549.95 259.8 551.25 260.55 551.75 259.75C552.85 258 554 256.3 555.25 254.65C555.8 253.85 554.5 253.1 553.95 253.9Z" fill="#E8E8E8"/>
<path d="M615.05 183.15C615.05 198.3 615.05 213.5 615.05 228.65C615.05 229.6 616.55 229.6 616.55 228.65C616.55 213.5 616.55 198.3 616.55 183.15C616.55 182.15 615.05 182.15 615.05 183.15Z" fill="#E8E8E8"/>
<path d="M616.15 229.4C638 229.4 659.9 229.4 681.75 229.4C682.7 229.4 682.7 227.9 681.75 227.9C659.9 227.9 638 227.9 616.15 227.9C615.15 227.9 615.15 229.4 616.15 229.4Z" fill="#E8E8E8"/>
<path d="M682.55 228.55C682.4 213.45 682.2 198.35 682.05 183.3C682.05 182.35 680.55 182.35 680.55 183.3C680.7 198.4 680.9 213.5 681.05 228.55C681.05 229.5 682.55 229.5 682.55 228.55Z" fill="#E8E8E8"/>
<path d="M616 183.5C637.45 183.5 658.9 183.5 680.3 183.5C681.25 183.5 681.25 182 680.3 182C658.85 182 637.4 182 616 182C615.05 182 615.05 183.5 616 183.5Z" fill="#E8E8E8"/>
<path d="M648.2 182.05C648 180.7 648.05 179.3 648.45 177.95C648.75 176.8 649.8 174.1 651.5 174.95C652.5 175.45 652.8 177.25 652.95 178.25C653.15 179.6 653.15 180.95 653 182.3C652.9 183.25 654.4 183.25 654.5 182.3C654.75 179.8 654.75 172.95 650.65 173.3C646.85 173.65 646.35 179.7 646.75 182.45C646.9 183.4 648.35 183 648.2 182.05Z" fill="#E8E8E8"/>
<path d="M537 99.4999C537 117.9 537 136.25 537 154.65C537 155.6 538.5 155.6 538.5 154.65C538.5 136.25 538.5 117.9 538.5 99.4999C538.5 98.5499 537 98.5499 537 99.4999Z" fill="#E8E8E8"/>
<path d="M538.2 155.4C564.7 155.4 591.15 155.4 617.65 155.4C618.6 155.4 618.6 153.9 617.65 153.9C591.15 153.9 564.7 153.9 538.2 153.9C537.25 153.9 537.25 155.4 538.2 155.4Z" fill="#E8E8E8"/>
<path d="M618.5 154.5C618.3 136.2 618.1 117.95 617.9 99.65C617.9 98.7 616.4 98.7 616.4 99.65C616.6 117.95 616.8 136.2 617 154.5C617 155.45 618.5 155.45 618.5 154.5Z" fill="#E8E8E8"/>
<path d="M538.05 99.7998C564 99.7998 590 99.7998 615.95 99.7998C616.9 99.7998 616.9 98.2998 615.95 98.2998C590 98.2998 564 98.2998 538.05 98.2998C537.1 98.2998 537.1 99.7998 538.05 99.7998Z" fill="#E8E8E8"/>
<path d="M576.9 98.2499C576.65 96.5499 576.75 94.8499 577.2 93.1999C577.6 91.7499 578.9 88.3499 581.15 89.4499C583.65 90.6999 583.3 96.2499 583.05 98.4499C582.95 99.3999 584.45 99.3999 584.55 98.4499C584.85 95.5499 584.9 87.2499 580.05 87.7499C575.55 88.1999 575 95.3999 575.5 98.6499C575.6 99.5999 577.05 99.1999 576.9 98.2499Z" fill="#E8E8E8"/>
<path d="M541.25 103.7C541.25 118.75 541.25 133.8 541.25 148.8C541.25 149.75 542.75 149.75 542.75 148.8C542.75 133.75 542.75 118.7 542.75 103.7C542.75 102.7 541.25 102.7 541.25 103.7Z" fill="#E8E8E8"/>
<path d="M542 150.55C565.4 150.55 588.8 150.55 612.2 150.55C613.15 150.55 613.15 149.05 612.2 149.05C588.8 149.05 565.4 149.05 542 149.05C541.05 149.05 541 150.55 542 150.55Z" fill="#E8E8E8"/>
<path d="M613.95 149.2C613.95 134.45 613.95 119.65 613.95 104.9C613.95 103.95 612.45 103.95 612.45 104.9C612.45 119.65 612.45 134.45 612.45 149.2C612.45 150.15 613.95 150.15 613.95 149.2Z" fill="#E8E8E8"/>
<path d="M542.6 104.25C566 104.25 589.4 104.25 612.8 104.25C613.75 104.25 613.75 102.75 612.8 102.75C589.4 102.75 566 102.75 542.6 102.75C541.65 102.75 541.65 104.25 542.6 104.25Z" fill="#E8E8E8"/>
<path d="M550.4 360.7C574.55 360.7 598.7 360.7 622.85 360.7C623.8 360.7 623.8 359.2 622.85 359.2C598.7 359.2 574.55 359.2 550.4 359.2C549.4 359.2 549.4 360.7 550.4 360.7Z" fill="#E8E8E8"/>
<path d="M584.8 362.05C584.8 366.65 584.8 371.25 584.8 375.85C584.8 376.8 586.3 376.8 586.3 375.85C586.3 371.25 586.3 366.65 586.3 362.05C586.3 361.05 584.8 361.05 584.8 362.05Z" fill="#E8E8E8"/>
<path d="M573.85 378.65C585.8 378.65 597.75 378.65 609.75 378.65C610.7 378.65 610.7 377.15 609.75 377.15C597.8 377.15 585.85 377.15 573.85 377.15C572.9 377.15 572.85 378.65 573.85 378.65Z" fill="#E8E8E8"/>
<path d="M203.2 326.85C203.2 343.4 203.2 360 203.2 376.55C203.2 377.5 204.7 377.5 204.7 376.55C204.7 360 204.7 343.4 204.7 326.85C204.7 325.9 203.2 325.9 203.2 326.85Z" fill="#E8E8E8"/>
<path d="M203.95 327.6C228.35 327.6 252.7 327.6 277.1 327.6C278.05 327.6 278.05 326.1 277.1 326.1C252.7 326.1 228.35 326.1 203.95 326.1C202.95 326.1 202.95 327.6 203.95 327.6Z" fill="#E8E8E8"/>
<path d="M204 377.65C228.5 377.6 253 377.6 277.5 377.55C278.45 377.55 278.45 376.05 277.5 376.05C253 376.1 228.5 376.1 204 376.15C203.05 376.15 203.05 377.65 204 377.65Z" fill="#E8E8E8"/>
<path d="M276.8 327.05C276.8 343.25 276.8 359.45 276.8 375.7C276.8 376.65 278.3 376.65 278.3 375.7C278.3 359.5 278.3 343.3 278.3 327.05C278.3 326.1 276.8 326.1 276.8 327.05Z" fill="#E8E8E8"/>
<path d="M209.5 333.8C208.45 333.2 208.7 331.5 210 331.45C211.75 331.4 210.7 334.4 209.55 333.65C208.75 333.1 208 334.4 208.8 334.95C211.6 336.85 214.15 331.2 210.85 330.1C209.55 329.65 208.05 330.4 207.5 331.65C206.95 332.95 207.55 334.4 208.7 335.1C209.6 335.6 210.35 334.3 209.5 333.8Z" fill="#E8E8E8"/>
<path d="M212.75 339.35C227.15 339.35 241.55 339.35 255.95 339.35C256.9 339.35 256.9 337.85 255.95 337.85C241.55 337.85 227.15 337.85 212.75 337.85C211.75 337.85 211.75 339.35 212.75 339.35Z" fill="#E8E8E8"/>
<path d="M213.4 344.65C221.7 344.65 230 344.65 238.3 344.65C239.25 344.65 239.25 343.15 238.3 343.15C230 343.15 221.7 343.15 213.4 343.15C212.4 343.15 212.4 344.65 213.4 344.65Z" fill="#E8E8E8"/>
<path d="M214.8 376.3C214.8 371 214.8 365.65 214.8 360.35C214.8 359.4 213.3 359.4 213.3 360.35C213.3 365.65 213.3 371 213.3 376.3C213.3 377.25 214.8 377.25 214.8 376.3Z" fill="#E8E8E8"/>
<path d="M214.2 360.6C226.25 360.6 238.35 360.6 250.4 360.6C251.35 360.6 251.35 359.1 250.4 359.1C238.35 359.1 226.25 359.1 214.2 359.1C213.25 359.1 213.25 360.6 214.2 360.6Z" fill="#E8E8E8"/>
<path d="M249.65 360.2C249.65 365.45 249.65 370.7 249.65 376C249.65 376.95 251.15 376.95 251.15 376C251.15 370.75 251.15 365.5 251.15 360.2C251.15 359.2 249.65 359.2 249.65 360.2Z" fill="#E8E8E8"/>
<path d="M221.6 376.1C221.6 372.6 221.6 369.1 221.6 365.65C221.6 364.7 220.1 364.7 220.1 365.65C220.1 369.15 220.1 372.65 220.1 376.1C220.1 377.1 221.6 377.1 221.6 376.1Z" fill="#E8E8E8"/>
<path d="M227.6 376.1C227.6 372.6 227.6 369.1 227.6 365.65C227.6 364.7 226.1 364.7 226.1 365.65C226.1 369.15 226.1 372.65 226.1 376.1C226.1 377.1 227.6 377.1 227.6 376.1Z" fill="#E8E8E8"/>
<path d="M233.4 375.95C233.4 372.75 233.4 369.55 233.4 366.3C233.4 365.35 231.9 365.35 231.9 366.3C231.9 369.5 231.9 372.7 231.9 375.95C231.9 376.9 233.4 376.9 233.4 375.95Z" fill="#E8E8E8"/>
<path d="M239.4 376.45C239.4 373.15 239.4 369.8 239.4 366.5C239.4 365.55 237.9 365.55 237.9 366.5C237.9 369.8 237.9 373.15 237.9 376.45C237.9 377.4 239.4 377.4 239.4 376.45Z" fill="#E8E8E8"/>
<path d="M245.85 375.6C245.85 372.5 245.85 369.4 245.85 366.3C245.85 365.35 244.35 365.35 244.35 366.3C244.35 369.4 244.35 372.5 244.35 375.6C244.35 376.6 245.85 376.6 245.85 375.6Z" fill="#E8E8E8"/>
<path d="M272.55 331.85C271.95 331.6 271.85 330.55 272.55 330.3C272.85 330.2 273.35 330.25 273.45 330.6C273.55 330.8 273.35 331.3 273.05 331.25C272.65 331.2 272.25 331.35 272.15 331.75C272.05 332.1 272.25 332.6 272.65 332.65C273.85 332.85 274.9 331.95 274.95 330.75C275 329.6 273.9 328.7 272.8 328.7C271.7 328.7 270.8 329.4 270.55 330.5C270.35 331.5 270.75 332.65 271.7 333.1C272.65 333.55 273.4 332.25 272.55 331.85Z" fill="#E8E8E8"/>
<path d="M525.7 317.55C529.428 317.55 532.45 314.528 532.45 310.8C532.45 307.072 529.428 304.05 525.7 304.05C521.972 304.05 518.95 307.072 518.95 310.8C518.95 314.528 521.972 317.55 525.7 317.55Z" fill="#383838"/>
<path d="M539.05 302.75C541.011 302.75 542.6 301.161 542.6 299.2C542.6 297.239 541.011 295.65 539.05 295.65C537.089 295.65 535.5 297.239 535.5 299.2C535.5 301.161 537.089 302.75 539.05 302.75Z" fill="#383838"/>
<path d="M466.6 67.0001C471.405 67.0001 475.3 63.105 475.3 58.3001C475.3 53.4952 471.405 49.6001 466.6 49.6001C461.795 49.6001 457.9 53.4952 457.9 58.3001C457.9 63.105 461.795 67.0001 466.6 67.0001Z" fill="#606060"/>
<path d="M202.9 283.9C205.523 283.9 207.65 281.773 207.65 279.15C207.65 276.527 205.523 274.4 202.9 274.4C200.277 274.4 198.15 276.527 198.15 279.15C198.15 281.773 200.277 283.9 202.9 283.9Z" fill="#606060"/>
<path d="M209.1 274.3C211.917 274.3 214.2 272.017 214.2 269.2C214.2 266.383 211.917 264.1 209.1 264.1C206.283 264.1 204 266.383 204 269.2C204 272.017 206.283 274.3 209.1 274.3Z" fill="#383838"/>
<path d="M458.25 64.8001C462.447 64.8001 465.85 61.3975 465.85 57.2001C465.85 53.0027 462.447 49.6001 458.25 49.6001C454.053 49.6001 450.65 53.0027 450.65 57.2001C450.65 61.3975 454.053 64.8001 458.25 64.8001Z" fill="#383838"/>
<path d="M484.75 172.4C484.85 171.35 485.35 170.9 486.2 170.95C486.65 170.85 487.15 170.8 487.6 170.9C488.15 170.9 488.7 171 489.2 170.9C490 170.75 490.7 170.5 491.25 169.9C491.8 169.25 491.9 168.45 492.05 167.65C492.5 165 494.4 165.9 496.15 166.35C498.1 166.85 499.7 166.4 501 164.85C501.7 164 502.15 162.95 502.65 161.95C503.25 160.75 506.15 157.05 507.15 160.05C507.45 160.95 508.9 160.55 508.6 159.65C507.8 157.3 504.95 157.05 503.2 158.55C501.65 159.9 501.25 162 500.05 163.55C498 166.3 495.85 164 493.25 164.1C492.2 164.15 491.4 164.7 490.95 165.65C490.25 167.1 491 167.75 489.4 168.75C487.95 169.7 487.55 169.15 486 169.35C484 169.65 481.9 172.15 484.05 173.65C484.75 174.25 485.5 172.95 484.75 172.4Z" fill="#2B2B2B"/>
<path d="M491.4 176.55C490.6 175.5 490.9 174.95 492.25 174.8C493.05 174.15 493.95 174.05 494.9 174.45C495.35 174.5 495.85 174.6 496.3 174.65C497.45 174.75 498.35 174.55 499.35 174.1C499.75 173.9 499.8 173.4 499.6 173.05C497.85 169.5 503.3 168.9 505.15 168.8C506.7 168.75 508.25 168.8 509.75 168.25C511.65 167.5 512.95 166.15 513.15 164.1C513.25 163.15 511.75 163.15 511.65 164.1C511.2 168.95 503.2 166.5 500.3 168.3C498.3 169.5 497.3 171.7 498.35 173.85C498.45 173.5 498.55 173.15 498.6 172.8C496.05 174 492.25 171.4 490.1 173.95C489.05 175.2 489.2 177 490.6 177.9C491.5 178.35 492.25 177.05 491.4 176.55Z" fill="#2B2B2B"/>
<path d="M308.85 80.8001C307.7 76.4001 313.05 72.7501 316.4 76.3501C319.75 79.9501 315.7 85.0001 311.4 83.5501C310.5 83.2501 310.1 84.7001 311 85.0001C316.8 86.9501 321.8 79.9001 317.45 75.3001C313.1 70.6501 305.85 75.3501 307.4 81.2001C307.65 82.1501 309.1 81.7501 308.85 80.8001Z" fill="#515151"/>
<path d="M309.95 443.45C313.95 450.2 321.5 454.2 329.35 453.65C330.3 453.6 330.3 452.1 329.35 452.15C322 452.65 315 449 311.25 442.7C310.75 441.85 309.45 442.6 309.95 443.45Z" fill="#515151"/>
<path d="M306.9 452.05C312.15 457.45 319.1 460.6 326.65 460.95C327.6 461 327.6 459.5 326.65 459.45C319.5 459.1 312.95 456.1 307.95 450.95C307.3 450.3 306.2 451.4 306.9 452.05Z" fill="#515151"/>
<path d="M643.85 110.05C640.55 114.2 643.95 120.85 649.3 120.25C651.9 119.95 655.15 118.4 656.2 121.95C656.7 123.6 656.4 125.4 656.8 127.05C657.35 129.45 659.3 132 662 131.1C662.9 130.8 662.5 129.35 661.6 129.65C657.95 130.85 658.2 124.5 657.85 122.45C657.55 120.65 656.8 118.95 655 118.3C652.4 117.35 649.7 119.5 647.15 118.55C644.3 117.5 643 113.5 644.95 111.1C645.5 110.4 644.45 109.3 643.85 110.05Z" fill="#E8E8E8"/>
<path d="M636.9 120.2C635.65 122.25 636.6 124.4 638.35 125.85C640.6 127.65 643.15 127.5 645.9 127.75C648.25 127.95 650.1 128.6 651.35 130.7C652.2 132.15 652.5 133.85 653.4 135.25C654.65 137.15 656.85 138.55 659.1 137.6C660 137.25 659.6 135.8 658.7 136.15C655.5 137.5 654.15 133.35 653.25 131.25C652.5 129.45 651.5 127.95 649.65 127.1C648.05 126.35 646.2 126.3 644.45 126.2C642.2 126.05 635.95 124.75 638.2 121C638.7 120.15 637.4 119.4 636.9 120.2Z" fill="#E8E8E8"/>
<path d="M128.4 406.9C129.05 405.2 129.9 404.7 130.9 405.45C131.3 405.6 131.7 405.85 132 406.15C132.6 406.6 133.1 407.1 133.7 407.55C134.4 408.05 135.2 408.6 136.05 408.8C137.45 409.15 138.7 408.7 139.7 407.7C140.85 406.55 141.15 404.4 142.45 403.4C143.7 402.45 144.5 403.95 145.4 404.8C146.3 405.6 147.25 406.35 148.2 407.05C149 407.6 149.75 406.3 148.95 405.75C147.15 404.45 145.55 402.95 144.05 401.3C143.9 401.1 143.55 401.05 143.3 401.1C141.7 401.6 140.85 402.85 140.05 404.3C139.35 405.6 138.95 406.7 137.4 407.1C135.4 407.6 134.25 405.95 132.75 404.85C131.25 403.75 129.35 402.95 127.7 404.25C126.6 405.15 126.3 406.4 126.95 407.65C127.6 408.5 128.9 407.75 128.4 406.9Z" fill="#E8E8E8"/>
<path d="M128.85 413.65C129.4 416.3 131.9 418.4 134.7 418C136.3 417.8 137.4 416.7 138.75 415.9C141.2 414.4 143.9 414.4 146.3 415.95C147.1 416.45 147.85 415.15 147.05 414.65C144.75 413.2 142 412.75 139.4 413.8C138.2 414.3 137.3 415.15 136.2 415.8C133.75 417.2 130.85 416.1 130.25 413.2C130.1 412.3 128.65 412.7 128.85 413.65Z" fill="#E8E8E8"/>
<path d="M226.65 58.15C230.75 58.55 234.25 61.05 236.1 64.7C236.55 65.55 237.85 64.8 237.4 63.95C235.3 59.8 231.3 57.1 226.65 56.65C225.7 56.55 225.7 58.05 226.65 58.15Z" fill="#161616"/>
<path d="M227.05 43.6499C233.85 46.8999 239.2 52.4499 242.1 59.3999C242.45 60.2999 243.9 59.8999 243.55 58.9999C240.5 51.6499 234.95 45.7499 227.8 42.3499C226.95 41.9499 226.2 43.2499 227.05 43.6499Z" fill="#161616"/>
<path d="M243.2 41.85C246.3 45.35 247.85 49.65 247.8 54.35C247.8 55.3 249.3 55.3 249.3 54.35C249.35 49.3 247.6 44.6 244.25 40.8C243.65 40.05 242.6 41.1 243.2 41.85Z" fill="#161616"/>
<path d="M471.45 462.85C470.8 458.4 475.8 454.25 479.55 457.85C483 461.15 478.75 466.5 474.9 464C474.1 463.45 473.35 464.75 474.15 465.3C479.2 468.6 485.05 461.85 481.05 457.25C476.4 451.85 469.15 457.15 470 463.3C470.15 464.2 471.6 463.8 471.45 462.85Z" fill="#2B2B2B"/>
<path d="M477.6 439.3C476.8 436.75 480.1 434.7 481.75 437C483.25 439.1 480.75 441.55 478.6 440.45C477.75 440 477 441.3 477.85 441.75C481.5 443.65 485.5 439.35 482.85 436C480.15 432.55 474.9 435.65 476.15 439.7C476.45 440.6 477.9 440.25 477.6 439.3Z" fill="#2B2B2B"/>
<path d="M397.4 459C395.8 459.1 394.65 459.9 392.4 461.5C389.8 463.35 386.65 466.05 383.65 469.95C384.8 475 386.55 480.8 389.3 486.85C396.85 503.55 408.05 514.35 415.6 520.35C416.65 519.1 418.1 517.1 418.75 514.4C419.65 510.65 418.65 507.55 418.1 505.95C416.25 500 415 493.85 413.4 487.8C410.05 475.25 411.75 473.85 408.4 468.05C407.35 466.3 402.85 458.6 397.4 459Z" fill="#161616"/>
<path d="M433.4 317.45C435.2 321.05 437.35 325.9 439.35 331.85C444.25 346.5 444.85 358.55 445 362.55C445.15 367.55 445.25 382.2 439.35 399.8C432.65 419.75 421.95 432.6 414.9 440.8C407.95 448.95 401.25 454.95 396.4 458.95C396.4 460.15 396.6 462.4 397.95 464.6C401.2 469.7 407.85 469.6 408.3 469.6C412.35 466.75 417.35 462.9 422.7 458C431.9 449.6 437.85 442.05 440.25 438.9C444.3 433.6 451.6 423.8 457.45 409.15C463.8 393.3 465.55 378.95 465.9 369.05C466.3 358.3 465.1 350.7 463.4 339.95C460.65 322.3 457.15 315.15 454.65 310.85C452.35 306.95 450.05 304 448.4 302.1C443.4 307.2 438.4 312.3 433.4 317.45Z" fill="white"/>
<path d="M432.95 319.5C443 338.65 446.65 361.05 443.1 382.4C439.85 401.9 430.7 420 418.5 435.4C411.75 443.9 404.1 451.6 395.8 458.55C395.05 459.15 396.15 460.25 396.85 459.6C412.15 446.7 425.5 431.2 434.5 413.3C443.9 394.55 447.8 373.6 445.05 352.75C443.5 340.9 439.85 329.35 434.3 318.75C433.8 317.9 432.5 318.65 432.95 319.5Z" fill="#161616"/>
<path d="M451 305.7C462.3 326.8 466.85 351.25 464.6 375.05C462.3 399.55 452.5 422.3 437 441.3C428.4 451.85 418.45 461.15 407.75 469.55C407 470.15 408.05 471.2 408.8 470.6C428.2 455.35 445.55 436.65 455.85 414C465.8 392.15 468.75 367.35 465.15 343.7C463.05 330.15 458.75 317 452.3 304.95C451.85 304.1 450.55 304.85 451 305.7Z" fill="#161616"/>
<path d="M395.4 458.95C396.25 465.7 401.8 473 409.35 470.1C410.25 469.75 409.85 468.3 408.95 468.65C402.35 471.2 397.65 464.8 396.9 458.95C396.8 458 395.3 458 395.4 458.95Z" fill="#161616"/>
<path d="M394.95 458.8C390.15 461.3 386.2 464.85 383.1 469.25C382.55 470.05 383.85 470.8 384.4 470C387.35 465.8 391.2 462.45 395.7 460.1C396.55 459.65 395.8 458.35 394.95 458.8Z" fill="#161616"/>
<path d="M383.25 470.6C387.85 490.2 398.9 508.05 414.8 520.5C415.55 521.1 416.6 520.05 415.85 519.45C400.15 507.15 389.25 489.6 384.7 470.2C384.45 469.25 383 469.65 383.25 470.6Z" fill="#161616"/>
<path d="M408.05 470.3C410.25 478.6 412.5 486.85 414.7 495.15C416.75 502.7 421 512.95 415.1 519.8C414.45 520.55 415.55 521.6 416.15 520.85C421.65 514.45 419.15 505.85 417.2 498.55C414.65 489 412.05 479.45 409.5 469.9C409.25 468.95 407.8 469.35 408.05 470.3Z" fill="#161616"/>
<path d="M439.15 329.95C443.05 323.4 450.25 319.5 457.85 319.8C458.8 319.85 458.8 318.35 457.85 318.3C449.7 318 442 322.2 437.85 329.2C437.35 330 438.65 330.75 439.15 329.95Z" fill="#161616"/>
<path d="M444.75 351.55C447.95 347.65 452.25 345.25 457.2 344.45C458.15 344.3 457.75 342.85 456.8 343C451.6 343.8 447 346.45 443.7 350.5C443.1 351.25 444.15 352.3 444.75 351.55Z" fill="#161616"/>
<path d="M447.15 336.45C451.15 333.1 456.1 331.45 461.25 331.65C462.2 331.7 462.2 330.2 461.25 330.15C455.65 329.95 450.35 331.8 446.05 335.4C445.35 336 446.4 337.05 447.15 336.45Z" fill="#161616"/>
<path d="M445.3 379.95C447.4 377.3 451.15 377.35 454.25 377.45C458 377.6 462.65 378.9 463.2 383.3C463.3 384.25 464.8 384.25 464.7 383.3C464.15 379 460.45 376.7 456.45 376.15C452.55 375.6 446.95 375.5 444.25 378.95C443.65 379.65 444.7 380.75 445.3 379.95Z" fill="#161616"/>
<path d="M405.15 451C405.5 456.8 408.35 464.35 415 465.1C415.95 465.2 415.95 463.7 415 463.6C409.3 462.95 406.95 455.9 406.65 451C406.6 450.05 405.1 450.05 405.15 451Z" fill="#161616"/>
<path d="M415.15 440.75C416.05 445.15 418.5 448.85 422.15 451.5C422.95 452.05 423.7 450.75 422.9 450.2C419.6 447.8 417.45 444.35 416.6 440.35C416.4 439.4 414.95 439.8 415.15 440.75Z" fill="#161616"/>
<path d="M423.65 440.25C426 443.25 428.65 446.3 432.55 447.05C433.5 447.25 433.9 445.8 432.95 445.6C429.3 444.9 426.9 441.95 424.7 439.15C424.1 438.4 423.05 439.5 423.65 440.25Z" fill="#161616"/>
<path d="M435 411.5C441.45 411.25 447.55 413.5 452.35 417.85C453.05 418.5 454.15 417.45 453.4 416.8C448.35 412.2 441.85 409.75 435 410.05C434.05 410.05 434.05 411.55 435 411.5Z" fill="#161616"/>
<path d="M444.6 397.75C448.35 397.4 451.9 398.4 454.9 400.75C455.65 401.35 456.7 400.3 455.95 399.7C452.7 397.1 448.75 395.9 444.6 396.25C443.65 396.3 443.65 397.8 444.6 397.75Z" fill="#161616"/>
<path opacity="0.13" d="M447.55 309.65C449.65 316.1 452.2 325.2 454.05 336.35C455.9 347.6 458.35 362.15 455.85 379.65C453.4 396.95 447.3 409.15 442.85 417.9C431.15 440.9 415.3 457.35 401.7 468.45C399.65 465.2 397.6 461.95 395.55 458.7C399.5 456.2 405.05 452.25 410.7 446.45C416.1 440.9 419.3 436.05 424.05 428.75C430.05 419.55 433.2 414.7 436.3 407.8C444.05 390.6 444.85 375.3 444.95 371.35C445.4 358.75 443.1 349.05 440.6 338.5C438.8 330.9 436.8 324.65 435.2 320.1C439.4 316.65 443.5 313.15 447.55 309.65Z" fill="#666666"/>
<path opacity="0.13" d="M443.6 319.8C444.65 322.55 446.05 326.5 447.2 331.35C449.1 339.25 449.9 347.15 449.75 356.6C449.45 374.45 449.15 390.9 442.55 408.2C431.3 437.55 407.7 454.05 396.35 460.9C401.65 455.25 408.95 447.1 416.9 436.7C426.6 424.15 431.4 417.85 435.3 410C448.7 383 445.15 356.35 443.95 349C442.2 338.2 439 329.6 436.35 323.75C438.8 322.45 441.2 321.1 443.6 319.8Z" fill="#666666"/>
<path d="M365.15 329.65C363.05 332.05 363.15 334.8 362.35 345.3C361.2 360.5 360.75 357.35 360.15 367.55C358.25 400.35 361.1 429.25 361.1 429.25C361.95 438.15 365 465.55 373.3 494.1C377.6 508.85 384.9 529.2 385.2 530.1C387.35 536.1 389.2 541.1 390.5 544.5C390.8 544.7 398.45 549 403.95 545.45C404.8 544.9 407.15 543.35 407.7 540.45C408.15 538.05 407.15 536.1 406.75 535.45C405.1 530.45 402.7 523 400.15 513.85C395.9 498.55 389.7 475.6 387.3 445.9C386.4 434.55 386.4 426.45 386.35 412.7C386.35 399.55 386.35 384.85 388.25 366.05C389.15 357.05 390.7 344.85 393.55 330.35C386.5 327.7 371 323.05 365.15 329.65Z" fill="white"/>
<path d="M390.35 545.5C391.1 547.45 391.95 550.15 392.2 553.45C392.45 556 392.3 558.25 392.05 560C396.25 562.35 399.8 563.65 402.35 564.35C403.95 564.8 405.65 565.2 408.6 565.9C412 566.7 414.6 567.25 415.6 567.45C426.1 569.65 431.4 570.75 437.6 571.2C440.1 571.4 443.85 571.55 448.5 571.35C449.4 569.9 451.2 566.55 450.05 563.4C449.15 560.9 446.9 559.7 442.85 557.65C434.4 553.3 430.15 551.15 430.05 551.1C424.85 549.05 417.5 545.3 408.35 537.85C407.6 539.2 405.55 542.25 401.65 544.25C396.6 546.85 391.7 545.8 390.35 545.5Z" fill="#161616"/>
<path d="M361.85 341.65C354.8 395.45 359.25 450.6 374.7 502.55C379.05 517.1 384.25 531.4 390.25 545.35C390.65 546.25 391.9 545.45 391.55 544.6C370.15 494.95 359.45 440.9 360.1 386.85C360.3 371.75 361.4 356.6 363.35 341.65C363.45 340.7 361.95 340.75 361.85 341.65Z" fill="#161616"/>
<path d="M389.15 346.85C383.85 396.5 383.9 447.3 394.7 496.25C397.75 510 401.65 523.5 406.4 536.7C406.75 537.6 408.2 537.2 407.85 536.3C390.8 489.3 385.7 438.85 387.55 389.1C388.05 375 389.15 360.9 390.65 346.85C390.75 345.85 389.25 345.85 389.15 346.85Z" fill="#161616"/>
<path d="M390.95 545.65C397.7 547.7 405.25 544.3 408.15 537.8C408.55 536.95 407.25 536.15 406.85 537.05C404.25 542.9 397.5 546.05 391.35 544.2C390.45 543.9 390.05 545.35 390.95 545.65Z" fill="#161616"/>
<path d="M389.95 545.5C391.1 549.6 391.65 553.8 391.55 558.05C391.55 559 393.05 559 393.05 558.05C393.15 553.65 392.6 549.35 391.4 545.1C391.15 544.15 389.7 544.55 389.95 545.5Z" fill="#161616"/>
<path d="M391.6 559.55C398.6 565.05 408.25 566 416.7 567.8C426.85 569.95 437.25 572.9 447.7 572.25C448.65 572.2 448.65 570.7 447.7 570.75C437.7 571.35 427.8 568.6 418.05 566.55C409.65 564.8 399.6 564 392.65 558.5C391.9 557.9 390.85 558.95 391.6 559.55Z" fill="#161616"/>
<path d="M408.05 538.15C414.65 544.15 422.45 548.4 430.4 552.35C434.45 554.35 438.5 556.25 442.5 558.3C444.5 559.3 446.65 560.35 448.1 562.1C450.35 564.85 449.1 568.3 447.85 571.25C447.5 572.15 448.75 572.9 449.15 572C450.7 568.3 452.05 564.15 449 560.85C445.9 557.4 440.55 555.65 436.45 553.65C426.85 549 417.1 544.3 409.1 537.1C408.4 536.45 407.35 537.5 408.05 538.15Z" fill="#161616"/>
<path d="M360.05 368.5C368.45 372.85 378.15 373.8 387.25 371.15C388.15 370.9 387.8 369.45 386.85 369.7C378.15 372.25 368.85 371.4 360.8 367.2C359.95 366.75 359.2 368.05 360.05 368.5Z" fill="#161616"/>
<path d="M359.45 383.85C364.7 386.2 370.25 387.1 376 386.4C376.95 386.3 376.95 384.8 376 384.9C370.6 385.6 365.2 384.8 360.2 382.55C359.35 382.15 358.6 383.45 359.45 383.85Z" fill="#161616"/>
<path d="M359.75 418.2C363.55 420.8 368.1 421.45 372.65 420.95C377.25 420.45 382.9 419.4 386.85 416.95C387.65 416.45 386.9 415.15 386.1 415.65C382.4 417.95 376.95 418.95 372.65 419.45C368.4 419.95 364.1 419.35 360.5 416.9C359.7 416.35 358.95 417.65 359.75 418.2Z" fill="#161616"/>
<path d="M362.5 440C370.7 443.3 380 442.55 387.6 438C388.45 437.5 387.7 436.2 386.85 436.7C379.55 441.05 370.75 441.7 362.9 438.55C362 438.2 361.65 439.65 362.5 440Z" fill="#161616"/>
<path d="M370.15 481.25C377.9 484 385.45 480.5 392 476.5C392.8 476 392.05 474.7 391.25 475.2C385 479 377.9 482.4 370.55 479.8C369.65 479.5 369.25 480.95 370.15 481.25Z" fill="#161616"/>
<path d="M395.7 501.4C393.2 504.15 390.1 506 386.55 506.9C385.6 507.15 386 508.6 386.95 508.35C390.8 507.4 394.15 505.4 396.8 502.5C397.4 501.75 396.35 500.7 395.7 501.4Z" fill="#161616"/>
<path d="M383.3 526.1C386.55 525.6 389.6 524.55 392.45 522.95C393.3 522.45 392.55 521.2 391.7 521.65C388.95 523.2 386.05 524.2 382.95 524.65C381.95 524.8 382.35 526.25 383.3 526.1Z" fill="#161616"/>
<path opacity="0.11" d="M381.15 336.75C379.2 343.55 376.8 353.45 375.4 365.6C373.4 382.9 374.45 395.85 375.75 410.7C380.35 461.85 382.75 487.8 388.4 504.55C393.8 520.55 400.1 532.95 404.65 541C404.45 541.25 400.15 546.4 394.55 545.35C392.55 544.95 391.1 543.95 390.2 543.2C386.25 534.25 381.05 521.45 376.1 505.65C372 492.55 359.6 450.45 359.15 393.05C359.05 378.9 359.6 360.05 362.4 337.85C368.65 337.45 374.9 337.1 381.15 336.75Z" fill="#666666"/>
<path opacity="0.11" d="M362.4 349.75C363.1 376.85 365.1 399.65 367.1 416.9C370.5 446.8 373 467.4 381.2 493.4C387.8 514.4 395.7 531.05 401.75 542.5C398.15 543.1 394.55 543.7 390.9 544.3C387.45 536.95 384.2 529.25 381.15 521.2C357.3 458.05 356.55 397.35 362.4 349.75Z" fill="#666666"/>
<path d="M462.9 190.7C461.9 191.35 460.65 193.05 461.3 199C462.25 207.4 465.8 213.65 466.05 214.05C479.3 237.25 476.2 234.6 480.3 239.8C485.2 245.95 492.1 254.65 504.3 260C509.55 262.3 516.65 265.45 524.5 263.35C531.2 261.6 536.4 257.8 536.4 257.8C538.35 256.35 540.4 254.5 544.15 252.65C546.3 251.55 548.2 250.9 549.5 250.45C550.4 250.95 551.75 251.55 553.45 251.65C556.05 251.8 556.85 250.7 559.6 250.45C560 250.4 563.25 250.2 566.35 251.85C569.55 253.55 570.15 255.95 571.5 255.6C572.95 255.25 573.45 252.2 573.5 250.65C573.55 248.35 572.65 246.65 572.1 245.7C570.8 243.3 568.9 241.9 567.75 241.15C567.55 240.35 567 238.7 565.55 237.2C563.8 235.35 561.8 234.8 561 234.6C560.85 233.8 560.5 232.65 559.6 231.65C557.2 228.95 553 229.7 551.85 229.85C547.85 230.55 545.45 233.3 544.7 234.2C544.2 233.9 542.85 233.2 541.15 233.4C538.95 233.7 537.7 235.35 537.2 236C535.2 238.6 535.7 241.7 535.8 242.35C532.5 242.7 530.05 243.6 528.45 244.35C525.4 245.8 524.4 247.2 521.5 248.3C520.05 248.85 517.55 249.75 514.55 249.3C511.95 248.9 510.1 247.7 509 246.9C500.25 240.65 494.95 232.65 494.95 232.65C479.9 210 481.4 213.15 479.9 210.25C475 200.9 471.6 191.35 466.05 190.25C465.6 190.2 464.1 189.9 462.9 190.7Z" fill="white"/>
<path d="M468.75 190.4C475.3 204.85 483.55 218.55 493.3 231.1C501.6 241.8 512.65 255.35 527.95 252.45C528.9 252.25 528.5 250.8 527.55 251C511.9 253.95 500.45 238.25 492.35 227.35C483.6 215.65 476.15 203 470.1 189.65C469.65 188.75 468.35 189.5 468.75 190.4Z" fill="#161616"/>
<path d="M512 249.25C514.15 249.75 516.35 250.25 518.55 249.9C520.7 249.55 522.55 248.4 524.4 247.35C529.4 244.55 534.85 243.05 540.6 242.95C541.55 242.95 541.55 241.45 540.6 241.45C536.1 241.55 531.65 242.4 527.45 244.15C525.4 245 523.55 246.2 521.6 247.2C518.5 248.8 515.7 248.6 512.4 247.8C511.45 247.6 511.05 249 512 249.25Z" fill="#161616"/>
<path d="M463.05 209.2C469.75 223.45 476.65 238.05 487.95 249.3C497.85 259.1 512.55 267.35 526.8 263.2C530.65 262.1 534.25 260.2 537.6 258.05C541.35 255.6 545 251.85 549.75 251.8C550.7 251.8 550.7 250.3 549.75 250.3C543.3 250.4 538.25 256.3 532.8 259.15C525.2 263.1 517.2 263.8 509.05 261.1C494.9 256.4 484.3 244.8 476.65 232.45C471.95 224.8 468.1 216.65 464.3 208.5C463.95 207.55 462.65 208.35 463.05 209.2Z" fill="#161616"/>
<path d="M540.35 242.5C544.85 242.7 551.4 245 550.1 250.8C549.9 251.75 551.35 252.15 551.55 251.2C553.1 244.35 545.9 241.25 540.35 241C539.4 240.95 539.4 242.45 540.35 242.5Z" fill="#161616"/>
<path d="M536.8 241.75C537.15 239.95 537.3 238.05 537.9 236.35C538.75 233.9 542.25 234.5 544.3 234.85C545.25 235 545.65 233.55 544.7 233.4C542.6 233.05 539.3 232.45 537.55 234.1C535.8 235.75 535.8 239.2 535.35 241.4C535.15 242.3 536.6 242.7 536.8 241.75Z" fill="#161616"/>
<path d="M541.75 237.65C544.45 236 546.95 234.15 549.45 232.25C551.3 230.85 553.2 229.85 555.6 230.4C557.85 230.95 559.5 232.5 560.7 234.35C561.25 235.15 562.55 234.4 562 233.6C559.95 230.55 556.7 228.15 552.8 228.85C550.8 229.2 549.3 230.45 547.75 231.65C545.55 233.35 543.3 234.9 540.95 236.35C540.2 236.85 540.95 238.15 541.75 237.65Z" fill="#161616"/>
<path d="M552.55 238.6C554.75 238.15 556.55 237.3 558.55 236.45C559.65 236 560.9 235.6 562 236C562.7 236.25 563.25 236.75 563.85 237.2C564.95 238.05 566 239 566.95 240C567.65 240.7 568.7 239.6 568 238.95C566.25 237.2 563.6 234.3 560.9 234.2C559.75 234.15 558.75 234.7 557.75 235.2C555.9 236.15 554.15 236.8 552.1 237.2C551.2 237.35 551.6 238.8 552.55 238.6Z" fill="#161616"/>
<path d="M556.05 243.15C558.45 242.95 560.8 242.55 563.2 242C565 241.6 566.8 241.15 568.45 242.25C569.85 243.15 570.7 244.65 571.55 246.05C572.05 246.85 573.35 246.1 572.85 245.3C571.45 243.05 569.75 240.55 566.9 240.05C565.5 239.8 564.1 240.25 562.75 240.55C560.5 241.05 558.3 241.45 556 241.65C555.1 241.7 555.1 243.2 556.05 243.15Z" fill="#161616"/>
<path d="M551.35 252.25C554.4 253.4 557.05 252.05 560 251.35C564.55 250.3 567.75 253.15 570.75 256.1C571.45 256.8 572.5 255.7 571.8 255.05C569.4 252.7 566.8 250.25 563.35 249.7C559.35 249.05 555.65 252.3 551.7 250.8C550.85 250.45 550.45 251.9 551.35 252.25Z" fill="#161616"/>
<path d="M562.6 246.4C565.1 246.35 567.85 246.65 570.1 247.85C573.05 249.45 573.55 253.05 570.95 255.2C570.2 255.8 571.25 256.85 572 256.25C574.35 254.3 575 250.85 573.1 248.35C570.85 245.35 566.1 244.75 562.6 244.85C561.65 244.9 561.65 246.4 562.6 246.4Z" fill="#161616"/>
<path d="M571.3 245.8C571.75 246.75 572 247.75 572.05 248.75C572.1 249.7 573.6 249.7 573.55 248.75C573.45 247.45 573.15 246.2 572.6 245C572.2 244.2 570.9 244.95 571.3 245.8Z" fill="#161616"/>
<path d="M469.85 220.7C471.05 215.95 475.15 212.4 480.05 212C481 211.9 481 210.4 480.05 210.5C474.45 210.95 469.75 214.85 468.4 220.3C468.2 221.25 469.65 221.65 469.85 220.7Z" fill="#161616"/>
<path d="M475.65 230.35C475.65 227.55 476.7 225.05 478.65 223.15C479.35 222.45 478.3 221.4 477.6 222.1C475.35 224.3 474.15 227.25 474.15 230.4C474.15 231.3 475.65 231.3 475.65 230.35Z" fill="#161616"/>
<path d="M479.9 236.75C480.4 231.4 484 226.8 489.1 225.05C490 224.75 489.6 223.3 488.7 223.6C482.95 225.6 478.95 230.7 478.4 236.75C478.3 237.7 479.8 237.7 479.9 236.75Z" fill="#161616"/>
<path d="M487.4 246.85C487.8 241.45 491.8 237 497.1 235.95C498.05 235.75 497.65 234.3 496.7 234.5C490.75 235.65 486.3 240.8 485.9 246.8C485.85 247.8 487.35 247.8 487.4 246.85Z" fill="#161616"/>
<path d="M498.35 256.6C498.85 252.05 501.55 248.15 505.5 245.95C506.35 245.5 505.6 244.2 504.75 244.65C500.25 247.15 497.4 251.5 496.85 256.6C496.75 257.55 498.25 257.55 498.35 256.6Z" fill="#161616"/>
<path d="M510.85 248.9C513.65 252.85 514 257.85 511.6 262.1C511.15 262.95 512.4 263.7 512.9 262.85C515.5 258.15 515.25 252.5 512.15 248.1C511.6 247.35 510.3 248.1 510.85 248.9Z" fill="#161616"/>
<path d="M528.15 244.45C528.3 245.2 528.65 245.4 529.35 245.65C530.75 246.2 532.05 246.3 533.35 247.15C536.1 249 537.7 252.1 537.65 255.35C537.65 256.3 539.15 256.3 539.15 255.35C539.2 252.65 538.3 250.1 536.55 248C535.7 247 534.7 246.15 533.6 245.5C533.1 245.2 529.65 244.25 529.6 244C529.4 243.1 527.95 243.5 528.15 244.45Z" fill="#161616"/>
<path opacity="0.11" d="M466.35 197.8C468.95 197.6 470.55 208.15 475.35 219.45C479.4 228.9 488.2 249.5 506.05 255.2C515.1 258.1 528.2 257.65 538.55 252.3C543.15 249.9 545.55 247.4 551.55 246.15C558.3 244.75 568.5 245.2 571.4 250.85C572.25 252.5 572.3 254.2 572.1 255.55C569.3 252.1 566.75 251.1 564.9 250.85C562.25 250.5 560.8 251.65 556.95 251.95C553.95 252.15 551.4 251.7 549.75 251.25C547.05 252.2 543 253.9 538.55 256.65C534.3 259.3 533.3 260.7 530.25 262.05C525 264.35 520.05 263.7 515.8 263.15C505.5 261.75 498.3 256.9 494.85 254.5C491.85 252.4 487.25 248.8 481.15 241.15C475.85 234.5 468.45 223.65 462.75 207.95C463.4 203.15 464.5 197.95 466.35 197.8Z" fill="#666666"/>
<path d="M349.2 210.1C349.8 213.15 350.55 217.35 351.3 222.35C351.75 225.55 353.5 238.1 353.65 255.95C353.8 274.95 352.15 291.25 350.25 303.65C348.7 314 346.8 322.6 345.3 328.95C349.25 332.7 355.65 337.9 364.6 342C373.15 345.9 380.9 347.4 386.25 348C405.4 317.95 419.9 295.75 428.75 282.35C448.75 251.9 462.7 231.35 468.35 199.75C469.4 194 469.9 189.2 470.15 185.95C463.45 184.25 453.65 182.4 441.75 182.8C439.7 182.85 434.65 183.1 424.55 184.9C413.9 186.75 400.2 189.9 384.4 195.3C374.75 198.55 362.7 203.3 349.2 210.1Z" fill="#161616"/>
<path d="M388.8 214.65C389.3 218.95 389.85 224.7 390.25 231.55C390.75 239.95 390.75 246.6 390.75 251.4C390.65 271.5 389.5 291.25 389.3 295C388.45 309.25 387.3 327.3 385.65 348.35C395.2 344.5 402.85 340.8 408.15 338.05C427.35 328.2 441.1 318.2 450.75 311.1C458.3 305.55 464.35 300.7 468.4 297.4C469.5 286.8 470.25 277.65 470.85 270.45C471.6 261.25 472.3 252.5 472.8 240.85C473.1 233.95 473.25 230.45 473.3 225.65C473.4 209.5 472.05 198.65 471.6 195.3C471.1 191.4 470.55 188.2 470.15 186C456.75 188.55 441.2 192.5 424.35 198.75C410.85 203.7 399 209.2 388.8 214.65Z" fill="white"/>
<path d="M349.55 210.35C378.35 195.8 409.1 187.3 441.05 183.3C442 183.2 442 181.7 441.05 181.8C424.85 183.85 408.8 186.75 393.1 191.4C377.85 195.95 363 201.85 348.8 209.05C347.9 209.5 348.65 210.8 349.55 210.35Z" fill="#161616"/>
<path d="M349.25 211C356 210.65 362.7 211.7 369.4 212.6C375.8 213.5 382.2 214.35 388.65 215.25C389.6 215.4 390 213.95 389.05 213.8C382.3 212.85 375.6 211.95 368.85 211C362.35 210.1 355.85 209.15 349.25 209.5C348.3 209.55 348.3 211.05 349.25 211Z" fill="#161616"/>
<path d="M440.25 183.6C450.4 182.95 460.5 184 470.35 186.6C471.3 186.85 471.7 185.4 470.75 185.15C460.8 182.5 450.55 181.45 440.25 182.1C439.3 182.2 439.3 183.7 440.25 183.6Z" fill="#161616"/>
<path d="M390 214.7C415.45 202.1 442.45 192.8 470.25 187C471.2 186.8 470.8 185.35 469.85 185.55C441.9 191.4 414.8 200.75 389.2 213.4C388.4 213.85 389.15 215.15 390 214.7Z" fill="#161616"/>
<path d="M387.45 214.55C391.8 248.75 389.65 283.3 387.45 317.55C386.8 327.65 386.15 337.75 384.7 347.75C384.55 348.7 386 349.1 386.15 348.15C388.65 331.05 389.3 313.65 390.25 296.4C391.2 279.05 391.85 261.7 391.3 244.35C390.95 234.4 390.25 224.4 388.95 214.55C388.8 213.6 387.3 213.6 387.45 214.55Z" fill="#161616"/>
<path d="M349.05 209.85C355.25 248.9 354 288.95 345.3 327.55C345.1 328.5 346.55 328.9 346.75 327.95C355.5 289.1 356.75 248.8 350.5 209.45C350.35 208.5 348.9 208.9 349.05 209.85Z" fill="#161616"/>
<path d="M345.1 328.7C355.9 339.5 369.95 346.6 385.05 348.8C386 348.95 386.4 347.5 385.45 347.35C370.6 345.15 356.8 338.25 346.15 327.6C345.45 327 344.4 328.05 345.1 328.7Z" fill="#161616"/>
<path d="M469.2 186.9C475.65 223.45 471.45 260.65 467.25 297.25C467.15 298.2 468.65 298.2 468.75 297.25C472.95 260.55 477.15 223.25 470.65 186.5C470.5 185.55 469.05 185.95 469.2 186.9Z" fill="#161616"/>
<path d="M467.3 297.15C442.4 318.05 414.55 335.25 384.75 348.2C383.85 348.6 384.65 349.9 385.5 349.5C415.4 336.5 443.35 319.2 468.35 298.25C469.1 297.6 468.05 296.55 467.3 297.15Z" fill="#161616"/>
<path d="M394.05 219.9C393.2 219.2 392.8 217.9 393.45 216.95C394.05 216 395.55 215.65 396.5 216.3C397.4 216.9 397.7 218.3 397.15 219.25C396.4 220.45 394.7 220.55 393.7 219.65C393.15 219.15 392.35 219.95 392.9 220.45C394.3 221.7 396.5 221.75 397.75 220.3C398.95 218.95 398.75 216.7 397.35 215.55C396 214.45 393.9 214.7 392.75 215.95C391.55 217.35 391.85 219.55 393.25 220.7C393.85 221.15 394.65 220.35 394.05 219.9Z" fill="#161616"/>
<path d="M395.3 228C395.55 233.7 395.8 239.4 396.05 245.1C396.1 245.8 397.2 245.85 397.2 245.1C396.95 239.4 396.7 233.7 396.45 228C396.4 227.3 395.25 227.3 395.3 228Z" fill="#161616"/>
<path d="M395.9 228.25C411.95 221.3 428.55 215.6 445.45 211.15C446.15 210.95 445.85 209.9 445.15 210.05C428.15 214.55 411.5 220.3 395.35 227.25C394.65 227.6 395.25 228.55 395.9 228.25Z" fill="#161616"/>
<path d="M397 245.25C410.05 238.3 423.75 232.7 437.9 228.55C438.6 228.35 438.3 227.25 437.6 227.45C423.35 231.65 409.55 237.3 396.45 244.3C395.8 244.6 396.35 245.55 397 245.25Z" fill="#161616"/>
<path d="M444.75 210.75C442.4 216.45 440 222.15 437.65 227.85C437.35 228.5 438.45 228.8 438.75 228.15C441.1 222.45 443.5 216.75 445.85 211.05C446.1 210.4 445 210.1 444.75 210.75Z" fill="#161616"/>
<path d="M447.4 210.5C445.2 216 442.95 221.5 440.6 226.95C440.3 227.6 441.3 228.2 441.55 227.5C443.9 221.95 446.25 216.4 448.45 210.8C448.8 210.15 447.7 209.85 447.4 210.5Z" fill="#161616"/>
<path d="M441.5 227.95C446.15 225.95 450.75 223.95 455.4 221.95C456.05 221.65 455.5 220.7 454.85 221C450.2 223 445.6 225 440.95 227C440.3 227.25 440.85 228.25 441.5 227.95Z" fill="#161616"/>
<path d="M448.65 210.9C451.45 209.75 454.35 208.85 457.35 208.25C458.05 208.1 457.75 207 457.05 207.15C454.05 207.75 451.15 208.6 448.35 209.8C447.7 210.05 447.95 211.15 448.65 210.9Z" fill="#161616"/>
<path d="M456.9 208.15C455.9 212.3 455.1 216.5 454.45 220.75C454.35 221.45 455.45 221.75 455.55 221.05C456.2 216.8 457 212.6 458 208.45C458.15 207.75 457.05 207.45 456.9 208.15Z" fill="#161616"/>
<path d="M460.95 295.3C448.8 302.2 436.65 309.1 424.45 316C423.8 316.35 424.4 317.35 425 316.95C437.15 310.05 449.3 303.15 461.5 296.25C462.15 295.9 461.55 294.95 460.95 295.3Z" fill="#161616"/>
<path d="M425.7 291.45C426.05 295.45 425.45 299.6 425.15 303.65C424.85 307.95 424.55 312.25 424.2 316.55C424.15 317.25 425.25 317.25 425.35 316.55C425.65 312.25 425.95 307.95 426.3 303.65C426.6 299.65 427.2 295.5 426.85 291.45C426.75 290.75 425.6 290.75 425.7 291.45Z" fill="#161616"/>
<path d="M426.4 291.45C438.25 284.8 450.7 279.25 463.6 274.95C464.3 274.7 464 273.65 463.3 273.85C450.3 278.2 437.75 283.75 425.8 290.45C425.2 290.8 425.8 291.8 426.4 291.45Z" fill="#161616"/>
<path d="M463.35 274.8C462.75 281.75 461.75 288.65 460.25 295.45C460.1 296.15 461.2 296.45 461.35 295.75C462.85 288.85 463.9 281.85 464.5 274.8C464.55 274.1 463.45 274.1 463.35 274.8Z" fill="#161616"/>
<path d="M350.75 210.55C359.4 211.15 367.9 212.55 376.3 214.6C377.25 214.85 377.65 213.4 376.7 213.15C368.15 211.05 359.5 209.65 350.75 209.05C349.8 208.95 349.8 210.45 350.75 210.55Z" fill="white"/>
<path opacity="0.1" d="M435.75 195.45C433.3 199.9 429.5 207.05 425.35 215.95C414.15 240 386.3 299.8 404.85 317.9C408.25 321.2 415.8 325.65 434.55 321.75C418.4 330.65 402.25 339.6 386.1 348.5C388.5 326.15 389.65 307 390.25 292C390.65 282 391.15 268.95 390.85 251.55C390.6 237.1 389.85 224.7 389.05 215C394.6 212 400.65 209 407.2 206.1C417.3 201.65 426.9 198.15 435.75 195.45Z" fill="#666666"/>
<path d="M238.95 90.5999C238.05 91.8499 239.2 94.0499 239.75 95.1499C240.75 97.0499 243.3 100.95 250.05 103.85C247.55 104.4 246.55 105.4 246.1 106.25C245.2 107.9 246.3 109.05 246.3 113C246.3 115.9 245.65 116.35 245.9 118.75C246.1 120.8 246.75 122.45 247.3 123.5C247.4 124.45 247.55 125.8 247.9 127.45C248.15 128.65 248.3 129.25 248.5 129.65C249.55 131.55 252.5 132.55 255.05 132.05C258.25 131.35 259.65 128.45 259.8 128.1C261.15 130.1 262.45 130.7 263.35 130.85C265 131.15 266.1 130.2 269.3 129.45C270.9 129.05 272.2 128.9 273.05 128.85C272.95 130.7 272.8 133.45 272.65 136.8C272.2 147.85 271.95 153.65 272.45 160.6C272.6 162.8 273.15 169.35 275.05 177.65C276.2 182.75 278 190.45 282.2 199.25C284.8 204.7 288.85 213.25 297.45 221.45C301.35 225.15 310.7 233.85 325.8 237.1C337.05 239.5 346.45 237.85 351.75 236.5C355.85 234.3 359.95 232.15 364.05 229.95C364.65 229.1 365.65 227.3 365.65 225C365.65 221.55 363.5 218.3 360.1 216.5C357.5 217.15 353.9 217.9 349.6 218.3C345.4 218.65 337.1 219.3 327.4 216.3C323.25 215.05 312.25 211.5 303.8 201.25C299.8 196.4 298.05 192.05 295.1 184.6C291.6 175.85 290.2 168.95 288.75 161.8C285.7 146.4 284.15 138.65 285.6 131.1C286.35 127.2 287.75 122.55 286.8 116.05C285.85 109.7 283.4 106.45 282.65 105.55C280.6 103 278.1 101.5 276.7 100.6C274.15 98.9999 274.65 99.8999 270.35 97.6499C269.6 97.2499 268.75 96.7999 267.6 96.8499C266.25 96.9499 265.2 97.6999 264.65 98.2499C261.5 97.3499 258.85 96.4999 256.9 95.8499C252.45 94.3999 250.2 93.6999 249.15 93.0999C246.5 91.5999 245.55 90.2999 243 89.9499C242.2 89.6999 239.85 89.3499 238.95 90.5999Z" fill="white"/>
<path d="M286.05 118.65C284.4 129.6 284.6 140.65 286.1 151.6C287.6 162.65 290.1 173.85 293.95 184.3C297.2 193.15 301.9 201.45 309.25 207.55C315.65 212.85 323.35 216.35 331.45 218.05C340.7 220 350.4 219.55 359.45 216.85C360.35 216.55 360 215.1 359.05 215.4C343.35 220.1 325.35 217.75 312.05 207.9C304.45 202.25 299.35 194.3 296 185.55C292.35 176.2 290.05 166.2 288.35 156.35C286.25 144 285.65 131.4 287.5 119C287.65 118.1 286.2 117.7 286.05 118.65Z" fill="#161616"/>
<path d="M272.15 128.95C270.3 153.6 271.1 179.45 282.6 201.9C292.25 220.75 309.25 235.9 330.8 238.5C342.5 239.9 354.6 237.45 364.3 230.6C365.1 230.05 364.35 228.75 363.55 229.3C346.1 241.65 321.85 239 305.1 226.75C287.4 213.75 277.85 192.55 274.55 171.35C272.35 157.35 272.6 143.05 273.65 128.95C273.75 128 272.25 128 272.15 128.95Z" fill="#161616"/>
<path d="M359 216.8C364.25 218.9 365.95 224.95 362.85 229.6C362.3 230.4 363.6 231.15 364.15 230.35C367.85 224.85 365.5 217.8 359.4 215.35C358.5 215 358.1 216.45 359 216.8Z" fill="#161616"/>
<path d="M276.55 111.85C278.3 108.6 273.4 108.95 271.8 108.45C269.7 107.75 267.35 105.9 265.85 104.3C263.6 101.9 263.4 96.9499 268.1 97.8499C277.45 99.6999 287.4 108.25 285.95 118.5C285.8 119.45 287.25 119.85 287.4 118.9C289 107.4 278.4 98.5999 268.05 96.2999C264.25 95.4499 261.8 99.0499 262.95 102.55C263.65 104.65 265.5 106.2 267.2 107.45C268.25 108.25 269.4 109.05 270.6 109.6C271.15 109.8 275.4 110.65 275.15 111.1C274.8 111.95 276.1 112.7 276.55 111.85Z" fill="#161616"/>
<path d="M263.25 96.8999C257.3 95.4999 251.5 93.4499 246.05 90.6499C243.55 89.3499 238.4 86.9999 238.3 91.9499C238.25 95.8999 241.8 99.8999 244.75 102.1C249.2 105.45 254.75 106.7 260.1 107.5C261.05 107.65 261.45 106.2 260.5 106.05C252.75 104.85 242.6 102.15 240.1 93.4999C239.9 92.9999 239.8 92.4999 239.8 91.9499C240.75 90.3499 241.8 89.9999 243.1 90.7999C244 91.1999 244.8 91.6999 245.7 92.1499C247.35 92.9499 249 93.7499 250.7 94.4499C254.65 96.0999 258.7 97.3999 262.85 98.3499C263.8 98.5999 264.2 97.1499 263.25 96.8999Z" fill="#161616"/>
<path d="M248.75 103.25C245.95 104.05 244.8 107.5 244.9 110.15C245.05 113.55 247.25 116.4 250.1 118.1C252.7 119.7 256.65 120.95 259.4 118.9C261.4 117.4 261.85 114.55 260.1 112.7C259.45 112 258.4 113.05 259.05 113.75C260.25 115 259.65 116.9 258.4 117.75C257.3 118.5 255.8 118.45 254.55 118.25C252.6 117.9 250.7 116.85 249.2 115.55C247.75 114.25 246.75 112.6 246.5 110.7C246.2 108.65 246.8 105.35 249.15 104.65C250.1 104.45 249.7 103 248.75 103.25Z" fill="#161616"/>
<path d="M245.8 113.25C244.15 117.4 245.25 122.5 248.8 125.4C250.4 126.7 252.6 127.5 254.65 127.15C256.7 126.75 257.9 125.3 259.1 123.7C259.65 122.9 258.35 122.15 257.8 122.95C256.5 124.7 255 126.05 252.7 125.6C250.8 125.25 249.2 124 248.15 122.45C246.4 119.85 246.15 116.6 247.3 113.7C247.6 112.75 246.15 112.35 245.8 113.25Z" fill="#161616"/>
<path d="M246.3 123.4C246.45 127.5 248.05 132.25 252.65 133.15C257.55 134.1 260.2 129.1 261.45 125.2C261.75 124.3 260.3 123.9 260 124.8C259 127.9 256.95 132.5 252.85 131.6C249.05 130.8 247.9 126.75 247.8 123.4C247.8 122.45 246.3 122.4 246.3 123.4Z" fill="#161616"/>
<path d="M259.35 128C259.85 130.2 262.1 131 264.15 131.3C267.4 131.8 269.8 130.15 272.95 129.8C273.9 129.7 273.9 128.2 272.95 128.3C271.4 128.5 270.05 129.1 268.5 129.5C266.55 130.05 261.45 130.5 260.8 127.6C260.6 126.65 259.15 127.05 259.35 128Z" fill="#161616"/>
<path d="M273 129.5C278 131.45 283.65 129.6 286.65 125.2C287.2 124.4 285.9 123.65 285.35 124.45C282.7 128.35 277.7 129.75 273.4 128.05C272.5 127.7 272.15 129.15 273 129.5Z" fill="#161616"/>
<path d="M329.6 218.3C331.55 220.2 331.1 225.15 330.95 227.65C330.75 230.9 329.8 234 327.5 236.4C326.85 237.1 327.9 238.15 328.55 237.45C331.1 234.75 332.2 231.3 332.4 227.65C332.6 224.65 333 219.55 330.65 217.2C329.95 216.55 328.9 217.6 329.6 218.3Z" fill="#161616"/>
<path d="M344.45 219.25C347.5 224.9 347.55 231.6 344.6 237.3C344.15 238.15 345.45 238.9 345.9 238.05C349.1 231.85 349.05 224.65 345.75 218.5C345.3 217.6 344 218.4 344.45 219.25Z" fill="#161616"/>
<path d="M273 159.85C278 161.55 283.3 161 287.9 158.35C288.75 157.85 288 156.55 287.15 157.05C282.9 159.5 278.1 159.95 273.4 158.4C272.5 158.1 272.1 159.55 273 159.85Z" fill="#161616"/>
<path d="M277.6 189.15C283.95 190.5 290.4 188.15 294.35 183C294.95 182.25 293.65 181.5 293.05 182.25C289.5 186.8 283.65 188.95 278 187.7C277.05 187.5 276.65 188.95 277.6 189.15Z" fill="#161616"/>
<path d="M304.95 203.5C305.15 206.3 304.2 208.85 302.25 210.85C301.55 211.55 302.65 212.6 303.3 211.9C305.55 209.65 306.65 206.65 306.45 203.45C306.4 202.55 304.9 202.55 304.95 203.5Z" fill="#161616"/>
<path d="M273.85 174.25C276.05 175.25 278.4 175.45 280.7 174.75C281.65 174.5 281.25 173.05 280.3 173.3C278.4 173.85 276.45 173.75 274.6 172.95C273.75 172.55 272.95 173.85 273.85 174.25Z" fill="#161616"/>
<path d="M272.7 139.1C277 140.15 281.2 139.7 285.25 137.9C286.15 137.5 285.35 136.2 284.5 136.6C280.85 138.25 277 138.55 273.1 137.65C272.15 137.4 271.75 138.85 272.7 139.1Z" fill="#161616"/>
<path d="M286.3 208.15C293.45 209.8 300.3 206.05 302.75 199.15C303.05 198.25 301.65 197.85 301.3 198.75C299.15 204.85 293 208.15 286.7 206.7C285.75 206.45 285.35 207.9 286.3 208.15Z" fill="#161616"/>
<path d="M316.85 213.2C319 219.55 312.45 225.95 307.5 228.65C306.65 229.1 307.4 230.4 308.25 229.95C313.8 226.95 320.7 219.8 318.3 212.85C318 211.9 316.55 212.3 316.85 213.2Z" fill="#161616"/>
<path opacity="0.13" d="M251.45 106.05C253.25 107.9 251.1 111 252.65 113C253.5 114.05 255.4 114.85 260.05 113.95C260.05 114.75 260.1 115.95 260.55 117.3C260.55 117.3 261.55 120.5 264.35 122.55C267.6 124.95 272.45 125 276.8 122.8C277 125.8 277.35 130.05 277.75 135.25C280.1 164.95 281 170.3 282.3 175.4C283.8 181.4 285.7 188.85 290.65 197.15C293.75 202.3 304.15 219.1 325.55 225.8C343.7 231.5 359.3 226.6 364.75 224.6C364.45 226.65 364.1 228.75 363.8 230.8C361.4 232.25 357.95 234.1 353.55 235.6C353 235.8 343.1 239 332.05 238C311.2 236.1 296.7 220.2 293.1 216.25C280.1 201.95 276.4 186.3 274.7 179.2C272.2 168.55 272 158.75 271.85 151.7C271.65 142.75 272.2 135.2 272.8 129.7C271.9 130.15 269.6 131.1 266.6 130.65C263.2 130.15 261.05 128.2 260.4 127.55C260.25 127.95 259.45 130.4 256.8 131.6C256.65 131.7 253.8 132.9 251.3 131.6C249.05 130.45 248.45 127.95 247.25 123C246.5 120 246.35 117.85 246.05 114.4C245.45 106.85 246.25 105.95 246.75 105.55C247.95 104.6 250.3 104.85 251.45 106.05Z" fill="#666666"/>
<path opacity="0.15" d="M282.5 198.75C284 200.5 286.3 203.05 289.2 205.9C294.3 210.95 305.9 222.5 318.85 227.9C336.9 235.4 355.55 230.2 364 227.2C363.7 228.25 363.35 229.25 363.05 230.3C360.55 231.65 336.85 243.95 311.7 231.95C290.7 222 283.7 202.35 282.5 198.75Z" fill="#666666"/>
<path d="M395.65 169.3C395.15 172.1 394.95 174.55 394.9 176.35C394.85 177.45 394.7 181.55 395.5 186.95C395.85 189.45 396.35 191.55 396.75 193.1C398.8 193.65 401.75 194.2 405.35 194C410.1 193.75 413.75 192.3 415.95 191.25C415.85 189.9 415.75 187.75 415.5 185.1C414.95 179.15 414.5 177.05 414.45 173.15C414.4 171.5 414.45 169 414.75 165.95C412.65 165.4 408.5 164.6 403.55 165.8C399.9 166.6 397.25 168.15 395.65 169.3Z" fill="white"/>
<path d="M395 168.75C393.3 176.65 394.4 184.6 395.65 192.5C395.8 193.45 397.25 193.05 397.1 192.1C395.9 184.5 394.8 176.75 396.45 169.15C396.65 168.2 395.2 167.8 395 168.75Z" fill="#161616"/>
<path d="M396 169.8C398.25 167.8 401.55 167.1 404.4 166.5C407.65 165.85 410.85 165.75 414.1 166.35C415.05 166.55 415.45 165.1 414.5 164.9C411 164.2 407.5 164.35 404 165.05C400.8 165.7 397.4 166.5 394.9 168.75C394.25 169.4 395.3 170.45 396 169.8Z" fill="#161616"/>
<path d="M413.95 165.85C413.35 174.25 413.8 182.65 415.2 190.95C415.35 191.9 416.8 191.5 416.65 190.55C415.25 182.35 414.85 174.1 415.45 165.85C415.5 164.9 414 164.9 413.95 165.85Z" fill="#161616"/>
<path d="M395.95 193C398.4 194.95 402.55 194.7 405.55 194.6C409.3 194.5 412.95 193.7 416.2 191.8C417.05 191.3 416.3 190 415.45 190.5C412.65 192.15 409.6 192.9 406.4 193.1C403.85 193.25 399.15 193.6 397.05 191.95C396.25 191.35 395.2 192.4 395.95 193Z" fill="#161616"/>
<path d="M395.7 178.05C397.55 175.45 400.65 174.6 403.65 173.95C407 173.2 410.45 172.5 413.55 174.4C414.4 174.9 415.15 173.6 414.3 173.1C410.85 171 407 171.65 403.25 172.5C399.85 173.3 396.55 174.35 394.4 177.3C393.85 178.05 395.15 178.8 395.7 178.05Z" fill="#161616"/>
<path d="M396 186.6C401.1 182.45 407.75 180.8 414.25 182.1C415.2 182.3 415.6 180.85 414.65 180.65C407.6 179.25 400.55 181 394.95 185.55C394.2 186.15 395.25 187.2 396 186.6Z" fill="#161616"/>
<path d="M404.35 188.65C406.05 187.9 407.8 187.65 409.7 187.65C411 187.65 413.9 187.5 414.8 188.55C415.45 189.3 416.5 188.2 415.85 187.5C414.7 186.15 412.1 186.3 410.5 186.2C408.1 186.1 405.85 186.45 403.6 187.4C402.7 187.75 403.45 189 404.35 188.65Z" fill="#161616"/>
<path d="M348.55 163.75C352.8 166.15 359.45 169.35 368 171.1C377.2 173 384.35 172.4 392.4 171.7C395.6 171.4 406.25 170.35 420.45 166.2C429.25 163.6 441.05 159.35 454.2 152.1C455.2 147.15 456.1 141.45 456.5 135.1C456.95 128.25 456.8 122.05 456.35 116.7C453.55 113.6 450.15 110.25 446.1 106.9C442.4 103.8 438.8 101.3 435.5 99.25C406.5 120.75 377.55 142.25 348.55 163.75Z" fill="#161616"/>
<path d="M435.35 99.2C436.05 101.7 436.95 105.25 437.65 109.65C438.1 112.4 439.5 122.4 437.8 135.55C437.35 139.25 436.5 144.15 434.9 149.8C433.1 150.9 430.6 152.35 427.55 153.95C417.45 159.2 408.95 161.7 405.95 162.55C403.8 163.15 393.55 165.95 379.4 166.55C371.6 166.85 360.8 166.6 348.1 163.95C349 148.7 349.95 133.5 350.85 118.25C353.7 116.85 357.65 115 362.5 113.05C365.6 111.8 379.95 106.1 400.55 102.45C409.75 100.8 421.5 99.35 435.35 99.2Z" fill="white"/>
<path d="M350.4 118.2C349.35 133.4 348.3 148.65 347.3 163.85C347.25 164.8 348.75 164.8 348.8 163.85C349.85 148.65 350.9 133.4 351.9 118.2C351.95 117.2 350.45 117.2 350.4 118.2Z" fill="#161616"/>
<path d="M351.95 118.4C377.8 106.5 406.05 100.25 434.5 100.1C435.45 100.1 435.45 98.5999 434.5 98.5999C405.75 98.7499 377.3 105.05 351.2 117.1C350.35 117.5 351.1 118.8 351.95 118.4Z" fill="#161616"/>
<path d="M347.85 164.3C377.55 171.55 409.25 166.65 435.25 150.55C436.05 150.05 435.3 148.75 434.5 149.25C408.8 165.1 377.55 170 348.25 162.85C347.3 162.6 346.9 164.05 347.85 164.3Z" fill="#161616"/>
<path d="M434.25 99.4498C438.95 116.1 438.8 133.7 433.85 150.3C433.55 151.25 435 151.6 435.3 150.7C440.35 133.9 440.5 115.95 435.7 99.0498C435.45 98.0998 434 98.4998 434.25 99.4498Z" fill="#161616"/>
<path d="M435.1 99.6499C442.95 104.7 449.85 110.95 455.65 118.25C456.25 119 457.3 117.95 456.7 117.2C450.8 109.8 443.8 103.5 435.85 98.3999C435.05 97.7999 434.3 99.0999 435.1 99.6499Z" fill="#161616"/>
<path d="M455.35 117.8C456.4 129.45 455.75 141.1 453.4 152.6C453.2 153.55 454.65 153.95 454.85 153C457.25 141.4 457.9 129.6 456.85 117.85C456.75 116.85 455.25 116.85 455.35 117.8Z" fill="#161616"/>
<path d="M347.95 164.75C352.1 166.45 356.25 168.1 360.4 169.8C363.5 171.05 366.7 171.55 369.95 171.95C377.6 173 385.4 173.25 393.1 172.55C406.05 171.45 418.85 167.75 431 163.3C439.2 160.3 447.15 156.7 454.8 152.55C455.65 152.1 454.9 150.8 454.05 151.25C441.85 157.85 429 162.8 415.7 166.6C401.7 170.6 387.4 172.35 372.85 170.75C369.35 170.35 365.45 170.1 362.15 168.85C357.5 167.1 352.9 165.1 348.3 163.25C347.45 162.95 347.05 164.4 347.95 164.75Z" fill="#161616"/>
<path d="M434.2 151.75C440.9 153.05 447.65 153.3 454.45 152.5C455.4 152.4 455.4 150.9 454.45 151C447.8 151.8 441.2 151.55 434.6 150.3C433.65 150.15 433.25 151.55 434.2 151.75Z" fill="#161616"/>
<path d="M365.7 129.1C364.4 128.5 364.6 126.65 364.55 125.5C364.5 124.9 364.45 124.3 364.5 123.65C364.5 122.95 364.6 122.35 364.9 121.7C365.25 120.9 365.8 120.8 366.45 121.3C367.6 121.7 367.45 122 367.45 123.1C367.45 123.75 367.4 124.35 367.35 125C367.3 125.65 367.3 126.35 367.25 127C367.25 127.2 366.7 130.65 365.75 129.25C365.2 128.45 363.9 129.2 364.45 130C365.9 132.15 368.2 130.45 368.6 128.5C368.95 126.75 368.95 124.7 368.95 122.9C368.95 121.75 368.75 120.45 367.75 119.75C365.5 118.15 363.3 120.8 363.05 122.9C362.8 125.05 362.55 129.35 364.95 130.45C365.8 130.8 366.55 129.5 365.7 129.1Z" fill="#161616"/>
<path d="M365 120.7C364.15 123.8 364.35 126.95 365.55 129.95C365.85 130.7 367.05 130.65 367 129.75C366.95 126.85 367.1 124 367.45 121.15C366.95 121.15 366.45 121.15 365.95 121.15C366.1 122.35 366.2 123.5 366.2 124.7C366.2 125.2 366.25 125.85 366.15 126.3C366.1 126.65 365.65 127.9 365.85 126.7C366 125.75 364.5 125.75 364.35 126.7C364.15 128.15 365.55 130.35 367.1 128.85C367.7 128.25 367.65 127.1 367.7 126.3C367.8 124.55 367.7 122.85 367.5 121.15C367.4 120.2 366.15 120.2 366 121.15C365.6 124 365.45 126.85 365.55 129.75C366.05 129.7 366.55 129.6 367 129.55C365.9 126.8 365.7 124 366.45 121.1C366.7 120.2 365.25 119.8 365 120.7Z" fill="#161616"/>
<path d="M364.45 121.95C364.05 122.95 364 124 364.15 125.05C364.2 125.45 364.7 125.65 365.05 125.55C365.5 125.45 365.65 125.05 365.55 124.65C365.45 123.85 365.6 123.1 365.85 122.35C366.25 121.45 364.8 121.05 364.45 121.95Z" fill="#161616"/>
<path d="M407.2 121.5C405.9 120.9 406.1 119.05 406.05 117.9C406 117.3 405.95 116.75 406 116.15C406 115.8 406 115.45 406.1 115.15C406.15 114 407.1 113.65 408.85 114.15C409.35 114.9 408.9 117 408.85 117.8C408.8 118.35 408.8 118.9 408.75 119.45C408.75 119.65 408.2 123.1 407.25 121.7C406.7 120.9 405.4 121.65 405.95 122.45C407.4 124.6 409.7 122.9 410.1 120.95C410.45 119.25 410.4 117.3 410.45 115.6C410.45 114.45 410.35 113.1 409.4 112.3C407.25 110.45 404.9 112.95 404.55 115.05C404.2 117.2 404 121.7 406.4 122.85C407.35 123.2 408.1 121.95 407.2 121.5Z" fill="#161616"/>
<path d="M406.55 113.15C405.7 116.25 405.9 119.4 407.1 122.4C407.4 123.15 408.6 123.1 408.55 122.2C408.5 119.3 408.65 116.45 409 113.6C408.5 113.6 408 113.6 407.5 113.6C407.65 114.8 407.75 115.95 407.75 117.15C407.75 117.65 407.8 118.3 407.7 118.75C407.65 119.1 407.2 120.35 407.4 119.15C407.55 118.2 406.05 118.2 405.9 119.15C405.7 120.6 407.1 122.8 408.65 121.3C409.25 120.7 409.2 119.55 409.25 118.75C409.35 117 409.25 115.3 409.05 113.6C408.95 112.65 407.7 112.65 407.55 113.6C407.15 116.45 407 119.3 407.1 122.2C407.6 122.15 408.1 122.05 408.55 122C407.45 119.25 407.25 116.45 408 113.55C408.25 112.6 406.8 112.2 406.55 113.15Z" fill="#161616"/>
<path d="M406 114.35C405.6 115.35 405.55 116.4 405.7 117.45C405.75 117.85 406.25 118.05 406.6 117.95C407.05 117.85 407.2 117.45 407.1 117.05C407 116.25 407.15 115.5 407.4 114.75C407.8 113.85 406.35 113.5 406 114.35Z" fill="#161616"/>
<path d="M377.8 137C382.2 137.6 388.05 137.05 391.95 134.75C392.8 134.25 392.05 132.95 391.2 133.45C387.65 135.5 382.2 136.1 378.2 135.55C377.3 135.45 376.85 136.9 377.8 137Z" fill="#161616"/>
<path d="M377.1 137.1C378.45 140.1 381.75 144.3 385.55 143.8C389.3 143.35 391.55 138.05 392.35 134.9C392.6 133.95 391.15 133.55 390.9 134.5C390.35 136.75 388.75 140.95 386.35 141.95C382.85 143.4 379.65 139 378.45 136.3C378 135.5 376.7 136.25 377.1 137.1Z" fill="#161616"/>
<path d="M378.35 137.7C382.2 139.5 387.95 138.55 391.2 135.95C390.85 135.6 390.5 135.25 390.15 134.9C388.25 136.45 385.9 137.35 383.4 137.3C382.05 137.3 380.95 136.6 379.85 137.5C379.65 137.7 379.6 138 379.65 138.25C379.9 139.6 381.75 140.25 382.9 140.45C385.3 140.85 387.5 139.7 389.4 138.3C389.1 137.9 388.8 137.5 388.5 137.1C386.8 139.05 382.45 140.1 380.6 137.75C380.05 137.05 379.05 137.95 379.4 138.65C380.45 140.55 382.05 142.45 384.45 142.3C386.95 142.2 388.5 140.05 389.75 138.15C390.25 137.4 389.2 136.75 388.55 137.25C387.4 138.15 386.6 138.3 385.35 138.75C384.55 139.05 383.95 138.9 384.25 139.9C384.5 140.7 385.35 140.95 386.05 140.95C388.2 140.85 390.4 137.75 391.35 136.1C391.75 135.4 390.75 134.55 390.15 135.2C388.25 137.25 387.15 140.55 384.1 141C383.15 141.15 383.55 142.6 384.5 142.45C387.95 141.9 389.1 138.5 391.2 136.25C390.8 135.95 390.4 135.65 390 135.35C389.3 136.5 388.1 138.4 386.75 138.95C385.7 139.35 385.85 139.1 385.05 138.25C384.85 138 384.7 137.7 384.45 137.55C383.55 137 382.65 137.5 382.35 138.4C382.25 138.65 382.35 138.95 382.55 139.15C384.7 141.5 387.5 139.9 389.55 138.35C389.15 138.05 388.75 137.75 388.35 137.45C387.35 138.95 386.45 140.4 384.55 140.65C382.6 140.95 381.5 139.5 380.65 137.9C380.25 138.2 379.85 138.5 379.45 138.8C381.8 141.75 387.2 140.7 389.45 138.15C390 137.55 389.25 136.45 388.55 136.95C386.95 138.15 385 139.3 382.95 138.85C382.25 138.8 381.6 138.45 381.05 137.95C381.2 138.4 381.5 138.6 381.85 138.65C382.4 138.9 383.4 138.8 384 138.75C386.65 138.6 389.05 137.55 391.1 135.9C391.85 135.3 390.8 134.25 390.05 134.85C387.45 136.9 382.15 137.85 379 136.35C378.2 136 377.45 137.3 378.35 137.7Z" fill="#161616"/>
<path d="M383.7 141.3C384.85 140.45 385.95 139.55 386.9 138.5C386.5 138.2 386.1 137.9 385.7 137.6C385.25 138.45 384.6 139.3 384.25 140.2C384.1 140.65 384.05 141.15 384.45 141.55C384.8 141.9 385.35 141.9 385.8 141.7C386.65 141.3 387.4 140.6 388.15 140.05C387.8 139.7 387.45 139.35 387.1 139C386.8 139.75 385.8 141.2 386.65 141.9C387.6 142.7 388.45 141.3 388.95 140.7C389.55 139.95 388.5 138.9 387.9 139.65C387.7 139.85 387.3 140.6 387 140.65C387.25 140.7 387.5 140.8 387.75 140.85C387.7 140.8 387.65 140.75 387.65 140.7C387.7 140.9 387.8 141.05 387.85 141.25C387.85 140.8 388.25 140.2 388.4 139.8C388.65 139.2 388.05 138.3 387.35 138.75C387.05 138.95 385.4 140.4 385.15 140.3C385.3 140.4 385.45 140.55 385.6 140.65C385.55 140.6 385.55 140.5 385.5 140.45C385.55 140.65 385.55 140.85 385.6 141.05C385.75 140.15 386.55 139.15 387 138.35C387.4 137.6 386.4 136.8 385.8 137.45C384.9 138.4 383.95 139.25 382.9 140C382.15 140.55 382.9 141.85 383.7 141.3Z" fill="#161616"/>
<path d="M354.5 120.75C353.35 134.2 352.55 147.7 352.05 161.2C352 162.15 353.5 162.15 353.55 161.2C354.05 147.7 354.85 134.2 356 120.75C356.1 119.8 354.6 119.8 354.5 120.75Z" fill="#161616"/>
<path d="M431.4 104.9C435.2 119.1 432.8 133.75 429.45 147.75C429.2 148.7 430.65 149.1 430.9 148.15C434.35 133.9 436.75 118.95 432.85 104.5C432.6 103.6 431.15 104 431.4 104.9Z" fill="#161616"/>
<path d="M436.35 150.45C440.75 151.25 445.2 152.05 449.6 152.85C450.55 153 450.95 151.6 450 151.4C445.6 150.6 441.15 149.8 436.75 149C435.8 148.85 435.4 150.3 436.35 150.45Z" fill="white"/>
<path d="M442.05 119.55C441.65 120.2 441.2 121.15 440.9 122.25C440.45 124.05 440.55 125.6 440.65 126.55C437.65 129.6 429.9 136.65 417.95 138.35C413.2 139.05 409.05 138.7 405.95 138.1C405.6 139.4 405.35 141.05 406.2 141.75C406.75 142.25 407.55 142.05 408.9 142C411.15 141.9 412.35 142.35 413.45 142.45C416.55 142.8 424.75 141.35 433.65 136.35C436.05 135 439.35 132.9 442.95 129.75C443.2 130.1 445 132.25 447.7 132.25C451.45 132.2 453.2 128.1 453.35 127.7C454.25 125.5 454.3 122.45 452.45 120.2C450.75 118.1 448.35 117.75 447.7 117.7C444.6 117.4 442.4 119.2 442.05 119.55Z" fill="white" stroke="black" stroke-width="2" stroke-miterlimit="10"/>
<path d="M444.75 120.55C442.45 124.15 443.85 129.4 448.7 129.3C449.2 129.3 449.2 128.55 448.7 128.55C444.4 128.65 443.45 123.95 445.4 120.9C445.7 120.5 445.05 120.15 444.75 120.55Z" fill="black"/>
<path d="M448.15 125.4C447.5 124.9 447.15 124.05 447.35 123.25C447.55 122.5 448.5 121.75 449.3 122.15C450.15 122.55 450.45 123.9 450.05 124.7C449.7 125.5 448.5 125.85 447.9 125.05C447.6 124.65 446.95 125.05 447.25 125.45C447.95 126.4 449.4 126.5 450.3 125.65C451.3 124.65 451.2 122.8 450.2 121.8C449.25 120.85 447.7 121.25 447 122.3C446.2 123.45 446.55 125.05 447.65 125.9C448 126.2 448.5 125.7 448.15 125.4Z" fill="black"/>
<path d="M416.5 138.6C417.3 139.6 417.5 140.95 416.95 142.1C416.75 142.55 417.4 142.9 417.6 142.5C418.25 141.1 418.1 139.5 417.15 138.25C416.85 137.85 416.2 138.2 416.5 138.6Z" fill="black"/>
<path d="M408 138.7C408.45 139.55 408.5 140.55 408.05 141.45C407.85 141.9 408.5 142.25 408.7 141.85C409.25 140.7 409.2 139.45 408.65 138.35C408.4 137.9 407.75 138.25 408 138.7Z" fill="black"/>
<path d="M410.2 139.25C410.75 139.8 410.8 140.75 410.3 141.35C410 141.7 410.55 142.25 410.85 141.9C411.6 140.95 411.6 139.6 410.75 138.75C410.4 138.35 409.9 138.9 410.2 139.25Z" fill="black"/>
<path d="M412.65 139.3C413.5 139.9 413.45 141.2 412.7 141.8C412.35 142.1 412.85 142.65 413.25 142.35C414.4 141.4 414.25 139.5 413.05 138.65C412.65 138.4 412.3 139.05 412.65 139.3Z" fill="black"/>
<path d="M424.65 105.6C423.6 105.2 423.95 103.9 424.65 103.4C425.35 102.9 426.25 103.05 426.7 103.8C427.65 105.45 425.4 106.8 424.25 105.45C423.8 104.9 423 105.7 423.45 106.25C424.4 107.35 426.2 107.45 427.3 106.5C428.4 105.5 428.3 103.7 427.3 102.7C426.25 101.6 424.5 101.85 423.5 102.95C422.45 104.2 422.8 106.15 424.35 106.7C425.05 106.9 425.3 105.85 424.65 105.6Z" fill="black"/>
<path opacity="0.16" d="M426.65 99.3999C427 105.6 427.65 112.3 428.8 119.5C429.55 124.3 430.45 128.9 431.45 133.15C430.35 133.85 429.2 134.55 428 135.25C422.1 138.6 416.4 140.75 411.25 142.15C413.9 142.25 417.2 142.1 421 141.4C425.55 140.55 429.25 139.1 431.95 137.8C427.95 142.2 422.65 147.3 415.85 152.15C406.1 159.15 396.7 163.2 389.6 165.65C395.05 167.55 400.5 169.45 405.9 171.35C406.3 178.75 406.7 186.15 407.1 193.6C409.85 192.9 412.6 192.2 415.4 191.45C415 186.8 414.65 182 414.45 177C414.35 174.2 414.25 171.45 414.2 168.7C418.95 167.4 422.85 166.15 425.8 165.15C436.7 161.45 444.45 157.7 446.6 156.65C450.2 154.9 453.1 153.3 455.1 152.15C455.65 148.7 456.15 145.1 456.5 141.25C457.35 132.35 457.4 124.2 456.95 116.9C454.6 114 451.55 110.75 447.75 107.45C443.7 103.95 439.75 101.35 436.4 99.3999C433.1 99.3999 429.85 99.3999 426.65 99.3999Z" fill="#666666"/>
<path opacity="0.3" d="M241.75 288.75C242.15 307.2 242.5 325.65 242.9 344.1C262.9 349.7 286.3 354.8 312.65 357.95C350.15 362.4 383.25 361.65 410.05 359.1C410.8 340.25 411.6 321.45 412.35 302.6C389.35 301.7 365.7 300.35 341.45 298.55C306.9 295.95 273.65 292.65 241.75 288.75Z" fill="#444444"/>
<g opacity="0.3">
<path d="M248 297.55C276.05 303.65 304.6 307.15 333.3 308C334.25 308.05 334.25 306.55 333.3 306.5C304.75 305.65 276.3 302.2 248.4 296.1C247.45 295.9 247.05 297.35 248 297.55Z" fill="#3A3A3A"/>
</g>
<g opacity="0.3">
<path d="M249.25 307.8C262.1 311.65 275.25 314.2 288.6 315.5C289.55 315.6 289.55 314.1 288.6 314C275.4 312.7 262.35 310.15 249.65 306.35C248.7 306.05 248.3 307.5 249.25 307.8Z" fill="#3A3A3A"/>
</g>
<g opacity="0.3">
<path d="M288 347.45C323.1 352.8 358.75 358.1 394.3 354.05C395.25 353.95 395.25 352.45 394.3 352.55C358.85 356.6 323.4 351.35 288.4 346C287.45 345.85 287.05 347.3 288 347.45Z" fill="#3A3A3A"/>
</g>
<g opacity="0.3">
<path d="M342.65 344.95C360.65 348.2 378.95 349 397.15 347.25C398.1 347.15 398.1 345.65 397.15 345.75C379.1 347.45 360.9 346.7 343.05 343.5C342.1 343.35 341.7 344.75 342.65 344.95Z" fill="#3A3A3A"/>
</g>
<g opacity="0.3">
<path d="M378.7 309.4C379.55 316.2 379.1 323 377.4 329.65C377.25 330.15 377.65 330.55 378.1 330.6C382.4 330.95 386.65 331.3 390.95 331.65C392.8 331.8 396.95 333.1 398.1 331.05C398.7 330 398.55 328.2 398.65 327.05C398.75 325.25 398.8 323.45 398.9 321.65C399.1 317.55 399.45 313.5 400.75 309.55C400.9 309.1 400.5 308.55 400.05 308.6C393.55 309.1 387.1 308.8 380.7 307.7C380.1 307.6 379.7 308.05 379.8 308.6C379.9 309.2 379.9 309.2 380.25 309.7C380.8 310.5 382.1 309.75 381.55 308.95C381.45 308.7 381.35 308.45 381.25 308.2C380.95 308.5 380.65 308.8 380.35 309.1C386.9 310.25 393.45 310.55 400.1 310.05C399.85 309.75 399.6 309.4 399.4 309.1C397.4 315.05 397.6 321.25 397.2 327.4C397.15 327.95 397.2 329.6 396.95 329.95C396.4 330.7 395.15 330.4 394.45 330.35C392.65 330.2 390.85 330.05 389 329.9C385.4 329.6 381.75 329.3 378.15 329C378.4 329.3 378.65 329.65 378.85 329.95C380.6 323.2 381.1 316.25 380.2 309.3C380.1 308.45 378.6 308.45 378.7 309.4Z" fill="#3A3A3A"/>
</g>
<path opacity="0.38" d="M164.65 80.35C165.1 105.15 165.55 130 166 154.8C200.4 159.15 234.75 163.45 269.15 167.8C270.05 137.95 270.95 108.15 271.9 78.3C236.15 79 200.4 79.7 164.65 80.35Z" fill="#757575"/>
<path d="M254.45 159.75C254.95 158.8 256.1 157.3 256.25 156.2C256.35 155.4 255.6 154.6 255.2 153.95C253.55 151.2 251.9 148.4 250.3 145.65C249.5 144.3 248.5 142.9 247.85 141.5C247.05 139.8 247.8 139.25 248.65 137.8C250 135.5 251.15 133.1 252.1 130.65C255.5 121.65 256.05 111.3 252 102.4C245.4 87.85 229.45 84.55 215 84.25C200.05 83.9 184.95 89.5 176.05 102C165.75 116.45 171.9 136.7 185.85 146.3C200.4 156.35 220.75 155.9 235.95 147.75C236.8 147.3 236.05 146 235.2 146.45C222.9 153.05 208.55 154.1 195.4 149.45C181.8 144.65 171.35 131.2 172.35 116.35C173.5 99.65 189.9 88.9 205.05 86.4C209.65 85.65 214.25 85.65 218.9 85.9C225.25 86.25 231.65 87.15 237.45 89.85C245.65 93.65 251.2 101 252.85 109.9C254.8 120.4 251.5 131.2 245.65 139.85C245.5 140.05 245.5 140.4 245.65 140.6C247.45 143.65 249.25 146.7 251.05 149.75C251.85 151.15 252.7 152.5 253.5 153.9C254 154.75 254.65 155.45 254.55 156.5C254.5 157.25 253.6 158.35 253.25 159.05C252.7 159.85 254 160.65 254.45 159.75Z" fill="#141414"/>
<path d="M235.45 148.45C240.95 153 247 156.6 253.65 159.25C254.55 159.6 254.95 158.15 254.05 157.8C247.7 155.25 241.8 151.75 236.5 147.4C235.75 146.75 234.7 147.8 235.45 148.45Z" fill="#141414"/>
<path d="M190.8 123.15C192.788 123.15 194.4 120.8 194.4 117.9C194.4 115.001 192.788 112.65 190.8 112.65C188.812 112.65 187.2 115.001 187.2 117.9C187.2 120.8 188.812 123.15 190.8 123.15Z" fill="black" stroke="black" stroke-miterlimit="10"/>
<path d="M211.4 122.5C213.388 122.5 215 120.149 215 117.25C215 114.351 213.388 112 211.4 112C209.412 112 207.8 114.351 207.8 117.25C207.8 120.149 209.412 122.5 211.4 122.5Z" fill="black" stroke="black" stroke-miterlimit="10"/>
<path d="M231.45 121.9C233.438 121.9 235.05 119.55 235.05 116.65C235.05 113.751 233.438 111.4 231.45 111.4C229.462 111.4 227.85 113.751 227.85 116.65C227.85 119.55 229.462 121.9 231.45 121.9Z" fill="black" stroke="black" stroke-miterlimit="10"/>
</svg>
