<?xml version="1.0" encoding="utf-8"?>
<!-- Generator: Adobe Illustrator 25.2.1, SVG Export Plug-In . SVG Version: 6.00 Build 0)  -->
<svg version="1.1" id="Layer_1" xmlns="http://www.w3.org/2000/svg" xmlns:xlink="http://www.w3.org/1999/xlink" x="0px" y="0px"
	 viewBox="0 0 72 20" style="enable-background:new 0 0 72 20;" xml:space="preserve">
<style type="text/css">
	.st0{fill:#FFFBFF;}
</style>
<path class="st0" d="M7.5,5.6v7.8H6.2V5.6H7.5z M12.2,5.6L9,10.1H7.1L7,8.9h1.3l2.3-3.3C10.6,5.6,12.2,5.6,12.2,5.6z M10.8,13.4
	L8.3,9.9l0.9-1l3.3,4.6h-1.7V13.4z M16.4,12.3V9.5c0-0.2,0-0.4-0.1-0.5c-0.1-0.2-0.2-0.3-0.3-0.3c-0.2-0.1-0.3-0.1-0.6-0.1
	c-0.2,0-0.4,0-0.5,0.1c-0.2,0.1-0.3,0.2-0.4,0.3c-0.1,0.1-0.1,0.3-0.1,0.4H13c0-0.2,0.1-0.5,0.2-0.7c0.1-0.2,0.3-0.4,0.5-0.6
	c0.2-0.2,0.5-0.3,0.8-0.4s0.6-0.1,1-0.1s0.8,0.1,1.2,0.2c0.3,0.1,0.6,0.4,0.8,0.7c0.2,0.3,0.3,0.7,0.3,1.1v2.6c0,0.3,0,0.5,0.1,0.7
	c0,0.2,0.1,0.4,0.2,0.5v0.1h-1.3c-0.1-0.1-0.1-0.3-0.1-0.5C16.4,12.7,16.4,12.5,16.4,12.3z M16.6,9.9v0.8h-0.9c-0.2,0-0.5,0-0.6,0.1
	c-0.2,0-0.3,0.1-0.5,0.2c-0.1,0.1-0.2,0.2-0.3,0.3s-0.1,0.3-0.1,0.4c0,0.2,0,0.3,0.1,0.4c0.1,0.1,0.2,0.2,0.3,0.3s0.3,0.1,0.5,0.1
	c0.3,0,0.5-0.1,0.7-0.2c0.2-0.1,0.4-0.2,0.5-0.4c0.1-0.2,0.2-0.3,0.2-0.5l0.4,0.6c0,0.1-0.1,0.3-0.2,0.5s-0.2,0.3-0.4,0.5
	c-0.2,0.2-0.4,0.3-0.6,0.4c-0.2,0.1-0.5,0.1-0.8,0.1c-0.4,0-0.7-0.1-1-0.2c-0.3-0.2-0.5-0.4-0.7-0.6c-0.2-0.3-0.3-0.6-0.3-0.9
	c0-0.3,0.1-0.6,0.2-0.8c0.1-0.2,0.3-0.4,0.5-0.6c0.2-0.2,0.5-0.3,0.8-0.4c0.3-0.1,0.7-0.1,1.1-0.1C15.5,9.9,16.6,9.9,16.6,9.9z
	 M20.3,8.7v6.9H19v-8h1.2L20.3,8.7z M24.1,10.5v0.1c0,0.4-0.1,0.8-0.2,1.2s-0.2,0.7-0.4,0.9c-0.2,0.3-0.4,0.5-0.7,0.6
	c-0.3,0.1-0.6,0.2-1,0.2s-0.7-0.1-1-0.2c-0.3-0.1-0.5-0.3-0.7-0.6c-0.2-0.2-0.3-0.5-0.5-0.9c-0.1-0.3-0.2-0.7-0.2-1.1v-0.4
	c0-0.4,0.1-0.8,0.2-1.2c0.1-0.3,0.3-0.6,0.5-0.9c0.2-0.3,0.4-0.4,0.7-0.6c0.3-0.1,0.6-0.2,0.9-0.2c0.4,0,0.7,0.1,1,0.2
	s0.5,0.3,0.7,0.6c0.2,0.3,0.3,0.6,0.4,0.9C24.1,9.6,24.1,10,24.1,10.5z M22.8,10.6v-0.1c0-0.3,0-0.5-0.1-0.7s-0.1-0.4-0.2-0.6
	c-0.1-0.2-0.2-0.3-0.4-0.4c-0.2-0.1-0.4-0.2-0.6-0.2s-0.4,0-0.6,0.1S20.6,8.9,20.5,9s-0.2,0.3-0.3,0.5c-0.1,0.2-0.1,0.4-0.1,0.6v1
	c0,0.3,0.1,0.5,0.2,0.7s0.3,0.4,0.4,0.5c0.2,0.1,0.4,0.2,0.7,0.2c0.2,0,0.4-0.1,0.6-0.2c0.2-0.1,0.3-0.2,0.4-0.4s0.2-0.4,0.2-0.6
	C22.8,11.1,22.8,10.9,22.8,10.6z M27.6,7.6v5.8h-1.3V7.6H27.6z M29.5,7.6v1h-5.1v-1C24.4,7.6,29.5,7.6,29.5,7.6z M33.5,12.3V9.5
	c0-0.2,0-0.4-0.1-0.5s-0.2-0.3-0.3-0.3c-0.2-0.1-0.3-0.1-0.6-0.1c-0.2,0-0.4,0-0.5,0.1c-0.2,0.1-0.3,0.2-0.4,0.3s-0.1,0.3-0.1,0.4
	h-1.3c0-0.2,0.1-0.5,0.2-0.7s0.3-0.4,0.5-0.6c0.2-0.2,0.5-0.3,0.8-0.4s0.6-0.1,1-0.1s0.8,0.1,1.2,0.2c0.3,0.1,0.6,0.4,0.8,0.7
	S35,9.2,35,9.6v2.6c0,0.3,0,0.5,0.1,0.7c0,0.2,0.1,0.4,0.2,0.5v0.1H34c-0.1-0.1-0.1-0.3-0.1-0.5C33.5,12.7,33.5,12.5,33.5,12.3z
	 M33.7,9.9v0.8h-0.9c-0.2,0-0.5,0-0.6,0.1c-0.2,0-0.3,0.1-0.5,0.2c-0.1,0.1-0.2,0.2-0.3,0.3c-0.1,0.1-0.1,0.3-0.1,0.4
	c0,0.2,0,0.3,0.1,0.4c0.1,0.1,0.2,0.2,0.3,0.3c0.1,0.1,0.3,0.1,0.5,0.1c0.3,0,0.5-0.1,0.7-0.2c0.2-0.1,0.4-0.2,0.5-0.4
	s0.2-0.3,0.2-0.5L34,12c0,0.1-0.1,0.3-0.2,0.5c-0.1,0.2-0.2,0.3-0.4,0.5s-0.4,0.3-0.6,0.4c-0.2,0.1-0.5,0.1-0.8,0.1
	c-0.4,0-0.7-0.1-1-0.2c-0.3-0.2-0.5-0.4-0.7-0.6c-0.2-0.3-0.3-0.6-0.3-0.9c0-0.3,0.1-0.6,0.2-0.8s0.3-0.4,0.5-0.6
	c0.2-0.2,0.5-0.3,0.8-0.4c0.3-0.1,0.7-0.1,1.1-0.1H33.7z M40,7.6h1.3l-0.1,2c0,0.6-0.1,1.1-0.2,1.5c-0.1,0.4-0.3,0.8-0.5,1.1
	s-0.4,0.5-0.6,0.7c-0.2,0.2-0.5,0.3-0.7,0.4h-0.4v-1H39c0.2-0.2,0.3-0.3,0.4-0.5c0.1-0.2,0.2-0.4,0.3-0.6c0.1-0.2,0.1-0.4,0.2-0.7
	c0-0.3,0.1-0.6,0.1-1V7.6z M40.3,7.6H44v5.8h-1.3V8.7h-2.4V7.6z M38.5,12.4h6.3v2.8h-1.3v-1.7h-3.7v1.7h-1.3V12.4z M47,8.7v6.9h-1.3
	v-8h1.2L47,8.7z M50.8,10.5v0.1c0,0.4-0.1,0.8-0.2,1.2c-0.1,0.4-0.2,0.7-0.4,0.9c-0.2,0.3-0.4,0.5-0.7,0.6s-0.6,0.2-1,0.2
	s-0.7-0.1-1-0.2c-0.3-0.1-0.5-0.3-0.7-0.6c-0.2-0.2-0.3-0.5-0.5-0.9c-0.1-0.3-0.2-0.7-0.2-1.1v-0.4c0-0.4,0.1-0.8,0.2-1.2
	c0.1-0.3,0.3-0.6,0.5-0.9c0.2-0.3,0.4-0.4,0.7-0.6c0.3-0.1,0.6-0.2,0.9-0.2c0.4,0,0.7,0.1,1,0.2s0.5,0.3,0.7,0.6
	c0.2,0.3,0.3,0.6,0.4,0.9C50.7,9.6,50.8,10,50.8,10.5z M49.5,10.6v-0.1c0-0.3,0-0.5-0.1-0.7s-0.1-0.4-0.2-0.6
	C49.1,9,49,8.9,48.8,8.8c-0.2-0.1-0.4-0.2-0.6-0.2c-0.2,0-0.4,0-0.6,0.1c-0.2,0.1-0.3,0.2-0.4,0.3C47,9.1,47,9.3,46.9,9.5
	s-0.1,0.4-0.1,0.6v1c0,0.3,0.1,0.5,0.2,0.7c0.1,0.2,0.3,0.4,0.4,0.5c0.2,0.1,0.4,0.2,0.7,0.2c0.2,0,0.4-0.1,0.6-0.2
	c0.2-0.1,0.3-0.2,0.4-0.4c0.1-0.2,0.2-0.4,0.2-0.6C49.5,11.1,49.5,10.9,49.5,10.6z M53.5,12.8l1.6-5.2h1.4l-2.3,6.7
	c-0.1,0.1-0.1,0.3-0.2,0.5c-0.1,0.2-0.2,0.3-0.3,0.5s-0.3,0.3-0.5,0.4c-0.2,0.1-0.5,0.1-0.7,0.1c-0.1,0-0.2,0-0.3,0s-0.2,0-0.3-0.1
	v-1H52c0.1,0,0.1,0,0.1,0c0.2,0,0.4,0,0.5-0.1s0.3-0.1,0.3-0.2c0.1-0.1,0.2-0.3,0.2-0.5L53.5,12.8z M52.6,7.6L54,12l0.2,1.4
	l-0.9,0.2l-2.1-5.9L52.6,7.6L52.6,7.6z M61.1,7.6v1h-2.5v4.8h-1.3V7.6H61.1z M65.1,12.3V9.5c0-0.2,0-0.4-0.1-0.5
	c-0.1-0.2-0.2-0.3-0.3-0.3c-0.2-0.1-0.3-0.1-0.6-0.1c-0.2,0-0.4,0-0.5,0.1c-0.2,0.1-0.3,0.2-0.4,0.3C63.1,9,63,9.1,63,9.3h-1.3
	c0-0.2,0.1-0.5,0.2-0.7C62,8.4,62.2,8.2,62.4,8s0.5-0.3,0.8-0.4s0.6-0.1,1-0.1c0.4,0,0.8,0.1,1.2,0.2c0.3,0.1,0.6,0.4,0.8,0.7
	c0.2,0.3,0.3,0.7,0.3,1.1v2.6c0,0.3,0,0.5,0.1,0.7c0,0.2,0.1,0.4,0.2,0.5v0.1h-1.3c-0.1-0.1-0.1-0.3-0.1-0.5
	C65.1,12.7,65.1,12.5,65.1,12.3z M65.3,9.9v0.8h-0.9c-0.2,0-0.5,0-0.6,0.1c-0.2,0-0.3,0.1-0.5,0.2c-0.1,0.1-0.2,0.2-0.3,0.3
	s-0.1,0.3-0.1,0.4c0,0.2,0,0.3,0.1,0.4c0.1,0.1,0.2,0.2,0.3,0.3s0.3,0.1,0.5,0.1c0.3,0,0.5-0.1,0.7-0.2c0.2-0.1,0.4-0.2,0.5-0.4
	s0.2-0.3,0.2-0.5l0.4,0.6c0,0.1-0.1,0.3-0.2,0.5S65.2,12.8,65,13s-0.4,0.3-0.6,0.4c-0.2,0.1-0.5,0.1-0.8,0.1c-0.4,0-0.7-0.1-1-0.2
	c-0.3-0.2-0.5-0.4-0.7-0.6c-0.2-0.3-0.3-0.6-0.3-0.9c0-0.3,0.1-0.6,0.2-0.8c0.1-0.2,0.3-0.4,0.5-0.6c0.2-0.2,0.5-0.3,0.8-0.4
	c0.3-0.1,0.7-0.1,1.1-0.1C64.2,9.9,65.3,9.9,65.3,9.9z"/>
<path class="st0" d="M68,1c1.7,0,3,1.3,3,3v12c0,1.7-1.3,3-3,3H4c-1.7,0-3-1.3-3-3V4c0-1.7,1.3-3,3-3H68 M68,0H4C1.8,0,0,1.8,0,4v12
	c0,2.2,1.8,4,4,4h64c2.2,0,4-1.8,4-4V4C72,1.8,70.2,0,68,0L68,0z"/>
</svg>
