<svg width="70" height="20" viewBox="0 0 70 20" fill="none" xmlns="http://www.w3.org/2000/svg">
<rect x="0.5" y="0.5" width="69" height="19" rx="3.5" stroke="#FFFBFF"/>
<path d="M6.16455 6.17969V14H4.82178V6.17969H6.16455ZM10.8696 6.17969L7.68994 10.6377H5.7832L5.60059 9.4668H6.94336L9.2207 6.17969H10.8696ZM9.49463 14L6.96484 10.4336L7.83496 9.39697L11.1113 14H9.49463ZM15.0322 12.8345V10.063C15.0322 9.85531 14.9946 9.67627 14.9194 9.52588C14.8442 9.37549 14.7297 9.25911 14.5757 9.17676C14.4253 9.0944 14.2355 9.05322 14.0063 9.05322C13.7951 9.05322 13.6125 9.08903 13.4585 9.16064C13.3045 9.23226 13.1846 9.32894 13.0986 9.45068C13.0127 9.57243 12.9697 9.71029 12.9697 9.86426H11.6807C11.6807 9.63509 11.7362 9.41309 11.8472 9.19824C11.9582 8.9834 12.1193 8.79183 12.3306 8.62354C12.5418 8.45524 12.7943 8.32275 13.0879 8.22607C13.3815 8.12939 13.7109 8.08105 14.0762 8.08105C14.513 8.08105 14.8997 8.15446 15.2363 8.30127C15.5765 8.44808 15.8433 8.67008 16.0366 8.96729C16.2336 9.2609 16.332 9.62972 16.332 10.0737V12.6572C16.332 12.9222 16.3499 13.1603 16.3857 13.3716C16.4251 13.5793 16.4806 13.7601 16.5522 13.9141V14H15.2256C15.1647 13.8604 15.1164 13.6831 15.0806 13.4683C15.0483 13.2498 15.0322 13.0386 15.0322 12.8345ZM15.2202 10.4658L15.231 11.2661H14.3018C14.0618 11.2661 13.8506 11.2894 13.668 11.3359C13.4854 11.3789 13.3332 11.4434 13.2114 11.5293C13.0897 11.6152 12.9984 11.7191 12.9375 11.8408C12.8766 11.9626 12.8462 12.1004 12.8462 12.2544C12.8462 12.4084 12.882 12.5498 12.9536 12.6787C13.0252 12.804 13.1291 12.9025 13.2651 12.9741C13.4048 13.0457 13.5731 13.0815 13.77 13.0815C14.035 13.0815 14.266 13.0278 14.4629 12.9204C14.6634 12.8094 14.821 12.6751 14.9355 12.5176C15.0501 12.3564 15.111 12.2043 15.1182 12.061L15.5371 12.6357C15.4941 12.7826 15.4207 12.9401 15.3169 13.1084C15.2131 13.2767 15.077 13.4378 14.9087 13.5918C14.744 13.7422 14.5452 13.8657 14.3125 13.9624C14.0833 14.0591 13.8184 14.1074 13.5176 14.1074C13.138 14.1074 12.7996 14.0322 12.5024 13.8818C12.2052 13.7279 11.9725 13.522 11.8042 13.2642C11.6359 13.0028 11.5518 12.7074 11.5518 12.3779C11.5518 12.07 11.609 11.7979 11.7236 11.5615C11.8418 11.3216 12.0137 11.1211 12.2393 10.96C12.4684 10.7988 12.7477 10.6771 13.0771 10.5947C13.4066 10.5088 13.7826 10.4658 14.2051 10.4658H15.2202ZM18.9854 9.30566V16.2344H17.6909V8.18848H18.8833L18.9854 9.30566ZM22.772 11.0405V11.1533C22.772 11.5758 22.7218 11.9679 22.6216 12.3296C22.5249 12.6877 22.3799 13.001 22.1865 13.2695C21.9967 13.5345 21.7622 13.7404 21.4829 13.8872C21.2036 14.034 20.8813 14.1074 20.5161 14.1074C20.1545 14.1074 19.8376 14.0412 19.5654 13.9087C19.2969 13.7726 19.0695 13.5811 18.8833 13.334C18.6971 13.0869 18.5467 12.7969 18.4321 12.4639C18.3211 12.1273 18.2424 11.7585 18.1958 11.3574V10.9224C18.2424 10.4963 18.3211 10.1095 18.4321 9.76221C18.5467 9.41488 18.6971 9.11589 18.8833 8.86523C19.0695 8.61458 19.2969 8.42122 19.5654 8.28516C19.834 8.14909 20.1473 8.08105 20.5054 8.08105C20.8706 8.08105 21.1947 8.15267 21.4775 8.2959C21.7604 8.43555 21.9985 8.63607 22.1919 8.89746C22.3853 9.15527 22.5303 9.4668 22.627 9.83203C22.7236 10.1937 22.772 10.5965 22.772 11.0405ZM21.4775 11.1533V11.0405C21.4775 10.772 21.4525 10.5231 21.4023 10.2939C21.3522 10.0612 21.2734 9.8571 21.166 9.68164C21.0586 9.50618 20.9207 9.37012 20.7524 9.27344C20.5877 9.17318 20.389 9.12305 20.1562 9.12305C19.9271 9.12305 19.7301 9.16243 19.5654 9.24121C19.4007 9.31641 19.2629 9.42204 19.1519 9.55811C19.0409 9.69417 18.9549 9.85352 18.894 10.0361C18.8332 10.2152 18.7902 10.4103 18.7651 10.6216V11.6636C18.8081 11.9214 18.8815 12.1577 18.9854 12.3726C19.0892 12.5874 19.236 12.7593 19.4258 12.8882C19.6191 13.0135 19.8662 13.0762 20.167 13.0762C20.3997 13.0762 20.5985 13.026 20.7632 12.9258C20.9279 12.8255 21.0622 12.6877 21.166 12.5122C21.2734 12.3332 21.3522 12.1273 21.4023 11.8945C21.4525 11.6618 21.4775 11.4147 21.4775 11.1533ZM26.2148 8.18848V14H24.915V8.18848H26.2148ZM28.1216 8.18848V9.20898H23.0405V8.18848H28.1216ZM32.1768 12.8345V10.063C32.1768 9.85531 32.1392 9.67627 32.064 9.52588C31.9888 9.37549 31.8742 9.25911 31.7202 9.17676C31.5698 9.0944 31.38 9.05322 31.1509 9.05322C30.9396 9.05322 30.757 9.08903 30.603 9.16064C30.4491 9.23226 30.3291 9.32894 30.2432 9.45068C30.1572 9.57243 30.1143 9.71029 30.1143 9.86426H28.8252C28.8252 9.63509 28.8807 9.41309 28.9917 9.19824C29.1027 8.9834 29.2638 8.79183 29.4751 8.62354C29.6864 8.45524 29.9388 8.32275 30.2324 8.22607C30.526 8.12939 30.8555 8.08105 31.2207 8.08105C31.6576 8.08105 32.0443 8.15446 32.3809 8.30127C32.721 8.44808 32.9878 8.67008 33.1812 8.96729C33.3781 9.2609 33.4766 9.62972 33.4766 10.0737V12.6572C33.4766 12.9222 33.4945 13.1603 33.5303 13.3716C33.5697 13.5793 33.6252 13.7601 33.6968 13.9141V14H32.3701C32.3092 13.8604 32.2609 13.6831 32.2251 13.4683C32.1929 13.2498 32.1768 13.0386 32.1768 12.8345ZM32.3647 10.4658L32.3755 11.2661H31.4463C31.2064 11.2661 30.9951 11.2894 30.8125 11.3359C30.6299 11.3789 30.4777 11.4434 30.356 11.5293C30.2342 11.6152 30.1429 11.7191 30.082 11.8408C30.0212 11.9626 29.9907 12.1004 29.9907 12.2544C29.9907 12.4084 30.0265 12.5498 30.0981 12.6787C30.1698 12.804 30.2736 12.9025 30.4097 12.9741C30.5493 13.0457 30.7176 13.0815 30.9146 13.0815C31.1795 13.0815 31.4105 13.0278 31.6074 12.9204C31.8079 12.8094 31.9655 12.6751 32.0801 12.5176C32.1947 12.3564 32.2555 12.2043 32.2627 12.061L32.6816 12.6357C32.6387 12.7826 32.5653 12.9401 32.4614 13.1084C32.3576 13.2767 32.2215 13.4378 32.0532 13.5918C31.8885 13.7422 31.6898 13.8657 31.457 13.9624C31.2279 14.0591 30.9629 14.1074 30.6621 14.1074C30.2826 14.1074 29.9442 14.0322 29.647 13.8818C29.3498 13.7279 29.117 13.522 28.9487 13.2642C28.7804 13.0028 28.6963 12.7074 28.6963 12.3779C28.6963 12.07 28.7536 11.7979 28.8682 11.5615C28.9863 11.3216 29.1582 11.1211 29.3838 10.96C29.613 10.7988 29.8923 10.6771 30.2217 10.5947C30.5511 10.5088 30.9271 10.4658 31.3496 10.4658H32.3647ZM38.6221 8.18848H39.9165L39.8521 10.2349C39.8341 10.8293 39.7661 11.3395 39.6479 11.7656C39.5298 12.1917 39.3758 12.5516 39.186 12.8452C38.9963 13.1353 38.7814 13.3734 38.5415 13.5596C38.3052 13.7458 38.0563 13.8926 37.7949 14H37.4136V12.9795L37.5962 12.9688C37.7502 12.804 37.8826 12.6393 37.9937 12.4746C38.1082 12.3063 38.2049 12.1219 38.2837 11.9214C38.3625 11.7173 38.4233 11.4792 38.4663 11.207C38.5129 10.9349 38.5433 10.6108 38.5576 10.2349L38.6221 8.18848ZM38.9658 8.18848H42.6504V14H41.3613V9.28418H38.9658V8.18848ZM37.1182 12.9688H43.4453V15.7295H42.1509V14H38.4287V15.7295H37.1128L37.1182 12.9688ZM45.6367 9.30566V16.2344H44.3423V8.18848H45.5347L45.6367 9.30566ZM49.4233 11.0405V11.1533C49.4233 11.5758 49.3732 11.9679 49.2729 12.3296C49.1763 12.6877 49.0312 13.001 48.8379 13.2695C48.6481 13.5345 48.4136 13.7404 48.1343 13.8872C47.855 14.034 47.5327 14.1074 47.1675 14.1074C46.8058 14.1074 46.4889 14.0412 46.2168 13.9087C45.9482 13.7726 45.7209 13.5811 45.5347 13.334C45.3485 13.0869 45.1981 12.7969 45.0835 12.4639C44.9725 12.1273 44.8937 11.7585 44.8472 11.3574V10.9224C44.8937 10.4963 44.9725 10.1095 45.0835 9.76221C45.1981 9.41488 45.3485 9.11589 45.5347 8.86523C45.7209 8.61458 45.9482 8.42122 46.2168 8.28516C46.4854 8.14909 46.7987 8.08105 47.1567 8.08105C47.522 8.08105 47.846 8.15267 48.1289 8.2959C48.4118 8.43555 48.6499 8.63607 48.8433 8.89746C49.0366 9.15527 49.1816 9.4668 49.2783 9.83203C49.375 10.1937 49.4233 10.5965 49.4233 11.0405ZM48.1289 11.1533V11.0405C48.1289 10.772 48.1038 10.5231 48.0537 10.2939C48.0036 10.0612 47.9248 9.8571 47.8174 9.68164C47.71 9.50618 47.5721 9.37012 47.4038 9.27344C47.2391 9.17318 47.0404 9.12305 46.8076 9.12305C46.5785 9.12305 46.3815 9.16243 46.2168 9.24121C46.0521 9.31641 45.9142 9.42204 45.8032 9.55811C45.6922 9.69417 45.6063 9.85352 45.5454 10.0361C45.4845 10.2152 45.4416 10.4103 45.4165 10.6216V11.6636C45.4595 11.9214 45.5329 12.1577 45.6367 12.3726C45.7406 12.5874 45.8874 12.7593 46.0771 12.8882C46.2705 13.0135 46.5176 13.0762 46.8184 13.0762C47.0511 13.0762 47.2498 13.026 47.4146 12.9258C47.5793 12.8255 47.7135 12.6877 47.8174 12.5122C47.9248 12.3332 48.0036 12.1273 48.0537 11.8945C48.1038 11.6618 48.1289 11.4147 48.1289 11.1533ZM52.1465 13.3662L53.7256 8.18848H55.1113L52.7803 14.8862C52.7266 15.0295 52.6567 15.1852 52.5708 15.3535C52.4849 15.5218 52.3721 15.6812 52.2324 15.8315C52.0964 15.9855 51.9263 16.109 51.7222 16.2021C51.5181 16.2988 51.271 16.3472 50.981 16.3472C50.8664 16.3472 50.7554 16.3364 50.6479 16.3149C50.5441 16.297 50.4456 16.2773 50.3525 16.2559L50.3472 15.2676C50.383 15.2712 50.4259 15.2747 50.4761 15.2783C50.5298 15.2819 50.5728 15.2837 50.605 15.2837C50.8198 15.2837 50.9989 15.2568 51.1421 15.2031C51.2853 15.153 51.4017 15.0706 51.4912 14.9561C51.5843 14.8415 51.6631 14.6875 51.7275 14.4941L52.1465 13.3662ZM51.2549 8.18848L52.6353 12.5391L52.8662 13.9033L51.9692 14.1343L49.8584 8.18848H51.2549ZM59.7197 8.18848V9.21973H57.1846V14H55.8901V8.18848H59.7197ZM63.748 12.8345V10.063C63.748 9.85531 63.7104 9.67627 63.6353 9.52588C63.5601 9.37549 63.4455 9.25911 63.2915 9.17676C63.1411 9.0944 62.9513 9.05322 62.7222 9.05322C62.5109 9.05322 62.3283 9.08903 62.1743 9.16064C62.0203 9.23226 61.9004 9.32894 61.8145 9.45068C61.7285 9.57243 61.6855 9.71029 61.6855 9.86426H60.3965C60.3965 9.63509 60.452 9.41309 60.563 9.19824C60.674 8.9834 60.8351 8.79183 61.0464 8.62354C61.2576 8.45524 61.5101 8.32275 61.8037 8.22607C62.0973 8.12939 62.4268 8.08105 62.792 8.08105C63.2288 8.08105 63.6156 8.15446 63.9521 8.30127C64.2923 8.44808 64.5591 8.67008 64.7524 8.96729C64.9494 9.2609 65.0479 9.62972 65.0479 10.0737V12.6572C65.0479 12.9222 65.0658 13.1603 65.1016 13.3716C65.141 13.5793 65.1965 13.7601 65.2681 13.9141V14H63.9414C63.8805 13.8604 63.8322 13.6831 63.7964 13.4683C63.7642 13.2498 63.748 13.0386 63.748 12.8345ZM63.936 10.4658L63.9468 11.2661H63.0176C62.7777 11.2661 62.5664 11.2894 62.3838 11.3359C62.2012 11.3789 62.049 11.4434 61.9272 11.5293C61.8055 11.6152 61.7142 11.7191 61.6533 11.8408C61.5924 11.9626 61.562 12.1004 61.562 12.2544C61.562 12.4084 61.5978 12.5498 61.6694 12.6787C61.741 12.804 61.8449 12.9025 61.981 12.9741C62.1206 13.0457 62.2889 13.0815 62.4858 13.0815C62.7508 13.0815 62.9818 13.0278 63.1787 12.9204C63.3792 12.8094 63.5368 12.6751 63.6514 12.5176C63.766 12.3564 63.8268 12.2043 63.834 12.061L64.2529 12.6357C64.21 12.7826 64.1366 12.9401 64.0327 13.1084C63.9289 13.2767 63.7928 13.4378 63.6245 13.5918C63.4598 13.7422 63.2611 13.8657 63.0283 13.9624C62.7992 14.0591 62.5342 14.1074 62.2334 14.1074C61.8538 14.1074 61.5155 14.0322 61.2183 13.8818C60.9211 13.7279 60.6883 13.522 60.52 13.2642C60.3517 13.0028 60.2676 12.7074 60.2676 12.3779C60.2676 12.07 60.3249 11.7979 60.4395 11.5615C60.5576 11.3216 60.7295 11.1211 60.9551 10.96C61.1842 10.7988 61.4635 10.6771 61.793 10.5947C62.1224 10.5088 62.4984 10.4658 62.9209 10.4658H63.936Z" fill="#FFFBFF"/>
</svg>
