<svg width="148" height="38" viewBox="0 0 148 38" fill="none" xmlns="http://www.w3.org/2000/svg">
<rect width="147.847" height="36.3076" transform="translate(0 0.84375)"/>
<rect y="27.7734" width="27.2802" height="13.3972" rx="6.69861" transform="rotate(-45.5871 0 27.7734)" fill="#FF9D00"/>
<rect x="24.5273" y="21.7969" width="29.3341" height="13.7096" rx="6.85479" transform="rotate(-45.5871 24.5273 21.7969)" fill="#49CAED" fill-opacity="0.7"/>
<ellipse cx="27.3737" cy="18.8031" rx="13.7956" ry="13.5766" fill="#F73C5C"/>
<path fill-rule="evenodd" clip-rule="evenodd" d="M37.6333 28.1647L37.2225 28.5839C34.7285 31.0234 31.292 32.5308 27.4978 32.5308C23.796 32.5308 20.4348 31.0959 17.957 28.7605C18.1505 28.4957 18.3653 28.2415 18.6016 28.0004L37.0558 9.16406C39.6678 11.6344 41.2934 15.1075 41.2934 18.9542C41.2934 22.5089 39.9052 25.7445 37.6333 28.1647Z" fill="#2A8BEA"/>
<path d="M62.9477 25.7C61.481 25.7 60.221 25.4067 59.1677 24.82C58.1277 24.22 57.3277 23.38 56.7677 22.3C56.2077 21.2067 55.9277 19.92 55.9277 18.44C55.9277 17.3333 56.0877 16.34 56.4077 15.46C56.7277 14.5667 57.1877 13.8067 57.7877 13.18C58.3877 12.54 59.121 12.0533 59.9877 11.72C60.8677 11.3733 61.8543 11.2 62.9477 11.2C63.681 11.2 64.401 11.2933 65.1077 11.48C65.8143 11.6667 66.4343 11.9333 66.9677 12.28C67.2477 12.4533 67.4343 12.6667 67.5277 12.92C67.621 13.16 67.641 13.4 67.5877 13.64C67.5343 13.8667 67.421 14.06 67.2477 14.22C67.0877 14.38 66.881 14.4733 66.6277 14.5C66.3877 14.5133 66.121 14.4267 65.8277 14.24C65.4143 13.9733 64.9677 13.78 64.4877 13.66C64.0077 13.54 63.521 13.48 63.0277 13.48C62.081 13.48 61.281 13.6733 60.6277 14.06C59.9743 14.4467 59.481 15.0067 59.1477 15.74C58.8143 16.4733 58.6477 17.3733 58.6477 18.44C58.6477 19.4933 58.8143 20.3933 59.1477 21.14C59.481 21.8867 59.9743 22.4533 60.6277 22.84C61.281 23.2267 62.081 23.42 63.0277 23.42C63.5343 23.42 64.0343 23.36 64.5277 23.24C65.021 23.1067 65.4877 22.9067 65.9277 22.64C66.221 22.4667 66.481 22.3933 66.7077 22.42C66.9477 22.4333 67.1477 22.5133 67.3077 22.66C67.4677 22.8067 67.5743 22.9933 67.6277 23.22C67.681 23.4333 67.6677 23.66 67.5877 23.9C67.5077 24.1267 67.3477 24.3267 67.1077 24.5C66.5743 24.8867 65.9343 25.1867 65.1877 25.4C64.4543 25.6 63.7077 25.7 62.9477 25.7ZM70.1214 25.66C69.7214 25.66 69.4081 25.5533 69.1814 25.34C68.9681 25.1133 68.8614 24.7933 68.8614 24.38V16.86C68.8614 16.4467 68.9681 16.1333 69.1814 15.92C69.4081 15.6933 69.7214 15.58 70.1214 15.58C70.5214 15.58 70.8281 15.6933 71.0414 15.92C71.2547 16.1333 71.3614 16.4467 71.3614 16.86V19.52H72.7814L75.2814 16.16C75.4681 15.9067 75.6814 15.7467 75.9214 15.68C76.1614 15.6 76.3881 15.5933 76.6014 15.66C76.8281 15.7267 77.0081 15.8467 77.1414 16.02C77.2881 16.1933 77.3614 16.4 77.3614 16.64C77.3747 16.8667 77.2881 17.1067 77.1014 17.36L74.7214 20.62L74.1814 19.82C74.5414 19.86 74.8614 19.96 75.1414 20.12C75.4347 20.28 75.7014 20.5067 75.9414 20.8C76.1947 21.08 76.4414 21.4333 76.6814 21.86L77.8614 23.96C78.0214 24.24 78.0747 24.5 78.0214 24.74C77.9814 24.9667 77.8681 25.16 77.6814 25.32C77.5081 25.48 77.3014 25.58 77.0614 25.62C76.8214 25.66 76.5814 25.6267 76.3414 25.52C76.1147 25.4267 75.9214 25.24 75.7614 24.96L74.4214 22.62C74.2481 22.3133 74.0747 22.08 73.9014 21.92C73.7414 21.7467 73.5547 21.6267 73.3414 21.56C73.1414 21.4933 72.8947 21.46 72.6014 21.46H71.3614V24.38C71.3614 24.7933 71.2547 25.1133 71.0414 25.34C70.8281 25.5533 70.5214 25.66 70.1214 25.66ZM80.1933 25.66C79.9399 25.66 79.7266 25.6133 79.5533 25.52C79.3799 25.4267 79.2466 25.28 79.1533 25.08C79.0733 24.88 79.0333 24.6267 79.0333 24.32V16.76C79.0333 16.3733 79.1333 16.08 79.3333 15.88C79.5333 15.6667 79.8133 15.56 80.1733 15.56C80.5333 15.56 80.8066 15.6667 80.9933 15.88C81.1933 16.08 81.2933 16.3733 81.2933 16.76V22.94H80.7733L85.7133 16.36C85.8599 16.1733 86.0399 15.9933 86.2533 15.82C86.4666 15.6467 86.7599 15.56 87.1333 15.56C87.3866 15.56 87.5933 15.6067 87.7533 15.7C87.9266 15.7933 88.0533 15.94 88.1333 16.14C88.2266 16.3267 88.2733 16.5733 88.2733 16.88V24.46C88.2733 24.8333 88.1733 25.1267 87.9733 25.34C87.7866 25.5533 87.5133 25.66 87.1533 25.66C86.7799 25.66 86.4933 25.5533 86.2933 25.34C86.1066 25.1267 86.0133 24.8333 86.0133 24.46V18.26H86.5533L81.5933 24.86C81.4599 25.0467 81.2866 25.2267 81.0733 25.4C80.8733 25.5733 80.5799 25.66 80.1933 25.66ZM90.2836 28.26C89.9503 28.26 89.6836 28.16 89.4836 27.96C89.2969 27.7733 89.2036 27.5 89.2036 27.14V24.7C89.2036 23.9267 89.5903 23.54 90.3636 23.54H91.4836L90.0036 24.06C90.3503 23.5933 90.6236 23.1067 90.8236 22.6C91.0236 22.0933 91.1703 21.5133 91.2636 20.86C91.3569 20.1933 91.4036 19.4067 91.4036 18.5V17.12C91.4036 16.6667 91.5236 16.32 91.7636 16.08C92.0036 15.84 92.3503 15.72 92.8036 15.72H97.6236C98.0769 15.72 98.4236 15.84 98.6636 16.08C98.9036 16.32 99.0236 16.6667 99.0236 17.12V24.7L97.8636 23.54H99.4636C99.8369 23.54 100.124 23.64 100.324 23.84C100.524 24.0267 100.624 24.3133 100.624 24.7V27.14C100.624 27.8867 100.27 28.26 99.5636 28.26C99.2169 28.26 98.9503 28.16 98.7636 27.96C98.5903 27.7733 98.5036 27.5 98.5036 27.14V25.5H91.3236V27.14C91.3236 27.8867 90.9769 28.26 90.2836 28.26ZM92.5836 23.54H96.6836V17.64H93.5436V19.08C93.5436 19.92 93.4569 20.7333 93.2836 21.52C93.1236 22.3067 92.8903 22.98 92.5836 23.54ZM102.707 25.5C102.307 25.5 102 25.3933 101.787 25.18C101.574 24.9667 101.467 24.66 101.467 24.26V16.82C101.467 16.3933 101.574 16.08 101.787 15.88C102.014 15.6667 102.327 15.56 102.727 15.56C103.127 15.56 103.434 15.6667 103.647 15.88C103.86 16.08 103.967 16.3933 103.967 16.82V18.96H106.547C107.84 18.96 108.814 19.2333 109.467 19.78C110.134 20.3267 110.467 21.1267 110.467 22.18C110.467 22.8467 110.307 23.4333 109.987 23.94C109.667 24.4333 109.214 24.82 108.627 25.1C108.054 25.3667 107.36 25.5 106.547 25.5H102.707ZM103.967 23.86H106.167C106.794 23.86 107.28 23.7267 107.627 23.46C107.974 23.18 108.147 22.76 108.147 22.2C108.147 21.6533 107.974 21.2533 107.627 21C107.28 20.7333 106.794 20.6 106.167 20.6H103.967V23.86ZM112.887 25.66C112.487 25.66 112.18 25.5533 111.967 25.34C111.754 25.1133 111.647 24.7933 111.647 24.38V16.82C111.647 16.3933 111.754 16.08 111.967 15.88C112.18 15.6667 112.487 15.56 112.887 15.56C113.287 15.56 113.594 15.6667 113.807 15.88C114.034 16.08 114.147 16.3933 114.147 16.82V24.38C114.147 25.2333 113.727 25.66 112.887 25.66ZM117.234 25.5C116.834 25.5 116.528 25.3933 116.314 25.18C116.101 24.9667 115.994 24.66 115.994 24.26V16.96C115.994 16.56 116.101 16.2533 116.314 16.04C116.528 15.8267 116.834 15.72 117.234 15.72H121.274C122.114 15.72 122.794 15.82 123.314 16.02C123.848 16.22 124.234 16.5133 124.474 16.9C124.714 17.2733 124.834 17.7333 124.834 18.28C124.834 18.8933 124.621 19.4133 124.194 19.84C123.781 20.2533 123.228 20.5067 122.534 20.6V20.32C123.401 20.3733 124.054 20.62 124.494 21.06C124.948 21.5 125.174 22.0667 125.174 22.76C125.174 23.6 124.854 24.2667 124.214 24.76C123.574 25.2533 122.648 25.5 121.434 25.5H117.234ZM118.314 23.96H121.214C121.761 23.96 122.174 23.8467 122.454 23.62C122.748 23.3933 122.894 23.06 122.894 22.62C122.894 22.18 122.748 21.8467 122.454 21.62C122.174 21.3933 121.761 21.28 121.214 21.28H118.314V23.96ZM118.314 19.74H121.034C121.514 19.74 121.888 19.6333 122.154 19.42C122.421 19.1933 122.554 18.88 122.554 18.48C122.554 18.08 122.421 17.78 122.154 17.58C121.888 17.3667 121.514 17.26 121.034 17.26H118.314V19.74ZM129.601 25.7C128.895 25.7 128.261 25.5667 127.701 25.3C127.155 25.02 126.721 24.6467 126.401 24.18C126.095 23.7133 125.941 23.1867 125.941 22.6C125.941 21.88 126.128 21.3133 126.501 20.9C126.875 20.4733 127.481 20.1667 128.321 19.98C129.161 19.7933 130.288 19.7 131.701 19.7H132.701V21.14H131.721C130.895 21.14 130.235 21.18 129.741 21.26C129.248 21.34 128.895 21.48 128.681 21.68C128.481 21.8667 128.381 22.1333 128.381 22.48C128.381 22.92 128.535 23.28 128.841 23.56C129.148 23.84 129.575 23.98 130.121 23.98C130.561 23.98 130.948 23.88 131.281 23.68C131.628 23.4667 131.901 23.18 132.101 22.82C132.301 22.46 132.401 22.0467 132.401 21.58V19.28C132.401 18.6133 132.255 18.1333 131.961 17.84C131.668 17.5467 131.175 17.4 130.481 17.4C130.095 17.4 129.675 17.4467 129.221 17.54C128.781 17.6333 128.315 17.7933 127.821 18.02C127.568 18.14 127.341 18.1733 127.141 18.12C126.955 18.0667 126.808 17.96 126.701 17.8C126.595 17.6267 126.541 17.44 126.541 17.24C126.541 17.04 126.595 16.8467 126.701 16.66C126.808 16.46 126.988 16.3133 127.241 16.22C127.855 15.9667 128.441 15.7867 129.001 15.68C129.575 15.5733 130.095 15.52 130.561 15.52C131.521 15.52 132.308 15.6667 132.921 15.96C133.548 16.2533 134.015 16.7 134.321 17.3C134.628 17.8867 134.781 18.6467 134.781 19.58V24.38C134.781 24.7933 134.681 25.1133 134.481 25.34C134.281 25.5533 133.995 25.66 133.621 25.66C133.248 25.66 132.955 25.5533 132.741 25.34C132.541 25.1133 132.441 24.7933 132.441 24.38V23.42H132.601C132.508 23.8867 132.321 24.2933 132.041 24.64C131.775 24.9733 131.435 25.2333 131.021 25.42C130.608 25.6067 130.135 25.7 129.601 25.7ZM137.732 25.66C137.479 25.66 137.266 25.6133 137.092 25.52C136.919 25.4267 136.786 25.28 136.692 25.08C136.612 24.88 136.572 24.6267 136.572 24.32V16.76C136.572 16.3733 136.672 16.08 136.872 15.88C137.072 15.6667 137.352 15.56 137.712 15.56C138.072 15.56 138.346 15.6667 138.532 15.88C138.732 16.08 138.832 16.3733 138.832 16.76V22.94H138.312L143.252 16.36C143.399 16.1733 143.579 15.9933 143.792 15.82C144.006 15.6467 144.299 15.56 144.672 15.56C144.926 15.56 145.132 15.6067 145.292 15.7C145.466 15.7933 145.592 15.94 145.672 16.14C145.766 16.3267 145.812 16.5733 145.812 16.88V24.46C145.812 24.8333 145.712 25.1267 145.512 25.34C145.326 25.5533 145.052 25.66 144.692 25.66C144.319 25.66 144.032 25.5533 143.832 25.34C143.646 25.1267 143.552 24.8333 143.552 24.46V18.26H144.092L139.132 24.86C138.999 25.0467 138.826 25.2267 138.612 25.4C138.412 25.5733 138.119 25.66 137.732 25.66ZM141.192 14.48C140.366 14.48 139.646 14.2933 139.032 13.92C138.419 13.5333 137.986 12.9933 137.732 12.3C137.639 12.0467 137.626 11.84 137.692 11.68C137.772 11.5067 137.912 11.3867 138.112 11.32C138.312 11.2533 138.486 11.26 138.632 11.34C138.792 11.42 138.932 11.58 139.052 11.82C139.279 12.2467 139.566 12.5667 139.912 12.78C140.272 12.9933 140.699 13.1 141.192 13.1C141.699 13.1 142.126 12.9933 142.472 12.78C142.832 12.5667 143.119 12.2467 143.332 11.82C143.452 11.58 143.586 11.42 143.732 11.34C143.892 11.26 144.072 11.2533 144.272 11.32C144.472 11.3867 144.606 11.5067 144.672 11.68C144.752 11.84 144.732 12.0467 144.612 12.3C144.279 12.9933 143.832 13.5333 143.272 13.92C142.712 14.2933 142.019 14.48 141.192 14.48Z" fill="#1C1B1E"/>
</svg>
