<svg width="154" height="37" viewBox="0 0 154 37" fill="none" xmlns="http://www.w3.org/2000/svg">
<rect width="152.847" height="36.3076" transform="translate(0.578125 0.695312)"/>
<rect x="0.578125" y="27.625" width="27.2802" height="13.3972" rx="6.69861" transform="rotate(-45.5871 0.578125 27.625)" fill="#FF9D00"/>
<rect x="25.1055" y="21.6484" width="29.3341" height="13.7096" rx="6.85479" transform="rotate(-45.5871 25.1055 21.6484)" fill="#49CAED" fill-opacity="0.7"/>
<ellipse cx="27.9518" cy="18.6547" rx="13.7956" ry="13.5766" fill="#F73C5C"/>
<path fill-rule="evenodd" clip-rule="evenodd" d="M38.2114 28.0162L37.8007 28.4354C35.3066 30.8749 31.8701 32.3823 28.0759 32.3823C24.3742 32.3823 21.0129 30.9475 18.5352 28.6121C18.7286 28.3473 18.9435 28.0931 19.1797 27.8519L37.6339 9.01562C40.2459 11.486 41.8715 14.959 41.8715 18.8057C41.8715 22.3604 40.4833 25.5961 38.2114 28.0162Z" fill="#2A8BEA"/>
<path d="M63.5258 25.5516C62.0591 25.5516 60.7991 25.2582 59.7458 24.6716C58.7058 24.0716 57.9058 23.2316 57.3458 22.1516C56.7858 21.0582 56.5058 19.7716 56.5058 18.2916C56.5058 17.1849 56.6658 16.1916 56.9858 15.3116C57.3058 14.4182 57.7658 13.6582 58.3658 13.0316C58.9658 12.3916 59.6991 11.9049 60.5658 11.5716C61.4458 11.2249 62.4324 11.0516 63.5258 11.0516C64.2591 11.0516 64.9791 11.1449 65.6858 11.3316C66.3924 11.5182 67.0124 11.7849 67.5458 12.1316C67.8258 12.3049 68.0124 12.5182 68.1058 12.7716C68.1991 13.0116 68.2191 13.2516 68.1658 13.4916C68.1124 13.7182 67.9991 13.9116 67.8258 14.0716C67.6658 14.2316 67.4591 14.3249 67.2058 14.3516C66.9658 14.3649 66.6991 14.2782 66.4058 14.0916C65.9924 13.8249 65.5458 13.6316 65.0658 13.5116C64.5858 13.3916 64.0991 13.3316 63.6058 13.3316C62.6591 13.3316 61.8591 13.5249 61.2058 13.9116C60.5524 14.2982 60.0591 14.8582 59.7258 15.5916C59.3924 16.3249 59.2258 17.2249 59.2258 18.2916C59.2258 19.3449 59.3924 20.2449 59.7258 20.9916C60.0591 21.7382 60.5524 22.3049 61.2058 22.6916C61.8591 23.0782 62.6591 23.2716 63.6058 23.2716C64.1124 23.2716 64.6124 23.2116 65.1058 23.0916C65.5991 22.9582 66.0658 22.7582 66.5058 22.4916C66.7991 22.3182 67.0591 22.2449 67.2858 22.2716C67.5258 22.2849 67.7258 22.3649 67.8858 22.5116C68.0458 22.6582 68.1524 22.8449 68.2058 23.0716C68.2591 23.2849 68.2458 23.5116 68.1658 23.7516C68.0858 23.9782 67.9258 24.1782 67.6858 24.3516C67.1524 24.7382 66.5124 25.0382 65.7658 25.2516C65.0324 25.4516 64.2858 25.5516 63.5258 25.5516ZM71.4995 25.5116C71.0995 25.5116 70.7862 25.4049 70.5595 25.1916C70.3462 24.9649 70.2395 24.6449 70.2395 24.2316V16.7116C70.2395 16.2982 70.3462 15.9849 70.5595 15.7716C70.7862 15.5449 71.0995 15.4316 71.4995 15.4316C71.8995 15.4316 72.2062 15.5449 72.4195 15.7716C72.6329 15.9849 72.7395 16.2982 72.7395 16.7116V19.3716H74.1595L76.6595 16.0116C76.8462 15.7582 77.0595 15.5982 77.2995 15.5316C77.5395 15.4516 77.7662 15.4449 77.9795 15.5116C78.2062 15.5782 78.3862 15.6982 78.5195 15.8716C78.6662 16.0449 78.7395 16.2516 78.7395 16.4916C78.7529 16.7182 78.6662 16.9582 78.4795 17.2116L76.0995 20.4716L75.5595 19.6716C75.9195 19.7116 76.2395 19.8116 76.5195 19.9716C76.8129 20.1316 77.0795 20.3582 77.3195 20.6516C77.5729 20.9316 77.8195 21.2849 78.0595 21.7116L79.2395 23.8116C79.3995 24.0916 79.4529 24.3516 79.3995 24.5916C79.3595 24.8182 79.2462 25.0116 79.0595 25.1716C78.8862 25.3316 78.6795 25.4316 78.4395 25.4716C78.1995 25.5116 77.9595 25.4782 77.7195 25.3716C77.4929 25.2782 77.2995 25.0916 77.1395 24.8116L75.7995 22.4716C75.6262 22.1649 75.4529 21.9316 75.2795 21.7716C75.1195 21.5982 74.9329 21.4782 74.7195 21.4116C74.5195 21.3449 74.2729 21.3116 73.9795 21.3116H72.7395V24.2316C72.7395 24.6449 72.6329 24.9649 72.4195 25.1916C72.2062 25.4049 71.8995 25.5116 71.4995 25.5116ZM82.3714 25.5116C82.1181 25.5116 81.9047 25.4649 81.7314 25.3716C81.5581 25.2782 81.4247 25.1316 81.3314 24.9316C81.2514 24.7316 81.2114 24.4782 81.2114 24.1716V16.6116C81.2114 16.2249 81.3114 15.9316 81.5114 15.7316C81.7114 15.5182 81.9914 15.4116 82.3514 15.4116C82.7114 15.4116 82.9847 15.5182 83.1714 15.7316C83.3714 15.9316 83.4714 16.2249 83.4714 16.6116V22.7916H82.9514L87.8914 16.2116C88.0381 16.0249 88.2181 15.8449 88.4314 15.6716C88.6447 15.4982 88.9381 15.4116 89.3114 15.4116C89.5647 15.4116 89.7714 15.4582 89.9314 15.5516C90.1047 15.6449 90.2314 15.7916 90.3114 15.9916C90.4047 16.1782 90.4514 16.4249 90.4514 16.7316V24.3116C90.4514 24.6849 90.3514 24.9782 90.1514 25.1916C89.9647 25.4049 89.6914 25.5116 89.3314 25.5116C88.9581 25.5116 88.6714 25.4049 88.4714 25.1916C88.2847 24.9782 88.1914 24.6849 88.1914 24.3116V18.1116H88.7314L83.7714 24.7116C83.6381 24.8982 83.4647 25.0782 83.2514 25.2516C83.0514 25.4249 82.7581 25.5116 82.3714 25.5116ZM93.2617 28.1116C92.9284 28.1116 92.6617 28.0116 92.4617 27.8116C92.2751 27.6249 92.1817 27.3516 92.1817 26.9916V24.5516C92.1817 23.7782 92.5684 23.3916 93.3417 23.3916H94.4617L92.9817 23.9116C93.3284 23.4449 93.6017 22.9582 93.8017 22.4516C94.0017 21.9449 94.1484 21.3649 94.2417 20.7116C94.3351 20.0449 94.3817 19.2582 94.3817 18.3516V16.9716C94.3817 16.5182 94.5017 16.1716 94.7417 15.9316C94.9817 15.6916 95.3284 15.5716 95.7817 15.5716H100.602C101.055 15.5716 101.402 15.6916 101.642 15.9316C101.882 16.1716 102.002 16.5182 102.002 16.9716V24.5516L100.842 23.3916H102.442C102.815 23.3916 103.102 23.4916 103.302 23.6916C103.502 23.8782 103.602 24.1649 103.602 24.5516V26.9916C103.602 27.7382 103.248 28.1116 102.542 28.1116C102.195 28.1116 101.928 28.0116 101.742 27.8116C101.568 27.6249 101.482 27.3516 101.482 26.9916V25.3516H94.3017V26.9916C94.3017 27.7382 93.9551 28.1116 93.2617 28.1116ZM95.5617 23.3916H99.6617V17.4916H96.5217V18.9316C96.5217 19.7716 96.4351 20.5849 96.2617 21.3716C96.1017 22.1582 95.8684 22.8316 95.5617 23.3916ZM106.485 25.3516C106.085 25.3516 105.778 25.2449 105.565 25.0316C105.352 24.8182 105.245 24.5116 105.245 24.1116V16.6716C105.245 16.2449 105.352 15.9316 105.565 15.7316C105.792 15.5182 106.105 15.4116 106.505 15.4116C106.905 15.4116 107.212 15.5182 107.425 15.7316C107.638 15.9316 107.745 16.2449 107.745 16.6716V18.8116H110.325C111.618 18.8116 112.592 19.0849 113.245 19.6316C113.912 20.1782 114.245 20.9782 114.245 22.0316C114.245 22.6982 114.085 23.2849 113.765 23.7916C113.445 24.2849 112.992 24.6716 112.405 24.9516C111.832 25.2182 111.138 25.3516 110.325 25.3516H106.485ZM107.745 23.7116H109.945C110.572 23.7116 111.058 23.5782 111.405 23.3116C111.752 23.0316 111.925 22.6116 111.925 22.0516C111.925 21.5049 111.752 21.1049 111.405 20.8516C111.058 20.5849 110.572 20.4516 109.945 20.4516H107.745V23.7116ZM116.665 25.5116C116.265 25.5116 115.958 25.4049 115.745 25.1916C115.532 24.9649 115.425 24.6449 115.425 24.2316V16.6716C115.425 16.2449 115.532 15.9316 115.745 15.7316C115.958 15.5182 116.265 15.4116 116.665 15.4116C117.065 15.4116 117.372 15.5182 117.585 15.7316C117.812 15.9316 117.925 16.2449 117.925 16.6716V24.2316C117.925 25.0849 117.505 25.5116 116.665 25.5116ZM121.812 25.3516C121.412 25.3516 121.106 25.2449 120.892 25.0316C120.679 24.8182 120.572 24.5116 120.572 24.1116V16.8116C120.572 16.4116 120.679 16.1049 120.892 15.8916C121.106 15.6782 121.412 15.5716 121.812 15.5716H125.852C126.692 15.5716 127.372 15.6716 127.892 15.8716C128.426 16.0716 128.812 16.3649 129.052 16.7516C129.292 17.1249 129.412 17.5849 129.412 18.1316C129.412 18.7449 129.199 19.2649 128.772 19.6916C128.359 20.1049 127.806 20.3582 127.112 20.4516V20.1716C127.979 20.2249 128.632 20.4716 129.072 20.9116C129.526 21.3516 129.752 21.9182 129.752 22.6116C129.752 23.4516 129.432 24.1182 128.792 24.6116C128.152 25.1049 127.226 25.3516 126.012 25.3516H121.812ZM122.892 23.8116H125.792C126.339 23.8116 126.752 23.6982 127.032 23.4716C127.326 23.2449 127.472 22.9116 127.472 22.4716C127.472 22.0316 127.326 21.6982 127.032 21.4716C126.752 21.2449 126.339 21.1316 125.792 21.1316H122.892V23.8116ZM122.892 19.5916H125.612C126.092 19.5916 126.466 19.4849 126.732 19.2716C126.999 19.0449 127.132 18.7316 127.132 18.3316C127.132 17.9316 126.999 17.6316 126.732 17.4316C126.466 17.2182 126.092 17.1116 125.612 17.1116H122.892V19.5916ZM134.98 25.5516C134.273 25.5516 133.64 25.4182 133.08 25.1516C132.533 24.8716 132.1 24.4982 131.78 24.0316C131.473 23.5649 131.32 23.0382 131.32 22.4516C131.32 21.7316 131.506 21.1649 131.88 20.7516C132.253 20.3249 132.86 20.0182 133.7 19.8316C134.54 19.6449 135.666 19.5516 137.08 19.5516H138.08V20.9916H137.1C136.273 20.9916 135.613 21.0316 135.12 21.1116C134.626 21.1916 134.273 21.3316 134.06 21.5316C133.86 21.7182 133.76 21.9849 133.76 22.3316C133.76 22.7716 133.913 23.1316 134.22 23.4116C134.526 23.6916 134.953 23.8316 135.5 23.8316C135.94 23.8316 136.326 23.7316 136.66 23.5316C137.006 23.3182 137.28 23.0316 137.48 22.6716C137.68 22.3116 137.78 21.8982 137.78 21.4316V19.1316C137.78 18.4649 137.633 17.9849 137.34 17.6916C137.046 17.3982 136.553 17.2516 135.86 17.2516C135.473 17.2516 135.053 17.2982 134.6 17.3916C134.16 17.4849 133.693 17.6449 133.2 17.8716C132.946 17.9916 132.72 18.0249 132.52 17.9716C132.333 17.9182 132.186 17.8116 132.08 17.6516C131.973 17.4782 131.92 17.2916 131.92 17.0916C131.92 16.8916 131.973 16.6982 132.08 16.5116C132.186 16.3116 132.366 16.1649 132.62 16.0716C133.233 15.8182 133.82 15.6382 134.38 15.5316C134.953 15.4249 135.473 15.3716 135.94 15.3716C136.9 15.3716 137.686 15.5182 138.3 15.8116C138.926 16.1049 139.393 16.5516 139.7 17.1516C140.006 17.7382 140.16 18.4982 140.16 19.4316V24.2316C140.16 24.6449 140.06 24.9649 139.86 25.1916C139.66 25.4049 139.373 25.5116 139 25.5116C138.626 25.5116 138.333 25.4049 138.12 25.1916C137.92 24.9649 137.82 24.6449 137.82 24.2316V23.2716H137.98C137.886 23.7382 137.7 24.1449 137.42 24.4916C137.153 24.8249 136.813 25.0849 136.4 25.2716C135.986 25.4582 135.513 25.5516 134.98 25.5516ZM143.91 25.5116C143.657 25.5116 143.444 25.4649 143.27 25.3716C143.097 25.2782 142.964 25.1316 142.87 24.9316C142.79 24.7316 142.75 24.4782 142.75 24.1716V16.6116C142.75 16.2249 142.85 15.9316 143.05 15.7316C143.25 15.5182 143.53 15.4116 143.89 15.4116C144.25 15.4116 144.524 15.5182 144.71 15.7316C144.91 15.9316 145.01 16.2249 145.01 16.6116V22.7916H144.49L149.43 16.2116C149.577 16.0249 149.757 15.8449 149.97 15.6716C150.184 15.4982 150.477 15.4116 150.85 15.4116C151.104 15.4116 151.31 15.4582 151.47 15.5516C151.644 15.6449 151.77 15.7916 151.85 15.9916C151.944 16.1782 151.99 16.4249 151.99 16.7316V24.3116C151.99 24.6849 151.89 24.9782 151.69 25.1916C151.504 25.4049 151.23 25.5116 150.87 25.5116C150.497 25.5116 150.21 25.4049 150.01 25.1916C149.824 24.9782 149.73 24.6849 149.73 24.3116V18.1116H150.27L145.31 24.7116C145.177 24.8982 145.004 25.0782 144.79 25.2516C144.59 25.4249 144.297 25.5116 143.91 25.5116ZM147.37 14.3316C146.544 14.3316 145.824 14.1449 145.21 13.7716C144.597 13.3849 144.164 12.8449 143.91 12.1516C143.817 11.8982 143.804 11.6916 143.87 11.5316C143.95 11.3582 144.09 11.2382 144.29 11.1716C144.49 11.1049 144.664 11.1116 144.81 11.1916C144.97 11.2716 145.11 11.4316 145.23 11.6716C145.457 12.0982 145.744 12.4182 146.09 12.6316C146.45 12.8449 146.877 12.9516 147.37 12.9516C147.877 12.9516 148.304 12.8449 148.65 12.6316C149.01 12.4182 149.297 12.0982 149.51 11.6716C149.63 11.4316 149.764 11.2716 149.91 11.1916C150.07 11.1116 150.25 11.1049 150.45 11.1716C150.65 11.2382 150.784 11.3582 150.85 11.5316C150.93 11.6916 150.91 11.8982 150.79 12.1516C150.457 12.8449 150.01 13.3849 149.45 13.7716C148.89 14.1449 148.197 14.3316 147.37 14.3316Z" fill="#F4EFF4"/>
</svg>
