<svg width="800" height="600" viewBox="0 0 800 600" fill="none" xmlns="http://www.w3.org/2000/svg">
<path d="M285.4 556.5C294.3 556.5 303.2 556.5 312.1 556.5C313.05 556.5 313.05 555 312.1 555C303.2 555 294.3 555 285.4 555C284.45 555 284.45 556.5 285.4 556.5Z" fill="#161616"/>
<path d="M402.75 555.602C409.35 555.602 415.95 555.602 422.55 555.602C423.5 555.602 423.5 554.102 422.55 554.102C415.95 554.102 409.35 554.102 402.75 554.102C401.75 554.102 401.75 555.602 402.75 555.602Z" fill="#161616"/>
<path d="M432.15 554.703C436 554.703 439.8 554.703 443.65 554.703C444.6 554.703 444.6 553.203 443.65 553.203C439.8 553.203 436 553.203 432.15 553.203C431.2 553.203 431.2 554.703 432.15 554.703Z" fill="#161616"/>
<path d="M385.052 494.748H290.102C286.802 494.748 284.102 492.048 284.102 488.748V485.648C284.102 482.348 286.802 479.648 290.102 479.648H385.052C388.352 479.648 391.052 482.348 391.052 485.648V488.748C391.052 492.048 388.352 494.748 385.052 494.748Z" stroke="#161616" stroke-width="2" stroke-miterlimit="10"/>
<path d="M394.35 510.655H299.4C296.1 510.655 293.4 507.955 293.4 504.655V501.555C293.4 498.255 296.1 495.555 299.4 495.555H394.35C397.65 495.555 400.35 498.255 400.35 501.555V504.655C400.35 507.955 397.65 510.655 394.35 510.655Z" stroke="#161616" stroke-width="2" stroke-miterlimit="10"/>
<path d="M372.45 526.155H277.5C274.2 526.155 271.5 523.455 271.5 520.155V517.055C271.5 513.755 274.2 511.055 277.5 511.055H372.45C375.75 511.055 378.45 513.755 378.45 517.055V520.155C378.45 523.455 375.75 526.155 372.45 526.155Z" stroke="#161616" stroke-width="2" stroke-miterlimit="10"/>
<path d="M384.05 540.748H289.15C285.85 540.748 283.15 538.048 283.15 534.748V531.648C283.15 528.348 285.85 525.648 289.15 525.648H384.1C387.4 525.648 390.1 528.348 390.1 531.648V534.748C390.05 538.048 387.35 540.748 384.05 540.748Z" stroke="#161616" stroke-width="2" stroke-miterlimit="10"/>
<path d="M394.35 555.85H299.4C296.1 555.85 293.4 553.15 293.4 549.85V546.75C293.4 543.45 296.1 540.75 299.4 540.75H394.35C397.65 540.75 400.35 543.45 400.35 546.75V549.85C400.35 553.15 397.65 555.85 394.35 555.85Z" stroke="#161616" stroke-width="2" stroke-miterlimit="10"/>
<path d="M357.301 486.148C357.301 488.198 357.301 490.298 357.301 492.348C357.301 493.048 358.451 493.098 358.451 492.348C358.451 490.298 358.451 488.198 358.451 486.148C358.401 485.398 357.301 485.398 357.301 486.148Z" fill="#161616"/>
<path d="M360.65 487.252C360.65 489.152 360.65 491.002 360.65 492.902C360.65 493.602 361.8 493.652 361.8 492.902C361.8 491.002 361.8 489.152 361.8 487.252C361.8 486.552 360.65 486.552 360.65 487.252Z" fill="#161616"/>
<path d="M371.951 484.15C371.951 486.8 371.951 489.4 371.951 492.05C371.951 492.75 373.101 492.8 373.101 492.05C373.101 489.4 373.101 486.8 373.101 484.15C373.101 483.45 371.951 483.45 371.951 484.15Z" fill="#161616"/>
<path d="M374.201 488.65C374.201 489.7 374.201 490.7 374.201 491.75C374.201 492.45 375.351 492.5 375.351 491.75C375.351 490.7 375.351 489.7 375.351 488.65C375.351 487.95 374.201 487.95 374.201 488.65Z" fill="#161616"/>
<path d="M296.602 483.953C296.602 486.853 296.602 489.753 296.602 492.703C296.602 493.403 297.752 493.453 297.752 492.703C297.752 489.803 297.752 486.903 297.752 483.953C297.702 483.203 296.602 483.203 296.602 483.953Z" fill="#161616"/>
<path d="M291.951 486.15C291.951 487.85 291.951 489.6 291.951 491.3C291.951 492 293.101 492.05 293.101 491.3C293.101 489.6 293.101 487.85 293.101 486.15C293.101 485.45 291.951 485.45 291.951 486.15Z" fill="#161616"/>
<path d="M310.65 484.305C310.65 486.655 310.65 489.005 310.65 491.305C310.65 492.005 311.8 492.055 311.8 491.305C311.8 488.955 311.8 486.605 311.8 484.305C311.75 483.555 310.65 483.555 310.65 484.305Z" fill="#161616"/>
<path d="M305.5 488.398C305.5 489.948 305.5 491.498 305.5 493.048C305.5 493.748 306.65 493.798 306.65 493.048C306.65 491.498 306.65 489.948 306.65 488.398C306.6 487.648 305.5 487.648 305.5 488.398Z" fill="#161616"/>
<path d="M331.701 484.455C331.701 487.505 331.701 490.505 331.701 493.555C331.701 494.255 332.851 494.305 332.851 493.555C332.851 490.505 332.851 487.505 332.851 484.455C332.851 483.755 331.701 483.755 331.701 484.455Z" fill="#161616"/>
<path d="M335.15 487.898C335.15 489.448 335.15 490.998 335.15 492.548C335.15 493.248 336.3 493.298 336.3 492.548C336.3 490.998 336.3 489.448 336.3 487.898C336.25 487.148 335.15 487.148 335.15 487.898Z" fill="#161616"/>
<path d="M340.25 483.752C340.25 486.802 340.25 489.802 340.25 492.852C340.25 493.552 341.4 493.602 341.4 492.852C341.4 489.802 341.4 486.802 341.4 483.752C341.4 483.052 340.25 483.052 340.25 483.752Z" fill="#161616"/>
<path d="M306.852 499.002C306.852 502.602 306.852 506.202 306.852 509.802C306.852 510.502 308.002 510.552 308.002 509.802C308.002 506.202 308.002 502.602 308.002 499.002C308.002 498.302 306.852 498.302 306.852 499.002Z" fill="#161616"/>
<path d="M313.051 502.603C313.051 505.153 313.051 507.753 313.051 510.303C313.051 511.003 314.201 511.053 314.201 510.303C314.201 507.753 314.201 505.153 314.201 502.603C314.151 501.903 313.051 501.903 313.051 502.603Z" fill="#161616"/>
<path d="M333.102 500.548C333.102 503.098 333.102 505.698 333.102 508.248C333.102 508.948 334.252 508.998 334.252 508.248C334.252 505.698 334.252 503.098 334.252 500.548C334.202 499.848 333.102 499.848 333.102 500.548Z" fill="#161616"/>
<path d="M346.102 497.798C346.102 501.948 346.102 506.148 346.102 510.298C346.102 510.998 347.252 511.048 347.252 510.298C347.252 506.148 347.252 501.948 347.252 497.798C347.202 497.098 346.102 497.098 346.102 497.798Z" fill="#161616"/>
<path d="M357.9 502.805C357.9 504.155 357.9 505.555 357.9 506.905C357.9 507.605 359.05 507.655 359.05 506.905C359.05 505.555 359.05 504.155 359.05 502.805C359.05 502.055 357.9 502.055 357.9 502.805Z" fill="#161616"/>
<path d="M283.201 515.305C283.201 518.605 283.201 521.905 283.201 525.255C283.201 525.955 284.351 526.005 284.351 525.255C284.351 521.955 284.351 518.655 284.351 515.305C284.351 514.555 283.201 514.555 283.201 515.305Z" fill="#161616"/>
<path d="M309.602 515.648C309.602 519.098 309.602 522.498 309.602 525.948C309.602 526.648 310.752 526.698 310.752 525.948C310.752 522.498 310.752 519.098 310.752 515.648C310.752 514.898 309.602 514.898 309.602 515.648Z" fill="#161616"/>
<path d="M298.65 516.5C298.65 518.8 298.65 521.05 298.65 523.35C298.65 524.05 299.8 524.1 299.8 523.35C299.8 521.05 299.8 518.8 299.8 516.5C299.75 515.75 298.65 515.75 298.65 516.5Z" fill="#161616"/>
<path d="M302.4 514.252C302.4 516.152 302.4 518.002 302.4 519.902C302.4 520.602 303.55 520.652 303.55 519.902C303.55 518.002 303.55 516.152 303.55 514.252C303.55 513.552 302.4 513.552 302.4 514.252Z" fill="#161616"/>
<path d="M338.75 514.453C338.75 517.953 338.75 521.403 338.75 524.903C338.75 525.603 339.9 525.653 339.9 524.903C339.9 521.403 339.9 517.953 339.9 514.453C339.85 513.703 338.75 513.703 338.75 514.453Z" fill="#161616"/>
<path d="M329.301 514.252C329.301 515.102 329.301 515.952 329.301 516.802C329.301 517.502 330.451 517.552 330.451 516.802C330.451 515.952 330.451 515.102 330.451 514.252C330.451 513.552 329.301 513.552 329.301 514.252Z" fill="#161616"/>
<path d="M361.15 511.203C361.15 514.503 361.15 517.803 361.15 521.153C361.15 521.853 362.3 521.903 362.3 521.153C362.3 517.853 362.3 514.553 362.3 511.203C362.3 510.453 361.15 510.453 361.15 511.203Z" fill="#161616"/>
<path d="M366.15 518.353C366.15 520.353 366.15 522.353 366.15 524.353C366.15 525.053 367.3 525.103 367.3 524.353C367.3 522.353 367.3 520.353 367.3 518.353C367.25 517.653 366.15 517.653 366.15 518.353Z" fill="#161616"/>
<path d="M348.15 514.252C348.15 517.152 348.15 520.052 348.15 523.002C348.15 523.702 349.3 523.752 349.3 523.002C349.3 520.102 349.3 517.202 349.3 514.252C349.3 513.552 348.15 513.552 348.15 514.252Z" fill="#161616"/>
<path d="M292.801 527.305C292.801 531.005 292.801 534.705 292.801 538.455C292.801 539.155 293.951 539.205 293.951 538.455C293.951 534.755 293.951 531.055 293.951 527.305C293.951 526.555 292.801 526.555 292.801 527.305Z" fill="#161616"/>
<path d="M301.502 540.452C301.502 536.752 301.502 533.052 301.502 529.302C301.502 528.602 300.352 528.552 300.352 529.302C300.352 533.002 300.352 536.702 300.352 540.452C300.352 541.202 301.502 541.202 301.502 540.452Z" fill="#161616"/>
<path d="M305.101 540.149C305.101 538.699 305.101 537.299 305.101 535.849C305.101 535.149 303.951 535.099 303.951 535.849C303.951 537.299 303.951 538.699 303.951 540.149C303.951 540.849 305.101 540.849 305.101 540.149Z" fill="#161616"/>
<path d="M313.051 526.453C313.051 530.353 313.051 534.203 313.051 538.103C313.051 538.803 314.201 538.853 314.201 538.103C314.201 534.203 314.201 530.353 314.201 526.453C314.151 525.703 313.051 525.703 313.051 526.453Z" fill="#161616"/>
<path d="M315.951 531.9C315.951 533.75 315.951 535.55 315.951 537.4C315.951 538.1 317.101 538.15 317.101 537.4C317.101 535.55 317.101 533.75 317.101 531.9C317.051 531.2 315.951 531.2 315.951 531.9Z" fill="#161616"/>
<path d="M319.9 529.853C319.9 531.853 319.9 533.853 319.9 535.853C319.9 536.553 321.05 536.603 321.05 535.853C321.05 533.853 321.05 531.853 321.05 529.853C321 529.153 319.9 529.153 319.9 529.853Z" fill="#161616"/>
<path d="M332.75 526.453C332.75 530.503 332.75 534.553 332.75 538.603C332.75 539.303 333.9 539.353 333.9 538.603C333.9 534.553 333.9 530.503 333.9 526.453C333.85 525.703 332.75 525.703 332.75 526.453Z" fill="#161616"/>
<path d="M345.75 530.898C345.75 533.148 345.75 535.348 345.75 537.598C345.75 538.298 346.9 538.348 346.9 537.598C346.9 535.348 346.9 533.148 346.9 530.898C346.9 530.148 345.75 530.148 345.75 530.898Z" fill="#161616"/>
<path d="M363.551 526.102C363.551 530.402 363.551 534.652 363.551 538.952C363.551 539.652 364.701 539.702 364.701 538.952C364.701 534.652 364.701 530.402 364.701 526.102C364.701 525.352 363.551 525.352 363.551 526.102Z" fill="#161616"/>
<path d="M369.051 532.4C369.051 534.45 369.051 536.5 369.051 538.55C369.051 539.25 370.201 539.3 370.201 538.55C370.201 536.5 370.201 534.45 370.201 532.4C370.201 531.7 369.051 531.7 369.051 532.4Z" fill="#161616"/>
<path d="M378.5 526.752C378.5 529.952 378.5 533.152 378.5 536.352C378.5 537.052 379.65 537.102 379.65 536.352C379.65 533.152 379.65 529.952 379.65 526.752C379.6 526.052 378.5 526.052 378.5 526.752Z" fill="#161616"/>
<path d="M306.8 555.405C306.8 551.705 306.8 548.005 306.8 544.255C306.8 543.555 305.65 543.505 305.65 544.255C305.65 547.955 305.65 551.655 305.65 555.405C305.65 556.105 306.8 556.105 306.8 555.405Z" fill="#161616"/>
<path d="M310.9 555.202C310.9 553.302 310.9 551.452 310.9 549.552C310.9 548.852 309.75 548.802 309.75 549.552C309.75 551.452 309.75 553.302 309.75 555.202C309.8 555.952 310.9 555.952 310.9 555.202Z" fill="#161616"/>
<path d="M322.451 542.203C322.451 546.503 322.451 550.753 322.451 555.053C322.451 555.753 323.601 555.803 323.601 555.053C323.601 550.753 323.601 546.503 323.601 542.203C323.601 541.453 322.451 541.453 322.451 542.203Z" fill="#161616"/>
<path d="M332.75 544.25C332.75 546.9 332.75 549.5 332.75 552.15C332.75 552.85 333.9 552.9 333.9 552.15C333.9 549.5 333.9 546.9 333.9 544.25C333.85 543.5 332.75 543.5 332.75 544.25Z" fill="#161616"/>
<path d="M329.15 545.805C329.15 546.855 329.15 547.855 329.15 548.905C329.15 549.605 330.3 549.655 330.3 548.905C330.3 547.855 330.3 546.855 330.3 545.805C330.25 545.055 329.15 545.055 329.15 545.805Z" fill="#161616"/>
<path d="M351.4 541C351.4 545.45 351.4 549.9 351.4 554.35C351.4 555.05 352.55 555.1 352.55 554.35C352.55 549.9 352.55 545.45 352.55 541C352.55 540.25 351.4 540.25 351.4 541Z" fill="#161616"/>
<path d="M355.701 546.798C355.701 548.798 355.701 550.798 355.701 552.798C355.701 553.498 356.851 553.548 356.851 552.798C356.851 550.798 356.851 548.798 356.851 546.798C356.801 546.098 355.701 546.098 355.701 546.798Z" fill="#161616"/>
<path d="M366.65 541.65C366.65 545.8 366.65 550 366.65 554.15C366.65 554.85 367.8 554.9 367.8 554.15C367.8 550 367.8 545.8 367.8 541.65C367.8 540.95 366.65 540.95 366.65 541.65Z" fill="#161616"/>
<path d="M386.551 542.705C386.551 546.305 386.551 549.905 386.551 553.505C386.551 554.205 387.701 554.255 387.701 553.505C387.701 549.905 387.701 546.305 387.701 542.705C387.651 542.005 386.551 542.005 386.551 542.705Z" fill="#161616"/>
<path d="M389.602 547.352C389.602 549.052 389.602 550.802 389.602 552.502C389.602 553.202 390.752 553.252 390.752 552.502C390.752 550.802 390.752 549.052 390.752 547.352C390.752 546.602 389.602 546.602 389.602 547.352Z" fill="#161616"/>
<path d="M376.8 509.505C376.8 506.855 376.8 504.155 376.8 501.505C376.8 500.805 375.65 500.755 375.65 501.505C375.65 504.155 375.65 506.855 375.65 509.505C375.7 510.205 376.8 510.255 376.8 509.505Z" fill="#161616"/>
<path d="M383.701 498.255C383.701 501.855 383.701 505.405 383.701 509.005C383.701 509.705 384.851 509.755 384.851 509.005C384.851 505.405 384.851 501.855 384.851 498.255C384.801 497.555 383.701 497.505 383.701 498.255Z" fill="#161616"/>
<path d="M388.901 476.851C391.651 478.451 393.151 481.451 392.901 484.601C392.851 485.301 393.951 485.301 394.051 484.601C394.351 481.051 392.601 477.701 389.501 475.901C388.851 475.501 388.251 476.451 388.901 476.851Z" fill="#161616"/>
<path d="M274.401 514C273.051 516.2 272.801 518.8 273.701 521.2C273.951 521.85 275.051 521.6 274.801 520.9C274.001 518.75 274.201 516.55 275.401 514.55C275.751 513.95 274.801 513.35 274.401 514Z" fill="#161616"/>
<path d="M268.751 508.35C265.851 512 264.401 516.35 264.501 521C264.501 521.7 265.651 521.75 265.651 521C265.551 516.65 266.901 512.55 269.601 509.1C270.001 508.6 269.201 507.8 268.751 508.35Z" fill="#161616"/>
<path d="M388.401 524.3C390.401 525.35 391.651 527.35 391.651 529.65C391.651 530.35 392.801 530.4 392.801 529.65C392.801 527 391.351 524.55 389.001 523.35C388.351 523 387.751 523.95 388.401 524.3Z" fill="#161616"/>
<path opacity="0.15" d="M336.552 480.855C339.602 480.455 346.752 479.955 353.552 484.055C355.502 485.205 357.002 486.505 358.252 487.755C358.102 490.055 357.902 492.355 357.752 494.655C350.402 494.955 343.102 495.255 335.752 495.505C336.752 495.555 344.752 496.005 349.102 502.505C351.002 505.355 351.452 508.205 351.552 509.905C351.302 511.705 350.502 515.555 347.602 519.255C344.102 523.705 339.702 525.355 338.002 525.905C338.802 526.305 342.602 528.455 343.902 533.055C344.652 535.755 344.202 538.105 343.902 539.205C339.052 544.455 334.202 549.705 329.352 555.005C351.602 555.255 373.902 555.505 396.152 555.755C397.002 555.305 398.602 554.255 399.602 552.305C401.252 549.105 400.452 545.255 398.602 542.955C395.102 538.505 387.152 540.055 386.252 540.255C386.502 540.105 390.552 537.055 390.202 532.105C389.952 528.555 387.502 526.405 387.002 525.955C383.452 525.705 379.952 525.455 376.402 525.205C376.752 524.855 379.402 521.955 378.852 517.805C378.402 514.605 376.252 511.905 373.202 510.655C377.952 510.605 382.052 510.505 385.302 510.405C394.752 510.155 396.902 510.005 398.602 508.205C400.902 505.705 401.652 500.855 399.352 497.855C398.102 496.255 396.402 495.655 395.402 495.405C391.702 495.255 388.002 495.055 384.302 494.905C384.852 494.905 387.502 494.955 389.502 492.955C391.452 490.955 391.302 488.305 391.252 487.055C391.202 486.255 390.902 482.955 388.552 480.905C386.102 478.755 382.952 479.355 377.202 479.655C372.702 479.905 368.152 479.455 363.652 479.655C354.252 480.055 344.752 480.505 336.552 480.855Z" fill="#3D3D3D"/>
<path d="M405.9 542.555C440.35 542.555 474.85 542.555 509.3 542.555C519.1 542.555 528.95 542.555 538.75 542.555C539.7 542.555 539.7 541.055 538.75 541.055C504.3 541.055 469.8 541.055 435.35 541.055C425.55 541.055 415.7 541.055 405.9 541.055C404.95 541.055 404.95 542.555 405.9 542.555Z" fill="#E8E8E8"/>
<path d="M552.701 543.802C575.801 542.002 598.851 541.502 622.001 543.452C622.951 543.552 622.951 542.052 622.001 541.952C598.851 540.002 575.851 540.502 552.701 542.302C551.751 542.352 551.751 543.852 552.701 543.802Z" fill="#E8E8E8"/>
<path d="M615.3 551.699C627.75 552.799 640.1 549.699 652.5 548.899C665.25 548.099 678.05 548.899 690.65 551.149C691.6 551.299 692 549.849 691.05 549.699C678.65 547.499 666.05 546.649 653.45 547.349C640.75 548.049 628.05 551.349 615.3 550.199C614.35 550.099 614.35 551.599 615.3 551.699Z" fill="#E8E8E8"/>
<path d="M623.1 541.599C617.9 537.599 613.05 533.099 608.75 528.149C607.8 527.049 606.9 525.949 606 524.849C605.35 524.049 604.65 523.199 604.2 522.299C603.6 521.099 603.85 520.249 603.85 518.899C603.85 516.549 602.5 516.649 600.95 515.049C598.6 512.599 598.25 509.049 597.55 505.899C596.9 502.949 595.7 500.349 594.35 497.699C591.2 491.349 589.75 484.099 587.85 477.299C587.7 477.599 587.5 477.899 587.35 478.199C593.95 477.299 601.1 482.249 606.35 485.849C609.05 487.699 611.6 489.699 614.05 491.849C616.5 494.049 620.25 497.149 618.9 500.849C618.7 501.349 619.2 501.799 619.6 501.799C623.7 501.949 626.8 506.049 629 509.099C631.15 511.999 632.9 515.199 634.2 518.549C636.8 525.299 637.6 532.649 636.45 539.799C636.3 540.749 637.75 541.149 637.9 540.199C639.2 532.199 638.2 523.999 634.95 516.499C633.35 512.849 631.25 509.399 628.7 506.299C626.35 503.449 623.5 500.399 619.55 500.249C619.8 500.549 620.05 500.899 620.25 501.199C621.4 498.099 619.6 495.249 617.5 493.049C614.8 490.199 611.65 487.749 608.45 485.499C602.55 481.299 594.5 475.649 586.85 476.749C586.45 476.799 586.25 477.299 586.35 477.649C588.3 484.599 589.75 491.899 593 498.399C594.65 501.749 595.75 504.899 596.55 508.549C597.1 511.249 597.9 514.049 599.9 516.099C600.75 516.999 602.25 517.499 602.4 518.799C602.5 519.999 602.1 520.849 602.55 522.149C603.5 524.799 605.95 527.199 607.75 529.249C612.15 534.299 617.1 538.849 622.4 542.949C623.1 543.449 623.85 542.149 623.1 541.599Z" fill="#E8E8E8"/>
<path d="M631.65 508.652C633.4 502.202 638.6 496.602 642.7 491.502C643.8 490.152 644.85 488.852 645.95 487.552C646.85 486.452 648 484.402 649.55 484.152C650.2 484.052 650.5 484.452 651.2 484.002C651.95 483.552 652.25 482.652 652.65 481.952C655.65 476.502 660.45 472.552 665.5 469.002C669.45 466.202 673.35 463.402 675.3 458.802C674.8 458.652 674.35 458.552 673.85 458.402C671.8 466.002 671.8 473.552 673.1 481.302C674.45 489.352 674.75 497.152 672.55 505.152C668.35 520.402 656.8 530.652 645.05 540.352C644.3 540.952 645.35 542.002 646.1 541.402C657.6 531.902 668.95 521.852 673.5 507.152C675.65 500.152 676.25 492.752 675.25 485.502C674.65 481.202 673.7 477.002 673.55 472.602C673.4 467.902 674 463.252 675.25 458.752C675.5 457.802 674.15 457.502 673.8 458.352C671.5 463.852 665.85 466.652 661.35 470.102C659.05 471.852 656.9 473.802 654.95 475.952C654.1 476.902 653.3 477.952 652.6 479.002C652.05 479.852 651.2 482.152 650.3 482.452C649.7 482.652 649.05 482.302 648.35 482.602C647.35 483.002 646.7 484.202 646.05 484.952C643.85 487.602 641.65 490.202 639.55 492.902C635.9 497.502 631.75 502.402 630.15 508.152C629.95 509.202 631.4 509.602 631.65 508.652Z" fill="#E8E8E8"/>
<path d="M593.55 485.905C598.05 489.105 601.45 493.405 604.8 497.755C608.35 502.255 611.85 506.805 615.15 511.505C621.5 520.505 627.05 530.155 630 540.855C630.25 541.805 631.7 541.405 631.45 540.455C628.4 529.355 622.6 519.355 615.95 510.055C612.7 505.505 609.3 501.105 605.85 496.705C602.4 492.255 598.9 487.905 594.25 484.655C593.5 484.055 592.75 485.355 593.55 485.905Z" fill="#E8E8E8"/>
<path d="M668.55 471.351C660.6 492.251 642.25 507.851 637 529.951C636.8 530.901 638.2 531.301 638.45 530.351C643.65 508.251 662.05 492.651 670 471.751C670.35 470.851 668.9 470.451 668.55 471.351Z" fill="#E8E8E8"/>
<path d="M656.25 474.9C657 481.85 656.55 488.75 654.9 495.5C654.65 496.45 656.1 496.85 656.35 495.9C658 489 658.5 481.95 657.75 474.9C657.65 473.95 656.15 473.95 656.25 474.9Z" fill="#E8E8E8"/>
<path d="M660.8 489.053C665.5 486.103 669.95 482.803 674.15 479.153C674.9 478.503 673.8 477.453 673.1 478.103C669 481.653 664.65 484.903 660.05 487.753C659.2 488.303 659.95 489.603 660.8 489.053Z" fill="#E8E8E8"/>
<path d="M594.102 499.053C597.552 498.953 602.402 497.953 605.552 499.603C606.402 500.053 607.152 498.753 606.302 498.303C602.752 496.403 597.952 497.403 594.102 497.553C593.102 497.603 593.102 499.103 594.102 499.053Z" fill="#E8E8E8"/>
<path d="M613.001 491.455C612.401 496.305 612.501 501.055 613.201 505.905C613.351 506.855 614.801 506.455 614.651 505.505C613.951 500.805 613.951 496.155 614.501 491.455C614.651 490.505 613.151 490.505 613.001 491.455Z" fill="#E8E8E8"/>
<path d="M582.252 559.552C590.352 560.002 598.352 558.202 606.452 558.352C614.202 558.502 621.752 560.552 629.502 559.302C630.452 559.152 630.052 557.702 629.102 557.852C621.202 559.152 613.402 556.852 605.502 556.852C597.752 556.852 590.052 558.502 582.252 558.052C581.302 557.952 581.302 559.452 582.252 559.552Z" fill="#E8E8E8"/>
<path d="M675.95 540.753C681.75 539.953 687.6 539.703 693.45 539.953C699.2 540.203 704.9 540.903 710.7 540.403C716.35 539.953 721.95 539.053 727.65 539.103C733.4 539.153 739.1 539.803 744.8 540.553C745.75 540.653 745.75 539.153 744.8 539.053C739.1 538.353 733.4 537.653 727.65 537.603C721.65 537.553 715.75 538.553 709.75 538.953C704 539.353 698.3 538.603 692.55 538.403C686.85 538.203 681.2 538.553 675.6 539.303C674.6 539.453 675 540.903 675.95 540.753Z" fill="#E8E8E8"/>
<path d="M157.151 550.35C172.651 552.5 188.001 549.05 203.451 548C211.651 547.45 219.701 548.05 227.901 548.8C236.101 549.55 244.301 549.9 252.551 549.95C261.951 550 271.401 549.75 280.801 549.45C281.751 549.4 281.751 547.9 280.801 547.95C270.251 548.25 259.651 548.55 249.101 548.4C238.751 548.25 228.551 547.1 218.251 546.45C197.951 545.1 177.801 551.7 157.551 548.9C156.601 548.8 156.201 550.2 157.151 550.35Z" fill="#E8E8E8"/>
<path d="M244.701 558.805C250.551 558.805 256.351 557.405 262.151 556.955C268.051 556.505 273.951 556.405 279.851 556.655C280.801 556.705 280.801 555.205 279.851 555.155C273.951 554.905 268.051 554.955 262.151 555.455C256.351 555.905 250.501 557.305 244.701 557.305C243.751 557.305 243.751 558.805 244.701 558.805Z" fill="#E8E8E8"/>
<path d="M212.949 235.002C212.949 274.002 212.949 313.002 212.949 351.952C212.949 390.902 212.949 429.952 212.949 468.902C212.949 490.902 212.949 512.902 212.949 534.902C212.949 535.852 214.449 535.852 214.449 534.902C214.449 495.902 214.449 456.902 214.449 417.952C214.449 379.002 214.449 339.952 214.449 301.002C214.449 279.002 214.449 257.002 214.449 235.002C214.449 234.052 212.949 234.052 212.949 235.002Z" fill="#E8E8E8"/>
<path d="M338.85 216.697C338.85 250.147 338.85 283.597 338.85 317.047C338.85 350.497 338.85 383.947 338.85 417.397C338.85 436.347 338.85 455.347 338.85 474.297C338.85 475.247 340.35 475.247 340.35 474.297C340.35 440.847 340.35 407.397 340.35 373.947C340.35 340.497 340.35 307.047 340.35 273.597C340.35 254.647 340.35 235.647 340.35 216.697C340.35 215.747 338.85 215.747 338.85 216.697Z" fill="#E8E8E8"/>
<path d="M341.851 359.551C370.201 371.351 398.601 383.051 427.101 394.551C428.001 394.901 428.401 393.451 427.501 393.101C399.001 381.601 370.601 369.901 342.251 358.101C341.351 357.751 341.001 359.201 341.851 359.551Z" fill="#E8E8E8"/>
<path d="M421.25 393.548C421.25 431.148 421.25 468.798 421.25 506.398C421.25 517.048 421.25 527.698 421.25 538.348C421.25 539.298 422.75 539.298 422.75 538.348C422.75 500.748 422.75 463.098 422.75 425.498C422.75 414.848 422.75 404.198 422.75 393.548C422.75 392.598 421.25 392.598 421.25 393.548Z" fill="#E8E8E8"/>
<path d="M557.85 537.795C557.85 506.295 557.85 474.845 557.85 443.345C557.85 442.395 556.35 442.395 556.35 443.345C556.35 474.845 556.35 506.295 556.35 537.795C556.35 538.745 557.85 538.745 557.85 537.795Z" fill="#E8E8E8"/>
<path d="M543.9 446.745C574.45 433.595 605.1 420.395 634.15 404.095C642.45 399.445 650.65 394.495 658.65 389.245C659.45 388.695 658.7 387.395 657.9 387.945C630 406.195 599.9 420.595 569.5 433.995C560.75 437.845 551.95 441.645 543.2 445.395C542.25 445.845 543.05 447.095 543.9 446.745Z" fill="#E8E8E8"/>
<path d="M582.449 427.35C582.449 386.95 582.449 346.5 582.449 306.1C582.449 294.6 582.449 283.15 582.449 271.65C582.449 270.7 580.949 270.7 580.949 271.65C580.949 312.05 580.949 352.5 580.949 392.9C580.949 404.4 580.949 415.85 580.949 427.35C580.949 428.3 582.449 428.3 582.449 427.35Z" fill="#E8E8E8"/>
<path d="M573.699 274.695C610.949 274.695 648.199 274.695 685.449 274.695C696.099 274.695 706.749 274.695 717.349 274.695C718.299 274.695 718.299 273.195 717.349 273.195C680.099 273.195 642.849 273.195 605.599 273.195C594.949 273.195 584.299 273.195 573.699 273.195C572.699 273.195 572.699 274.695 573.699 274.695Z" fill="#E8E8E8"/>
<path d="M703.449 279.65C703.449 344.9 703.449 410.15 703.449 475.4C703.449 493.7 703.449 512 703.449 530.35C703.449 531.3 704.949 531.3 704.949 530.35C704.949 465.1 704.949 399.85 704.949 334.6C704.949 316.3 704.949 298 704.949 279.65C704.949 278.7 703.449 278.7 703.449 279.65Z" fill="#E8E8E8"/>
<path d="M206.55 236.645C241.5 225.395 278.8 222.945 315.05 218.795C325.65 217.595 336.25 216.395 346.85 215.145C347.8 215.045 347.8 213.545 346.85 213.645C327.95 215.795 309 217.995 290.1 220.145C272.15 222.195 254.1 224.145 236.35 227.595C226.15 229.545 216.05 232.045 206.15 235.195C205.25 235.495 205.65 236.945 206.55 236.645Z" fill="#E8E8E8"/>
<path d="M223.699 273.048C223.699 264.698 223.699 256.348 223.699 248.048C223.699 247.098 222.199 247.098 222.199 248.048C222.199 256.398 222.199 264.748 222.199 273.048C222.199 273.998 223.699 273.998 223.699 273.048Z" fill="#E8E8E8"/>
<path d="M222.5 247.945C227.4 247.945 232.3 247.945 237.2 247.945C238.15 247.945 238.15 246.445 237.2 246.445C232.3 246.445 227.4 246.445 222.5 246.445C221.55 246.445 221.55 247.945 222.5 247.945Z" fill="#E8E8E8"/>
<path d="M236.5 247.595C236.5 256.295 236.5 264.995 236.5 273.645C236.5 274.595 238 274.595 238 273.645C238 264.945 238 256.245 238 247.595C238 246.645 236.5 246.645 236.5 247.595Z" fill="#E8E8E8"/>
<path d="M223.149 274.648C227.499 274.648 231.849 274.648 236.199 274.648C237.149 274.648 237.149 273.148 236.199 273.148C231.849 273.148 227.499 273.148 223.149 273.148C222.199 273.148 222.149 274.648 223.149 274.648Z" fill="#E8E8E8"/>
<path d="M265.9 272.845C265.9 264.495 265.9 256.145 265.9 247.845C265.9 246.895 264.4 246.895 264.4 247.845C264.4 256.195 264.4 264.545 264.4 272.845C264.4 273.795 265.9 273.795 265.9 272.845Z" fill="#E8E8E8"/>
<path d="M264.75 247.695C269.65 247.695 274.55 247.695 279.45 247.695C280.4 247.695 280.4 246.195 279.45 246.195C274.55 246.195 269.65 246.195 264.75 246.195C263.75 246.195 263.75 247.695 264.75 247.695Z" fill="#E8E8E8"/>
<path d="M278.699 247.4C278.699 256.1 278.699 264.8 278.699 273.45C278.699 274.4 280.199 274.4 280.199 273.45C280.199 264.75 280.199 256.05 280.199 247.4C280.199 246.45 278.699 246.45 278.699 247.4Z" fill="#E8E8E8"/>
<path d="M265.349 274.398C269.699 274.398 274.049 274.398 278.399 274.398C279.349 274.398 279.349 272.898 278.399 272.898C274.049 272.898 269.699 272.898 265.349 272.898C264.399 272.898 264.399 274.398 265.349 274.398Z" fill="#E8E8E8"/>
<path d="M309.25 271.9C309.25 263.55 309.25 255.2 309.25 246.9C309.25 245.95 307.75 245.95 307.75 246.9C307.75 255.25 307.75 263.6 307.75 271.9C307.75 272.85 309.25 272.85 309.25 271.9Z" fill="#E8E8E8"/>
<path d="M308.05 246.75C312.95 246.75 317.85 246.75 322.75 246.75C323.7 246.75 323.7 245.25 322.75 245.25C317.85 245.25 312.95 245.25 308.05 245.25C307.1 245.25 307.1 246.75 308.05 246.75Z" fill="#E8E8E8"/>
<path d="M322.051 246.445C322.051 255.145 322.051 263.845 322.051 272.495C322.051 273.445 323.551 273.445 323.551 272.495C323.551 263.795 323.551 255.095 323.551 246.445C323.551 245.445 322.051 245.445 322.051 246.445Z" fill="#E8E8E8"/>
<path d="M308.701 273.445C313.051 273.445 317.401 273.445 321.751 273.445C322.701 273.445 322.701 271.945 321.751 271.945C317.401 271.945 313.051 271.945 308.701 271.945C307.751 271.945 307.751 273.445 308.701 273.445Z" fill="#E8E8E8"/>
<path d="M208.4 343.352C208.4 376.302 208.4 409.202 208.4 442.152C208.4 443.102 209.9 443.102 209.9 442.152C209.9 409.202 209.9 376.302 209.9 343.352C209.9 342.352 208.4 342.352 208.4 343.352Z" fill="#E8E8E8"/>
<path d="M218.9 448.447C218.9 463.747 218.9 478.997 218.9 494.297C218.9 495.247 220.4 495.247 220.4 494.297C220.4 478.997 220.4 463.747 220.4 448.447C220.4 447.497 218.9 447.497 218.9 448.447Z" fill="#E8E8E8"/>
<path d="M201.8 232.352C217.9 226.752 234.25 222.152 250.9 218.602C251.85 218.402 251.45 216.952 250.5 217.152C233.85 220.702 217.45 225.302 201.4 230.902C200.5 231.202 200.9 232.652 201.8 232.352Z" fill="#E8E8E8"/>
<path d="M343.05 366.699C359.95 373.049 376.4 380.599 392.8 388.149C393.65 388.549 394.45 387.249 393.55 386.849C377 379.249 360.45 371.649 343.45 365.249C342.55 364.899 342.15 366.349 343.05 366.699Z" fill="#E8E8E8"/>
<path d="M352.85 419.548C352.85 411.198 352.85 402.848 352.85 394.548C352.85 393.598 351.35 393.598 351.35 394.548C351.35 402.898 351.35 411.248 351.35 419.548C351.35 420.548 352.85 420.548 352.85 419.548Z" fill="#E8E8E8"/>
<path d="M351.699 394.445C356.599 394.445 361.499 394.445 366.399 394.445C367.349 394.445 367.349 392.945 366.399 392.945C361.499 392.945 356.599 392.945 351.699 392.945C350.699 392.945 350.699 394.445 351.699 394.445Z" fill="#E8E8E8"/>
<path d="M365.65 394.148C365.65 402.848 365.65 411.548 365.65 420.198C365.65 421.148 367.15 421.148 367.15 420.198C367.15 411.498 367.15 402.798 367.15 394.148C367.15 393.148 365.65 393.148 365.65 394.148Z" fill="#E8E8E8"/>
<path d="M352.3 421.148C356.65 421.148 361 421.148 365.35 421.148C366.3 421.148 366.3 419.648 365.35 419.648C361 419.648 356.65 419.648 352.3 419.648C351.35 419.648 351.35 421.148 352.3 421.148Z" fill="#E8E8E8"/>
<path d="M564.499 444.998C597.149 432.748 628.449 417.148 657.899 398.498C658.699 397.998 657.949 396.698 657.149 397.198C627.799 415.798 596.599 431.348 564.099 443.548C563.199 443.898 563.599 445.348 564.499 444.998Z" fill="#E8E8E8"/>
<path d="M708.051 283.197C708.101 321.897 708.151 360.547 708.151 399.247C708.151 400.197 709.651 400.197 709.651 399.247C709.601 360.547 709.551 321.897 709.551 283.197C709.551 282.247 708.051 282.247 708.051 283.197Z" fill="#E8E8E8"/>
<path d="M599.75 269.648C639.15 269.648 678.5 269.648 717.9 269.648C718.85 269.648 718.85 268.148 717.9 268.148C678.5 268.148 639.15 268.148 599.75 268.148C598.8 268.148 598.8 269.648 599.75 269.648Z" fill="#E8E8E8"/>
<path d="M596.949 319.345C596.949 310.995 596.949 302.645 596.949 294.345C596.949 293.395 595.449 293.395 595.449 294.345C595.449 302.695 595.449 311.045 595.449 319.345C595.449 320.345 596.949 320.345 596.949 319.345Z" fill="#E8E8E8"/>
<path d="M595.8 294.25C600.7 294.25 605.6 294.25 610.5 294.25C611.45 294.25 611.45 292.75 610.5 292.75C605.6 292.75 600.7 292.75 595.8 292.75C594.85 292.75 594.85 294.25 595.8 294.25Z" fill="#E8E8E8"/>
<path d="M609.75 293.945C609.75 302.645 609.75 311.345 609.75 319.995C609.75 320.945 611.25 320.945 611.25 319.995C611.25 311.295 611.25 302.595 611.25 293.945C611.25 292.945 609.75 292.945 609.75 293.945Z" fill="#E8E8E8"/>
<path d="M596.449 320.945C600.799 320.945 605.149 320.945 609.499 320.945C610.449 320.945 610.449 319.445 609.499 319.445C605.149 319.445 600.799 319.445 596.449 319.445C595.449 319.445 595.449 320.945 596.449 320.945Z" fill="#E8E8E8"/>
<path d="M666.4 319.345C666.4 310.995 666.4 302.645 666.4 294.345C666.4 293.395 664.9 293.395 664.9 294.345C664.9 302.695 664.9 311.045 664.9 319.345C664.9 320.345 666.4 320.345 666.4 319.345Z" fill="#E8E8E8"/>
<path d="M665.201 294.25C670.101 294.25 675.001 294.25 679.901 294.25C680.851 294.25 680.851 292.75 679.901 292.75C675.001 292.75 670.101 292.75 665.201 292.75C664.251 292.75 664.251 294.25 665.201 294.25Z" fill="#E8E8E8"/>
<path d="M679.199 293.945C679.199 302.645 679.199 311.345 679.199 319.995C679.199 320.945 680.699 320.945 680.699 319.995C680.699 311.295 680.699 302.595 680.699 293.945C680.699 292.945 679.199 292.945 679.199 293.945Z" fill="#E8E8E8"/>
<path d="M665.849 320.945C670.199 320.945 674.549 320.945 678.899 320.945C679.849 320.945 679.849 319.445 678.899 319.445C674.549 319.445 670.199 319.445 665.849 319.445C664.899 319.445 664.899 320.945 665.849 320.945Z" fill="#E8E8E8"/>
<path d="M635.899 124.048C652.44 124.048 665.849 110.416 665.849 93.5984C665.849 76.7814 652.44 63.1484 635.899 63.1484C619.358 63.1484 605.949 76.7814 605.949 93.5984C605.949 110.416 619.358 124.048 635.899 124.048Z" stroke="#E8E8E8" stroke-width="3" stroke-miterlimit="10"/>
<path d="M601.35 211.247C609.65 205.597 619.75 209.147 628.35 212.047C632.4 213.397 636.5 214.647 640.75 215.047C645.35 215.497 649.95 214.997 654.45 214.097C672.3 210.397 691.6 197.797 709.95 206.347C710.8 206.747 711.6 205.447 710.7 205.047C697.2 198.747 682.35 203.697 669.15 208.197C661.45 210.847 653.5 213.497 645.25 213.697C636.8 213.897 629.4 210.447 621.45 208.247C614.55 206.297 606.75 205.747 600.55 209.947C599.8 210.497 600.55 211.797 601.35 211.247Z" fill="#E8E8E8"/>
<path d="M227.549 184C241.999 188.15 256.199 181.35 269.749 177.1C277.149 174.8 284.949 172.95 292.749 173.95C300.699 175 307.949 178.8 315.249 181.95C322.649 185.15 330.349 187.8 338.549 186.5C339.499 186.35 339.099 184.9 338.149 185.05C322.499 187.55 309.399 175.3 294.599 172.7C280.149 170.15 266.399 177.05 252.899 181.05C244.749 183.45 236.299 184.9 227.949 182.5C226.999 182.25 226.599 183.7 227.549 184Z" fill="#E8E8E8"/>
<path d="M356.951 205.701C362.301 205.551 367.001 203.151 371.751 201.001C374.651 199.701 377.651 198.451 380.851 198.201C384.401 197.901 387.501 199.151 390.551 200.851C396.151 203.951 401.351 206.801 407.801 207.801C413.901 208.801 420.101 208.351 426.051 206.551C426.951 206.251 426.601 204.801 425.651 205.101C419.051 207.101 412.051 207.351 405.301 205.751C402.101 205.001 399.001 203.801 396.101 202.251C393.351 200.751 390.751 198.951 387.851 197.801C376.701 193.351 367.751 203.851 356.951 204.151C356.001 204.251 356.001 205.751 356.951 205.701Z" fill="#E8E8E8"/>
<path d="M510.4 159.096C524.8 165.796 540.95 165.496 556.25 162.546C573.55 159.196 589.85 151.546 607.75 151.846C617.85 152.046 627.85 154.246 637.15 158.246C638.05 158.646 638.8 157.346 637.9 156.946C622.9 150.446 606.2 148.696 590.2 152.046C581.45 153.896 573 156.946 564.35 159.196C556.15 161.296 547.75 162.796 539.3 163.096C529.65 163.396 520 161.946 511.2 157.846C510.3 157.396 509.55 158.696 510.4 159.096Z" fill="#E8E8E8"/>
<path d="M337.9 433.947C339.45 442.097 340.95 450.297 342.5 458.447C316.7 467.797 304.15 474.247 304.95 477.847C305.9 482.197 326.15 482.347 365.75 478.347C364.05 461.347 362.35 444.347 360.65 427.297C353.05 429.547 345.45 431.747 337.9 433.947Z" fill="#161616" stroke="#161616" stroke-width="3" stroke-miterlimit="10"/>
<path d="M458.65 331.796C447.85 336.246 443.3 335.146 429.65 338.896C404.5 345.796 386.3 358.696 374.95 368.446C375.5 387.046 376.05 405.646 376.6 424.246C375.45 425.596 362.85 439.896 343.75 437.946C330.6 436.596 322.4 428.296 320.2 425.896C319.85 408.746 320.15 390.446 321.3 371.196C322 360.046 322.9 349.246 324.05 338.896C325.75 336.496 328.35 333.046 331.7 329.046C358 297.746 389.5 283.846 406.65 276.546C423.75 269.246 434.45 264.696 450.4 263.396C454.65 263.046 497.15 260.046 504 277.096C510.35 292.646 485.3 320.846 458.65 331.796Z" fill="white" stroke="#161616" stroke-width="3" stroke-miterlimit="10"/>
<path opacity="0.16" d="M501.249 271.843C491.749 265.293 470.799 293.193 429.099 319.493C388.999 344.743 367.999 344.343 355.899 368.893C352.199 376.343 348.349 388.143 345.999 400.143C343.099 415.243 343.099 428.143 343.749 437.293C346.999 437.143 350.849 436.693 354.999 435.593C365.049 432.943 372.199 427.893 376.399 424.343C375.849 405.393 375.249 386.443 374.699 367.543C381.699 361.843 392.849 353.693 407.899 346.743C436.049 333.693 446.599 339.293 469.799 325.943C475.149 322.893 505.399 305.443 504.699 282.643C504.499 278.993 504.449 274.043 501.249 271.843Z" fill="#3D3D3D"/>
<path opacity="0.25" d="M505.151 280.848C503.051 279.148 494.901 290.548 475.351 304.498C451.051 321.798 439.351 321.598 412.601 337.698C402.951 343.498 389.001 352.798 373.551 366.948C376.551 365.648 381.401 363.448 387.051 360.198C398.551 353.498 401.351 349.398 410.101 344.998C413.251 343.448 419.151 341.848 430.901 338.798C451.451 333.448 454.401 333.698 461.851 330.348C471.701 325.948 478.151 320.398 481.551 317.398C497.851 303.098 507.801 282.948 505.151 280.848Z" fill="#3D3D3D"/>
<path opacity="0.2" d="M374.099 367.5C367.699 390.55 361.349 413.65 354.949 436.7C357.799 435.95 361.299 434.75 365.099 432.75C370.549 429.85 374.399 426.4 376.899 423.75C375.949 405 375.049 386.25 374.099 367.5Z" fill="#3D3D3D"/>
<path d="M500.551 512.048C502.101 520.198 503.601 528.398 505.151 536.548C481.801 548.298 470.701 555.598 471.701 558.448C472.951 561.898 491.801 558.898 528.201 549.498C526.551 534.798 524.951 520.098 523.301 505.398C515.701 507.648 508.151 509.848 500.551 512.048Z" fill="#161616" stroke="#161616" stroke-width="3" stroke-miterlimit="10"/>
<path d="M520.551 257.95C522.301 271.45 524.551 291.8 525.651 316.65C527.301 355 524.901 376.35 524.501 404.7C524.151 429.55 525.301 465.2 532.401 509.15C528.551 511.7 519.851 516.75 507.551 517.6C495.851 518.4 486.901 515 482.701 513.1C481.601 491.8 479.651 469.15 476.501 445.35C470.701 401.5 461.951 362 452.251 327.4C446.251 319.1 440.201 310.85 434.201 302.55C456.051 287.1 477.851 271.7 499.701 256.25C506.601 256.85 513.551 257.4 520.551 257.95Z" fill="white" stroke="#161616" stroke-width="3" stroke-miterlimit="10"/>
<path d="M442.45 306.852C440.9 304.702 439.4 302.502 437.85 300.352C437.4 302.052 436.95 303.752 436.5 305.502C443.9 300.902 451.15 296.052 458.1 290.752C463.9 286.352 469.3 281.502 475.15 277.202C478.85 274.452 482.65 271.852 486.45 269.252C490.1 266.802 493.8 263.702 497.8 261.752C499.95 260.702 502.5 260.852 504.8 260.852C509.2 260.852 513.55 261.002 517.9 261.252C522.7 261.502 522.7 254.002 517.9 253.752C513.55 253.552 509.15 253.352 504.8 253.352C502 253.352 499.1 253.352 496.45 254.202C492.3 255.552 488.55 258.802 485 261.252C480.9 264.002 476.85 266.752 472.85 269.652C466.65 274.152 460.95 279.202 454.9 283.852C447.8 289.302 440.35 294.302 432.75 299.002C431.15 300.002 430.2 302.452 431.4 304.152C432.95 306.302 434.45 308.502 436 310.652C438.75 314.552 445.25 310.802 442.45 306.852Z" fill="white"/>
<path opacity="0.14" d="M470.85 263.953C478.45 286.403 485.5 311.403 491.1 338.753C505.05 407.203 505.3 468.103 501.25 515.953C503.65 516.803 506.7 517.553 510.25 517.653C521.5 517.953 529.6 511.453 532.2 509.203C530 498.153 527.15 481.603 525.45 461.403C521.75 417.653 526.4 392.853 527.15 355.653C527.6 333.053 526.75 300.953 520.4 261.703C503.85 262.453 487.35 263.203 470.85 263.953Z" fill="#3D3D3D"/>
<path opacity="0.2" d="M522.051 284.805C520.651 334.055 518.251 384.705 514.751 436.705C512.951 463.555 510.851 490.005 508.551 516.005C510.851 516.405 514.951 516.805 519.801 515.455C526.101 513.655 530.001 509.905 531.601 508.155C526.001 475.655 524.601 449.305 524.301 431.655C523.751 398.255 526.901 381.205 526.001 342.205C525.401 317.405 523.501 297.305 522.051 284.805Z" fill="#3D3D3D"/>
<path d="M317.551 81.651C318.201 80.151 311.801 77.051 312.451 75.301C313.101 73.501 321.051 73.051 326.401 77.001C332.001 81.101 331.651 87.101 334.851 94.801C338.501 103.451 344.251 108.151 353.001 115.351C358.251 119.701 378.751 136.001 408.301 135.101C421.701 134.701 432.901 130.851 441.201 126.801C440.051 141.151 438.851 155.551 437.701 169.901C430.901 171.451 421.551 172.801 410.601 171.851C370.801 168.401 345.251 137.701 337.351 128.251C332.551 122.501 326.001 113.651 320.001 101.601C315.301 103.001 308.001 104.601 299.251 103.701C293.051 103.101 285.651 101.201 285.701 99.451C285.751 97.151 298.501 95.601 298.401 94.801C298.301 94.101 288.251 96.851 285.701 93.101C283.701 90.151 286.501 83.501 291.201 80.801C292.651 80.001 294.301 79.501 298.401 79.551C309.501 79.551 316.951 83.001 317.551 81.651Z" fill="white" stroke="#161616" stroke-width="3" stroke-miterlimit="10"/>
<path d="M285.551 90.25C288.101 89.65 291.051 90.9 293.651 91C295.951 91.1 298.251 90.9 300.501 90.45C301.451 90.25 301.051 88.8 300.101 89C297.251 89.55 294.401 89.7 291.501 89.3C289.301 89 287.351 88.3 285.151 88.8C284.201 89 284.601 90.45 285.551 90.25Z" fill="#161616"/>
<path d="M287.652 85.2988C290.652 84.6988 293.302 85.9488 296.202 86.0988C298.752 86.2488 301.302 85.7488 303.802 85.0988C304.752 84.8488 304.352 83.3988 303.402 83.6488C300.152 84.4988 297.002 84.8988 293.652 84.1988C291.402 83.7488 289.502 83.3488 287.202 83.7988C286.302 84.0488 286.702 85.4988 287.652 85.2988Z" fill="#161616"/>
<path d="M315.3 86.8043C317.85 89.5043 321.3 90.9043 325 90.8043C325.95 90.7543 325.95 89.2543 325 89.3043C321.65 89.4543 318.65 88.2043 316.4 85.7543C315.7 85.0543 314.65 86.1043 315.3 86.8043Z" fill="#161616"/>
<path opacity="0.18" d="M285.7 92.7026C285.85 91.3526 296.75 91.0026 306.75 92.4526C312.15 93.2026 317.4 93.9526 322.35 96.3026C333.15 101.353 336.7 111.003 342.3 119.853C342.3 119.853 354.85 139.503 377.3 150.503C399.6 161.403 425.05 154.103 439.4 148.303C438.85 155.503 438.3 162.703 437.75 169.903C424.5 172.603 413.9 171.953 407.1 171.003C369.25 165.653 345.5 136.553 336.05 125.003C328.4 115.653 323.3 107.053 320.2 101.203C315.25 103.003 307.9 104.853 299.15 103.953C293.1 103.303 285.95 101.303 286 99.5526C286.1 97.3026 298.15 95.9526 298.05 95.4526C298 95.2026 294.6 95.9526 290.4 94.9026C288.75 94.5026 285.65 93.4526 285.7 92.7026Z" fill="#3D3D3D"/>
<path opacity="0.24" d="M399.25 162.453C417.1 162.703 430.9 155.703 438.1 151.253C437.85 157.653 437.55 164.003 437.3 170.403C427.4 172.053 410.05 173.453 390.25 167.103C354.4 155.653 336.8 127.153 332.25 119.203C333.7 121.803 357.25 161.903 399.25 162.453Z" fill="#3D3D3D"/>
<path opacity="0.19" d="M302.701 100.897C313.401 100.947 320.601 99.3474 320.751 100.097C320.851 100.697 316.401 102.497 311.701 103.397C298.051 105.997 285.551 100.347 285.701 99.5474C285.851 98.9974 291.451 100.847 302.701 100.897Z" fill="#3D3D3D"/>
<path d="M314.401 59.9031C322.188 59.9031 328.501 53.5903 328.501 45.8031C328.501 38.0159 322.188 31.7031 314.401 31.7031C306.614 31.7031 300.301 38.0159 300.301 45.8031C300.301 53.5903 306.614 59.9031 314.401 59.9031Z" fill="#999999"/>
<path d="M311.551 60.8031C320.387 60.8031 327.551 53.6173 327.551 44.7531C327.551 35.889 320.387 28.7031 311.551 28.7031C302.714 28.7031 295.551 35.889 295.551 44.7531C295.551 53.6173 302.714 60.8031 311.551 60.8031Z" stroke="#161616" stroke-width="2" stroke-miterlimit="10"/>
<path d="M313.751 35.9546C310.601 35.7546 302.501 38.8046 305.501 43.3546C307.251 46.0046 310.651 44.2546 313.101 44.9046C316.251 45.7546 315.901 49.5546 313.951 51.4046C311.901 53.3046 309.001 53.0046 307.051 51.2546C306.351 50.6046 305.251 51.6546 306.001 52.3046C309.951 55.9046 317.001 53.8546 317.001 48.0046C317.001 45.3546 315.201 43.6546 312.701 43.3546C310.851 43.1046 305.651 44.5046 306.851 40.7046C307.651 38.1046 311.501 37.3046 313.801 37.4546C314.751 37.5046 314.751 36.0046 313.751 35.9546Z" fill="#161616"/>
<path d="M312.052 36.6516C312.202 35.0016 312.352 33.4016 312.502 31.7516C312.602 30.8016 311.102 30.8016 311.002 31.7516C310.852 33.4016 310.702 35.0016 310.552 36.6516C310.452 37.6016 311.952 37.6016 312.052 36.6516Z" fill="#161616"/>
<path d="M311.052 54.5562C311.202 55.7062 311.352 56.9062 311.452 58.0563C311.552 59.0062 313.052 59.0062 312.952 58.0563C312.802 56.9062 312.652 55.7062 312.552 54.5562C312.452 53.6062 310.952 53.6062 311.052 54.5562Z" fill="#161616"/>
<path d="M456.3 123.247C454.65 123.347 449.1 123.597 442 125.347C437.95 126.347 434.75 127.497 432.9 128.247C429.55 135.047 425.25 145.547 423.65 158.847C421.35 177.797 425.95 189.997 429.1 208.847C431.25 221.797 433 240.547 430.6 264.247C435.7 268.897 449 279.747 469.2 282.547C497.8 286.547 518.8 271.447 523.15 268.197C525.8 251.797 528.3 234.947 530.55 217.697C534.4 188.497 537.3 160.247 539.45 133.097C525.6 120.047 513.6 116.547 505.15 115.847C488.9 114.447 474.2 122.247 456.3 123.247Z" fill="#999999"/>
<path opacity="0.17" d="M478.751 135.85C481.851 139.05 486.101 143.9 489.901 150.5C508.151 182.2 496.851 219.2 491.801 235.6C488.301 247.1 481.651 263.95 468.551 282.15C473.551 283 479.851 283.5 487.051 282.8C504.151 281.1 516.551 273.35 522.751 268.75C527.451 242.05 531.451 213.65 534.551 183.65C536.351 166.05 537.701 148.9 538.701 132.35C536.751 130.45 533.751 127.9 529.751 125.35C523.301 121.2 513.151 114.75 501.701 116.75C487.101 119.25 479.701 133.85 478.751 135.85Z" fill="#3D3D3D"/>
<path opacity="0.11" d="M536.451 143.797C533.901 150.947 529.951 162.347 525.951 176.647C514.051 218.597 514.901 236.597 500.451 258.247C496.051 264.847 488.651 274.197 476.201 283.447C482.351 283.397 491.251 282.647 501.401 279.297C510.601 276.247 517.651 272.147 522.451 268.797C526.351 247.897 529.801 225.347 532.351 201.197C534.401 181.097 535.751 161.897 536.451 143.797Z" fill="#3D3D3D"/>
<path d="M513.25 240.054C512.2 238.104 513.3 235.204 514.95 233.654C518 230.754 523.55 231.854 526.05 235.004C526.4 235.454 528.1 237.554 527.4 239.354C525.9 243.004 515.4 243.954 513.25 240.054Z" fill="white" stroke="#161616" stroke-width="3" stroke-miterlimit="10"/>
<path d="M527.349 124.602C534.799 129.752 543.999 137.252 552.849 147.752C562.499 159.152 568.799 170.652 572.999 180.302C576.549 188.552 578.699 195.902 580.049 201.452C575.599 211.702 567.249 226.802 551.849 240.052C546.299 244.852 540.799 248.552 535.749 251.452C533.099 254.402 529.399 258.152 524.499 262.002C521.299 264.552 516.949 267.952 515.949 267.102C515.149 266.402 516.549 262.952 518.699 260.552C521.249 257.752 524.399 256.902 524.349 256.752C524.299 256.602 521.499 257.102 518.899 259.102C515.899 261.452 516.049 263.652 514.549 264.002C511.399 264.752 504.149 257.152 505.249 249.452C506.149 243.002 512.499 239.552 514.649 238.352C520.549 235.102 526.299 235.702 528.399 236.002C535.899 224.352 543.399 212.752 550.899 201.102C548.849 199.452 546.149 197.102 543.199 194.052C539.749 190.502 530.049 180.402 525.399 166.552C519.149 147.952 524.899 130.802 527.349 124.602Z" fill="white" stroke="#161616" stroke-width="3" stroke-miterlimit="10"/>
<path d="M506.45 255.804C508.3 251.704 511.45 248.504 515.55 246.704C516.45 246.304 515.65 245.004 514.8 245.404C510.5 247.304 507.05 250.754 505.15 255.054C504.75 255.904 506.05 256.654 506.45 255.804Z" fill="#161616"/>
<path d="M511.95 262.753C510.4 258.053 514.95 253.203 518.7 251.053C519.55 250.553 518.8 249.253 517.95 249.753C513.6 252.253 508.7 257.753 510.5 263.153C510.8 264.053 512.25 263.653 511.95 262.753Z" fill="#161616"/>
<path opacity="0.18" d="M525.051 132.85C531.051 139.05 539.501 148.3 548.551 160.45C561.251 177.4 567.551 185.9 568.001 194.85C568.801 211.45 556.351 232.2 539.951 240.1C535.201 242.4 522.851 247.05 515.751 256.15C513.701 258.75 511.601 262.35 512.351 263.15C513.001 263.8 515.401 262.1 516.201 262.9C517.151 263.85 514.851 266.75 515.501 267.4C516.301 268.2 520.751 265.35 525.251 261.75C528.151 259.4 531.701 256.2 535.451 252C540.201 249.3 545.251 245.9 550.401 241.6C566.751 227.95 575.551 212 580.251 201.1C579.101 196.7 577.351 190.75 574.601 183.9C566.301 163.25 555.201 149.9 551.551 145.7C546.301 139.6 538.401 131.65 527.351 124C526.551 126.95 525.801 129.9 525.051 132.85Z" fill="#3D3D3D"/>
<path opacity="0.21" d="M572.999 208.402C568.199 214.602 565.749 218.552 563.749 221.502C559.949 227.002 554.299 232.252 542.949 242.752C538.899 246.502 533.399 251.502 526.649 257.252C519.549 263.402 516.099 266.552 516.249 266.752C516.449 267.002 523.299 261.802 536.849 251.152C539.399 249.652 542.999 247.452 547.049 244.352C570.349 226.502 580.799 200.852 579.849 200.252C579.449 200.052 577.299 202.802 572.999 208.402Z" fill="#3D3D3D"/>
<path d="M445.849 41.2527C431.149 53.3027 431.749 77.7527 437.499 93.5527C441.149 103.553 446.999 110.403 450.849 114.203C450.049 120.003 449.249 125.803 448.449 131.603C452.699 133.553 458.799 135.603 466.249 135.953C485.749 136.903 499.699 125.503 503.499 122.203C500.049 110.653 496.599 99.1027 493.149 87.5027C492.699 84.2527 491.949 79.2527 491.149 73.1527C488.999 57.2527 489.099 56.4027 488.149 53.8027C487.749 52.7527 481.749 37.5027 467.799 34.8027C456.549 32.7027 447.249 40.1027 445.849 41.2527Z" fill="white" stroke="#161616" stroke-width="3" stroke-miterlimit="10"/>
<path d="M433.749 81.9516C432.899 85.3016 431.999 90.5516 432.599 96.8516C432.999 101.052 433.699 108.352 438.949 115.402C444.599 123.002 452.199 125.902 455.449 126.952C455.199 126.102 454.899 125.052 454.749 123.802C454.599 122.502 454.649 121.302 454.749 120.402C458.199 122.302 461.699 124.152 465.149 126.052C473.899 118.002 476.799 110.602 477.799 105.252C478.599 101.052 479.099 93.3516 480.949 79.2516C481.299 76.7516 481.949 72.2516 484.799 71.1016C486.149 70.5516 487.949 70.8016 489.099 71.8016C492.549 74.7016 489.049 83.1016 489.799 83.3516C490.549 83.6016 496.599 75.1516 494.549 65.5016C493.499 60.5016 490.599 57.0516 488.899 55.3516C485.099 61.3516 480.899 67.5516 476.249 73.9016C473.299 77.9516 470.349 81.7516 467.449 85.4516C466.349 86.0516 464.699 86.7016 462.799 86.5516C461.299 86.4016 460.799 85.9016 459.699 85.6016C455.599 84.4516 453.399 89.3016 449.349 88.6516C446.049 88.1016 445.749 84.5516 442.099 84.4516C440.349 84.4016 439.649 85.2016 437.849 84.8516C435.949 84.3016 434.599 83.0016 433.749 81.9516Z" fill="#161616" stroke="#161616" stroke-width="3" stroke-miterlimit="10"/>
<path d="M450.75 67.7541C449.5 73.5541 448.7 79.4041 448.35 85.3041C448.3 85.9041 449 86.2041 449.5 85.9541C451.55 84.9041 453.65 83.8041 455.7 82.7541C456.55 82.3041 455.8 81.0041 454.95 81.4541C452.9 82.5041 450.8 83.6041 448.75 84.6541C449.15 84.8541 449.5 85.1041 449.9 85.3041C450.25 79.5041 451 73.8041 452.25 68.1541C452.4 67.2041 450.95 66.8041 450.75 67.7541Z" fill="#161616"/>
<path d="M442.75 73.7531C443.385 73.7531 443.9 72.4548 443.9 70.8531C443.9 69.2515 443.385 67.9531 442.75 67.9531C442.114 67.9531 441.6 69.2515 441.6 70.8531C441.6 72.4548 442.114 73.7531 442.75 73.7531Z" fill="#161616" stroke="#161616" stroke-width="3" stroke-miterlimit="10"/>
<path d="M462.15 73.7531C463.006 73.7531 463.7 72.4548 463.7 70.8531C463.7 69.2515 463.006 67.9531 462.15 67.9531C461.294 67.9531 460.6 69.2515 460.6 70.8531C460.6 72.4548 461.294 73.7531 462.15 73.7531Z" fill="#161616" stroke="#161616" stroke-width="3" stroke-miterlimit="10"/>
<path d="M439.95 65.1997C440.9 63.4497 443 63.8497 444.55 64.3997C445.45 64.6997 445.85 63.2497 444.95 62.9497C442.75 62.1497 439.95 62.0997 438.65 64.4497C438.2 65.2497 439.5 66.0497 439.95 65.1997Z" fill="#161616"/>
<path d="M458.849 63.1521C461.199 60.9021 464.799 61.1021 466.799 63.8021C467.349 64.5521 468.649 63.8021 468.099 63.0521C465.549 59.6021 460.949 59.1521 457.799 62.1021C457.099 62.7521 458.149 63.8021 458.849 63.1521Z" fill="#161616"/>
<path d="M422.15 56.0037C443.2 57.2537 464.2 59.0037 485.1 61.3037C487.95 61.6037 487.95 57.1037 485.1 56.8037C464.15 54.5037 443.15 52.7537 422.15 51.5037C419.25 51.3537 419.25 55.8537 422.15 56.0037Z" fill="#161616"/>
<path d="M435.75 52.9036C436.1 49.6536 437.4 41.3036 443.8 34.5036C452.15 25.6536 467.6 21.9536 479.6 29.4536C489 35.3536 494.05 46.7536 492.35 58.3536C473.5 56.5536 454.65 54.7536 435.75 52.9036Z" fill="#4C4C4C"/>
<path opacity="0.69" d="M462.35 27.1527C459.9 29.2027 459.9 33.5527 460.75 38.1527C461.7 43.2027 464.15 49.3527 467.8 55.7027C476 56.6527 484.2 57.6527 492.4 58.6027C492.75 56.8027 493.1 54.2027 492.8 51.1027C492.8 51.1027 492.25 45.4027 489.25 40.2527C483.25 29.9527 467.55 22.7527 462.35 27.1527Z" fill="#3A3A3A"/>
<path opacity="0.24" d="M488.049 85.8516C486.199 86.8516 484.349 86.6016 483.699 86.4516C485.299 89.5016 490.249 99.8016 487.849 113.102C485.549 125.752 478.049 133.402 475.449 135.852C478.699 135.202 482.399 134.152 486.399 132.552C493.999 129.452 499.699 125.352 503.549 122.002C499.549 107.952 495.549 93.9016 491.549 79.8516C491.549 80.1016 491.349 84.1016 488.049 85.8516Z" fill="#3D3D3D"/>
<path opacity="0.19" d="M469.549 59.6562C470.149 62.2062 470.649 66.0563 470.049 70.5563C468.999 78.1563 465.349 83.4062 463.449 85.8562C464.599 85.5062 465.749 85.1062 466.899 84.7562C469.199 81.9562 471.549 78.9562 473.849 75.9062C477.649 70.8562 481.149 65.8562 484.349 61.0562C479.399 60.6062 474.499 60.1062 469.549 59.6562Z" fill="#3D3D3D"/>
</svg>
