<svg width="200" height="150" viewBox="0 0 200 150" fill="none" xmlns="http://www.w3.org/2000/svg">
<path d="M71.35 139.125C73.575 139.125 75.8 139.125 78.025 139.125C78.2625 139.125 78.2625 138.75 78.025 138.75C75.8 138.75 73.575 138.75 71.35 138.75C71.1125 138.75 71.1125 139.125 71.35 139.125Z" fill="#161616"/>
<path d="M100.688 138.898C102.337 138.898 103.987 138.898 105.637 138.898C105.875 138.898 105.875 138.523 105.637 138.523C103.987 138.523 102.337 138.523 100.688 138.523C100.438 138.523 100.438 138.898 100.688 138.898Z" fill="#161616"/>
<path d="M108.037 138.68C109 138.68 109.95 138.68 110.912 138.68C111.15 138.68 111.15 138.305 110.912 138.305C109.95 138.305 109 138.305 108.037 138.305C107.8 138.305 107.8 138.68 108.037 138.68Z" fill="#161616"/>
<path d="M96.2609 123.689H72.5234C71.6984 123.689 71.0234 123.014 71.0234 122.189V121.414C71.0234 120.589 71.6984 119.914 72.5234 119.914H96.2609C97.0859 119.914 97.7609 120.589 97.7609 121.414V122.189C97.7609 123.014 97.0859 123.689 96.2609 123.689Z" stroke="#161616" stroke-width="2" stroke-miterlimit="10"/>
<path d="M98.5871 127.666H74.8496C74.0246 127.666 73.3496 126.991 73.3496 126.166V125.391C73.3496 124.566 74.0246 123.891 74.8496 123.891H98.5871C99.4121 123.891 100.087 124.566 100.087 125.391V126.166C100.087 126.991 99.4121 127.666 98.5871 127.666Z" stroke="#161616" stroke-width="2" stroke-miterlimit="10"/>
<path d="M93.1125 131.541H69.375C68.55 131.541 67.875 130.866 67.875 130.041V129.266C67.875 128.441 68.55 127.766 69.375 127.766H93.1125C93.9375 127.766 94.6125 128.441 94.6125 129.266V130.041C94.6125 130.866 93.9375 131.541 93.1125 131.541Z" stroke="#161616" stroke-width="2" stroke-miterlimit="10"/>
<path d="M96.0121 135.189H72.2871C71.4621 135.189 70.7871 134.514 70.7871 133.689V132.914C70.7871 132.089 71.4621 131.414 72.2871 131.414H96.0246C96.8496 131.414 97.5246 132.089 97.5246 132.914V133.689C97.5121 134.514 96.8371 135.189 96.0121 135.189Z" stroke="#161616" stroke-width="2" stroke-miterlimit="10"/>
<path d="M98.5871 138.962H74.8496C74.0246 138.962 73.3496 138.287 73.3496 137.462V136.688C73.3496 135.863 74.0246 135.188 74.8496 135.188H98.5871C99.4121 135.188 100.087 135.863 100.087 136.688V137.462C100.087 138.287 99.4121 138.962 98.5871 138.962Z" stroke="#161616" stroke-width="2" stroke-miterlimit="10"/>
<path d="M89.3242 121.539C89.3242 122.052 89.3242 122.577 89.3242 123.089C89.3242 123.264 89.6117 123.277 89.6117 123.089C89.6117 122.577 89.6117 122.052 89.6117 121.539C89.5992 121.352 89.3242 121.352 89.3242 121.539Z" fill="#161616"/>
<path d="M90.1621 121.811C90.1621 122.286 90.1621 122.748 90.1621 123.223C90.1621 123.398 90.4496 123.411 90.4496 123.223C90.4496 122.748 90.4496 122.286 90.4496 121.811C90.4496 121.636 90.1621 121.636 90.1621 121.811Z" fill="#161616"/>
<path d="M92.9863 121.037C92.9863 121.7 92.9863 122.35 92.9863 123.012C92.9863 123.187 93.2738 123.2 93.2738 123.012C93.2738 122.35 93.2738 121.7 93.2738 121.037C93.2738 120.862 92.9863 120.862 92.9863 121.037Z" fill="#161616"/>
<path d="M93.5488 122.162C93.5488 122.425 93.5488 122.675 93.5488 122.938C93.5488 123.113 93.8363 123.125 93.8363 122.938C93.8363 122.675 93.8363 122.425 93.8363 122.162C93.8363 121.987 93.5488 121.987 93.5488 122.162Z" fill="#161616"/>
<path d="M74.1484 120.992C74.1484 121.717 74.1484 122.442 74.1484 123.18C74.1484 123.355 74.4359 123.367 74.4359 123.18C74.4359 122.455 74.4359 121.73 74.4359 120.992C74.4234 120.805 74.1484 120.805 74.1484 120.992Z" fill="#161616"/>
<path d="M72.9863 121.537C72.9863 121.962 72.9863 122.4 72.9863 122.825C72.9863 123 73.2738 123.012 73.2738 122.825C73.2738 122.4 73.2738 121.962 73.2738 121.537C73.2738 121.362 72.9863 121.362 72.9863 121.537Z" fill="#161616"/>
<path d="M77.6621 121.078C77.6621 121.666 77.6621 122.253 77.6621 122.828C77.6621 123.003 77.9496 123.016 77.9496 122.828C77.9496 122.241 77.9496 121.653 77.9496 121.078C77.9371 120.891 77.6621 120.891 77.6621 121.078Z" fill="#161616"/>
<path d="M76.375 122.102C76.375 122.489 76.375 122.877 76.375 123.264C76.375 123.439 76.6625 123.452 76.6625 123.264C76.6625 122.877 76.6625 122.489 76.6625 122.102C76.65 121.914 76.375 121.914 76.375 122.102Z" fill="#161616"/>
<path d="M82.9238 121.116C82.9238 121.878 82.9238 122.628 82.9238 123.391C82.9238 123.566 83.2113 123.578 83.2113 123.391C83.2113 122.628 83.2113 121.878 83.2113 121.116C83.2113 120.941 82.9238 120.941 82.9238 121.116Z" fill="#161616"/>
<path d="M83.7871 121.977C83.7871 122.364 83.7871 122.752 83.7871 123.139C83.7871 123.314 84.0746 123.327 84.0746 123.139C84.0746 122.752 84.0746 122.364 84.0746 121.977C84.0621 121.789 83.7871 121.789 83.7871 121.977Z" fill="#161616"/>
<path d="M85.0625 120.936C85.0625 121.698 85.0625 122.448 85.0625 123.211C85.0625 123.386 85.35 123.398 85.35 123.211C85.35 122.448 85.35 121.698 85.35 120.936C85.35 120.761 85.0625 120.761 85.0625 120.936Z" fill="#161616"/>
<path d="M76.7109 124.748C76.7109 125.648 76.7109 126.548 76.7109 127.448C76.7109 127.623 76.9984 127.636 76.9984 127.448C76.9984 126.548 76.9984 125.648 76.9984 124.748C76.9984 124.573 76.7109 124.573 76.7109 124.748Z" fill="#161616"/>
<path d="M78.2617 125.655C78.2617 126.292 78.2617 126.942 78.2617 127.58C78.2617 127.755 78.5492 127.767 78.5492 127.58C78.5492 126.942 78.5492 126.292 78.5492 125.655C78.5367 125.48 78.2617 125.48 78.2617 125.655Z" fill="#161616"/>
<path d="M83.2734 125.139C83.2734 125.777 83.2734 126.427 83.2734 127.064C83.2734 127.239 83.5609 127.252 83.5609 127.064C83.5609 126.427 83.5609 125.777 83.5609 125.139C83.5484 124.964 83.2734 124.964 83.2734 125.139Z" fill="#161616"/>
<path d="M86.5234 124.452C86.5234 125.489 86.5234 126.539 86.5234 127.577C86.5234 127.752 86.8109 127.764 86.8109 127.577C86.8109 126.539 86.8109 125.489 86.8109 124.452C86.7984 124.277 86.5234 124.277 86.5234 124.452Z" fill="#161616"/>
<path d="M89.4746 125.703C89.4746 126.041 89.4746 126.391 89.4746 126.728C89.4746 126.903 89.7621 126.916 89.7621 126.728C89.7621 126.391 89.7621 126.041 89.7621 125.703C89.7621 125.516 89.4746 125.516 89.4746 125.703Z" fill="#161616"/>
<path d="M70.7988 128.828C70.7988 129.653 70.7988 130.478 70.7988 131.316C70.7988 131.491 71.0863 131.503 71.0863 131.316C71.0863 130.491 71.0863 129.666 71.0863 128.828C71.0863 128.641 70.7988 128.641 70.7988 128.828Z" fill="#161616"/>
<path d="M77.3984 128.914C77.3984 129.777 77.3984 130.627 77.3984 131.489C77.3984 131.664 77.6859 131.677 77.6859 131.489C77.6859 130.627 77.6859 129.777 77.6859 128.914C77.6859 128.727 77.3984 128.727 77.3984 128.914Z" fill="#161616"/>
<path d="M74.6621 129.125C74.6621 129.7 74.6621 130.262 74.6621 130.837C74.6621 131.012 74.9496 131.025 74.9496 130.837C74.9496 130.262 74.9496 129.7 74.9496 129.125C74.9371 128.937 74.6621 128.937 74.6621 129.125Z" fill="#161616"/>
<path d="M75.5996 128.561C75.5996 129.036 75.5996 129.498 75.5996 129.973C75.5996 130.148 75.8871 130.161 75.8871 129.973C75.8871 129.498 75.8871 129.036 75.8871 128.561C75.8871 128.386 75.5996 128.386 75.5996 128.561Z" fill="#161616"/>
<path d="M84.6875 128.617C84.6875 129.492 84.6875 130.355 84.6875 131.23C84.6875 131.405 84.975 131.417 84.975 131.23C84.975 130.355 84.975 129.492 84.975 128.617C84.9625 128.43 84.6875 128.43 84.6875 128.617Z" fill="#161616"/>
<path d="M82.3242 128.561C82.3242 128.773 82.3242 128.986 82.3242 129.198C82.3242 129.373 82.6117 129.386 82.6117 129.198C82.6117 128.986 82.6117 128.773 82.6117 128.561C82.6117 128.386 82.3242 128.386 82.3242 128.561Z" fill="#161616"/>
<path d="M90.2871 127.805C90.2871 128.63 90.2871 129.455 90.2871 130.292C90.2871 130.467 90.5746 130.48 90.5746 130.292C90.5746 129.467 90.5746 128.642 90.5746 127.805C90.5746 127.617 90.2871 127.617 90.2871 127.805Z" fill="#161616"/>
<path d="M91.5371 129.592C91.5371 130.092 91.5371 130.592 91.5371 131.092C91.5371 131.267 91.8246 131.28 91.8246 131.092C91.8246 130.592 91.8246 130.092 91.8246 129.592C91.8121 129.417 91.5371 129.417 91.5371 129.592Z" fill="#161616"/>
<path d="M87.0371 128.561C87.0371 129.286 87.0371 130.011 87.0371 130.748C87.0371 130.923 87.3246 130.936 87.3246 130.748C87.3246 130.023 87.3246 129.298 87.3246 128.561C87.3246 128.386 87.0371 128.386 87.0371 128.561Z" fill="#161616"/>
<path d="M73.1992 131.828C73.1992 132.753 73.1992 133.678 73.1992 134.616C73.1992 134.791 73.4867 134.803 73.4867 134.616C73.4867 133.691 73.4867 132.766 73.4867 131.828C73.4867 131.641 73.1992 131.641 73.1992 131.828Z" fill="#161616"/>
<path d="M75.3734 135.111C75.3734 134.186 75.3734 133.261 75.3734 132.323C75.3734 132.148 75.0859 132.136 75.0859 132.323C75.0859 133.248 75.0859 134.173 75.0859 135.111C75.0859 135.298 75.3734 135.298 75.3734 135.111Z" fill="#161616"/>
<path d="M76.2738 135.039C76.2738 134.677 76.2738 134.327 76.2738 133.964C76.2738 133.789 75.9863 133.777 75.9863 133.964C75.9863 134.327 75.9863 134.677 75.9863 135.039C75.9863 135.214 76.2738 135.214 76.2738 135.039Z" fill="#161616"/>
<path d="M78.2617 131.617C78.2617 132.592 78.2617 133.555 78.2617 134.53C78.2617 134.705 78.5492 134.717 78.5492 134.53C78.5492 133.555 78.5492 132.592 78.5492 131.617C78.5367 131.43 78.2617 131.43 78.2617 131.617Z" fill="#161616"/>
<path d="M78.9863 132.975C78.9863 133.438 78.9863 133.888 78.9863 134.35C78.9863 134.525 79.2738 134.538 79.2738 134.35C79.2738 133.888 79.2738 133.438 79.2738 132.975C79.2613 132.8 78.9863 132.8 78.9863 132.975Z" fill="#161616"/>
<path d="M79.9746 132.467C79.9746 132.967 79.9746 133.467 79.9746 133.967C79.9746 134.142 80.2621 134.155 80.2621 133.967C80.2621 133.467 80.2621 132.967 80.2621 132.467C80.2496 132.292 79.9746 132.292 79.9746 132.467Z" fill="#161616"/>
<path d="M83.1875 131.617C83.1875 132.63 83.1875 133.642 83.1875 134.655C83.1875 134.83 83.475 134.842 83.475 134.655C83.475 133.642 83.475 132.63 83.475 131.617C83.4625 131.43 83.1875 131.43 83.1875 131.617Z" fill="#161616"/>
<path d="M86.4375 132.727C86.4375 133.289 86.4375 133.839 86.4375 134.402C86.4375 134.577 86.725 134.589 86.725 134.402C86.725 133.839 86.725 133.289 86.725 132.727C86.725 132.539 86.4375 132.539 86.4375 132.727Z" fill="#161616"/>
<path d="M90.8867 131.523C90.8867 132.598 90.8867 133.661 90.8867 134.736C90.8867 134.911 91.1742 134.923 91.1742 134.736C91.1742 133.661 91.1742 132.598 91.1742 131.523C91.1742 131.336 90.8867 131.336 90.8867 131.523Z" fill="#161616"/>
<path d="M92.2617 133.1C92.2617 133.612 92.2617 134.125 92.2617 134.637C92.2617 134.812 92.5492 134.825 92.5492 134.637C92.5492 134.125 92.5492 133.612 92.5492 133.1C92.5492 132.925 92.2617 132.925 92.2617 133.1Z" fill="#161616"/>
<path d="M94.625 131.686C94.625 132.486 94.625 133.286 94.625 134.086C94.625 134.261 94.9125 134.273 94.9125 134.086C94.9125 133.286 94.9125 132.486 94.9125 131.686C94.9 131.511 94.625 131.511 94.625 131.686Z" fill="#161616"/>
<path d="M76.6996 138.853C76.6996 137.928 76.6996 137.003 76.6996 136.066C76.6996 135.891 76.4121 135.878 76.4121 136.066C76.4121 136.991 76.4121 137.916 76.4121 138.853C76.4121 139.028 76.6996 139.028 76.6996 138.853Z" fill="#161616"/>
<path d="M77.725 138.798C77.725 138.323 77.725 137.861 77.725 137.386C77.725 137.211 77.4375 137.198 77.4375 137.386C77.4375 137.861 77.4375 138.323 77.4375 138.798C77.45 138.986 77.725 138.986 77.725 138.798Z" fill="#161616"/>
<path d="M80.6113 135.555C80.6113 136.63 80.6113 137.692 80.6113 138.767C80.6113 138.942 80.8988 138.955 80.8988 138.767C80.8988 137.692 80.8988 136.63 80.8988 135.555C80.8988 135.367 80.6113 135.367 80.6113 135.555Z" fill="#161616"/>
<path d="M83.1875 136.063C83.1875 136.725 83.1875 137.375 83.1875 138.038C83.1875 138.213 83.475 138.225 83.475 138.038C83.475 137.375 83.475 136.725 83.475 136.063C83.4625 135.875 83.1875 135.875 83.1875 136.063Z" fill="#161616"/>
<path d="M82.2871 136.453C82.2871 136.716 82.2871 136.966 82.2871 137.228C82.2871 137.403 82.5746 137.416 82.5746 137.228C82.5746 136.966 82.5746 136.716 82.5746 136.453C82.5621 136.266 82.2871 136.266 82.2871 136.453Z" fill="#161616"/>
<path d="M87.8496 135.25C87.8496 136.362 87.8496 137.475 87.8496 138.587C87.8496 138.762 88.1371 138.775 88.1371 138.587C88.1371 137.475 88.1371 136.362 88.1371 135.25C88.1371 135.062 87.8496 135.062 87.8496 135.25Z" fill="#161616"/>
<path d="M88.9238 136.702C88.9238 137.202 88.9238 137.702 88.9238 138.202C88.9238 138.377 89.2113 138.389 89.2113 138.202C89.2113 137.702 89.2113 137.202 89.2113 136.702C89.1988 136.527 88.9238 136.527 88.9238 136.702Z" fill="#161616"/>
<path d="M91.6621 135.412C91.6621 136.45 91.6621 137.5 91.6621 138.537C91.6621 138.712 91.9496 138.725 91.9496 138.537C91.9496 137.5 91.9496 136.45 91.9496 135.412C91.9496 135.237 91.6621 135.237 91.6621 135.412Z" fill="#161616"/>
<path d="M96.6367 135.678C96.6367 136.578 96.6367 137.478 96.6367 138.378C96.6367 138.553 96.9242 138.566 96.9242 138.378C96.9242 137.478 96.9242 136.578 96.9242 135.678C96.9117 135.503 96.6367 135.503 96.6367 135.678Z" fill="#161616"/>
<path d="M97.3984 136.836C97.3984 137.261 97.3984 137.698 97.3984 138.123C97.3984 138.298 97.6859 138.311 97.6859 138.123C97.6859 137.698 97.6859 137.261 97.6859 136.836C97.6859 136.648 97.3984 136.648 97.3984 136.836Z" fill="#161616"/>
<path d="M94.1996 127.378C94.1996 126.716 94.1996 126.041 94.1996 125.378C94.1996 125.203 93.9121 125.191 93.9121 125.378C93.9121 126.041 93.9121 126.716 93.9121 127.378C93.9246 127.553 94.1996 127.566 94.1996 127.378Z" fill="#161616"/>
<path d="M95.9238 124.566C95.9238 125.466 95.9238 126.353 95.9238 127.253C95.9238 127.428 96.2113 127.441 96.2113 127.253C96.2113 126.353 96.2113 125.466 96.2113 124.566C96.1988 124.391 95.9238 124.378 95.9238 124.566Z" fill="#161616"/>
<path d="M97.2243 119.215C97.9118 119.615 98.2868 120.365 98.2243 121.152C98.2118 121.327 98.4868 121.327 98.5118 121.152C98.5868 120.265 98.1493 119.427 97.3743 118.977C97.2118 118.877 97.0618 119.115 97.2243 119.215Z" fill="#161616"/>
<path d="M68.5988 128.5C68.2613 129.05 68.1988 129.7 68.4238 130.3C68.4863 130.463 68.7613 130.4 68.6988 130.225C68.4988 129.688 68.5488 129.138 68.8488 128.638C68.9363 128.488 68.6988 128.338 68.5988 128.5Z" fill="#161616"/>
<path d="M67.1868 127.093C66.4618 128.006 66.0993 129.093 66.1243 130.256C66.1243 130.431 66.4118 130.443 66.4118 130.256C66.3868 129.168 66.7243 128.143 67.3993 127.281C67.4993 127.156 67.2993 126.956 67.1868 127.093Z" fill="#161616"/>
<path d="M97.0993 131.077C97.5993 131.339 97.9118 131.839 97.9118 132.414C97.9118 132.589 98.1993 132.602 98.1993 132.414C98.1993 131.752 97.8368 131.139 97.2493 130.839C97.0868 130.752 96.9368 130.989 97.0993 131.077Z" fill="#161616"/>
<path opacity="0.15" d="M84.1359 120.214C84.8984 120.114 86.6859 119.989 88.3859 121.014C88.8734 121.301 89.2484 121.626 89.5609 121.939C89.5234 122.514 89.4734 123.089 89.4359 123.664C87.5984 123.739 85.7734 123.814 83.9359 123.876C84.1859 123.889 86.1859 124.001 87.2734 125.626C87.7484 126.339 87.8609 127.051 87.8859 127.476C87.8234 127.926 87.6234 128.889 86.8984 129.814C86.0234 130.926 84.9234 131.339 84.4984 131.476C84.6984 131.576 85.6484 132.114 85.9734 133.264C86.1609 133.939 86.0484 134.526 85.9734 134.801C84.7609 136.114 83.5484 137.426 82.3359 138.751C87.8984 138.814 93.4734 138.876 99.0359 138.939C99.2484 138.826 99.6484 138.564 99.8984 138.076C100.311 137.276 100.111 136.314 99.6484 135.739C98.7734 134.626 96.7859 135.014 96.5609 135.064C96.6234 135.026 97.6359 134.264 97.5484 133.026C97.4859 132.139 96.8734 131.601 96.7484 131.489C95.8609 131.426 94.9859 131.364 94.0984 131.301C94.1859 131.214 94.8484 130.489 94.7109 129.451C94.5984 128.651 94.0609 127.976 93.2984 127.664C94.4859 127.651 95.5109 127.626 96.3234 127.601C98.6859 127.539 99.2234 127.501 99.6484 127.051C100.223 126.426 100.411 125.214 99.8359 124.464C99.5234 124.064 99.0984 123.914 98.8484 123.851C97.9234 123.814 96.9984 123.764 96.0734 123.726C96.2109 123.726 96.8734 123.739 97.3734 123.239C97.8609 122.739 97.8234 122.076 97.8109 121.764C97.7984 121.564 97.7234 120.739 97.1359 120.226C96.5234 119.689 95.7359 119.839 94.2984 119.914C93.1734 119.976 92.0359 119.864 90.9109 119.914C88.5609 120.014 86.1859 120.126 84.1359 120.214Z" fill="#3D3D3D"/>
<path d="M101.475 135.633C110.088 135.633 118.712 135.633 127.325 135.633C129.775 135.633 132.237 135.633 134.688 135.633C134.925 135.633 134.925 135.258 134.688 135.258C126.075 135.258 117.45 135.258 108.838 135.258C106.388 135.258 103.925 135.258 101.475 135.258C101.237 135.258 101.237 135.633 101.475 135.633Z" fill="#E8E8E8"/>
<path d="M138.176 135.947C143.951 135.497 149.714 135.372 155.501 135.859C155.739 135.884 155.739 135.509 155.501 135.484C149.714 134.997 143.964 135.122 138.176 135.572C137.939 135.584 137.939 135.959 138.176 135.947Z" fill="#E8E8E8"/>
<path d="M153.827 137.921C156.939 138.196 160.027 137.421 163.127 137.221C166.314 137.021 169.514 137.221 172.664 137.783C172.902 137.821 173.002 137.458 172.764 137.421C169.664 136.871 166.514 136.658 163.364 136.833C160.189 137.008 157.014 137.833 153.827 137.546C153.589 137.521 153.589 137.896 153.827 137.921Z" fill="#E8E8E8"/>
<path d="M155.776 135.396C154.476 134.396 153.263 133.271 152.188 132.033C151.951 131.758 151.726 131.483 151.501 131.208C151.338 131.008 151.163 130.796 151.051 130.571C150.901 130.271 150.963 130.058 150.963 129.721C150.963 129.133 150.626 129.158 150.238 128.758C149.651 128.146 149.563 127.258 149.388 126.471C149.226 125.733 148.926 125.083 148.588 124.421C147.801 122.833 147.438 121.021 146.963 119.321C146.926 119.396 146.876 119.471 146.838 119.546C148.488 119.321 150.276 120.558 151.588 121.458C152.263 121.921 152.901 122.421 153.513 122.958C154.126 123.508 155.063 124.283 154.726 125.208C154.676 125.333 154.801 125.446 154.901 125.446C155.926 125.483 156.701 126.508 157.251 127.271C157.788 127.996 158.226 128.796 158.551 129.633C159.201 131.321 159.401 133.158 159.113 134.946C159.076 135.183 159.438 135.283 159.476 135.046C159.801 133.046 159.551 130.996 158.738 129.121C158.338 128.208 157.813 127.346 157.176 126.571C156.588 125.858 155.876 125.096 154.888 125.058C154.951 125.133 155.013 125.221 155.063 125.296C155.351 124.521 154.901 123.808 154.376 123.258C153.701 122.546 152.913 121.933 152.113 121.371C150.638 120.321 148.626 118.908 146.713 119.183C146.613 119.196 146.563 119.321 146.588 119.408C147.076 121.146 147.438 122.971 148.251 124.596C148.663 125.433 148.938 126.221 149.138 127.133C149.276 127.808 149.476 128.508 149.976 129.021C150.188 129.246 150.563 129.371 150.601 129.696C150.626 129.996 150.526 130.208 150.638 130.533C150.876 131.196 151.488 131.796 151.938 132.308C153.038 133.571 154.276 134.708 155.601 135.733C155.776 135.858 155.963 135.533 155.776 135.396Z" fill="#E8E8E8"/>
<path d="M157.913 127.161C158.35 125.548 159.65 124.148 160.675 122.873C160.95 122.536 161.213 122.211 161.488 121.886C161.713 121.611 162 121.098 162.388 121.036C162.55 121.011 162.625 121.111 162.8 120.998C162.988 120.886 163.063 120.661 163.163 120.486C163.913 119.123 165.113 118.136 166.375 117.248C167.363 116.548 168.338 115.848 168.825 114.698C168.7 114.661 168.588 114.636 168.463 114.598C167.95 116.498 167.95 118.386 168.275 120.323C168.613 122.336 168.688 124.286 168.138 126.286C167.088 130.098 164.2 132.661 161.263 135.086C161.075 135.236 161.338 135.498 161.525 135.348C164.4 132.973 167.238 130.461 168.375 126.786C168.913 125.036 169.063 123.186 168.813 121.373C168.663 120.298 168.425 119.248 168.388 118.148C168.35 116.973 168.5 115.811 168.813 114.686C168.875 114.448 168.538 114.373 168.45 114.586C167.875 115.961 166.463 116.661 165.338 117.523C164.763 117.961 164.225 118.448 163.738 118.986C163.525 119.223 163.325 119.486 163.15 119.748C163.013 119.961 162.8 120.536 162.575 120.611C162.425 120.661 162.263 120.573 162.088 120.648C161.838 120.748 161.675 121.048 161.513 121.236C160.963 121.898 160.413 122.548 159.888 123.223C158.975 124.373 157.938 125.598 157.538 127.036C157.488 127.298 157.85 127.398 157.913 127.161Z" fill="#E8E8E8"/>
<path d="M148.389 121.476C149.514 122.276 150.364 123.351 151.201 124.439C152.089 125.564 152.964 126.701 153.789 127.876C155.376 130.126 156.764 132.539 157.501 135.214C157.564 135.451 157.926 135.351 157.864 135.114C157.101 132.339 155.651 129.839 153.989 127.514C153.176 126.376 152.326 125.276 151.464 124.176C150.601 123.064 149.726 121.976 148.564 121.164C148.376 121.014 148.189 121.339 148.389 121.476Z" fill="#E8E8E8"/>
<path d="M167.138 117.838C165.151 123.063 160.563 126.963 159.251 132.488C159.201 132.725 159.551 132.825 159.613 132.588C160.913 127.063 165.513 123.163 167.501 117.938C167.588 117.713 167.226 117.613 167.138 117.838Z" fill="#E8E8E8"/>
<path d="M164.063 118.725C164.251 120.462 164.138 122.188 163.726 123.875C163.663 124.113 164.026 124.213 164.088 123.975C164.501 122.25 164.626 120.488 164.438 118.725C164.413 118.487 164.038 118.487 164.063 118.725Z" fill="#E8E8E8"/>
<path d="M165.201 122.257C166.376 121.52 167.488 120.695 168.538 119.782C168.726 119.62 168.451 119.357 168.276 119.52C167.251 120.407 166.163 121.22 165.013 121.932C164.801 122.07 164.988 122.395 165.201 122.257Z" fill="#E8E8E8"/>
<path d="M148.525 124.763C149.388 124.738 150.6 124.488 151.388 124.901C151.6 125.013 151.788 124.688 151.575 124.576C150.688 124.101 149.488 124.351 148.525 124.388C148.275 124.401 148.275 124.776 148.525 124.763Z" fill="#E8E8E8"/>
<path d="M153.251 122.858C153.101 124.07 153.126 125.258 153.301 126.47C153.338 126.708 153.701 126.608 153.663 126.37C153.488 125.195 153.488 124.033 153.626 122.858C153.663 122.62 153.288 122.62 153.251 122.858Z" fill="#E8E8E8"/>
<path d="M145.563 139.886C147.588 139.998 149.588 139.548 151.613 139.586C153.55 139.623 155.438 140.136 157.375 139.823C157.613 139.786 157.513 139.423 157.275 139.461C155.3 139.786 153.35 139.211 151.375 139.211C149.438 139.211 147.513 139.623 145.563 139.511C145.325 139.486 145.325 139.861 145.563 139.886Z" fill="#E8E8E8"/>
<path d="M168.989 135.186C170.439 134.986 171.902 134.924 173.364 134.986C174.802 135.049 176.227 135.224 177.677 135.099C179.089 134.986 180.489 134.761 181.914 134.774C183.352 134.786 184.777 134.949 186.202 135.136C186.439 135.161 186.439 134.786 186.202 134.761C184.777 134.586 183.352 134.411 181.914 134.399C180.414 134.386 178.939 134.636 177.439 134.736C176.002 134.836 174.577 134.649 173.139 134.599C171.714 134.549 170.302 134.636 168.902 134.824C168.652 134.861 168.752 135.224 168.989 135.186Z" fill="#E8E8E8"/>
<path d="M39.2881 137.584C43.1631 138.121 47.0006 137.259 50.8631 136.996C52.9131 136.859 54.9256 137.009 56.9756 137.196C59.0256 137.384 61.0756 137.471 63.1381 137.484C65.4881 137.496 67.8506 137.434 70.2006 137.359C70.4381 137.346 70.4381 136.971 70.2006 136.984C67.5631 137.059 64.9131 137.134 62.2756 137.096C59.6881 137.059 57.1381 136.771 54.5631 136.609C49.4881 136.271 44.4506 137.921 39.3881 137.221C39.1506 137.196 39.0506 137.546 39.2881 137.584Z" fill="#E8E8E8"/>
<path d="M61.1762 139.699C62.6387 139.699 64.0887 139.349 65.5387 139.237C67.0137 139.124 68.4887 139.099 69.9637 139.162C70.2012 139.174 70.2012 138.799 69.9637 138.787C68.4887 138.724 67.0137 138.737 65.5387 138.862C64.0887 138.974 62.6262 139.324 61.1762 139.324C60.9387 139.324 60.9387 139.699 61.1762 139.699Z" fill="#E8E8E8"/>
<path d="M53.2363 58.7484C53.2363 68.4984 53.2363 78.2484 53.2363 87.9859C53.2363 97.7234 53.2363 107.486 53.2363 117.223C53.2363 122.723 53.2363 128.223 53.2363 133.723C53.2363 133.961 53.6113 133.961 53.6113 133.723C53.6113 123.973 53.6113 114.223 53.6113 104.486C53.6113 94.7484 53.6113 84.9859 53.6113 75.2484C53.6113 69.7484 53.6113 64.2484 53.6113 58.7484C53.6113 58.5109 53.2363 58.5109 53.2363 58.7484Z" fill="#E8E8E8"/>
<path d="M84.7129 54.1781C84.7129 62.5406 84.7129 70.9031 84.7129 79.2656C84.7129 87.6281 84.7129 95.9906 84.7129 104.353C84.7129 109.091 84.7129 113.841 84.7129 118.578C84.7129 118.816 85.0879 118.816 85.0879 118.578C85.0879 110.216 85.0879 101.853 85.0879 93.4906C85.0879 85.1281 85.0879 76.7656 85.0879 68.4031C85.0879 63.6656 85.0879 58.9156 85.0879 54.1781C85.0879 53.9406 84.7129 53.9406 84.7129 54.1781Z" fill="#E8E8E8"/>
<path d="M85.4613 89.8916C92.5488 92.8416 99.6488 95.7666 106.774 98.6416C106.999 98.7291 107.099 98.3666 106.874 98.2791C99.7488 95.4041 92.6487 92.4791 85.5612 89.5291C85.3362 89.4416 85.2488 89.8041 85.4613 89.8916Z" fill="#E8E8E8"/>
<path d="M105.312 98.3891C105.312 107.789 105.312 117.202 105.312 126.602C105.312 129.264 105.312 131.927 105.312 134.589C105.312 134.827 105.688 134.827 105.688 134.589C105.688 125.189 105.688 115.777 105.688 106.377C105.688 103.714 105.688 101.052 105.688 98.3891C105.688 98.1516 105.312 98.1516 105.312 98.3891Z" fill="#E8E8E8"/>
<path d="M139.463 134.455C139.463 126.58 139.463 118.717 139.463 110.842C139.463 110.605 139.088 110.605 139.088 110.842C139.088 118.717 139.088 126.58 139.088 134.455C139.088 134.692 139.463 134.692 139.463 134.455Z" fill="#E8E8E8"/>
<path d="M135.974 111.686C143.611 108.399 151.274 105.099 158.536 101.024C160.611 99.8613 162.661 98.6238 164.661 97.3113C164.861 97.1738 164.674 96.8488 164.474 96.9863C157.499 101.549 149.974 105.149 142.374 108.499C140.186 109.461 137.986 110.411 135.799 111.349C135.561 111.461 135.761 111.774 135.974 111.686Z" fill="#E8E8E8"/>
<path d="M145.611 106.837C145.611 96.7375 145.611 86.625 145.611 76.525C145.611 73.65 145.611 70.7875 145.611 67.9125C145.611 67.675 145.236 67.675 145.236 67.9125C145.236 78.0125 145.236 88.125 145.236 98.225C145.236 101.1 145.236 103.962 145.236 106.837C145.236 107.075 145.611 107.075 145.611 106.837Z" fill="#E8E8E8"/>
<path d="M143.424 68.6797C152.736 68.6797 162.049 68.6797 171.361 68.6797C174.024 68.6797 176.686 68.6797 179.336 68.6797C179.574 68.6797 179.574 68.3047 179.336 68.3047C170.024 68.3047 160.711 68.3047 151.399 68.3047C148.736 68.3047 146.074 68.3047 143.424 68.3047C143.174 68.3047 143.174 68.6797 143.424 68.6797Z" fill="#E8E8E8"/>
<path d="M175.861 69.9125C175.861 86.225 175.861 102.537 175.861 118.85C175.861 123.425 175.861 128 175.861 132.587C175.861 132.825 176.236 132.825 176.236 132.587C176.236 116.275 176.236 99.9625 176.236 83.65C176.236 79.075 176.236 74.5 176.236 69.9125C176.236 69.675 175.861 69.675 175.861 69.9125Z" fill="#E8E8E8"/>
<path d="M51.637 59.1653C60.3745 56.3528 69.6995 55.7403 78.762 54.7028C81.412 54.4028 84.062 54.1028 86.712 53.7903C86.9495 53.7653 86.9495 53.3903 86.712 53.4153C81.987 53.9528 77.2495 54.5028 72.5245 55.0403C68.037 55.5528 63.5245 56.0403 59.087 56.9028C56.537 57.3903 54.012 58.0153 51.537 58.8028C51.312 58.8778 51.412 59.2403 51.637 59.1653Z" fill="#E8E8E8"/>
<path d="M55.9238 68.2641C55.9238 66.1766 55.9238 64.0891 55.9238 62.0141C55.9238 61.7766 55.5488 61.7766 55.5488 62.0141C55.5488 64.1016 55.5488 66.1891 55.5488 68.2641C55.5488 68.5016 55.9238 68.5016 55.9238 68.2641Z" fill="#E8E8E8"/>
<path d="M55.6254 61.9922C56.8504 61.9922 58.0754 61.9922 59.3004 61.9922C59.5379 61.9922 59.5379 61.6172 59.3004 61.6172C58.0754 61.6172 56.8504 61.6172 55.6254 61.6172C55.3879 61.6172 55.3879 61.9922 55.6254 61.9922Z" fill="#E8E8E8"/>
<path d="M59.125 61.9047C59.125 64.0797 59.125 66.2547 59.125 68.4172C59.125 68.6547 59.5 68.6547 59.5 68.4172C59.5 66.2422 59.5 64.0672 59.5 61.9047C59.5 61.6672 59.125 61.6672 59.125 61.9047Z" fill="#E8E8E8"/>
<path d="M55.7864 68.6641C56.8739 68.6641 57.9614 68.6641 59.0489 68.6641C59.2864 68.6641 59.2864 68.2891 59.0489 68.2891C57.9614 68.2891 56.8739 68.2891 55.7864 68.2891C55.5489 68.2891 55.5364 68.6641 55.7864 68.6641Z" fill="#E8E8E8"/>
<path d="M66.4746 68.2172C66.4746 66.1297 66.4746 64.0422 66.4746 61.9672C66.4746 61.7297 66.0996 61.7297 66.0996 61.9672C66.0996 64.0547 66.0996 66.1422 66.0996 68.2172C66.0996 68.4547 66.4746 68.4547 66.4746 68.2172Z" fill="#E8E8E8"/>
<path d="M66.1875 61.9297C67.4125 61.9297 68.6375 61.9297 69.8625 61.9297C70.1 61.9297 70.1 61.5547 69.8625 61.5547C68.6375 61.5547 67.4125 61.5547 66.1875 61.5547C65.9375 61.5547 65.9375 61.9297 66.1875 61.9297Z" fill="#E8E8E8"/>
<path d="M69.6738 61.85C69.6738 64.025 69.6738 66.2 69.6738 68.3625C69.6738 68.6 70.0488 68.6 70.0488 68.3625C70.0488 66.1875 70.0488 64.0125 70.0488 61.85C70.0488 61.6125 69.6738 61.6125 69.6738 61.85Z" fill="#E8E8E8"/>
<path d="M66.3363 68.6016C67.4238 68.6016 68.5113 68.6016 69.5988 68.6016C69.8363 68.6016 69.8363 68.2266 69.5988 68.2266C68.5113 68.2266 67.4238 68.2266 66.3363 68.2266C66.0988 68.2266 66.0988 68.6016 66.3363 68.6016Z" fill="#E8E8E8"/>
<path d="M77.3125 67.975C77.3125 65.8875 77.3125 63.8 77.3125 61.725C77.3125 61.4875 76.9375 61.4875 76.9375 61.725C76.9375 63.8125 76.9375 65.9 76.9375 67.975C76.9375 68.2125 77.3125 68.2125 77.3125 67.975Z" fill="#E8E8E8"/>
<path d="M77.0121 61.6875C78.2371 61.6875 79.4621 61.6875 80.6871 61.6875C80.9246 61.6875 80.9246 61.3125 80.6871 61.3125C79.4621 61.3125 78.2371 61.3125 77.0121 61.3125C76.7746 61.3125 76.7746 61.6875 77.0121 61.6875Z" fill="#E8E8E8"/>
<path d="M80.5117 61.6172C80.5117 63.7922 80.5117 65.9672 80.5117 68.1297C80.5117 68.3672 80.8867 68.3672 80.8867 68.1297C80.8867 65.9547 80.8867 63.7797 80.8867 61.6172C80.8867 61.3672 80.5117 61.3672 80.5117 61.6172Z" fill="#E8E8E8"/>
<path d="M77.1742 68.3672C78.2617 68.3672 79.3492 68.3672 80.4367 68.3672C80.6742 68.3672 80.6742 67.9922 80.4367 67.9922C79.3492 67.9922 78.2617 67.9922 77.1742 67.9922C76.9367 67.9922 76.9367 68.3672 77.1742 68.3672Z" fill="#E8E8E8"/>
<path d="M52.0996 85.8359C52.0996 94.0734 52.0996 102.298 52.0996 110.536C52.0996 110.773 52.4746 110.773 52.4746 110.536C52.4746 102.298 52.4746 94.0734 52.4746 85.8359C52.4746 85.5859 52.0996 85.5859 52.0996 85.8359Z" fill="#E8E8E8"/>
<path d="M54.7246 112.116C54.7246 115.941 54.7246 119.753 54.7246 123.578C54.7246 123.816 55.0996 123.816 55.0996 123.578C55.0996 119.753 55.0996 115.941 55.0996 112.116C55.0996 111.878 54.7246 111.878 54.7246 112.116Z" fill="#E8E8E8"/>
<path d="M50.4495 58.086C54.4745 56.686 58.562 55.536 62.7245 54.6485C62.962 54.5985 62.862 54.236 62.6245 54.286C58.462 55.1735 54.362 56.3235 50.3495 57.7235C50.1245 57.7985 50.2245 58.161 50.4495 58.086Z" fill="#E8E8E8"/>
<path d="M85.7616 91.6729C89.9866 93.2604 94.0991 95.1479 98.1991 97.0354C98.4116 97.1354 98.6116 96.8104 98.3866 96.7104C94.2491 94.8104 90.1116 92.9104 85.8616 91.3104C85.6366 91.2229 85.5366 91.5854 85.7616 91.6729Z" fill="#E8E8E8"/>
<path d="M88.2129 104.889C88.2129 102.802 88.2129 100.714 88.2129 98.6391C88.2129 98.4016 87.8379 98.4016 87.8379 98.6391C87.8379 100.727 87.8379 102.814 87.8379 104.889C87.8379 105.139 88.2129 105.139 88.2129 104.889Z" fill="#E8E8E8"/>
<path d="M87.9238 98.6172C89.1488 98.6172 90.3738 98.6172 91.5988 98.6172C91.8363 98.6172 91.8363 98.2422 91.5988 98.2422C90.3738 98.2422 89.1488 98.2422 87.9238 98.2422C87.6738 98.2422 87.6738 98.6172 87.9238 98.6172Z" fill="#E8E8E8"/>
<path d="M91.4121 98.5391C91.4121 100.714 91.4121 102.889 91.4121 105.052C91.4121 105.289 91.7871 105.289 91.7871 105.052C91.7871 102.877 91.7871 100.702 91.7871 98.5391C91.7871 98.2891 91.4121 98.2891 91.4121 98.5391Z" fill="#E8E8E8"/>
<path d="M88.0746 105.289C89.1621 105.289 90.2496 105.289 91.3371 105.289C91.5746 105.289 91.5746 104.914 91.3371 104.914C90.2496 104.914 89.1621 104.914 88.0746 104.914C87.8371 104.914 87.8371 105.289 88.0746 105.289Z" fill="#E8E8E8"/>
<path d="M141.125 111.252C149.288 108.189 157.113 104.289 164.475 99.6265C164.675 99.5015 164.488 99.1766 164.288 99.3016C156.95 103.952 149.15 107.839 141.025 110.889C140.8 110.977 140.9 111.339 141.125 111.252Z" fill="#E8E8E8"/>
<path d="M177.012 70.8031C177.024 80.4781 177.037 90.1406 177.037 99.8156C177.037 100.053 177.412 100.053 177.412 99.8156C177.399 90.1406 177.387 80.4781 177.387 70.8031C177.387 70.5656 177.012 70.5656 177.012 70.8031Z" fill="#E8E8E8"/>
<path d="M149.938 67.4141C159.788 67.4141 169.625 67.4141 179.475 67.4141C179.713 67.4141 179.713 67.0391 179.475 67.0391C169.625 67.0391 159.788 67.0391 149.938 67.0391C149.7 67.0391 149.7 67.4141 149.938 67.4141Z" fill="#E8E8E8"/>
<path d="M149.236 79.8422C149.236 77.7547 149.236 75.6672 149.236 73.5922C149.236 73.3547 148.861 73.3547 148.861 73.5922C148.861 75.6797 148.861 77.7672 148.861 79.8422C148.861 80.0922 149.236 80.0922 149.236 79.8422Z" fill="#E8E8E8"/>
<path d="M148.95 73.5625C150.175 73.5625 151.4 73.5625 152.625 73.5625C152.862 73.5625 152.862 73.1875 152.625 73.1875C151.4 73.1875 150.175 73.1875 148.95 73.1875C148.712 73.1875 148.712 73.5625 148.95 73.5625Z" fill="#E8E8E8"/>
<path d="M152.438 73.4922C152.438 75.6672 152.438 77.8422 152.438 80.0047C152.438 80.2422 152.812 80.2422 152.812 80.0047C152.812 77.8297 152.812 75.6547 152.812 73.4922C152.812 73.2422 152.438 73.2422 152.438 73.4922Z" fill="#E8E8E8"/>
<path d="M149.111 80.2422C150.199 80.2422 151.286 80.2422 152.374 80.2422C152.611 80.2422 152.611 79.8672 152.374 79.8672C151.286 79.8672 150.199 79.8672 149.111 79.8672C148.861 79.8672 148.861 80.2422 149.111 80.2422Z" fill="#E8E8E8"/>
<path d="M166.6 79.8422C166.6 77.7547 166.6 75.6672 166.6 73.5922C166.6 73.3547 166.225 73.3547 166.225 73.5922C166.225 75.6797 166.225 77.7672 166.225 79.8422C166.225 80.0922 166.6 80.0922 166.6 79.8422Z" fill="#E8E8E8"/>
<path d="M166.299 73.5625C167.524 73.5625 168.749 73.5625 169.974 73.5625C170.212 73.5625 170.212 73.1875 169.974 73.1875C168.749 73.1875 167.524 73.1875 166.299 73.1875C166.062 73.1875 166.062 73.5625 166.299 73.5625Z" fill="#E8E8E8"/>
<path d="M169.799 73.4922C169.799 75.6672 169.799 77.8422 169.799 80.0047C169.799 80.2422 170.174 80.2422 170.174 80.0047C170.174 77.8297 170.174 75.6547 170.174 73.4922C170.174 73.2422 169.799 73.2422 169.799 73.4922Z" fill="#E8E8E8"/>
<path d="M166.461 80.2422C167.549 80.2422 168.636 80.2422 169.724 80.2422C169.961 80.2422 169.961 79.8672 169.724 79.8672C168.636 79.8672 167.549 79.8672 166.461 79.8672C166.224 79.8672 166.224 80.2422 166.461 80.2422Z" fill="#E8E8E8"/>
<path d="M158.974 31.0141C163.109 31.0141 166.461 27.6058 166.461 23.4016C166.461 19.1973 163.109 15.7891 158.974 15.7891C154.839 15.7891 151.486 19.1973 151.486 23.4016C151.486 27.6058 154.839 31.0141 158.974 31.0141Z" stroke="#E8E8E8" stroke-width="3" stroke-miterlimit="10"/>
<path d="M150.338 52.8117C152.413 51.3992 154.938 52.2867 157.088 53.0117C158.1 53.3492 159.125 53.6617 160.188 53.7617C161.338 53.8742 162.488 53.7492 163.613 53.5242C168.075 52.5992 172.9 49.4492 177.488 51.5867C177.7 51.6867 177.9 51.3617 177.675 51.2617C174.3 49.6867 170.588 50.9242 167.288 52.0492C165.363 52.7117 163.375 53.3742 161.313 53.4242C159.2 53.4742 157.35 52.6117 155.363 52.0617C153.638 51.5742 151.688 51.4367 150.138 52.4867C149.95 52.6242 150.138 52.9492 150.338 52.8117Z" fill="#E8E8E8"/>
<path d="M56.8878 46.0019C60.5003 47.0394 64.0503 45.3394 67.4378 44.2769C69.2878 43.7019 71.2378 43.2394 73.1878 43.4894C75.1753 43.7519 76.9878 44.7019 78.8128 45.4894C80.6628 46.2894 82.5878 46.9519 84.6378 46.6269C84.8752 46.5894 84.7753 46.2269 84.5378 46.2644C80.6253 46.8894 77.3503 43.8269 73.6503 43.1769C70.0378 42.5394 66.6003 44.2644 63.2253 45.2644C61.1878 45.8644 59.0753 46.2269 56.9878 45.6269C56.7503 45.5644 56.6503 45.9269 56.8878 46.0019Z" fill="#E8E8E8"/>
<path d="M89.2367 51.4291C90.5742 51.3916 91.7492 50.7916 92.9367 50.2541C93.6617 49.9291 94.4117 49.6166 95.2117 49.5541C96.0992 49.4791 96.8742 49.7916 97.6367 50.2166C99.0367 50.9916 100.337 51.7041 101.949 51.9541C103.474 52.2041 105.024 52.0916 106.512 51.6416C106.737 51.5666 106.649 51.2041 106.412 51.2791C104.762 51.7791 103.012 51.8416 101.324 51.4416C100.524 51.2541 99.7492 50.9541 99.0242 50.5666C98.3367 50.1916 97.6867 49.7416 96.9617 49.4541C94.1742 48.3416 91.9367 50.9666 89.2367 51.0416C88.9992 51.0666 88.9992 51.4416 89.2367 51.4291Z" fill="#E8E8E8"/>
<path d="M127.599 39.7798C131.199 41.4548 135.236 41.3798 139.061 40.6423C143.386 39.8048 147.461 37.8923 151.936 37.9673C154.461 38.0173 156.961 38.5673 159.286 39.5673C159.511 39.6673 159.699 39.3423 159.474 39.2423C155.724 37.6173 151.549 37.1798 147.549 38.0173C145.361 38.4798 143.249 39.2423 141.086 39.8048C139.036 40.3298 136.936 40.7048 134.824 40.7798C132.411 40.8548 129.999 40.4923 127.799 39.4673C127.574 39.3548 127.386 39.6798 127.599 39.7798Z" fill="#E8E8E8"/>
<path d="M84.475 108.483C84.8625 110.52 85.2375 112.57 85.625 114.608C79.175 116.945 76.0375 118.558 76.2375 119.458C76.475 120.545 81.5375 120.583 91.4375 119.583C91.0125 115.333 90.5875 111.083 90.1625 106.82C88.2625 107.383 86.3625 107.933 84.475 108.483Z" fill="#161616" stroke="#161616" stroke-width="3" stroke-miterlimit="10"/>
<path d="M114.663 82.9471C111.963 84.0596 110.825 83.7846 107.413 84.7221C101.125 86.4471 96.575 89.6721 93.7375 92.1096C93.875 96.7596 94.0125 101.41 94.15 106.06C93.8625 106.397 90.7125 109.972 85.9375 109.485C82.65 109.147 80.6 107.072 80.05 106.472C79.9625 102.185 80.0375 97.6096 80.325 92.7971C80.5 90.0096 80.725 87.3096 81.0125 84.7221C81.4375 84.1221 82.0875 83.2596 82.925 82.2596C89.5 74.4346 97.375 70.9596 101.663 69.1346C105.938 67.3096 108.613 66.1721 112.6 65.8471C113.663 65.7596 124.288 65.0096 126 69.2721C127.588 73.1596 121.325 80.2096 114.663 82.9471Z" fill="white" stroke="#161616" stroke-width="3" stroke-miterlimit="10"/>
<path opacity="0.16" d="M125.312 67.9606C122.937 66.3231 117.7 73.2981 107.275 79.8731C97.2498 86.1856 91.9998 86.0856 88.9748 92.2231C88.0498 94.0856 87.0873 97.0356 86.4998 100.036C85.7748 103.811 85.7748 107.036 85.9373 109.323C86.7498 109.286 87.7123 109.173 88.7498 108.898C91.2623 108.236 93.0498 106.973 94.0998 106.086C93.9623 101.348 93.8123 96.6106 93.6748 91.8856C95.4248 90.4606 98.2123 88.4231 101.975 86.6856C109.012 83.4231 111.65 84.8231 117.45 81.4856C118.787 80.7231 126.35 76.3606 126.175 70.6606C126.125 69.7481 126.112 68.5106 125.312 67.9606Z" fill="#3D3D3D"/>
<path opacity="0.25" d="M126.287 70.2062C125.762 69.7812 123.724 72.6312 118.837 76.1187C112.762 80.4437 109.837 80.3937 103.149 84.4187C100.737 85.8687 97.2492 88.1937 93.3867 91.7312C94.1367 91.4062 95.3492 90.8562 96.7617 90.0437C99.6367 88.3687 100.337 87.3437 102.524 86.2437C103.312 85.8562 104.787 85.4562 107.724 84.6937C112.862 83.3562 113.599 83.4187 115.462 82.5812C117.924 81.4812 119.537 80.0937 120.387 79.3437C124.462 75.7687 126.949 70.7312 126.287 70.2062Z" fill="#3D3D3D"/>
<path opacity="0.2" d="M93.5258 91.875C91.9258 97.6375 90.3383 103.413 88.7383 109.175C89.4508 108.988 90.3258 108.688 91.2758 108.188C92.6383 107.462 93.6008 106.6 94.2258 105.938C93.9883 101.25 93.7633 96.5625 93.5258 91.875Z" fill="#3D3D3D"/>
<path d="M125.138 128.014C125.526 130.052 125.901 132.102 126.288 134.139C120.451 137.077 117.676 138.902 117.926 139.614C118.238 140.477 122.951 139.727 132.051 137.377C131.638 133.702 131.238 130.027 130.826 126.352C128.926 126.914 127.038 127.464 125.138 128.014Z" fill="#161616" stroke="#161616" stroke-width="3" stroke-miterlimit="10"/>
<path d="M130.138 64.4875C130.576 67.8625 131.138 72.95 131.413 79.1625C131.826 88.75 131.226 94.0875 131.126 101.175C131.038 107.388 131.326 116.3 133.101 127.287C132.138 127.925 129.963 129.187 126.888 129.4C123.963 129.6 121.726 128.75 120.676 128.275C120.401 122.95 119.913 117.288 119.126 111.338C117.676 100.375 115.488 90.5 113.063 81.85C111.563 79.775 110.051 77.7125 108.551 75.6375C114.013 71.775 119.463 67.925 124.926 64.0625C126.651 64.2125 128.388 64.35 130.138 64.4875Z" fill="white" stroke="#161616" stroke-width="3" stroke-miterlimit="10"/>
<path d="M110.613 76.7109C110.225 76.1734 109.85 75.6234 109.463 75.0859C109.35 75.5109 109.238 75.9359 109.125 76.3734C110.975 75.2234 112.788 74.0109 114.525 72.6859C115.975 71.5859 117.325 70.3734 118.788 69.2984C119.713 68.6109 120.663 67.9609 121.613 67.3109C122.525 66.6984 123.45 65.9234 124.45 65.4359C124.988 65.1734 125.625 65.2109 126.2 65.2109C127.3 65.2109 128.388 65.2484 129.475 65.3109C130.675 65.3734 130.675 63.4984 129.475 63.4359C128.388 63.3859 127.288 63.3359 126.2 63.3359C125.5 63.3359 124.775 63.3359 124.113 63.5484C123.075 63.8859 122.138 64.6984 121.25 65.3109C120.225 65.9984 119.213 66.6859 118.213 67.4109C116.663 68.5359 115.238 69.7984 113.725 70.9609C111.95 72.3234 110.088 73.5734 108.188 74.7484C107.788 74.9984 107.55 75.6109 107.85 76.0359C108.238 76.5734 108.613 77.1234 109 77.6609C109.688 78.6359 111.313 77.6984 110.613 76.7109Z" fill="white"/>
<path opacity="0.14" d="M117.713 65.9844C119.613 71.5969 121.375 77.8469 122.775 84.6844C126.263 101.797 126.325 117.022 125.313 128.984C125.913 129.197 126.675 129.384 127.563 129.409C130.375 129.484 132.4 127.859 133.05 127.297C132.5 124.534 131.788 120.397 131.363 115.347C130.438 104.409 131.6 98.2094 131.788 88.9094C131.9 83.2594 131.688 75.2344 130.1 65.4219C125.963 65.6094 121.838 65.7969 117.713 65.9844Z" fill="#3D3D3D"/>
<path opacity="0.2" d="M130.512 71.1953C130.162 83.5078 129.562 96.1703 128.687 109.17C128.237 115.883 127.712 122.495 127.137 128.995C127.712 129.095 128.737 129.195 129.949 128.858C131.524 128.408 132.499 127.47 132.899 127.033C131.499 118.908 131.149 112.32 131.074 107.908C130.937 99.5578 131.724 95.2953 131.499 85.5453C131.349 79.3453 130.874 74.3203 130.512 71.1953Z" fill="#3D3D3D"/>
<path d="M79.3877 20.4127C79.5502 20.0377 77.9502 19.2627 78.1127 18.8252C78.2752 18.3752 80.2627 18.2627 81.6002 19.2502C83.0002 20.2752 82.9127 21.7752 83.7127 23.7002C84.6252 25.8627 86.0627 27.0377 88.2502 28.8377C89.5627 29.9252 94.6877 34.0002 102.075 33.7752C105.425 33.6752 108.225 32.7127 110.3 31.7002C110.013 35.2877 109.713 38.8877 109.425 42.4752C107.725 42.8627 105.388 43.2002 102.65 42.9627C92.7002 42.1002 86.3127 34.4252 84.3377 32.0627C83.1377 30.6252 81.5002 28.4127 80.0002 25.4002C78.8252 25.7502 77.0002 26.1502 74.8127 25.9252C73.2627 25.7752 71.4127 25.3002 71.4252 24.8627C71.4377 24.2877 74.6252 23.9002 74.6002 23.7002C74.5752 23.5252 72.0627 24.2127 71.4252 23.2752C70.9252 22.5377 71.6252 20.8752 72.8002 20.2002C73.1627 20.0002 73.5752 19.8752 74.6002 19.8877C77.3752 19.8877 79.2377 20.7502 79.3877 20.4127Z" fill="white" stroke="#161616" stroke-width="3" stroke-miterlimit="10"/>
<path d="M71.3881 22.5625C72.0256 22.4125 72.7631 22.725 73.4131 22.75C73.9881 22.775 74.5631 22.725 75.1256 22.6125C75.3631 22.5625 75.2631 22.2 75.0256 22.25C74.3131 22.3875 73.6006 22.425 72.8756 22.325C72.3256 22.25 71.8381 22.075 71.2881 22.2C71.0506 22.25 71.1506 22.6125 71.3881 22.5625Z" fill="#161616"/>
<path d="M71.9124 21.3228C72.6624 21.1728 73.3249 21.4853 74.0499 21.5228C74.6874 21.5603 75.3249 21.4353 75.9499 21.2728C76.1874 21.2103 76.0874 20.8478 75.8499 20.9103C75.0374 21.1228 74.2499 21.2228 73.4124 21.0478C72.8499 20.9353 72.3749 20.8353 71.7999 20.9478C71.5749 21.0103 71.6749 21.3728 71.9124 21.3228Z" fill="#161616"/>
<path d="M78.8264 21.703C79.4639 22.378 80.3264 22.728 81.2514 22.703C81.4889 22.6905 81.4889 22.3155 81.2514 22.328C80.4139 22.3655 79.6639 22.053 79.1014 21.4405C78.9264 21.2655 78.6639 21.528 78.8264 21.703Z" fill="#161616"/>
<path opacity="0.18" d="M71.4259 23.1717C71.4634 22.8342 74.1884 22.7467 76.6884 23.1092C78.0384 23.2967 79.3509 23.4842 80.5884 24.0717C83.2884 25.3342 84.1759 27.7467 85.5759 29.9592C85.5759 29.9592 88.7134 34.8717 94.3259 37.6217C99.9009 40.3467 106.263 38.5217 109.851 37.0717C109.713 38.8717 109.576 40.6717 109.438 42.4717C106.126 43.1467 103.476 42.9842 101.776 42.7467C92.3134 41.4092 86.3759 34.1342 84.0134 31.2467C82.1009 28.9092 80.8259 26.7592 80.0509 25.2967C78.8134 25.7467 76.9759 26.2092 74.7884 25.9842C73.2759 25.8217 71.4884 25.3217 71.5009 24.8842C71.5259 24.3217 74.5384 23.9842 74.5134 23.8592C74.5009 23.7967 73.6509 23.9842 72.6009 23.7217C72.1884 23.6217 71.4134 23.3592 71.4259 23.1717Z" fill="#3D3D3D"/>
<path opacity="0.24" d="M99.8125 40.6094C104.275 40.6719 107.725 38.9219 109.525 37.8094C109.463 39.4094 109.387 40.9969 109.325 42.5969C106.85 43.0094 102.513 43.3594 97.5625 41.7719C88.6 38.9094 84.2 31.7844 83.0625 29.7969C83.425 30.4469 89.3125 40.4719 99.8125 40.6094Z" fill="#3D3D3D"/>
<path opacity="0.19" d="M75.6761 25.2224C78.3511 25.2349 80.1511 24.8349 80.1886 25.0224C80.2136 25.1724 79.1011 25.6224 77.9261 25.8474C74.5136 26.4974 71.3886 25.0849 71.4261 24.8849C71.4636 24.7474 72.8636 25.2099 75.6761 25.2224Z" fill="#3D3D3D"/>
<path d="M78.5992 14.9719C80.546 14.9719 82.1242 13.3937 82.1242 11.4469C82.1242 9.50007 80.546 7.92188 78.5992 7.92188C76.6524 7.92188 75.0742 9.50007 75.0742 11.4469C75.0742 13.3937 76.6524 14.9719 78.5992 14.9719Z" fill="#999999"/>
<path d="M77.8867 15.1969C80.0959 15.1969 81.8867 13.4004 81.8867 11.1844C81.8867 8.96833 80.0959 7.17188 77.8867 7.17188C75.6776 7.17188 73.8867 8.96833 73.8867 11.1844C73.8867 13.4004 75.6776 15.1969 77.8867 15.1969Z" stroke="#161616" stroke-width="2" stroke-miterlimit="10"/>
<path d="M78.4372 8.9867C77.6497 8.9367 75.6247 9.6992 76.3747 10.8367C76.8122 11.4992 77.6622 11.0617 78.2747 11.2242C79.0622 11.4367 78.9747 12.3867 78.4872 12.8492C77.9747 13.3242 77.2497 13.2492 76.7622 12.8117C76.5872 12.6492 76.3122 12.9117 76.4997 13.0742C77.4872 13.9742 79.2497 13.4617 79.2497 11.9992C79.2497 11.3367 78.7997 10.9117 78.1747 10.8367C77.7122 10.7742 76.4122 11.1242 76.7122 10.1742C76.9122 9.5242 77.8747 9.3242 78.4497 9.3617C78.6872 9.3742 78.6872 8.9992 78.4372 8.9867Z" fill="#161616"/>
<path d="M78.011 9.16094C78.0485 8.74844 78.086 8.34844 78.1235 7.93594C78.1485 7.69844 77.7735 7.69844 77.7485 7.93594C77.711 8.34844 77.6735 8.74844 77.636 9.16094C77.611 9.39844 77.986 9.39844 78.011 9.16094Z" fill="#161616"/>
<path d="M77.761 13.6312C77.7985 13.9187 77.836 14.2188 77.861 14.5063C77.886 14.7437 78.261 14.7437 78.236 14.5063C78.1985 14.2188 78.161 13.9187 78.136 13.6312C78.111 13.3937 77.736 13.3937 77.761 13.6312Z" fill="#161616"/>
<path d="M114.076 30.8138C113.663 30.8388 112.276 30.9013 110.501 31.3388C109.488 31.5888 108.688 31.8763 108.226 32.0638C107.388 33.7638 106.313 36.3888 105.913 39.7138C105.338 44.4513 106.488 47.5013 107.276 52.2138C107.813 55.4513 108.251 60.1388 107.651 66.0638C108.926 67.2263 112.251 69.9388 117.301 70.6388C124.451 71.6388 129.701 67.8638 130.788 67.0513C131.451 62.9513 132.076 58.7388 132.638 54.4263C133.601 47.1263 134.326 40.0638 134.863 33.2763C131.401 30.0138 128.401 29.1388 126.288 28.9638C122.226 28.6138 118.551 30.5638 114.076 30.8138Z" fill="#999999"/>
<path opacity="0.17" d="M119.689 33.9626C120.464 34.7626 121.526 35.9751 122.476 37.6251C127.039 45.5501 124.214 54.8001 122.951 58.9001C122.076 61.7751 120.414 65.9876 117.139 70.5376C118.389 70.75 119.964 70.875 121.764 70.7001C126.039 70.2751 129.139 68.3376 130.689 67.1876C131.864 60.5126 132.864 53.4126 133.639 45.9126C134.089 41.5126 134.426 37.2251 134.676 33.0876C134.189 32.6126 133.439 31.9751 132.439 31.3376C130.826 30.3001 128.289 28.6876 125.426 29.1876C121.776 29.8126 119.926 33.4626 119.689 33.9626Z" fill="#3D3D3D"/>
<path opacity="0.11" d="M134.113 35.9531C133.476 37.7406 132.488 40.5906 131.488 44.1656C128.513 54.6531 128.726 59.1531 125.113 64.5656C124.013 66.2156 122.163 68.5531 119.051 70.8656C120.588 70.8531 122.813 70.6656 125.351 69.8281C127.651 69.0656 129.413 68.0406 130.613 67.2031C131.588 61.9781 132.451 56.3406 133.088 50.3031C133.601 45.2781 133.938 40.4781 134.113 35.9531Z" fill="#3D3D3D"/>
<path d="M128.314 60.0134C128.051 59.5259 128.326 58.8009 128.739 58.4134C129.501 57.6884 130.889 57.9634 131.514 58.7509C131.601 58.8634 132.026 59.3884 131.851 59.8384C131.476 60.7509 128.851 60.9884 128.314 60.0134Z" fill="white" stroke="#161616" stroke-width="3" stroke-miterlimit="10"/>
<path d="M131.838 31.1484C133.701 32.4359 136.001 34.3109 138.213 36.9359C140.626 39.7859 142.201 42.6609 143.251 45.0734C144.138 47.1359 144.676 48.9734 145.013 50.3609C143.901 52.9234 141.813 56.6984 137.963 60.0109C136.576 61.2109 135.201 62.1359 133.938 62.8609C133.276 63.5984 132.351 64.5359 131.126 65.4984C130.326 66.1359 129.238 66.9859 128.988 66.7734C128.788 66.5984 129.138 65.7359 129.676 65.1359C130.313 64.4359 131.101 64.2234 131.088 64.1859C131.076 64.1484 130.376 64.2734 129.726 64.7734C128.976 65.3609 129.013 65.9109 128.638 65.9984C127.851 66.1859 126.038 64.2859 126.313 62.3609C126.538 60.7484 128.126 59.8859 128.663 59.5859C130.138 58.7734 131.576 58.9234 132.101 58.9984C133.976 56.0859 135.851 53.1859 137.726 50.2734C137.213 49.8609 136.538 49.2734 135.801 48.5109C134.938 47.6234 132.513 45.0984 131.351 41.6359C129.788 36.9859 131.226 32.6984 131.838 31.1484Z" fill="white" stroke="#161616" stroke-width="3" stroke-miterlimit="10"/>
<path d="M126.613 63.947C127.076 62.922 127.863 62.122 128.888 61.672C129.113 61.572 128.913 61.247 128.701 61.347C127.626 61.822 126.763 62.6845 126.288 63.7595C126.188 63.972 126.513 64.1595 126.613 63.947Z" fill="#161616"/>
<path d="M127.989 65.6844C127.602 64.5094 128.739 63.2969 129.677 62.7594C129.889 62.6344 129.702 62.3094 129.489 62.4344C128.402 63.0594 127.177 64.4344 127.627 65.7844C127.702 66.0094 128.064 65.9094 127.989 65.6844Z" fill="#161616"/>
<path opacity="0.18" d="M131.263 33.2125C132.763 34.7625 134.875 37.075 137.138 40.1125C140.313 44.35 141.888 46.475 142 48.7125C142.2 52.8625 139.088 58.05 134.988 60.025C133.8 60.6 130.713 61.7625 128.938 64.0375C128.425 64.6875 127.9 65.5875 128.088 65.7875C128.25 65.95 128.85 65.525 129.05 65.725C129.288 65.9625 128.713 66.6875 128.875 66.85C129.075 67.05 130.188 66.3375 131.313 65.4375C132.038 64.85 132.925 64.05 133.863 63C135.05 62.325 136.313 61.475 137.6 60.4C141.688 56.9875 143.888 53 145.063 50.275C144.775 49.175 144.338 47.6875 143.65 45.975C141.575 40.8125 138.8 37.475 137.888 36.425C136.575 34.9 134.6 32.9125 131.838 31C131.638 31.7375 131.45 32.475 131.263 33.2125Z" fill="#3D3D3D"/>
<path opacity="0.21" d="M143.251 52.1025C142.051 53.6525 141.439 54.64 140.939 55.3775C139.989 56.7525 138.576 58.065 135.739 60.69C134.726 61.6275 133.351 62.8775 131.664 64.315C129.889 65.8525 129.026 66.64 129.064 66.69C129.114 66.7525 130.826 65.4525 134.214 62.79C134.851 62.415 135.751 61.865 136.764 61.09C142.589 56.6275 145.201 50.215 144.964 50.065C144.864 50.015 144.326 50.7025 143.251 52.1025Z" fill="#3D3D3D"/>
<path d="M111.464 10.3073C107.789 13.3198 107.939 19.4323 109.376 23.3823C110.289 25.8823 111.751 27.5948 112.714 28.5448C112.514 29.9948 112.314 31.4448 112.114 32.8948C113.176 33.3823 114.701 33.8948 116.564 33.9823C121.439 34.2198 124.926 31.3698 125.876 30.5448C125.014 27.6573 124.151 24.7698 123.289 21.8698C123.176 21.0573 122.989 19.8073 122.789 18.2823C122.251 14.3073 122.276 14.0948 122.039 13.4448C121.939 13.1823 120.439 9.36982 116.951 8.69482C114.139 8.16982 111.814 10.0198 111.464 10.3073Z" fill="white" stroke="#161616" stroke-width="3" stroke-miterlimit="10"/>
<path d="M108.438 20.4859C108.225 21.3234 108 22.6359 108.15 24.2109C108.25 25.2609 108.425 27.0859 109.738 28.8484C111.15 30.7484 113.05 31.4734 113.863 31.7359C113.8 31.5234 113.725 31.2609 113.688 30.9484C113.65 30.6234 113.663 30.3234 113.688 30.0984C114.55 30.5734 115.425 31.0359 116.288 31.5109C118.475 29.4984 119.2 27.6484 119.45 26.3109C119.65 25.2609 119.775 23.3359 120.238 19.8109C120.325 19.1859 120.488 18.0609 121.2 17.7734C121.538 17.6359 121.988 17.6984 122.275 17.9484C123.138 18.6734 122.263 20.7734 122.45 20.8359C122.638 20.8984 124.15 18.7859 123.638 16.3734C123.375 15.1234 122.65 14.2609 122.225 13.8359C121.275 15.3359 120.225 16.8859 119.063 18.4734C118.325 19.4859 117.588 20.4359 116.863 21.3609C116.588 21.5109 116.175 21.6734 115.7 21.6359C115.325 21.5984 115.2 21.4734 114.925 21.3984C113.9 21.1109 113.35 22.3234 112.338 22.1609C111.513 22.0234 111.438 21.1359 110.525 21.1109C110.088 21.0984 109.913 21.2984 109.463 21.2109C108.988 21.0734 108.65 20.7484 108.438 20.4859Z" fill="#161616" stroke="#161616" stroke-width="3" stroke-miterlimit="10"/>
<path d="M112.689 16.9327C112.376 18.3827 112.176 19.8452 112.089 21.3202C112.076 21.4702 112.251 21.5452 112.376 21.4827C112.889 21.2202 113.414 20.9452 113.926 20.6827C114.139 20.5702 113.951 20.2452 113.739 20.3577C113.226 20.6202 112.701 20.8952 112.189 21.1577C112.289 21.2077 112.376 21.2702 112.476 21.3202C112.564 19.8702 112.751 18.4452 113.064 17.0327C113.101 16.7952 112.739 16.6952 112.689 16.9327Z" fill="#161616"/>
<path d="M110.688 18.4344C110.847 18.4344 110.975 18.1098 110.975 17.7094C110.975 17.309 110.847 16.9844 110.688 16.9844C110.529 16.9844 110.4 17.309 110.4 17.7094C110.4 18.1098 110.529 18.4344 110.688 18.4344Z" fill="#161616" stroke="#161616" stroke-width="3" stroke-miterlimit="10"/>
<path d="M115.538 18.4344C115.752 18.4344 115.925 18.1098 115.925 17.7094C115.925 17.309 115.752 16.9844 115.538 16.9844C115.324 16.9844 115.15 17.309 115.15 17.7094C115.15 18.1098 115.324 18.4344 115.538 18.4344Z" fill="#161616" stroke="#161616" stroke-width="3" stroke-miterlimit="10"/>
<path d="M109.987 16.296C110.225 15.8585 110.749 15.9585 111.137 16.096C111.362 16.171 111.462 15.8085 111.237 15.7335C110.687 15.5335 109.987 15.521 109.662 16.1085C109.549 16.3085 109.875 16.5085 109.987 16.296Z" fill="#161616"/>
<path d="M114.713 15.7822C115.3 15.2197 116.2 15.2697 116.7 15.9447C116.838 16.1322 117.163 15.9447 117.025 15.7572C116.388 14.8947 115.238 14.7822 114.45 15.5197C114.275 15.6822 114.538 15.9447 114.713 15.7822Z" fill="#161616"/>
<path d="M105.538 13.9931C110.8 14.3056 116.05 14.7431 121.275 15.3181C121.988 15.3931 121.988 14.2681 121.275 14.1931C116.038 13.6181 110.788 13.1806 105.538 12.8681C104.813 12.8306 104.813 13.9556 105.538 13.9931Z" fill="#161616"/>
<path d="M108.938 13.222C109.025 12.4095 109.35 10.322 110.95 8.622C113.037 6.4095 116.9 5.4845 119.9 7.3595C122.25 8.8345 123.513 11.6845 123.088 14.5845C118.375 14.1345 113.662 13.6845 108.938 13.222Z" fill="#4C4C4C"/>
<path opacity="0.69" d="M115.587 6.78231C114.974 7.29481 114.974 8.38232 115.187 9.53232C115.424 10.7948 116.037 12.3323 116.949 13.9198C118.999 14.1573 121.049 14.4073 123.099 14.6448C123.187 14.1948 123.274 13.5448 123.199 12.7698C123.199 12.7698 123.062 11.3448 122.312 10.0573C120.812 7.48231 116.887 5.68231 115.587 6.78231Z" fill="#3A3A3A"/>
<path opacity="0.24" d="M122.013 21.4609C121.551 21.7109 121.088 21.6484 120.926 21.6109C121.326 22.3734 122.563 24.9484 121.963 28.2734C121.388 31.4359 119.513 33.3484 118.863 33.9609C119.676 33.7984 120.601 33.5359 121.601 33.1359C123.501 32.3609 124.926 31.3359 125.888 30.4984C124.888 26.9859 123.888 23.4734 122.888 19.9609C122.888 20.0234 122.838 21.0234 122.013 21.4609Z" fill="#3D3D3D"/>
<path opacity="0.19" d="M117.388 14.9062C117.538 15.5437 117.663 16.5063 117.513 17.6313C117.251 19.5313 116.338 20.8437 115.863 21.4562C116.151 21.3687 116.438 21.2687 116.726 21.1812C117.301 20.4812 117.888 19.7312 118.463 18.9688C119.413 17.7062 120.288 16.4562 121.088 15.2562C119.851 15.1437 118.626 15.0187 117.388 14.9062Z" fill="#3D3D3D"/>
</svg>
