<svg width="320" height="242" viewBox="0 0 320 242" fill="none" xmlns="http://www.w3.org/2000/svg">
<path d="M74.5799 202.57C93.8399 202.57 113.12 202.57 132.38 202.57C137.82 202.57 143.28 202.57 148.72 202.57C149.1 202.57 149.1 201.966 148.72 201.966C129.46 201.966 110.18 201.966 90.9199 201.966C85.4799 201.966 80.0199 201.966 74.5799 201.966C74.1999 201.966 74.1999 202.57 74.5799 202.57Z" fill="#E8E8E8"/>
<path d="M152.599 202.57C172.279 202.57 191.939 202.57 211.619 202.57C217.199 202.57 222.779 202.57 228.359 202.57C228.739 202.57 228.739 201.966 228.359 201.966C208.679 201.966 189.019 201.966 169.339 201.966C163.759 201.966 158.179 201.966 152.599 201.966C152.219 201.966 152.219 202.57 152.599 202.57Z" fill="#E8E8E8"/>
<path d="M166.86 208.11C182.3 208.11 197.72 208.11 213.16 208.11C213.54 208.11 213.54 207.506 213.16 207.506C197.72 207.506 182.3 207.506 166.86 207.506C166.46 207.506 166.46 208.11 166.86 208.11Z" fill="#E8E8E8"/>
<path d="M119.26 209.42C128.22 209.42 137.18 209.42 146.14 209.42C146.52 209.42 146.52 208.815 146.14 208.815C137.18 208.815 128.22 208.815 119.26 208.815C118.88 208.815 118.88 209.42 119.26 209.42Z" fill="#E8E8E8"/>
<path d="M238.72 202.247C245.84 202.247 252.96 202.247 260.08 202.247C260.46 202.247 260.46 201.643 260.08 201.643C252.96 201.643 245.84 201.643 238.72 201.643C238.34 201.643 238.34 202.247 238.72 202.247Z" fill="#E8E8E8"/>
<path d="M82.9994 164.147C85.5594 168.64 86.0994 174.06 84.4994 178.976C84.4394 179.137 84.5594 179.299 84.6994 179.339C85.2994 179.54 85.9194 179.802 86.3394 180.266C86.8794 180.87 86.9994 182.079 86.0794 182.442C85.8994 182.522 85.7394 182.784 85.9394 182.945C87.4994 184.174 87.6794 186.23 87.7994 188.083C87.9194 189.917 88.0994 191.73 88.5394 193.503C89.3994 196.928 91.0794 200.112 93.8994 202.267C94.1994 202.509 94.4994 201.985 94.1994 201.744C91.0794 199.366 89.4794 195.639 88.7994 191.851C88.2594 188.909 88.9794 184.598 86.3394 182.522C86.2994 182.683 86.2594 182.865 86.1994 183.026C87.0394 182.683 87.4594 181.817 87.2794 180.91C87.0394 179.722 85.8594 179.097 84.7994 178.755C84.8594 178.875 84.9394 178.996 84.9994 179.117C86.6594 174.04 86.0794 168.439 83.4394 163.825C83.3194 163.502 82.7994 163.805 82.9994 164.147Z" fill="#E8E8E8"/>
<path d="M83.1798 163.664C87.2598 166.182 90.5198 169.728 93.1998 173.678C94.4998 175.571 95.6798 177.566 96.7798 179.581C97.6998 181.273 99.7998 184.296 98.0598 186.089C97.8998 186.25 97.9798 186.532 98.1998 186.592C99.5598 186.955 100.12 188.507 100.62 189.695C101.14 190.944 101.56 192.234 101.88 193.544C102.56 196.264 102.84 199.064 102.72 201.865C102.7 202.248 103.3 202.248 103.32 201.865C103.44 198.641 103.08 195.417 102.16 192.315C101.74 190.904 101.24 189.514 100.6 188.204C100.12 187.217 99.4598 186.31 98.3598 186.008C98.3998 186.169 98.4398 186.351 98.4998 186.512C99.9798 185.001 99.1598 182.784 98.3198 181.152C97.0998 178.755 95.7598 176.418 94.2798 174.181C91.4198 169.829 87.9398 165.88 83.4798 163.14C83.1598 162.939 82.8598 163.462 83.1798 163.664Z" fill="#E8E8E8"/>
<path d="M83.46 163.845C92.58 174.503 98.38 187.861 99.94 201.844C99.98 202.227 100.58 202.227 100.54 201.844C99.3 190.823 95.48 180.124 89.44 170.856C87.74 168.257 85.88 165.779 83.86 163.422C83.62 163.119 83.2 163.563 83.46 163.845Z" fill="#E8E8E8"/>
<path d="M85.1798 178.15C90.1998 180.346 94.4198 184.033 97.2798 188.728C97.4798 189.05 97.9998 188.748 97.7998 188.426C94.8998 183.65 90.5998 179.863 85.4798 177.626C85.1398 177.485 84.8398 177.989 85.1798 178.15Z" fill="#E8E8E8"/>
<path d="M93.08 173.214C93.24 175.35 93.48 177.445 93.86 179.561C93.92 179.943 94.5 179.782 94.44 179.399C94.08 177.344 93.84 175.289 93.68 173.214C93.64 172.831 93.04 172.831 93.08 173.214Z" fill="#E8E8E8"/>
<path d="M87.88 189.232C92.5 191.327 96.54 194.571 99.58 198.661C99.8 198.964 100.32 198.661 100.1 198.359C97 194.189 92.92 190.864 88.18 188.708C87.84 188.567 87.54 189.071 87.88 189.232Z" fill="#E8E8E8"/>
<path d="M95.8596 176.639C95.7996 171.682 96.5796 166.766 98.1396 162.072C97.9996 162.132 97.8396 162.193 97.6996 162.253C98.0596 162.434 98.3996 162.616 98.7596 162.777C98.9596 162.878 99.1996 162.757 99.2196 162.515C99.2996 159.452 100.18 156.531 101.82 153.952C101.64 153.932 101.46 153.912 101.28 153.871C102.64 157.78 104 161.669 105.36 165.577C106.02 167.471 106.68 169.345 107.34 171.239C107.84 172.67 109.9 176.76 107.28 177.203C107.04 177.243 107 177.566 107.14 177.707C108.52 179.198 109.04 181.192 109.3 183.167C109.56 185.202 109.6 187.257 109.52 189.292C109.34 193.563 108.46 197.754 106.94 201.743C106.8 202.106 107.38 202.267 107.52 201.905C109.14 197.653 110.04 193.12 110.14 188.567C110.22 184.879 110.24 180.165 107.56 177.304C107.52 177.465 107.48 177.646 107.42 177.807C108.96 177.546 109.34 175.893 109.06 174.543C108.56 172.226 107.5 169.929 106.72 167.693C105.1 163.039 103.46 158.385 101.84 153.71C101.76 153.468 101.44 153.408 101.3 153.63C99.5996 156.289 98.6796 159.332 98.6196 162.495C98.7796 162.414 98.9196 162.314 99.0796 162.233C98.7196 162.052 98.3796 161.87 98.0196 161.709C97.8396 161.608 97.6396 161.689 97.5796 161.89C95.9996 166.645 95.2196 171.602 95.2796 176.619C95.2596 177.022 95.8596 177.022 95.8596 176.639Z" fill="#E8E8E8"/>
<path d="M100.7 154.496C103.84 170.192 101.7 186.33 104.28 202.086C104.34 202.469 104.92 202.308 104.86 201.925C102.3 186.169 104.44 170.01 101.28 154.335C101.2 153.952 100.62 154.113 100.7 154.496Z" fill="#E8E8E8"/>
<path d="M96.1794 167.331C97.3594 173.093 99.9794 178.372 102.579 183.611C102.759 183.953 103.279 183.651 103.099 183.308C100.519 178.13 97.9394 172.892 96.7594 167.19C96.6794 166.787 96.0994 166.948 96.1794 167.331Z" fill="#E8E8E8"/>
<path d="M106.22 167.411C104.76 170.192 103.58 173.113 102.66 176.115C102.54 176.478 103.12 176.639 103.24 176.277C104.14 173.315 105.32 170.454 106.74 167.714C106.92 167.371 106.4 167.069 106.22 167.411Z" fill="#E8E8E8"/>
<path d="M194.74 201.743C195.32 196.686 195.9 191.629 196.48 186.572C196.38 186.673 196.28 186.773 196.18 186.874C196.78 186.834 197.24 186.955 197.74 187.338C197.94 187.499 198.24 187.398 198.26 187.116C198.32 186.008 198.36 184.92 198.42 183.812C198.3 183.912 198.16 184.013 198.04 184.094C199.5 184.356 200.28 182.986 200.82 181.857C201.64 180.125 202.68 178.613 203.88 177.143C206.06 174.483 208.54 171.884 209.36 168.418C209.16 168.418 208.98 168.418 208.78 168.418C209.9 171.985 211.06 175.611 211.24 179.379C211.38 182.28 211.06 186.491 207.9 187.741C207.72 187.821 207.62 188.002 207.72 188.184C209.46 191.448 204.92 193.664 202.94 195.276C200.72 197.089 198.9 199.346 197.54 201.864C197.36 202.207 197.88 202.509 198.06 202.167C199.8 198.963 202.22 196.445 205.18 194.369C207.22 192.939 209.68 190.602 208.24 187.882C208.18 188.023 208.12 188.184 208.06 188.325C210.98 187.156 211.78 183.751 211.86 180.89C211.96 176.558 210.64 172.347 209.36 168.257C209.28 167.975 208.86 167.955 208.78 168.257C208.04 171.421 205.84 173.838 203.82 176.256C202.88 177.384 201.96 178.533 201.2 179.782C200.58 180.83 199.76 183.791 198.18 183.509C197.98 183.469 197.82 183.59 197.8 183.791C197.74 184.9 197.7 185.988 197.64 187.096C197.82 187.015 197.98 186.955 198.16 186.874C197.56 186.391 196.94 186.189 196.16 186.229C195.98 186.25 195.88 186.35 195.86 186.532C195.28 191.589 194.7 196.646 194.12 201.703C194.1 202.126 194.7 202.126 194.74 201.743Z" fill="#E8E8E8"/>
<path d="M208.76 169.225C208.42 174.947 207.359 180.769 204.319 185.706C202.839 188.124 200.879 190.239 199.299 192.596C197.779 194.853 196.639 197.331 195.839 199.93C195.719 200.293 196.299 200.454 196.419 200.092C197.299 197.251 198.599 194.591 200.319 192.173C201.999 189.816 203.939 187.66 205.359 185.121C208.04 180.286 209.019 174.705 209.339 169.225C209.379 168.842 208.78 168.842 208.76 169.225Z" fill="#E8E8E8"/>
<path d="M202.139 178.876C202.179 181.697 202.599 184.477 203.419 187.177C203.539 187.539 204.119 187.398 203.999 187.016C203.199 184.376 202.779 181.656 202.739 178.876C202.719 178.493 202.119 178.473 202.139 178.876Z" fill="#E8E8E8"/>
<path d="M207.24 180.85C208.82 180.105 210.22 179.077 211.42 177.808C211.68 177.526 211.26 177.103 211 177.385C209.82 178.614 208.48 179.601 206.94 180.327C206.58 180.488 206.9 181.012 207.24 180.85Z" fill="#E8E8E8"/>
<path d="M205.06 201.905C204.88 199.689 204.64 197.473 204.36 195.276C204.32 194.894 203.7 194.894 203.76 195.276C204.04 197.473 204.28 199.689 204.46 201.905C204.48 202.288 205.08 202.288 205.06 201.905Z" fill="#E8E8E8"/>
<path d="M211.98 177.083C214.16 172.932 216.02 168.6 217.54 164.147C217.34 164.147 217.16 164.147 216.96 164.147C218.1 168.842 219.22 173.536 220.36 178.231C220.42 178.11 220.5 177.989 220.56 177.868C219.76 178.11 218.96 178.352 218.16 178.594C218.02 178.634 217.94 178.755 217.94 178.876C217.9 179.359 218.16 179.641 218.52 179.923C219.36 180.629 219.58 181.193 219.52 182.301C219.46 183.308 219.36 184.296 219.28 185.283C219.22 186.048 219.26 188.023 218.08 187.963C217.9 187.963 217.72 188.164 217.8 188.345C218.7 190.864 217.7 193.463 216.52 195.699C215.36 197.896 213.94 199.931 212.3 201.804C212.04 202.086 212.46 202.53 212.72 202.227C214.54 200.152 216.12 197.855 217.36 195.377C218.46 193.161 219.26 190.622 218.4 188.184C218.3 188.305 218.2 188.446 218.12 188.567C220 188.668 219.88 185.746 219.98 184.537C220.06 183.429 220.3 182.22 220.12 181.112C220.06 180.75 219.94 180.407 219.72 180.125C219.42 179.742 218.56 179.4 218.6 178.876C218.52 178.976 218.46 179.077 218.38 179.158C219.18 178.916 219.98 178.674 220.78 178.432C220.94 178.392 221.02 178.231 220.98 178.07C219.84 173.375 218.72 168.681 217.58 163.986C217.5 163.684 217.1 163.724 217 163.986C215.5 168.399 213.68 172.65 211.5 176.78C211.28 177.123 211.8 177.425 211.98 177.083Z" fill="#E8E8E8"/>
<path d="M216.76 165.457C218.64 177.526 210.24 187.902 208.08 199.306C208 199.689 208.58 199.85 208.66 199.467C210.84 187.922 219.24 177.526 217.34 165.296C217.28 164.913 216.7 165.074 216.76 165.457Z" fill="#E8E8E8"/>
<path d="M212.679 174.141C213.139 176.538 213.579 178.936 214.039 181.354C214.119 181.737 214.699 181.575 214.619 181.193C214.159 178.795 213.719 176.397 213.259 173.98C213.179 173.597 212.619 173.758 212.679 174.141Z" fill="#E8E8E8"/>
<path d="M216.319 177.223C217.239 175.873 218.279 174.624 219.419 173.456C219.699 173.174 219.259 172.75 218.999 173.032C217.819 174.221 216.759 175.531 215.799 176.921C215.579 177.243 216.099 177.546 216.319 177.223Z" fill="#E8E8E8"/>
<path d="M54.8996 145.47C69.6196 142.206 85.0596 142.589 99.5996 146.618C107.02 148.674 114.02 151.877 121.18 154.698C128.24 157.478 135.46 159.795 142.82 161.649C151.04 163.724 159.4 165.215 167.84 166.122C168.22 166.162 168.22 165.558 167.84 165.517C152.56 163.865 137.48 160.259 123.1 154.778C115.84 152.018 108.8 148.694 101.36 146.477C94.2996 144.382 86.9796 143.153 79.6196 142.79C71.2796 142.367 62.8996 143.092 54.7596 144.886C54.3796 144.966 54.5396 145.551 54.8996 145.47Z" fill="#E8E8E8"/>
<path d="M134.9 154.436C150.66 158.345 167.04 156.713 182.78 153.529C199 150.245 214.86 145.228 231.22 142.649C240.5 141.178 249.94 140.554 259.32 141.501C259.7 141.541 259.7 140.937 259.32 140.896C242.92 139.244 226.6 142.448 210.72 146.276C194.72 150.144 178.8 154.698 162.32 155.887C153.18 156.531 143.98 156.088 135.06 153.872C134.68 153.751 134.52 154.335 134.9 154.436Z" fill="#E8E8E8"/>
<path d="M87.2792 128.445C96.7592 126.531 106.159 129.634 115.259 131.971C124.479 134.349 133.859 135.437 143.359 134.49C152.799 133.543 161.919 130.843 171.159 128.788C180.699 126.652 190.399 125.181 200.139 124.416C210.939 123.549 221.799 123.549 232.619 124.375C232.999 124.395 232.999 123.791 232.619 123.771C213.419 122.32 194.039 123.509 175.159 127.337C165.659 129.271 156.339 132.132 146.719 133.502C136.899 134.893 127.039 134.288 117.419 131.931C107.519 129.493 97.3992 125.806 87.0992 127.881C86.7392 127.921 86.8992 128.506 87.2792 128.445Z" fill="#E8E8E8"/>
<path d="M186.98 116.034C197.66 117.142 208.22 114.764 218.56 112.367C223.84 111.138 229.14 109.909 234.5 109.103C240.04 108.277 245.66 107.974 251.26 108.236C257.58 108.538 263.84 109.526 269.96 111.198C270.34 111.299 270.5 110.714 270.12 110.614C259.42 107.692 248.2 106.826 237.2 108.136C226.46 109.405 216.1 112.689 205.46 114.502C199.36 115.55 193.18 116.054 187 115.409C186.6 115.389 186.6 115.993 186.98 116.034Z" fill="#E8E8E8"/>
<path d="M58.0399 116.779C66.0999 118.19 74.0399 115.349 82.0599 114.906C90.5199 114.422 98.9399 115.812 107.24 117.203C107.62 117.263 107.78 116.679 107.4 116.618C99.2799 115.268 91.0799 113.918 82.8199 114.261C74.6199 114.603 66.4199 117.646 58.1799 116.195C57.8199 116.135 57.6599 116.719 58.0399 116.779Z" fill="#E8E8E8"/>
<path d="M95.3993 230.898C104.959 230.898 114.519 230.898 124.099 230.898C124.479 230.898 124.479 230.294 124.099 230.294C114.539 230.294 104.979 230.294 95.3993 230.294C95.0193 230.294 95.0193 230.898 95.3993 230.898Z" fill="#161616"/>
<path d="M117.66 234.727C126.54 234.727 135.42 234.727 144.3 234.727C144.68 234.727 144.68 234.122 144.3 234.122C135.42 234.122 126.54 234.122 117.66 234.122C117.28 234.122 117.28 234.727 117.66 234.727Z" fill="#161616"/>
<path d="M72.2797 230.012C67.2997 230.012 62.3197 230.012 57.3397 230.012C56.9597 230.012 56.9597 230.616 57.3397 230.616C62.3197 230.616 67.2997 230.616 72.2797 230.616C72.6597 230.616 72.6597 230.012 72.2797 230.012Z" fill="#161616"/>
<path d="M138.16 219.696C153.78 219.696 169.4 219.696 185 219.696C185.38 219.696 185.38 219.092 185 219.092C169.38 219.092 153.76 219.092 138.16 219.092C137.78 219.092 137.76 219.696 138.16 219.696Z" fill="#161616"/>
<path d="M213.119 215.264C218.979 215.264 224.839 215.264 230.679 215.264C231.059 215.264 231.059 214.659 230.679 214.659C224.819 214.659 218.959 214.659 213.119 214.659C212.719 214.659 212.719 215.264 213.119 215.264Z" fill="#161616"/>
<path d="M243.559 217.339C252.539 217.339 261.519 217.339 270.499 217.339C270.879 217.339 270.879 216.734 270.499 216.734C261.519 216.734 252.539 216.734 243.559 216.734C243.179 216.734 243.179 217.339 243.559 217.339Z" fill="#161616"/>
<path d="M67.66 211.999C67.58 213.148 67.52 214.276 67.44 215.425C66.82 215.606 66.18 215.807 65.56 215.989C65.66 216.795 65.78 217.601 65.88 218.406C65.12 218.406 64.36 218.406 63.58 218.406C63.72 219.575 63.88 220.744 64.02 221.912C65.32 221.932 66.64 221.953 67.94 221.993C68.08 222.94 68.24 223.887 68.38 224.834C67.46 224.834 66.5 224.814 65.5 224.753C64.32 224.693 63.22 224.592 62.18 224.451C62.14 225.7 62.08 226.929 62.04 228.178C65.32 228.138 68.6 228.078 71.88 228.037C71.98 228.904 72.08 229.77 72.18 230.636C78.28 231.321 85.26 231.563 92.9 230.858C95 230.657 97.02 230.415 98.96 230.113C98.96 229.125 98.96 228.118 98.96 227.131C98.26 227.413 97.42 227.675 96.44 227.876C94.8 228.198 93.38 228.198 92.3 228.098C92.42 227.312 92.54 226.506 92.66 225.72C92.82 225.196 92.98 224.552 93.02 223.786C93.06 223.282 93.04 222.839 93.02 222.436C91.12 222.456 89.22 222.476 87.32 222.517C87.28 221.207 87.22 219.877 87.18 218.568C88.94 218.427 90.68 218.265 92.44 218.124C92.48 217.419 92.54 216.734 92.58 216.029C91.7 215.908 90.8 215.787 89.92 215.666C89.88 214.316 89.82 212.987 89.78 211.637C82.42 211.758 75.04 211.878 67.66 211.999Z" fill="#474747"/>
<path d="M228.12 186.552C228.1 187.378 228.08 188.204 228.06 189.01C229.88 189.131 231.7 189.252 233.52 189.353C233.52 190.118 233.52 190.904 233.52 191.67C232.84 191.831 232.16 191.992 231.5 192.153C231.46 193.04 231.4 193.946 231.36 194.833C229.24 194.853 227.12 194.873 225 194.893C224.94 195.78 224.86 196.687 224.8 197.573C227.3 197.613 229.8 197.674 232.28 197.714C232.28 198.802 232.28 199.87 232.28 200.958C229.74 201.018 227.2 201.099 224.66 201.16C224.62 202.187 224.56 203.235 224.52 204.262C225.34 204.323 226.16 204.403 226.96 204.464C226.98 205.37 227 206.297 227.02 207.204C225.92 207.305 224.82 207.385 223.74 207.486C223.78 208.675 223.84 209.884 223.88 211.072C225.2 211.052 226.54 211.032 227.86 211.012C227.86 212.281 227.86 213.551 227.86 214.82C230.84 214.981 233.94 215.082 237.16 215.102C242.2 215.122 246.98 214.941 251.44 214.618C251.66 213.651 251.86 212.584 252 211.455C252.18 210.025 252.26 208.695 252.28 207.506C252.84 207.405 253.4 207.325 253.96 207.224C253.98 206.358 254 205.491 254.02 204.625C252.62 204.605 251.22 204.585 249.82 204.565C249.88 203.416 249.96 202.268 250.02 201.119C252.14 201.059 254.26 200.978 256.38 200.918C256.4 199.91 256.42 198.903 256.44 197.896C254.66 197.896 252.9 197.896 251.12 197.896C251.18 197.069 251.26 196.243 251.32 195.437C253.26 195.317 255.2 195.196 257.12 195.095C257.14 194.088 257.16 193.08 257.18 192.073C258.04 192.073 258.9 192.073 259.76 192.073C259.72 191.166 259.66 190.239 259.62 189.333C257.5 189.373 255.38 189.433 253.26 189.474C253.32 188.365 253.4 187.257 253.46 186.169C250.88 185.565 247.88 185.081 244.5 184.9C237.9 184.497 232.24 185.464 228.12 186.552Z" fill="#666666"/>
<path d="M71.8198 228.057C71.8398 228.903 71.8798 229.769 71.8998 230.616C71.8998 230.797 72.0398 230.898 72.1998 230.918C81.0198 231.522 89.8598 231.462 98.6598 230.716C98.7798 230.696 98.9198 230.636 98.9398 230.495C99.1998 229.387 99.2598 228.319 99.1398 227.19C99.0998 226.808 98.4998 226.808 98.5398 227.19C98.6598 228.258 98.5998 229.286 98.3598 230.334C98.4598 230.253 98.5598 230.193 98.6398 230.112C89.8398 230.837 80.9798 230.918 72.1798 230.313C72.2798 230.414 72.3798 230.515 72.4798 230.616C72.4598 229.769 72.4198 228.903 72.3998 228.057C72.3998 227.674 71.7998 227.674 71.8198 228.057Z" fill="#161616"/>
<path d="M61.8398 224.371C61.8398 225.559 61.8398 226.748 61.8398 227.937C61.8398 228.32 62.4398 228.32 62.4398 227.937C62.4398 226.748 62.4398 225.559 62.4398 224.371C62.4398 223.968 61.8398 223.968 61.8398 224.371Z" fill="#161616"/>
<path d="M62.4998 228.48C72.3998 228.48 82.2998 228.48 92.1998 228.48C92.5798 228.48 92.5798 227.876 92.1998 227.876C82.2998 227.876 72.3998 227.876 62.4998 227.876C62.1198 227.876 62.1198 228.48 62.4998 228.48Z" fill="#161616"/>
<path d="M73.8798 228.541C73.9598 229.206 73.9798 229.851 73.9398 230.516C73.9198 230.898 74.5198 230.898 74.5398 230.516C74.5798 229.851 74.5798 229.206 74.4798 228.541C74.4398 228.158 73.8398 228.158 73.8798 228.541Z" fill="#161616"/>
<path d="M75.78 228.621C75.9 229.125 75.92 229.629 75.9 230.133C75.88 230.515 76.48 230.515 76.5 230.133C76.54 229.568 76.5 229.004 76.36 228.46C76.28 228.098 75.7 228.259 75.78 228.621Z" fill="#161616"/>
<path d="M92.6003 228.138C92.8003 227.352 92.9003 226.546 92.8803 225.72C92.8803 225.337 92.2803 225.337 92.2803 225.72C92.3003 226.485 92.2203 227.231 92.0203 227.976C91.9203 228.339 92.5003 228.5 92.6003 228.138Z" fill="#161616"/>
<path d="M62.5395 224.753C72.4195 226.143 82.3995 226.405 92.3395 225.539C92.7195 225.498 92.7195 224.894 92.3395 224.934C82.4595 225.8 72.5195 225.559 62.6995 224.168C62.3195 224.108 62.1595 224.692 62.5395 224.753Z" fill="#161616"/>
<path d="M92.8202 228.279C94.8002 228.461 96.7602 228.219 98.6602 227.614C99.0202 227.493 98.8602 226.909 98.5002 227.03C96.6402 227.634 94.7602 227.856 92.8202 227.675C92.4402 227.655 92.4402 228.259 92.8202 228.279Z" fill="#161616"/>
<path d="M89.0996 228.541C89.0996 229.246 89.0996 229.931 89.0996 230.636C89.0996 231.019 89.6996 231.019 89.6996 230.636C89.6996 229.931 89.6996 229.246 89.6996 228.541C89.6996 228.158 89.0996 228.158 89.0996 228.541Z" fill="#161616"/>
<path d="M93.6202 228.138C93.7402 228.883 93.8402 229.629 93.9602 230.354C94.0202 230.737 94.6002 230.576 94.5402 230.193C94.4202 229.448 94.3202 228.702 94.2002 227.977C94.1402 227.594 93.5802 227.755 93.6202 228.138Z" fill="#161616"/>
<path d="M96.3796 228.017C96.4396 228.42 96.3996 228.823 96.2996 229.206C96.1996 229.588 96.7796 229.75 96.8796 229.367C97.0196 228.863 97.0396 228.359 96.9596 227.856C96.8996 227.473 96.3196 227.634 96.3796 228.017Z" fill="#161616"/>
<path d="M64.7397 224.854C64.7797 225.921 64.8197 226.989 64.8597 228.057C64.8797 228.44 65.4797 228.44 65.4597 228.057C65.4197 226.989 65.3797 225.921 65.3397 224.854C65.3197 224.471 64.7197 224.471 64.7397 224.854Z" fill="#161616"/>
<path d="M68.7197 225.217C68.7997 226.043 68.8797 226.869 68.9597 227.675C68.9997 228.058 69.5997 228.058 69.5597 227.675C69.4797 226.849 69.3997 226.023 69.3197 225.217C69.2797 224.834 68.6797 224.834 68.7197 225.217Z" fill="#161616"/>
<path d="M71.0202 225.72C70.9602 226.203 71.0002 226.687 71.1402 227.15C71.2402 227.533 71.8202 227.372 71.7202 226.989C71.6002 226.566 71.5802 226.143 71.6202 225.72C71.6602 225.337 71.0602 225.337 71.0202 225.72Z" fill="#161616"/>
<path d="M67.8203 222.154C67.8403 223.101 67.9203 224.028 68.0803 224.934C68.1403 225.317 68.7203 225.156 68.6603 224.773C68.5003 223.907 68.4203 223.02 68.4203 222.154C68.4203 221.751 67.8203 221.751 67.8203 222.154Z" fill="#161616"/>
<path d="M68.5003 222.194C76.6603 222.355 84.8203 222.537 92.9803 222.698C92.8803 222.617 92.7803 222.557 92.7003 222.476C92.8403 223.323 92.8403 224.149 92.7403 225.015C92.7003 225.398 93.3003 225.398 93.3403 225.015C93.4403 224.108 93.4203 223.222 93.2803 222.315C93.2603 222.174 93.1203 222.094 93.0003 222.094C84.8403 221.932 76.6803 221.751 68.5203 221.59C68.1203 221.59 68.1203 222.194 68.5003 222.194Z" fill="#161616"/>
<path d="M63.1801 218.648C63.3801 219.715 63.5201 220.804 63.6401 221.892C63.6801 222.274 64.2801 222.274 64.2401 221.892C64.1201 220.743 63.9601 219.615 63.7601 218.486C63.7001 218.104 63.1201 218.265 63.1801 218.648Z" fill="#161616"/>
<path d="M63.8397 218.648C67.7197 218.889 71.6197 218.728 75.4997 218.688C79.4197 218.668 83.3397 218.628 87.2597 218.607C87.1597 218.507 87.0597 218.406 86.9597 218.305C86.9997 219.333 87.0397 220.36 87.0597 221.388C87.0797 221.771 87.6797 221.771 87.6597 221.388C87.6197 220.36 87.5797 219.333 87.5597 218.305C87.5597 218.144 87.4197 218.003 87.2597 218.003C83.3397 218.023 79.4197 218.063 75.4997 218.084C71.6197 218.104 67.7197 218.265 63.8397 218.043C63.4597 218.023 63.4597 218.628 63.8397 218.648Z" fill="#161616"/>
<path d="M64.1002 222.295C65.5202 222.255 66.9602 222.215 68.3802 222.174C68.7602 222.154 68.7602 221.55 68.3802 221.57C66.9602 221.61 65.5202 221.65 64.1002 221.691C63.7202 221.691 63.7002 222.295 64.1002 222.295Z" fill="#161616"/>
<path d="M65.1196 215.948C65.2396 216.775 65.3596 217.58 65.4996 218.407C65.5596 218.789 66.1396 218.628 66.0796 218.245C65.9596 217.419 65.8396 216.613 65.6996 215.787C65.6396 215.404 65.0596 215.566 65.1196 215.948Z" fill="#161616"/>
<path d="M65.6595 216.109C74.5995 214.739 83.6995 214.799 92.6195 216.331C92.9995 216.391 93.1595 215.807 92.7795 215.746C83.7595 214.215 74.5395 214.135 65.4995 215.525C65.1195 215.585 65.2795 216.17 65.6595 216.109Z" fill="#161616"/>
<path d="M87.1003 218.829C88.3403 218.769 89.5603 218.708 90.8003 218.668C91.4003 218.648 92.1203 218.769 92.5203 218.245C92.7603 217.943 92.2403 217.64 92.0003 217.943C91.7603 218.265 89.9803 218.104 89.6403 218.124C88.8003 218.164 87.9603 218.204 87.1203 218.245C86.7003 218.245 86.7003 218.849 87.1003 218.829Z" fill="#161616"/>
<path d="M92.24 215.646C92.12 216.25 92.04 216.855 92.02 217.459C92 217.842 92.6 217.842 92.62 217.459C92.64 216.895 92.7 216.351 92.82 215.807C92.9 215.424 92.32 215.263 92.24 215.646Z" fill="#161616"/>
<path d="M67.7797 215.364C67.7797 214.215 67.7797 213.087 67.7797 211.938C67.7797 211.556 67.1797 211.556 67.1797 211.938C67.1797 213.087 67.1797 214.215 67.1797 215.364C67.1797 215.767 67.7797 215.767 67.7797 215.364Z" fill="#161616"/>
<path d="M67.9598 212.22C75.2598 211.858 82.5798 211.717 89.8798 211.777C90.2598 211.777 90.2598 211.173 89.8798 211.173C82.5798 211.112 75.2598 211.253 67.9598 211.616C67.5798 211.636 67.5798 212.241 67.9598 212.22Z" fill="#161616"/>
<path d="M89.5796 211.717C89.6596 212.866 89.7396 213.994 89.8196 215.142C89.8396 215.525 90.4396 215.525 90.4196 215.142C90.3396 213.994 90.2596 212.866 90.1796 211.717C90.1596 211.314 89.5596 211.314 89.5796 211.717Z" fill="#161616"/>
<path d="M68.4599 215.848C68.5399 216.593 68.5999 217.339 68.6799 218.104C68.7199 218.487 69.3199 218.487 69.2799 218.104C69.1999 217.359 69.1399 216.613 69.0599 215.848C69.0399 215.465 68.4199 215.465 68.4599 215.848Z" fill="#161616"/>
<path d="M70.9403 215.484C70.9203 216.109 70.9803 216.713 71.1003 217.338C71.1603 217.721 71.7403 217.56 71.6803 217.177C71.5803 216.613 71.5403 216.049 71.5403 215.484C71.5403 215.102 70.9403 215.102 70.9403 215.484Z" fill="#161616"/>
<path d="M75.1196 219.031C75.1996 219.857 75.2596 220.683 75.3396 221.509C75.3796 221.892 75.9796 221.892 75.9396 221.509C75.8596 220.683 75.7996 219.857 75.7196 219.031C75.6996 218.648 75.0996 218.648 75.1196 219.031Z" fill="#161616"/>
<path d="M77.6601 218.789C77.7401 219.615 77.8001 220.441 77.8801 221.267C77.9201 221.65 78.5201 221.65 78.4801 221.267C78.4001 220.441 78.3401 219.615 78.2601 218.789C78.2201 218.406 77.6201 218.406 77.6601 218.789Z" fill="#161616"/>
<path d="M81.8403 218.688C81.9203 219.635 82.0003 220.582 82.0803 221.529C82.1203 221.912 82.7203 221.912 82.6803 221.529C82.6003 220.582 82.5203 219.635 82.4403 218.688C82.4203 218.285 81.8203 218.285 81.8403 218.688Z" fill="#161616"/>
<path d="M83 222.456C83.1 223.403 83.18 224.35 83.28 225.297C83.32 225.68 83.92 225.68 83.88 225.297C83.78 224.35 83.7 223.403 83.6 222.456C83.56 222.073 82.96 222.073 83 222.456Z" fill="#161616"/>
<path d="M85.6 222.536C85.74 223.403 85.7601 224.289 85.7201 225.176C85.7001 225.559 86.3001 225.559 86.3201 225.176C86.3801 224.229 86.34 223.302 86.18 222.375C86.12 221.992 85.54 222.154 85.6 222.536Z" fill="#161616"/>
<path d="M88.7597 222.335C88.8397 223.242 88.8397 224.148 88.7197 225.055C88.6797 225.438 89.2797 225.438 89.3197 225.055C89.4197 224.148 89.4397 223.242 89.3597 222.335C89.3397 221.952 88.7397 221.952 88.7597 222.335Z" fill="#161616"/>
<path d="M79.5203 225.881C79.4603 226.465 79.4203 227.07 79.3603 227.654C79.3203 228.037 79.9203 228.037 79.9603 227.654C80.0203 227.07 80.0603 226.465 80.1203 225.881C80.1603 225.498 79.5603 225.498 79.5203 225.881Z" fill="#161616"/>
<path d="M81.0402 226.203C81.2402 226.687 81.3002 227.15 81.2402 227.654C81.2002 228.037 81.8002 228.037 81.8402 227.654C81.9002 227.09 81.8202 226.546 81.6202 226.042C81.4802 225.68 80.9002 225.841 81.0402 226.203Z" fill="#161616"/>
<path d="M79.8198 214.9C79.8998 215.847 79.9198 216.794 79.9398 217.741C79.9398 218.124 80.5398 218.124 80.5398 217.741C80.5398 216.794 80.4998 215.847 80.4198 214.9C80.3998 214.518 79.7998 214.518 79.8198 214.9Z" fill="#161616"/>
<path d="M82.1999 215.223C82.3199 215.868 82.3599 216.492 82.3199 217.157C82.2999 217.54 82.8999 217.54 82.9199 217.157C82.9799 216.452 82.9199 215.767 82.7799 215.062C82.6999 214.679 82.1199 214.84 82.1999 215.223Z" fill="#161616"/>
<path d="M73.2801 211.677C73.5201 212.624 73.5801 213.571 73.5201 214.538C73.4801 214.921 74.0801 214.921 74.1201 214.538C74.2001 213.51 74.1201 212.503 73.8601 211.516C73.7601 211.133 73.1801 211.294 73.2801 211.677Z" fill="#161616"/>
<path d="M75.7397 211.677C75.8797 212.463 75.9997 213.249 76.1397 214.034C76.1997 214.417 76.7797 214.256 76.7197 213.873C76.5797 213.087 76.4597 212.302 76.3197 211.516C76.2597 211.133 75.6797 211.294 75.7397 211.677Z" fill="#161616"/>
<path d="M84.4194 211.798C84.5394 212.584 84.5794 213.39 84.5394 214.196C84.5194 214.578 85.1194 214.578 85.1394 214.196C85.1994 213.329 85.1394 212.483 84.9994 211.637C84.9394 211.254 84.3594 211.415 84.4194 211.798Z" fill="#161616"/>
<path d="M227.52 211.596C227.54 212.765 227.56 213.934 227.58 215.082C227.58 215.243 227.72 215.384 227.88 215.384C232.88 215.424 237.86 215.384 242.86 215.243C245.28 215.183 247.72 215.082 250.14 214.981C250.72 214.961 251.68 215.102 252.02 214.457C252.16 214.195 252.14 213.792 252.14 213.531C252.18 212.926 252.2 212.302 252.22 211.677C252.24 211.294 251.64 211.294 251.62 211.677C251.6 212.16 251.58 212.664 251.56 213.148C251.52 213.853 251.46 214.195 250.72 214.336C249.66 214.538 248.46 214.437 247.38 214.478C245.22 214.558 243.04 214.619 240.88 214.679C236.54 214.78 232.2 214.8 227.88 214.76C227.98 214.86 228.08 214.961 228.18 215.062C228.16 213.893 228.14 212.725 228.12 211.576C228.1 211.214 227.5 211.214 227.52 211.596Z" fill="#161616"/>
<path d="M223.359 207.748C223.399 208.836 223.439 209.924 223.479 211.032C223.499 211.415 224.099 211.415 224.079 211.032C224.039 209.944 223.999 208.856 223.959 207.748C223.959 207.365 223.359 207.365 223.359 207.748Z" fill="#161616"/>
<path d="M223.92 211.455C233.34 211.455 242.76 211.455 252.18 211.455C252.56 211.455 252.56 210.851 252.18 210.851C242.76 210.851 233.34 210.851 223.92 210.851C223.54 210.851 223.54 211.455 223.92 211.455Z" fill="#161616"/>
<path d="M224.139 207.727C233.599 207.727 243.06 207.727 252.5 207.727C252.88 207.727 252.88 207.123 252.5 207.123C243.04 207.123 233.579 207.123 224.139 207.123C223.759 207.123 223.759 207.727 224.139 207.727Z" fill="#161616"/>
<path d="M251.979 207.526C251.979 208.735 251.979 209.944 251.979 211.133C251.979 211.516 252.579 211.516 252.579 211.133C252.579 209.924 252.579 208.715 252.579 207.526C252.579 207.144 251.979 207.144 251.979 207.526Z" fill="#161616"/>
<path d="M227.24 207.305C227.24 206.398 227.24 205.492 227.24 204.585C227.24 204.202 226.64 204.202 226.64 204.585C226.64 205.492 226.64 206.398 226.64 207.305C226.64 207.688 227.24 207.688 227.24 207.305Z" fill="#161616"/>
<path d="M227.16 204.887C236.24 204.887 245.32 204.887 254.4 204.887C254.78 204.887 254.78 204.282 254.4 204.282C245.32 204.282 236.24 204.282 227.16 204.282C226.78 204.282 226.78 204.887 227.16 204.887Z" fill="#161616"/>
<path d="M253.66 204.585C253.66 205.451 253.66 206.318 253.66 207.184C253.66 207.567 254.26 207.567 254.26 207.184C254.26 206.318 254.26 205.451 254.26 204.585C254.26 204.202 253.66 204.202 253.66 204.585Z" fill="#161616"/>
<path d="M252.18 207.607C252.74 207.607 253.3 207.607 253.86 207.607C254.24 207.607 254.24 207.003 253.86 207.003C253.3 207.003 252.74 207.003 252.18 207.003C251.78 207.003 251.78 207.607 252.18 207.607Z" fill="#161616"/>
<path d="M224.18 201.422C224.18 202.248 224.18 203.074 224.18 203.9C224.18 204.283 224.78 204.283 224.78 203.9C224.78 203.074 224.78 202.248 224.78 201.422C224.78 201.039 224.18 201.039 224.18 201.422Z" fill="#161616"/>
<path d="M224.6 201.502C233.08 201.502 241.56 201.502 250.06 201.502C250.44 201.502 250.44 200.897 250.06 200.897C241.58 200.897 233.1 200.897 224.6 200.897C224.2 200.897 224.2 201.502 224.6 201.502Z" fill="#161616"/>
<path d="M249.62 201.321C249.62 202.228 249.62 203.134 249.62 204.041C249.62 204.424 250.22 204.424 250.22 204.041C250.22 203.134 250.22 202.228 250.22 201.321C250.22 200.938 249.62 200.918 249.62 201.321Z" fill="#161616"/>
<path d="M224.6 204.564C232.94 204.564 241.26 204.564 249.6 204.564C249.98 204.564 249.98 203.96 249.6 203.96C241.26 203.96 232.94 203.96 224.6 203.96C224.2 203.96 224.2 204.564 224.6 204.564Z" fill="#161616"/>
<path d="M232.52 200.857C232.52 199.991 232.52 199.124 232.52 198.258C232.52 197.875 231.92 197.875 231.92 198.258C231.92 199.124 231.92 199.991 231.92 200.857C231.92 201.26 232.52 201.26 232.52 200.857Z" fill="#161616"/>
<path d="M232.32 198.339C240.36 198.339 248.4 198.339 256.42 198.339C256.8 198.339 256.8 197.734 256.42 197.734C248.38 197.734 240.34 197.734 232.32 197.734C231.94 197.734 231.94 198.339 232.32 198.339Z" fill="#161616"/>
<path d="M249.82 201.28C251.8 201.28 253.78 201.28 255.76 201.28C256.14 201.28 256.14 200.676 255.76 200.676C253.78 200.676 251.8 200.676 249.82 200.676C249.44 200.676 249.44 201.28 249.82 201.28Z" fill="#161616"/>
<path d="M256.14 198.157C256.14 199.024 256.14 199.89 256.14 200.756C256.14 201.139 256.74 201.139 256.74 200.756C256.74 199.89 256.74 199.024 256.74 198.157C256.74 197.774 256.14 197.774 256.14 198.157Z" fill="#161616"/>
<path d="M225.159 197.996C233.839 197.996 242.499 197.996 251.179 197.996C251.559 197.996 251.559 197.392 251.179 197.392C242.499 197.392 233.839 197.392 225.159 197.392C224.759 197.392 224.759 197.996 225.159 197.996Z" fill="#161616"/>
<path d="M225.22 197.593C225.22 196.808 225.22 196.022 225.22 195.216C225.22 194.833 224.62 194.833 224.62 195.216C224.62 196.002 224.62 196.787 224.62 197.593C224.62 197.976 225.22 197.976 225.22 197.593Z" fill="#161616"/>
<path d="M225.04 195.417C233.78 195.417 242.54 195.417 251.28 195.417C251.66 195.417 251.66 194.812 251.28 194.812C242.54 194.812 233.78 194.812 225.04 194.812C224.66 194.812 224.66 195.417 225.04 195.417Z" fill="#161616"/>
<path d="M251.08 195.115C251.08 195.84 251.08 196.545 251.08 197.271C251.08 197.653 251.68 197.653 251.68 197.271C251.68 196.545 251.68 195.84 251.68 195.115C251.68 194.712 251.08 194.712 251.08 195.115Z" fill="#161616"/>
<path d="M231.74 194.874C231.74 194.007 231.74 193.141 231.74 192.274C231.74 191.892 231.14 191.892 231.14 192.274C231.14 193.141 231.14 194.007 231.14 194.874C231.14 195.276 231.74 195.276 231.74 194.874Z" fill="#161616"/>
<path d="M231.659 192.354C240.139 192.354 248.619 192.354 257.119 192.354C257.499 192.354 257.499 191.75 257.119 191.75C248.639 191.75 240.159 191.75 231.659 191.75C231.259 191.75 231.259 192.354 231.659 192.354Z" fill="#161616"/>
<path d="M256.8 192.173C256.8 192.596 256.8 192.999 256.8 193.423C256.8 193.805 257.4 193.805 257.4 193.423C257.4 192.999 257.4 192.596 257.4 192.173C257.4 191.77 256.8 191.77 256.8 192.173Z" fill="#161616"/>
<path d="M251.16 195.417C253.14 195.417 255.12 195.417 257.1 195.417C257.48 195.417 257.48 194.812 257.1 194.812C255.12 194.812 253.14 194.812 251.16 194.812C250.78 194.812 250.78 195.417 251.16 195.417Z" fill="#161616"/>
<path d="M256.8 192.516C256.8 193.262 256.8 194.027 256.8 194.773C256.8 195.155 257.4 195.155 257.4 194.773C257.4 194.027 257.4 193.262 257.4 192.516C257.4 192.113 256.8 192.113 256.8 192.516Z" fill="#161616"/>
<path d="M233.74 191.609C233.74 190.884 233.74 190.178 233.74 189.453C233.74 189.07 233.14 189.07 233.14 189.453C233.14 190.178 233.14 190.884 233.14 191.609C233.14 191.992 233.74 191.992 233.74 191.609Z" fill="#161616"/>
<path d="M233.339 189.655C242.039 189.655 250.759 189.655 259.459 189.655C259.839 189.655 259.839 189.051 259.459 189.051C250.759 189.051 242.039 189.051 233.339 189.051C232.959 189.051 232.939 189.655 233.339 189.655Z" fill="#161616"/>
<path d="M259.46 189.655C259.84 189.655 259.84 189.051 259.46 189.051C259.08 189.051 259.08 189.655 259.46 189.655Z" fill="#161616"/>
<path d="M259.38 189.353C259.38 190.078 259.38 190.784 259.38 191.509C259.38 191.892 259.98 191.892 259.98 191.509C259.98 190.784 259.98 190.078 259.98 189.353C259.98 188.95 259.38 188.95 259.38 189.353Z" fill="#161616"/>
<path d="M257 192.254C257.9 192.254 258.8 192.254 259.7 192.254C260.08 192.254 260.08 191.649 259.7 191.649C258.8 191.649 257.9 191.649 257 191.649C256.6 191.649 256.6 192.254 257 192.254Z" fill="#161616"/>
<path d="M227.76 186.753C227.76 187.539 227.76 188.325 227.76 189.131C227.76 189.514 228.36 189.514 228.36 189.131C228.36 188.345 228.36 187.559 228.36 186.753C228.36 186.35 227.76 186.35 227.76 186.753Z" fill="#161616"/>
<path d="M228.059 189.413C230.199 189.413 232.319 189.413 234.459 189.413C234.839 189.413 234.839 188.809 234.459 188.809C232.319 188.809 230.199 188.809 228.059 188.809C227.679 188.809 227.679 189.413 228.059 189.413Z" fill="#161616"/>
<path d="M228.119 186.693C236.419 184.92 244.999 184.779 253.359 186.29C253.739 186.351 253.899 185.766 253.519 185.706C245.059 184.175 236.379 184.316 227.959 186.109C227.579 186.189 227.739 186.774 228.119 186.693Z" fill="#161616"/>
<path d="M253.22 186.189C253.22 186.975 253.22 187.761 253.22 188.566C253.22 188.949 253.82 188.949 253.82 188.566C253.82 187.781 253.82 186.995 253.82 186.189C253.82 185.786 253.22 185.786 253.22 186.189Z" fill="#161616"/>
<path d="M229.76 186.854C231.18 187.298 232.74 187.116 234.2 187.096C235.84 187.076 237.48 187.036 239.12 187.016C242.46 186.955 245.8 186.895 249.14 186.854C249.52 186.854 249.52 186.25 249.14 186.25C245.92 186.31 242.72 186.351 239.5 186.411C237.92 186.431 236.36 186.472 234.78 186.492C233.2 186.512 231.44 186.774 229.9 186.29C229.54 186.169 229.38 186.754 229.76 186.854Z" fill="#161616"/>
<path d="M232.58 187.076C232.58 187.761 232.58 188.426 232.58 189.111C232.58 189.494 233.18 189.494 233.18 189.111C233.18 188.426 233.18 187.761 233.18 187.076C233.18 186.693 232.58 186.693 232.58 187.076Z" fill="#161616"/>
<path d="M234.62 187.197C234.68 187.681 234.74 188.185 234.8 188.668C234.84 189.051 235.44 189.051 235.4 188.668C235.34 188.185 235.28 187.681 235.22 187.197C235.18 186.814 234.58 186.814 234.62 187.197Z" fill="#161616"/>
<path d="M242.32 187.096C242.38 187.701 242.44 188.305 242.52 188.91C242.56 189.293 243.16 189.293 243.12 188.91C243.06 188.305 243 187.701 242.92 187.096C242.88 186.714 242.28 186.694 242.32 187.096Z" fill="#161616"/>
<path d="M244.7 187.318C244.7 187.761 244.7 188.225 244.7 188.668C244.7 189.051 245.3 189.051 245.3 188.668C245.3 188.225 245.3 187.761 245.3 187.318C245.3 186.915 244.7 186.915 244.7 187.318Z" fill="#161616"/>
<path d="M243.14 189.675C243.08 190.34 243.12 191.005 243.22 191.69C243.28 192.072 243.86 191.911 243.8 191.528C243.7 190.924 243.7 190.299 243.74 189.675C243.76 189.292 243.16 189.292 243.14 189.675Z" fill="#161616"/>
<path d="M245.359 189.675C245.419 190.219 245.399 190.763 245.299 191.287C245.239 191.669 245.799 191.831 245.879 191.448C245.979 190.864 246.019 190.259 245.959 189.675C245.919 189.292 245.319 189.292 245.359 189.675Z" fill="#161616"/>
<path d="M233.04 192.396C233.04 193.222 233.04 194.048 233.04 194.874C233.04 195.257 233.64 195.257 233.64 194.874C233.64 194.048 233.64 193.222 233.64 192.396C233.64 192.013 233.04 192.013 233.04 192.396Z" fill="#161616"/>
<path d="M235.16 192.516C235.16 193.141 235.22 193.765 235.32 194.41C235.38 194.793 235.96 194.632 235.9 194.249C235.82 193.685 235.78 193.1 235.78 192.516C235.76 192.113 235.16 192.113 235.16 192.516Z" fill="#161616"/>
<path d="M237.94 189.695C237.98 190.4 238.04 191.125 238.08 191.83C238.1 192.213 238.7 192.213 238.68 191.83C238.64 191.125 238.58 190.4 238.54 189.695C238.52 189.292 237.92 189.292 237.94 189.695Z" fill="#161616"/>
<path d="M249.34 189.453C249.42 190.138 249.48 190.803 249.56 191.488C249.6 191.871 250.2 191.871 250.16 191.488C250.08 190.803 250.02 190.138 249.94 189.453C249.9 189.07 249.3 189.07 249.34 189.453Z" fill="#161616"/>
<path d="M254.52 189.575C254.54 190.099 254.56 190.622 254.58 191.166C254.6 191.549 255.2 191.549 255.18 191.166C255.16 190.643 255.14 190.119 255.12 189.575C255.1 189.172 254.5 189.172 254.52 189.575Z" fill="#161616"/>
<path d="M245.359 192.274C245.359 193.06 245.359 193.846 245.359 194.652C245.359 195.035 245.959 195.035 245.959 194.652C245.959 193.866 245.959 193.08 245.959 192.274C245.959 191.892 245.359 191.892 245.359 192.274Z" fill="#161616"/>
<path d="M239.66 191.952C239.66 192.596 239.66 193.241 239.66 193.866C239.66 194.249 240.26 194.249 240.26 193.866C240.26 193.221 240.26 192.576 240.26 191.952C240.26 191.549 239.66 191.549 239.66 191.952Z" fill="#161616"/>
<path d="M228 195.336C227.96 196.122 228 196.888 228.14 197.674C228.2 198.056 228.78 197.895 228.72 197.512C228.6 196.787 228.56 196.062 228.6 195.336C228.62 194.933 228.02 194.933 228 195.336Z" fill="#161616"/>
<path d="M232.14 195.438C232.14 196.123 232.14 196.787 232.14 197.472C232.14 197.855 232.74 197.855 232.74 197.472C232.74 196.787 232.74 196.123 232.74 195.438C232.74 195.055 232.14 195.055 232.14 195.438Z" fill="#161616"/>
<path d="M237.1 195.739C237.2 196.283 237.22 196.807 237.18 197.351C237.14 197.734 237.74 197.734 237.78 197.351C237.84 196.747 237.8 196.163 237.68 195.578C237.6 195.195 237.02 195.357 237.1 195.739Z" fill="#161616"/>
<path d="M242.46 195.438C242.4 196.002 242.44 196.546 242.54 197.11C242.62 197.493 243.2 197.331 243.12 196.949C243.02 196.445 243 195.941 243.06 195.438C243.1 195.055 242.5 195.055 242.46 195.438Z" fill="#161616"/>
<path d="M247.62 195.336C247.62 195.82 247.62 196.324 247.62 196.807C247.62 197.19 248.22 197.19 248.22 196.807C248.22 196.324 248.22 195.82 248.22 195.336C248.22 194.933 247.62 194.933 247.62 195.336Z" fill="#161616"/>
<path d="M234.479 198.379C234.519 199.205 234.519 200.031 234.439 200.877C234.399 201.26 234.999 201.26 235.039 200.877C235.119 200.051 235.139 199.225 235.079 198.379C235.059 197.996 234.459 197.996 234.479 198.379Z" fill="#161616"/>
<path d="M235.8 198.379C235.86 199.245 235.88 200.112 235.84 200.978C235.82 201.361 236.42 201.361 236.44 200.978C236.48 200.112 236.46 199.245 236.4 198.379C236.36 197.996 235.76 197.996 235.8 198.379Z" fill="#161616"/>
<path d="M239.78 198.036C239.74 199.044 239.68 200.071 239.64 201.079C239.62 201.461 240.22 201.461 240.24 201.079C240.28 200.071 240.34 199.044 240.38 198.036C240.4 197.653 239.8 197.653 239.78 198.036Z" fill="#161616"/>
<path d="M240.8 198.258C240.9 199.124 240.94 199.991 240.88 200.857C240.86 201.24 241.46 201.24 241.48 200.857C241.54 199.991 241.5 199.124 241.4 198.258C241.36 197.875 240.76 197.875 240.8 198.258Z" fill="#161616"/>
<path d="M245.38 198.158C245.32 199.105 245.36 200.011 245.5 200.938C245.56 201.321 246.14 201.16 246.08 200.777C245.96 199.911 245.94 199.024 245.98 198.138C246 197.775 245.4 197.775 245.38 198.158Z" fill="#161616"/>
<path d="M250.5 198.157C250.58 198.943 250.66 199.729 250.74 200.535C250.78 200.918 251.38 200.918 251.34 200.535C251.26 199.749 251.18 198.963 251.1 198.157C251.06 197.774 250.46 197.774 250.5 198.157Z" fill="#161616"/>
<path d="M252.42 198.5C252.46 199.044 252.46 199.588 252.38 200.112C252.32 200.494 252.9 200.656 252.96 200.273C253.06 199.689 253.08 199.084 253.02 198.5C252.98 198.117 252.38 198.097 252.42 198.5Z" fill="#161616"/>
<path d="M225.52 201.664C225.52 202.449 225.52 203.235 225.52 204.041C225.52 204.424 226.12 204.424 226.12 204.041C226.12 203.255 226.12 202.469 226.12 201.664C226.12 201.261 225.52 201.261 225.52 201.664Z" fill="#161616"/>
<path d="M226.86 201.542C226.94 202.368 227 203.194 227.08 204.02C227.12 204.403 227.72 204.403 227.68 204.02C227.6 203.194 227.54 202.368 227.46 201.542C227.44 201.159 226.84 201.159 226.86 201.542Z" fill="#161616"/>
<path d="M229.939 201.321C229.999 202.046 230.059 202.752 230.119 203.477C230.159 203.86 230.759 203.86 230.719 203.477C230.659 202.752 230.599 202.046 230.539 201.321C230.499 200.938 229.899 200.918 229.939 201.321Z" fill="#161616"/>
<path d="M232.84 201.441C232.94 202.267 233.06 203.094 233.16 203.92C233.22 204.302 233.82 204.302 233.76 203.92C233.66 203.094 233.54 202.267 233.44 201.441C233.4 201.059 232.8 201.059 232.84 201.441Z" fill="#161616"/>
<path d="M242.46 201.542C242.46 202.529 242.46 203.496 242.46 204.484C242.46 204.866 243.06 204.866 243.06 204.484C243.06 203.496 243.06 202.529 243.06 201.542C243.06 201.159 242.46 201.159 242.46 201.542Z" fill="#161616"/>
<path d="M247.16 201.321C247.16 202.147 247.16 202.973 247.16 203.799C247.16 204.182 247.76 204.182 247.76 203.799C247.76 202.973 247.76 202.147 247.76 201.321C247.76 200.938 247.16 200.918 247.16 201.321Z" fill="#161616"/>
<path d="M229.12 204.907C229.24 205.633 229.24 206.378 229.1 207.104C229.04 207.486 229.6 207.648 229.68 207.265C229.84 206.419 229.84 205.592 229.7 204.746C229.62 204.363 229.06 204.525 229.12 204.907Z" fill="#161616"/>
<path d="M230.58 205.148C230.62 205.833 230.68 206.498 230.72 207.183C230.74 207.566 231.34 207.566 231.32 207.183C231.28 206.498 231.22 205.833 231.18 205.148C231.14 204.766 230.54 204.766 230.58 205.148Z" fill="#161616"/>
<path d="M236.3 204.927C236.26 205.753 236.3 206.559 236.44 207.385C236.5 207.768 237.08 207.606 237.02 207.224C236.9 206.458 236.86 205.713 236.9 204.927C236.92 204.544 236.32 204.544 236.3 204.927Z" fill="#161616"/>
<path d="M237.94 205.048C237.98 205.733 238.02 206.398 238.08 207.083C238.1 207.466 238.7 207.466 238.68 207.083C238.64 206.398 238.6 205.733 238.54 205.048C238.52 204.665 237.92 204.665 237.94 205.048Z" fill="#161616"/>
<path d="M239.24 205.148C239.28 205.632 239.32 206.136 239.38 206.619C239.42 207.002 240.02 207.002 239.98 206.619C239.94 206.136 239.9 205.632 239.84 205.148C239.82 204.766 239.22 204.766 239.24 205.148Z" fill="#161616"/>
<path d="M244.6 204.706C244.66 205.532 244.72 206.358 244.78 207.204C244.8 207.587 245.4 207.587 245.38 207.204C245.32 206.378 245.26 205.552 245.2 204.706C245.16 204.323 244.56 204.323 244.6 204.706Z" fill="#161616"/>
<path d="M248.36 204.826C248.4 205.511 248.44 206.176 248.5 206.861C248.52 207.244 249.12 207.244 249.1 206.861C249.06 206.176 249.02 205.511 248.96 204.826C248.94 204.443 248.34 204.423 248.36 204.826Z" fill="#161616"/>
<path d="M251.4 204.847C251.3 205.552 251.26 206.257 251.32 206.962C251.36 207.345 251.96 207.345 251.92 206.962C251.86 206.297 251.88 205.653 251.98 205.008C252.04 204.625 251.46 204.464 251.4 204.847Z" fill="#161616"/>
<path d="M225.3 207.728C225.46 208.856 225.56 210.004 225.6 211.153C225.62 211.536 226.22 211.536 226.2 211.153C226.16 209.944 226.06 208.755 225.88 207.567C225.84 207.184 225.26 207.345 225.3 207.728Z" fill="#161616"/>
<path d="M227.12 207.748C227.02 208.776 227.08 209.763 227.3 210.77C227.38 211.153 227.96 210.992 227.88 210.609C227.68 209.662 227.62 208.715 227.72 207.748C227.76 207.365 227.16 207.365 227.12 207.748Z" fill="#161616"/>
<path d="M231.78 207.647C231.88 208.615 231.92 209.602 231.92 210.589C231.92 210.972 232.52 210.972 232.52 210.589C232.52 209.602 232.48 208.635 232.38 207.647C232.34 207.265 231.74 207.265 231.78 207.647Z" fill="#161616"/>
<path d="M240.08 207.426C240.2 208.554 240.24 209.682 240.22 210.81C240.22 211.193 240.82 211.193 240.82 210.81C240.84 209.682 240.8 208.554 240.68 207.426C240.64 207.043 240.04 207.023 240.08 207.426Z" fill="#161616"/>
<path d="M241.68 207.99C241.62 208.896 241.7 209.783 241.9 210.669C241.98 211.052 242.56 210.891 242.48 210.508C242.3 209.682 242.22 208.836 242.28 207.99C242.3 207.587 241.7 207.587 241.68 207.99Z" fill="#161616"/>
<path d="M243.48 207.748C243.42 208.776 243.46 209.783 243.58 210.79C243.62 211.173 244.22 211.173 244.18 210.79C244.04 209.783 244.02 208.755 244.08 207.748C244.1 207.365 243.5 207.365 243.48 207.748Z" fill="#161616"/>
<path d="M249.04 207.869C249.08 208.736 249.14 209.602 249.18 210.468C249.2 210.851 249.8 210.851 249.78 210.468C249.74 209.602 249.68 208.736 249.64 207.869C249.62 207.486 249.02 207.486 249.04 207.869Z" fill="#161616"/>
<path d="M229.78 211.597C229.78 212.604 229.78 213.632 229.78 214.639C229.78 215.022 230.38 215.022 230.38 214.639C230.38 213.632 230.38 212.604 230.38 211.597C230.38 211.214 229.78 211.214 229.78 211.597Z" fill="#161616"/>
<path d="M234.3 211.476C234.4 212.523 234.42 213.591 234.36 214.639C234.34 215.022 234.94 215.022 234.96 214.639C235.02 213.591 235 212.523 234.9 211.476C234.86 211.093 234.26 211.093 234.3 211.476Z" fill="#161616"/>
<path d="M237.08 211.597C237.02 212.544 237.06 213.491 237.16 214.417C237.2 214.8 237.8 214.8 237.76 214.417C237.66 213.47 237.62 212.544 237.68 211.597C237.7 211.214 237.1 211.214 237.08 211.597Z" fill="#161616"/>
<path d="M245.339 211.597C245.379 212.584 245.439 213.551 245.479 214.538C245.499 214.921 246.099 214.921 246.079 214.538C246.039 213.551 245.979 212.584 245.939 211.597C245.919 211.214 245.319 211.214 245.339 211.597Z" fill="#161616"/>
<path d="M247.32 212.02C247.46 212.826 247.44 213.652 247.3 214.458C247.22 214.84 247.8 215.002 247.88 214.619C248.06 213.692 248.06 212.785 247.9 211.859C247.82 211.476 247.24 211.637 247.32 212.02Z" fill="#161616"/>
<path d="M87.9599 32.5594C87.5799 34.9168 88.6199 37.1331 89.9999 38.9665C91.3999 40.8202 93.2999 42.3313 95.6399 42.6738C96.0199 42.7342 96.1799 42.1499 95.7999 42.0895C93.7799 41.8074 92.0999 40.5985 90.8199 39.0471C89.3999 37.3144 88.1599 35.0578 88.5399 32.7408C88.5999 32.3378 88.0199 32.1766 87.9599 32.5594Z" fill="#161616"/>
<path d="M88.4802 32.5595C89.0602 32.1162 89.7202 31.814 90.4402 31.673C90.8202 31.5924 90.6602 31.0081 90.2802 31.0887C89.4602 31.2498 88.7202 31.6125 88.0602 32.1162C87.7602 32.3781 88.1802 32.8013 88.4802 32.5595Z" fill="#161616"/>
<path d="M90.5395 31.7131C92.3195 32.1967 93.9395 34.2921 94.9595 35.7427C96.0195 37.2538 96.8195 38.9261 97.3595 40.679C97.4795 41.0417 98.0595 40.9007 97.9395 40.5179C97.3195 38.503 96.3795 36.589 95.0995 34.9167C94.0195 33.4861 92.4795 31.6124 90.6995 31.1288C90.3195 31.0281 90.1595 31.6124 90.5395 31.7131Z" fill="#161616"/>
<path d="M95.7597 42.7141C96.5197 42.3313 97.1997 41.7873 97.7397 41.1023C97.9797 40.8001 97.5597 40.3769 97.3197 40.6792C96.8197 41.3239 96.1997 41.8276 95.4797 42.1903C95.0997 42.3716 95.4197 42.8753 95.7597 42.7141Z" fill="#161616"/>
<path d="M89.42 31.7539C89.36 34.0709 90.64 36.388 92 38.1812C93.28 39.8736 95.08 41.1631 97.28 41.1228C97.66 41.1228 97.66 40.5184 97.28 40.5184C95.06 40.5587 93.34 39.108 92.14 37.3551C91.04 35.7231 89.98 33.7889 90.02 31.7539C90.02 31.3711 89.42 31.3711 89.42 31.7539Z" fill="#161616"/>
<path d="M88.7797 35.3201C89.0797 34.9574 89.4397 34.6753 89.8597 34.4537C90.1997 34.2925 89.8997 33.7687 89.5597 33.9298C89.0997 34.1515 88.6797 34.4738 88.3597 34.8768C88.1197 35.179 88.5397 35.6223 88.7797 35.3201Z" fill="#161616"/>
<path d="M88.4602 33.9504C88.8402 33.6683 89.2202 33.4668 89.6802 33.3459C90.0602 33.2452 89.9002 32.6609 89.5202 32.7616C89.0402 32.9027 88.5802 33.1243 88.1602 33.4265C87.8602 33.6481 88.1402 34.172 88.4602 33.9504Z" fill="#161616"/>
<path d="M90.5804 39.0473C91.0004 38.7048 91.4404 38.3622 91.8604 38.0197C92.1604 37.7779 91.7404 37.3548 91.4404 37.5966C91.0204 37.9391 90.5804 38.2816 90.1604 38.6242C89.8404 38.8659 90.2804 39.2891 90.5804 39.0473Z" fill="#161616"/>
<path d="M91.7798 40.3777C92.1198 40.1158 92.4598 39.8539 92.7998 39.5919C92.9198 39.4912 92.9998 39.33 92.8998 39.1688C92.8198 39.0479 92.6198 38.9674 92.4798 39.0681C92.1397 39.33 91.7997 39.5919 91.4597 39.8539C91.3397 39.9546 91.2597 40.1158 91.3597 40.277C91.4397 40.3979 91.6398 40.4785 91.7798 40.3777Z" fill="#161616"/>
<path d="M93.9 41.8883C94.24 41.5458 94.6 41.2234 94.94 40.8809C95.22 40.6189 94.8 40.1757 94.52 40.4578C94.18 40.8003 93.82 41.1226 93.48 41.4652C93.2 41.7271 93.62 42.1703 93.9 41.8883Z" fill="#161616"/>
<path d="M90.6397 33.0033C91.0197 33.3458 91.3797 33.7085 91.7597 34.051C91.7397 33.9301 91.7197 33.8092 91.7197 33.6883C91.3197 34.3331 91.0997 35.1592 91.6397 35.8039C91.8197 36.0255 92.0997 36.2069 92.3997 36.2673C92.5397 36.2875 92.6597 36.2673 92.7997 36.2673C92.8997 36.2472 92.9797 36.2069 93.0797 36.1867C94.1797 36.0054 94.3797 36.4285 93.6597 37.4359C93.2997 37.5769 93.4597 38.1612 93.8197 38.0202C94.5597 37.7381 95.0797 36.912 94.6397 36.1464C94.4397 35.7837 94.0197 35.5218 93.6197 35.5017C93.4797 35.4815 93.3397 35.5218 93.1997 35.5218C92.7197 35.7838 92.2997 35.5823 91.9397 34.9577C91.9597 34.6152 92.0597 34.3129 92.2597 34.051C92.3197 33.9503 92.2997 33.7689 92.2197 33.6883C91.8397 33.3458 91.4797 32.9832 91.0997 32.6406C90.7797 32.3183 90.3597 32.7414 90.6397 33.0033Z" fill="#161616"/>
<path d="M94.14 37.8584C94.48 38.2614 94.8 38.6442 95.14 39.0472C95.38 39.3494 95.82 38.9061 95.56 38.6241C95.22 38.2211 94.9 37.8383 94.56 37.4353C94.32 37.1331 93.9 37.5764 94.14 37.8584Z" fill="#161616"/>
<path d="M107.5 28.4697C105.74 27.0795 104.66 23.1304 106.14 21.2567C107.88 19.1008 111.34 18.174 113.28 20.4709C114.9 22.385 115 25.387 113.78 27.5429C113.04 28.8525 111.96 29.4771 110.46 29.4973C109.16 29.5174 107.92 29.0137 107.02 28.0466C106.76 27.7645 106.34 28.1876 106.6 28.4697C108.06 30.0413 110.68 30.6256 112.62 29.6182C114.64 28.5503 115.4 25.649 115.16 23.5334C114.92 21.3977 113.62 19.1008 111.42 18.5367C109.3 17.9927 106.16 19.5239 105.22 21.5186C104.64 22.7476 104.86 24.2184 105.16 25.5079C105.46 26.7974 105.98 28.0264 107.04 28.8525C107.36 29.1346 107.8 28.7115 107.5 28.4697Z" fill="#161616"/>
<path d="M109.18 20.8944C109.18 20.8743 109.16 20.834 109.16 20.8138C109.12 20.9347 109.06 21.0355 109.02 21.1564C108.84 21.0959 108.82 21.1161 108.94 21.2773C109.06 21.4787 109.14 21.6802 109.22 21.9018C109.28 21.781 109.36 21.6601 109.42 21.5392C108.64 21.781 107.66 22.325 107.94 23.3122C108.02 23.6144 108.22 23.8764 108.52 23.9771C108.76 24.0778 108.9 23.9771 109.14 23.957C109.5 23.7756 109.88 23.8361 110.24 24.1584C110.54 25.045 110.3 25.4882 109.5 25.5487C109.26 25.5487 109.14 25.8106 109.24 26.0121C109.42 26.3546 109.56 26.6971 109.68 27.0598C109.8 27.4224 110.38 27.2814 110.26 26.8986C110.14 26.4755 109.98 26.0927 109.76 25.7098C109.68 25.871 109.58 26.0121 109.5 26.1733C110.46 26.1531 111.38 25.2464 110.98 24.239C110.8 23.7756 110.38 23.413 109.9 23.3122C109.62 23.2518 109.38 23.3727 109.12 23.3727C108.62 23.3727 108.48 23.2719 108.74 22.7884C108.98 22.3451 109.12 22.2847 109.58 22.1436C109.72 22.1033 109.84 21.922 109.78 21.781C109.64 21.378 109.5 20.8138 109.1 20.6124C109 20.5721 108.88 20.5519 108.8 20.6124C108.78 20.6325 108.74 20.6527 108.72 20.6728C108.6 20.7534 108.56 20.8743 108.58 21.0153C108.58 21.0355 108.6 21.0758 108.6 21.0959C108.68 21.4183 109.26 21.2571 109.18 20.8944Z" fill="#161616"/>
<path d="M111.06 19.1816C114.1 18.3958 115.68 21.7001 115.74 24.2186C115.76 25.3671 115.66 26.6566 114.98 27.6237C114.24 28.6714 112.92 28.9938 111.82 29.4773C111.46 29.6385 111.78 30.1623 112.12 30.0012C113.44 29.4169 114.88 29.0341 115.66 27.6841C116.4 26.3946 116.46 24.6821 116.28 23.2314C115.96 20.5718 113.86 17.8317 110.92 18.5973C110.54 18.6981 110.7 19.2823 111.06 19.1816Z" fill="#161616"/>
<path d="M114.4 27.3416C114.68 27.2812 114.96 27.2207 115.24 27.1603C115.62 27.0797 115.46 26.4954 115.08 26.576C114.8 26.6364 114.52 26.6969 114.24 26.7573C113.86 26.8379 114.02 27.4222 114.4 27.3416Z" fill="#161616"/>
<path d="M115.12 25.0246C115.44 24.9239 115.76 24.8231 116.06 24.7022C116.42 24.5813 116.26 23.997 115.9 24.1179C115.58 24.2187 115.26 24.3194 114.96 24.4403C114.6 24.5612 114.76 25.1455 115.12 25.0246Z" fill="#161616"/>
<path d="M114.92 23.2314C115.12 23.1911 115.34 23.1508 115.54 23.1105C115.7 23.0904 115.78 22.8889 115.74 22.7479C115.7 22.5867 115.54 22.5061 115.38 22.5464C115.18 22.5867 114.96 22.627 114.76 22.6673C114.6 22.6874 114.52 22.8889 114.56 23.03C114.6 23.1911 114.76 23.2516 114.92 23.2314Z" fill="#161616"/>
<path d="M113.72 20.693C114.1 20.7534 114.46 20.7333 114.82 20.6124C115.18 20.4915 115.02 19.9072 114.66 20.0281C114.4 20.1087 114.14 20.149 113.88 20.1087C113.72 20.0885 113.56 20.149 113.52 20.3102C113.46 20.4512 113.56 20.6728 113.72 20.693Z" fill="#161616"/>
<path d="M110.4 58.8127C107.78 58.0471 106.08 55.4681 106.04 52.7683C105.98 49.6856 108.64 47.0462 111.68 48.4163C114.24 49.5647 115.22 52.587 115.3 55.2264C115.34 56.4957 115.12 58.027 113.98 58.7724C112.8 59.5582 111.26 59.256 110 58.853C109.64 58.7321 109.48 59.3164 109.84 59.4373C111.88 60.1022 114.46 60.1425 115.48 57.8456C116.46 55.6495 115.84 52.5064 114.72 50.4915C113.6 48.4566 111.2 46.885 108.82 47.5902C106.34 48.3357 105.22 51.0557 105.5 53.4735C105.8 56.1935 107.62 58.6515 110.26 59.4172C110.62 59.5179 110.78 58.9336 110.4 58.8127Z" fill="#161616"/>
<path d="M109.08 49.887C109.58 50.431 109.94 50.9952 110.2 51.6802C110.32 51.5593 110.44 51.4384 110.56 51.3175C109.6 51.1161 109.1 51.9421 109.16 52.8287C109.18 53.1309 109.24 53.4935 109.54 53.6547C109.76 53.7756 110.08 53.695 110.3 53.695C110.54 53.6749 110.76 53.6547 111 53.6749C112.06 53.7555 112.2 54.2189 111.44 55.0651C111.24 55.0852 111.04 55.3069 111.18 55.5285C111.54 56.0927 111.88 56.6769 112.16 57.2814C112.32 57.6239 112.84 57.3217 112.68 56.9792C112.38 56.3747 112.06 55.7904 111.7 55.2263C111.62 55.3875 111.52 55.5285 111.44 55.6897C112.28 55.589 112.98 54.8032 112.54 53.9368C112.34 53.554 111.96 53.3122 111.58 53.1913C111.28 53.0906 110.98 53.0906 110.68 53.0906C110.44 53.1107 110.22 53.1309 109.98 53.151C109.6 52.6876 109.74 52.2847 110.42 51.9421C110.62 51.9824 110.88 51.8011 110.78 51.5795C110.48 50.7937 110.08 50.1288 109.5 49.5244C109.24 49.1818 108.82 49.605 109.08 49.887Z" fill="#161616"/>
<path d="M107 48.537C104.42 50.7735 103.62 54.6218 105.56 57.5433C107.44 60.3842 111.22 61.2102 114.08 59.3566C114.4 59.1551 114.1 58.6313 113.78 58.8327C111.1 60.5655 107.56 59.7394 105.92 56.9791C104.32 54.2793 105.14 50.9548 107.44 48.9601C107.72 48.7184 107.3 48.2953 107 48.537Z" fill="#161616"/>
<path opacity="0.14" d="M108.6 48.2754C108.24 49.0813 107.78 50.4514 107.84 52.1841C107.86 52.708 108 55.6295 110.1 57.604C111.54 58.9539 113.06 59.0345 113 59.4979C112.92 60.0016 111.04 60.4046 109.34 59.9815C107.48 59.5181 105.82 58.0271 105.1 56.0727C104.92 55.569 104.2 53.5542 105.2 51.3581C106.22 49.1619 108.22 48.3963 108.6 48.2754Z" fill="#3F3F3F"/>
<path opacity="0.15" d="M89.74 31.6934C89.82 32.459 90.02 33.6477 90.54 34.9977C91.06 36.2871 91.96 38.6042 94.3 39.934C94.88 40.2563 95.98 40.7802 97.58 40.8608C97.44 41.1428 97.1 41.6868 96.46 42.11C96.04 42.3719 95.66 42.4928 95.38 42.5532C94.56 42.3114 93.32 41.8279 92.04 40.8809C91.22 40.2563 89.32 38.7855 88.5 36.1058C88.04 34.5947 88.08 33.2246 88.24 32.1971C88.72 32.0157 89.22 31.8545 89.74 31.6934Z" fill="#3F3F3F"/>
<path opacity="0.14" d="M111.4 18.7382C112 19.0606 113.04 19.7456 113.76 21.015C114.78 22.7679 114.56 24.5006 114.46 25.3468C114.36 26.1124 114.22 27.2407 113.38 28.3287C112.94 28.913 112.44 29.2959 112.08 29.5175C112.52 29.4973 113.64 29.3563 114.56 28.4899C115.28 27.8049 115.5 27.0191 115.74 26.1527C116.12 24.7827 116 23.6745 115.96 23.2917C115.8 22.1231 115.38 21.297 115.26 21.0754C114.88 20.3501 114.38 19.4233 113.32 18.9599C112.54 18.6173 111.8 18.6778 111.4 18.7382Z" fill="#3F3F3F"/>
<path d="M142.726 183.3C142.146 187.773 141.566 192.246 140.986 196.739C129.846 199.197 124.326 200.889 124.446 201.836C124.606 202.985 132.946 203.025 149.506 201.977C150.226 195.973 150.926 189.969 151.646 183.985C148.666 183.763 145.706 183.521 142.726 183.3Z" fill="#161616"/>
<path d="M166.926 105.669C167.126 107.624 167.326 110.868 166.966 114.857C166.426 120.821 164.906 125.153 164.386 126.704C160.126 139.276 158.066 155.778 157.106 163.595C156.426 169.136 155.666 177.417 155.846 187.733C154.726 188.357 151.006 190.271 146.126 189.486C141.606 188.76 138.786 186.201 137.826 185.255C137.326 169.761 138.626 157.349 139.986 148.665C141.426 139.357 143.486 129.928 145.846 120.418C147.246 114.736 148.646 109.074 150.066 103.393C155.666 104.138 161.306 104.904 166.926 105.669Z" fill="#4C4C4C"/>
<path opacity="0.13" d="M166.727 111.734C166.067 114.374 165.007 118.323 163.567 123.037C158.807 138.471 154.527 146.49 151.307 155.073C148.427 162.729 145.227 173.972 144.307 188.962C145.367 189.305 146.867 189.647 148.667 189.627C151.967 189.587 154.447 188.358 155.667 187.632C155.807 177.72 156.447 169.398 157.127 163.052C157.667 157.934 158.207 152.937 159.507 146.309C161.067 138.33 161.847 134.341 163.467 129.686C164.567 126.584 165.887 123.42 166.507 118.524C166.807 115.704 166.787 113.346 166.727 111.734Z" fill="#3F3F3F"/>
<path opacity="0.19" d="M158.946 149.089C157.486 152.695 156.086 156.463 154.726 160.392C151.166 170.688 148.506 180.5 146.546 189.627C147.606 189.728 148.946 189.748 150.506 189.486C152.826 189.103 154.626 188.277 155.786 187.632C155.686 183.623 155.726 179.412 155.926 174.999C156.326 165.469 157.466 156.785 158.946 149.089Z" fill="#3F3F3F"/>
<path d="M179.387 182.373C180.407 185.738 181.427 189.082 182.447 192.447C174.467 198.129 170.727 201.453 171.247 202.38C171.907 203.569 179.327 200.97 193.507 194.583C191.467 188.861 189.427 183.119 187.367 177.396C184.727 179.049 182.047 180.701 179.387 182.373Z" fill="#161616"/>
<path d="M174.967 101.438C175.807 103.212 177.107 106.193 178.127 110.062C179.647 115.844 179.667 120.438 179.707 122.07C179.947 135.368 183.607 151.587 185.327 159.244C186.547 164.704 188.647 172.723 192.307 182.374C191.467 183.341 188.607 186.403 183.747 187.37C179.247 188.257 175.727 186.806 174.527 186.242C168.827 171.836 165.847 159.727 164.167 151.104C162.367 141.856 161.127 132.285 160.107 122.534C159.507 116.711 158.907 110.888 158.307 105.085C163.867 103.856 169.427 102.647 174.967 101.438Z" fill="#4C4C4C"/>
<path opacity="0.17" d="M164.866 103.755C167.566 115.139 170.246 126.522 172.906 137.906C176.746 154.327 180.526 170.768 184.246 187.209C185.146 187.027 186.246 186.705 187.406 186.141C189.746 185.013 191.286 183.461 192.146 182.413C190.766 178.726 189.086 173.85 187.406 168.068C184.146 156.886 182.606 148.021 182.006 144.273C180.906 137.463 180.246 133.373 180.026 127.53C179.886 123.581 180.066 121.626 179.506 117.557C179.266 115.824 178.566 111.492 176.726 106.133C176.046 104.158 175.386 102.526 174.886 101.357C171.566 102.163 168.226 102.969 164.866 103.755Z" fill="#3F3F3F"/>
<path opacity="0.15" d="M179.246 123.439C179.186 138.49 180.366 155.274 183.726 173.286C184.566 177.779 185.486 182.111 186.506 186.302C187.106 186.12 187.786 185.879 188.486 185.496C190.266 184.569 191.466 183.34 192.186 182.433C190.126 176.61 188.146 170.364 186.386 163.695C182.486 149.028 180.346 135.428 179.246 123.439Z" fill="#3F3F3F"/>
<path d="M152.406 59.3482C149.626 61.6048 148.406 64.4054 147.686 66.0776C145.426 71.296 145.906 76.0711 146.186 78.6098C146.906 85.1176 149.126 86.1855 150.226 92.3105C150.806 95.5947 151.026 99.9265 149.766 105.326C150.626 106.092 157.246 111.794 166.026 110.081C171.206 109.074 174.526 105.991 175.826 104.621C176.286 91.6255 175.546 80.9067 174.666 73.0288C173.646 63.8614 172.586 59.9325 169.246 57.6557C164.566 54.4723 157.006 55.6208 152.406 59.3482Z" fill="white" stroke="black" stroke-width="2" stroke-miterlimit="10"/>
<path opacity="0.14" d="M161.846 55.5205C163.106 58.0592 164.646 61.6052 165.926 66.0177C169.166 77.1999 168.506 86.4479 168.166 89.6716C167.246 98.7383 164.466 105.83 162.226 110.404C163.626 110.444 165.446 110.323 167.506 109.739C171.686 108.55 174.406 106.052 175.686 104.682C175.866 97.7309 175.806 91.8879 175.686 87.5359C175.686 87.5359 175.526 81.149 174.366 70.6518C173.566 63.3581 173.006 60.9807 171.066 58.9457C168.226 56.0041 164.106 55.5608 161.846 55.5205Z" fill="#3F3F3F"/>
<path opacity="0.17" d="M173.326 65.0909C172.986 65.1111 173.406 70.2489 172.926 79.8394C172.306 92.2506 170.886 97.3481 170.426 98.9801C169.066 103.654 167.326 107.281 166.066 109.618C167.146 109.538 168.586 109.316 170.146 108.692C173.106 107.503 174.946 105.528 175.826 104.44C175.946 100.431 176.006 94.5475 175.686 87.4352C175.166 75.9105 173.806 65.0506 173.326 65.0909Z" fill="#3F3F3F"/>
<path d="M148.306 73.5529C146.806 75.0237 146.026 76.5952 145.646 77.5221C144.746 79.6981 144.726 81.5517 144.726 82.5389C144.726 85.1985 145.446 87.1126 146.226 89.2483C146.786 90.7392 147.686 92.7944 149.186 95.0711C149.506 95.1718 149.986 95.2927 150.566 95.3129C151.126 95.3129 151.566 95.2323 151.906 95.1315C151.706 93.8622 151.526 92.613 151.326 91.3437C151.666 91.4243 152.186 91.525 152.826 91.6258C155.846 92.0892 158.306 91.7668 159.766 91.5653C160.446 91.4646 161.406 91.3235 162.546 91.0415C162.446 91.8071 162.346 92.5526 162.266 93.3182C163.366 93.9428 163.846 93.701 164.006 93.6003C164.326 93.3988 164.366 93.0361 164.766 91.787C164.946 91.2027 165.126 90.7392 165.226 90.437C165.666 90.2557 166.106 90.0945 166.566 89.9132C166.446 90.3363 166.326 90.7594 166.226 91.2027C166.566 91.2832 167.126 91.384 167.786 91.2631C168.166 91.2027 168.466 91.0818 168.706 90.981C168.966 90.0341 169.246 89.0871 169.506 88.12C170.266 87.2939 170.986 86.9111 171.526 86.7298C172.126 86.5081 172.326 86.5887 172.806 86.3268C173.786 85.7627 174.126 84.6948 174.186 84.453C174.266 84.1911 174.526 83.2038 174.066 82.2367C173.806 81.6927 173.626 81.7733 173.086 80.9472C172.626 80.2622 172.646 80.0204 172.226 79.2548C172.006 78.8921 171.666 78.3481 171.126 77.7437C171.506 76.6154 171.846 76.0915 172.106 75.8296C172.166 75.7692 172.346 75.5878 172.346 75.3662C172.346 75.1647 172.166 74.9834 171.886 74.7819C171.206 74.2984 170.786 74.0163 170.206 74.0767C169.466 74.1775 169.026 74.7618 168.926 74.8827C168.626 74.3789 168.186 73.6738 167.546 72.9686C165.526 70.7321 163.106 69.8859 162.046 69.5837C158.026 68.4554 154.586 69.9464 152.506 70.8732C151.366 71.3567 149.826 72.0418 148.306 73.5529Z" fill="white"/>
<path d="M146.346 88.9258C145.146 85.6618 144.666 82.0553 145.666 78.6704C146.626 75.4668 148.766 72.9282 151.786 71.5379C154.826 70.1276 158.506 69.1 161.806 69.9462C164.686 70.6917 167.166 72.5856 168.626 75.2049C168.806 75.5474 169.326 75.2452 169.146 74.9027C166.686 70.4701 161.626 68.2941 156.746 69.3015C153.986 69.8656 150.986 70.8529 148.806 72.6864C146.826 74.3587 145.486 76.7563 144.886 79.2748C144.126 82.559 144.606 85.964 145.766 89.087C145.906 89.4295 146.486 89.2885 146.346 88.9258Z" fill="black"/>
<path d="M163.546 81.1483C163.466 80.3223 163.506 78.247 164.606 78.0858C165.286 77.9851 165.726 78.8716 166.486 78.8112C166.866 78.7709 166.866 78.1664 166.486 78.2067C165.966 78.2672 165.606 77.7232 165.146 77.5217C164.706 77.3403 164.286 77.4209 163.926 77.7232C163.006 78.4888 162.866 80.0402 162.966 81.1483C162.986 81.5312 163.586 81.5312 163.546 81.1483Z" fill="black"/>
<path d="M166.046 78.308C167.186 77.8245 167.926 79.0737 166.846 79.6781C166.486 79.8796 166.046 80.0005 165.646 80.1415C164.846 80.4236 164.026 80.7057 163.226 80.9877C162.866 81.1086 163.026 81.6929 163.386 81.572C164.426 81.2094 165.486 80.8668 166.526 80.4639C167.066 80.2624 167.706 79.9803 167.946 79.396C168.526 77.9655 166.826 77.3208 165.766 77.7842C165.406 77.9252 165.706 78.4491 166.046 78.308Z" fill="black"/>
<path d="M169.446 74.1977C168.906 74.52 168.286 75.0237 168.446 75.7491C168.506 76.0513 168.706 76.2729 168.986 76.414C169.406 76.6356 169.826 76.7565 170.226 77.0587C170.526 77.3005 170.946 76.8774 170.646 76.6356C170.286 76.3535 169.906 76.152 169.506 75.9707C169.206 75.8297 168.946 75.6886 169.106 75.3058C169.226 75.0237 169.526 74.8626 169.766 74.7215C170.086 74.52 169.786 73.9962 169.446 74.1977Z" fill="black"/>
<path d="M169.026 76.2325C168.866 77.2601 169.546 78.4488 170.726 78.207C171.206 78.1063 171.506 77.7436 171.706 77.3205C171.926 76.8168 171.966 76.1116 172.466 75.8094C172.786 75.6079 172.486 75.0841 172.166 75.2856C171.646 75.6079 171.486 76.1318 171.306 76.6758C171.186 77.0384 171.046 77.4817 170.646 77.6026C169.926 77.8242 169.506 76.9981 169.606 76.3937C169.646 76.0109 169.066 75.8296 169.026 76.2325Z" fill="black"/>
<path d="M169.466 74.9226C170.326 73.9756 171.486 74.9427 172.106 75.6278C172.366 75.9098 172.786 75.4867 172.526 75.2047C171.666 74.2577 170.126 73.2906 169.046 74.4995C168.786 74.7815 169.206 75.2047 169.466 74.9226Z" fill="black"/>
<path d="M168.506 81.4513C168.466 81.4513 168.466 81.4513 168.506 81.4513C168.466 81.4311 168.466 81.4311 168.506 81.4513C168.486 81.4513 168.466 81.4311 168.466 81.411C168.486 81.4311 168.486 81.4311 168.466 81.411C168.446 81.3908 168.446 81.3707 168.466 81.3908C168.466 81.411 168.466 81.411 168.466 81.3707C168.466 81.3304 168.466 81.3304 168.466 81.3707C168.466 81.3505 168.466 81.3304 168.466 81.3102C168.466 81.3505 168.466 81.3505 168.466 81.3102C168.446 81.3505 168.446 81.3505 168.466 81.3102C168.426 81.3304 168.506 81.3102 168.446 81.3304C168.486 81.3102 168.486 81.3102 168.446 81.3304C168.486 81.3304 168.486 81.3304 168.446 81.3304C168.466 81.3304 168.486 81.3304 168.506 81.3304C168.486 81.3304 168.466 81.3304 168.486 81.3304C168.506 81.3304 168.506 81.3304 168.526 81.3505C168.506 81.3304 168.506 81.3505 168.526 81.3505C168.546 81.3707 168.566 81.3707 168.526 81.3505C168.546 81.3707 168.546 81.3908 168.526 81.3707C168.526 81.3505 168.526 81.3505 168.526 81.3908C168.526 81.3707 168.526 81.3505 168.526 81.3505C168.506 81.3908 168.526 81.3908 168.526 81.3505C168.506 81.3707 168.506 81.3908 168.526 81.3505C168.506 81.3707 168.506 81.3707 168.486 81.3908C168.446 81.411 168.526 81.3505 168.486 81.3908C168.466 81.3908 168.446 81.411 168.426 81.411C168.466 81.411 168.466 81.411 168.426 81.411C168.446 81.411 168.446 81.4311 168.426 81.411C168.106 81.2095 167.786 81.7333 168.126 81.9348C168.446 82.1363 168.866 81.9953 169.046 81.6729C169.246 81.3102 169.026 80.8871 168.646 80.7864C168.306 80.6856 167.926 80.867 167.826 81.2296C167.746 81.5722 167.946 81.955 168.306 82.0557C168.726 82.1363 168.886 81.552 168.506 81.4513Z" fill="black"/>
<path d="M171.286 79.7185C171.326 79.7386 171.366 79.7588 171.386 79.7991C171.366 79.7588 171.406 79.8595 171.386 79.8192C171.386 79.7789 171.386 79.8998 171.386 79.8394C171.366 79.92 171.386 79.7789 171.386 79.8394C171.346 79.8998 171.406 79.7789 171.386 79.8394C171.406 79.7991 171.346 79.8797 171.366 79.8595C171.326 79.8998 171.286 79.92 171.226 79.8998C171.186 79.8797 171.166 79.8595 171.146 79.8394C171.126 79.8192 171.126 79.8192 171.146 79.8394C171.146 79.8192 171.126 79.8192 171.126 79.7991C171.146 79.8595 171.126 79.7185 171.126 79.7789C171.126 79.8394 171.146 79.7185 171.126 79.7789C171.106 79.8394 171.146 79.7386 171.126 79.7588C171.106 79.7991 171.126 79.7588 171.146 79.7386C171.126 79.7588 171.126 79.7588 171.146 79.7386C171.166 79.7185 171.186 79.7185 171.206 79.7185C171.166 79.7386 171.266 79.7185 171.286 79.7185C171.126 79.6782 170.946 79.7588 170.926 79.92C170.886 80.0812 170.966 80.2625 171.126 80.2827C171.386 80.3431 171.626 80.1819 171.706 79.92C171.766 79.6581 171.666 79.376 171.386 79.2954C171.126 79.2148 170.866 79.4163 170.806 79.6581C170.726 79.92 170.866 80.1819 171.126 80.2827C171.266 80.3229 171.466 80.2222 171.486 80.0812C171.526 79.92 171.446 79.7789 171.286 79.7185Z" fill="black"/>
<path d="M170.966 77.8848C171.626 78.6504 172.046 79.5571 172.226 80.5645C172.306 80.9473 172.886 80.7861 172.806 80.4033C172.606 79.2952 172.106 78.3079 171.386 77.4617C171.126 77.1595 170.706 77.6027 170.966 77.8848Z" fill="black"/>
<path d="M172.426 80.9468C172.686 81.1886 173.006 81.3699 173.366 81.4505C173.746 81.5311 173.906 80.9468 173.526 80.8662C173.266 80.8058 173.046 80.705 172.846 80.5237C172.566 80.2416 172.146 80.6647 172.426 80.9468Z" fill="black"/>
<path d="M173.426 81.0478C172.006 81.1889 170.786 82.0149 170.286 83.4052C169.866 84.5939 170.026 86.3468 171.426 86.7699C172.646 87.1326 173.766 86.2461 174.206 85.1379C174.646 84.0298 174.786 81.8336 173.586 81.1284C173.246 80.9269 172.946 81.4508 173.286 81.6523C174.106 82.1358 173.946 83.9693 173.706 84.7349C173.426 85.6416 172.606 86.508 171.586 86.1655C170.406 85.7625 170.546 84.1506 171.006 83.244C171.486 82.3172 172.406 81.7933 173.406 81.6724C173.806 81.612 173.826 81.0075 173.426 81.0478Z" fill="black"/>
<path d="M171.946 84.3118C171.946 84.2715 171.946 84.2312 171.946 84.1909C171.946 84.0297 171.806 83.8887 171.646 83.8887C171.486 83.8887 171.346 84.0297 171.346 84.1909C171.346 84.2312 171.346 84.2715 171.346 84.3118C171.346 84.473 171.486 84.614 171.646 84.614C171.806 84.614 171.946 84.4931 171.946 84.3118Z" fill="black"/>
<path d="M173.546 83.2037C173.506 83.1634 173.466 83.1232 173.446 83.0829C173.346 82.962 173.126 82.962 173.026 83.0829C172.906 83.2037 172.906 83.3851 173.026 83.506C173.066 83.5463 173.106 83.5866 173.126 83.6269C173.226 83.7477 173.446 83.7477 173.546 83.6269C173.666 83.506 173.646 83.3246 173.546 83.2037Z" fill="black"/>
<path d="M166.786 83.8883C167.166 84.3114 167.846 84.2107 168.166 83.7674C168.266 83.6264 168.186 83.4249 168.066 83.3443C167.906 83.2637 167.746 83.3242 167.646 83.4451C167.546 83.5861 167.306 83.5458 167.206 83.4249C166.966 83.163 166.526 83.6062 166.786 83.8883Z" fill="black"/>
<path d="M167.446 83.9495C167.886 85.239 169.366 85.8636 170.586 85.2793C170.926 85.1181 170.626 84.5942 170.286 84.7554C169.426 85.1584 168.346 84.6748 168.026 83.7883C167.886 83.4256 167.306 83.5667 167.446 83.9495Z" fill="black"/>
<path d="M171.346 86.286C170.666 86.83 169.966 87.374 169.286 87.918C168.986 88.1598 169.406 88.5829 169.706 88.3411C170.386 87.7971 171.086 87.2531 171.766 86.7091C172.086 86.4875 171.646 86.0644 171.346 86.286Z" fill="black"/>
<path d="M169.186 88.18C168.826 89.1068 168.546 90.0538 168.346 91.0209C168.266 91.4037 168.846 91.5649 168.926 91.1821C169.126 90.215 169.406 89.268 169.766 88.3412C169.906 87.9785 169.326 87.8173 169.186 88.18Z" fill="black"/>
<path d="M145.606 88.382C146.086 90.3968 146.886 92.3311 148.066 94.0437C148.406 94.5474 148.806 95.2525 149.386 95.4943C150.126 95.8167 151.146 95.5548 151.906 95.4339C152.026 95.4137 152.146 95.2525 152.126 95.1518C152.006 93.8825 151.806 92.6333 151.546 91.3841C151.466 91.0013 150.886 91.1625 150.966 91.5453C151.226 92.734 151.406 93.9429 151.526 95.1518C151.606 95.0511 151.666 94.9503 151.746 94.8697C150.886 95.0108 149.906 95.2324 149.206 94.5877C148.666 94.084 148.206 93.2176 147.846 92.5728C147.066 91.2028 146.526 89.7521 146.166 88.2208C146.086 87.838 145.506 87.9992 145.606 88.382Z" fill="black"/>
<path d="M151.486 91.6256C153.386 92.0487 155.326 92.2501 157.266 92.2098C158.906 92.1696 161.066 92.1293 162.506 91.283C162.846 91.0816 162.546 90.5577 162.206 90.7592C160.746 91.6054 158.526 91.5853 156.886 91.6054C155.126 91.6256 153.366 91.4241 151.626 91.0413C151.266 90.9607 151.106 91.545 151.486 91.6256Z" fill="black"/>
<path d="M162.306 90.0949C162.146 91.0217 161.946 91.9888 161.926 92.9358C161.906 93.5402 162.226 93.8626 162.826 93.8827C163.326 93.9029 164.326 93.8626 164.626 93.4193C164.866 93.0365 164.926 92.3716 165.046 91.9485C165.186 91.4649 165.346 90.9612 165.486 90.4777C165.606 90.0949 165.026 89.9538 164.906 90.3165C164.606 91.3038 164.326 92.2709 164.046 93.2581C164.106 93.1977 164.186 93.1171 164.246 93.0566C163.906 93.1574 163.506 93.2984 163.146 93.2783C162.546 93.2581 162.506 92.9358 162.566 92.4321C162.646 91.7067 162.746 90.9814 162.886 90.2561C162.946 89.8732 162.366 89.7121 162.306 90.0949Z" fill="black"/>
<path d="M165.106 90.7189C166.106 90.457 166.986 89.9331 167.706 89.1675C167.966 88.8854 167.546 88.4623 167.286 88.7444C166.646 89.4294 165.866 89.8928 164.946 90.1346C164.586 90.2354 164.726 90.8196 165.106 90.7189Z" fill="black"/>
<path d="M166.086 89.8929C165.906 90.3966 165.826 90.9003 165.846 91.4242C165.846 91.5853 165.986 91.7264 166.146 91.7264C166.806 91.7264 167.466 91.6458 168.126 91.5249C168.506 91.4443 168.346 90.8802 167.966 90.9406C167.366 91.0615 166.766 91.1018 166.146 91.1219C166.246 91.2227 166.346 91.3234 166.446 91.4242C166.426 90.9406 166.486 90.4974 166.646 90.0541C166.806 89.6914 166.226 89.5302 166.086 89.8929Z" fill="black"/>
<path d="M151.206 73.8957C153.806 72.8681 156.526 72.304 159.306 72.1831C159.686 72.1629 159.686 71.5585 159.306 71.5786C156.466 71.6794 153.686 72.2637 151.046 73.3114C150.686 73.4524 150.846 74.0367 151.206 73.8957Z" fill="black"/>
<path d="M151.346 73.1701C151.326 73.1499 151.326 73.1499 151.306 73.1298C151.326 73.2507 151.346 73.3715 151.346 73.4924C151.586 72.9283 152.826 72.8074 153.346 72.7067C154.026 72.5656 154.706 72.4447 155.386 72.344C156.906 72.1022 158.446 71.941 159.966 71.8403C160.346 71.8201 160.346 71.2157 159.966 71.2358C158.186 71.3567 156.426 71.5582 154.666 71.8604C153.746 72.0216 151.266 72.1627 150.826 73.1902C150.766 73.3111 150.766 73.4521 150.866 73.5529C150.886 73.573 150.886 73.573 150.906 73.5932C151.186 73.8551 151.626 73.432 151.346 73.1701Z" fill="black"/>
<path opacity="0.12" d="M168.466 74.2781C168.386 76.4742 167.706 77.6227 167.066 78.2473C166.726 78.5898 166.586 78.5898 165.286 79.6577C163.446 81.1486 163.326 81.471 163.266 81.6926C163.046 82.7605 164.186 83.244 164.266 84.4932C164.366 85.9237 162.986 87.1326 162.246 87.7572C158.546 90.9608 151.026 90.2959 149.786 90.175C150.066 91.8674 150.346 93.5599 150.646 95.2322C151.006 95.3329 151.506 95.4135 151.726 95.1516C151.946 94.9098 151.806 94.5068 151.646 93.6808C151.426 92.5122 151.326 91.9077 151.486 91.6458C151.926 90.9608 153.806 91.6055 155.426 91.8876C156.966 92.1495 159.226 92.21 162.166 91.263C162.226 91.948 162.266 92.6129 162.326 93.298C163.006 93.298 163.666 93.298 164.346 93.298C164.586 92.4114 164.806 91.5249 165.046 90.6384C165.506 90.3765 165.966 90.1146 166.446 89.8526C166.346 90.3765 166.246 90.9003 166.146 91.404C166.866 91.3839 167.586 91.3436 168.306 91.3234C168.326 90.7391 168.486 89.5303 169.306 88.3617C169.606 87.9386 170.146 87.1931 171.086 86.8103C171.686 86.5685 171.866 86.7095 172.486 86.4274C172.766 86.3065 173.526 85.8834 174.026 85.0171C174.506 84.191 174.786 82.8612 174.186 81.9747C173.866 81.5113 173.666 81.6926 173.106 81.1083C172.486 80.4636 172.626 80.1211 171.866 78.6906C171.346 77.7033 171.166 77.663 171.166 77.2802C171.206 76.3131 172.426 76.0108 172.326 75.3258C172.226 74.4997 170.346 74.1774 170.246 74.1572C169.506 74.0766 168.886 74.1774 168.466 74.2781Z" fill="#3F3F3F"/>
<path opacity="0.14" d="M167.926 78.9521C167.846 79.3954 167.646 80.1409 167.066 80.8259C166.746 81.2087 166.346 81.6721 165.666 81.7527C164.926 81.8535 164.346 81.4102 164.206 81.2893C165.466 80.5036 166.686 79.7379 167.926 78.9521Z" fill="#3F3F3F"/>
<path d="M164.526 89.8118C164.106 90.0535 163.786 90.5774 163.826 91.0206C163.926 91.9676 165.746 92.4109 165.686 92.6123C165.626 92.7937 164.326 92.2295 162.946 92.7332C162.726 92.8138 162.006 93.0758 161.946 93.5392C161.906 93.9018 162.306 94.0026 162.406 94.5869C162.486 94.9898 162.306 95.0301 162.286 95.7555C162.266 96.239 162.266 96.5412 162.446 96.8435C162.686 97.2263 162.966 97.1457 163.186 97.5084C163.446 97.9315 163.106 98.1934 163.306 98.7172C163.506 99.2612 164.086 99.6038 164.546 99.7246C165.066 99.8657 165.346 99.6843 165.506 99.8858C165.746 100.188 165.186 100.712 165.386 101.216C165.566 101.659 166.226 101.78 166.466 101.8C168.126 101.921 169.586 98.0926 169.666 97.871C170.286 97.871 171.026 97.8106 171.826 97.6091C173.686 97.1255 174.866 96.0577 176.306 94.7682C177.046 94.1033 177.966 93.2571 178.926 91.9273C180.226 90.114 180.806 88.5021 181.326 87.0716C181.766 85.8224 182.406 83.9285 182.606 81.3898C182.786 78.7706 182.386 76.8162 182.026 75.1036C181.126 70.8725 179.506 68.0115 179.126 67.3667C179.066 67.266 177.866 65.6944 175.466 62.5513C174.246 60.9596 173.146 59.5694 171.846 59.6298C171.706 59.6298 171.446 59.65 171.146 59.8313C170.206 60.3753 170.126 61.9469 170.186 63.3975C170.406 68.3943 172.146 72.0209 172.146 72.0209C173.566 74.9626 174.706 75.7282 175.226 78.4683C175.506 79.8989 175.506 81.2286 175.486 81.4906C175.486 82.5181 175.446 83.8882 174.906 85.5403C174.606 86.4067 173.946 88.3611 172.086 89.9326C170.966 90.8796 170.166 91.5646 169.146 91.4438C167.726 91.2826 166.546 89.6707 165.166 89.6506C165.006 89.6506 164.766 89.6707 164.526 89.8118Z" fill="white"/>
<path d="M171.087 59.6501C176.127 62.7932 179.887 67.8504 181.427 73.6329C183.147 80.1005 181.987 86.7897 178.147 92.2498C176.247 94.9497 173.467 97.5689 169.967 97.4279C169.587 97.4078 169.587 98.0122 169.967 98.0324C172.947 98.1532 175.447 96.4003 177.347 94.2445C179.507 91.7864 181.187 88.744 182.067 85.5808C183.867 79.0729 182.467 71.8398 178.747 66.2587C176.827 63.3977 174.327 60.9598 171.407 59.1464C171.047 58.9248 170.747 59.4486 171.087 59.6501Z" fill="black"/>
<path d="M174.726 85.2789C173.646 87.878 171.946 90.598 168.966 91.1017C168.586 91.1622 168.746 91.7465 169.126 91.686C172.306 91.142 174.126 88.2205 175.286 85.4401C175.446 85.0976 174.866 84.9364 174.726 85.2789Z" fill="black"/>
<path d="M169.086 91.0612C167.726 90.8194 165.366 88.3412 163.986 89.7113C163.486 90.215 163.546 91.0612 163.846 91.6455C164.286 92.5119 165.246 92.8141 166.106 93.0357C166.486 93.1365 166.646 92.5522 166.266 92.4514C165.506 92.2701 164.586 92.0283 164.306 91.1821C164.146 90.8799 164.206 90.5978 164.466 90.3762C164.586 89.9531 164.866 89.812 165.306 89.9934C165.626 90.0538 165.926 90.1948 166.206 90.3359C167.126 90.7993 167.886 91.4642 168.926 91.6455C169.306 91.7261 169.466 91.1418 169.086 91.0612Z" fill="black"/>
<path d="M169.646 97.549C168.986 98.5161 168.346 99.5033 167.686 100.47C167.526 100.692 167.386 100.914 167.186 101.115C167.006 101.337 166.766 101.498 166.486 101.599C166.206 101.176 165.946 100.753 165.666 100.329C165.786 99.9667 166.626 99.4832 166.906 99.2213C167.206 98.9593 166.766 98.5362 166.486 98.7981C165.906 99.322 164.846 99.9063 164.806 100.793C164.786 101.478 165.306 102.123 165.966 102.223C166.786 102.344 167.446 101.78 167.906 101.176C168.726 100.128 169.406 98.9593 170.166 97.8512C170.386 97.5288 169.866 97.2266 169.646 97.549Z" fill="black"/>
<path d="M166.126 92.4314C164.966 92.7739 163.786 92.4919 162.626 92.6934C162.026 92.7941 161.506 93.1165 161.566 93.8015C161.766 95.7357 164.406 95.4335 165.666 95.1514C166.046 95.0708 165.886 94.4865 165.506 94.5671C164.926 94.7082 164.326 94.8291 163.726 94.7888C162.966 94.7283 161.326 93.7612 162.906 93.2575C163.446 93.0963 164.166 93.2374 164.706 93.2172C165.246 93.2172 165.766 93.1568 166.286 92.9956C166.666 92.8948 166.506 92.3105 166.126 92.4314Z" fill="black"/>
<path d="M162.586 94.6678C161.706 95.2924 161.626 96.6826 162.466 97.3878C163.466 98.2139 164.986 97.69 166.006 97.1863C166.346 97.005 166.046 96.4811 165.706 96.6625C165.046 97.005 164.166 97.3475 163.406 97.1662C162.546 96.9848 162.086 95.7558 162.906 95.1917C163.206 94.97 162.906 94.4462 162.586 94.6678Z" fill="black"/>
<path d="M162.947 97.5492C162.687 98.3349 163.027 99.2618 163.707 99.7453C164.567 100.35 165.647 100.048 166.427 99.4431C166.727 99.2013 166.427 98.6775 166.127 98.9192C165.567 99.3423 164.807 99.705 164.147 99.302C163.607 98.9797 163.347 98.2946 163.547 97.7103C163.647 97.3477 163.067 97.1865 162.947 97.5492Z" fill="black"/>
<path d="M171.406 58.8243C168.846 62.4913 169.726 67.1858 171.366 71.014C173.426 75.8294 176.906 80.6649 175.846 86.1855C175.766 86.5683 176.346 86.7295 176.426 86.3467C177.346 81.5313 174.966 77.139 172.926 72.9683C170.866 68.7574 168.926 63.4181 171.926 59.1266C172.146 58.8042 171.626 58.502 171.406 58.8243Z" fill="black"/>
<path d="M175.287 79.5566C175.187 81.7125 174.927 83.8482 174.507 85.9638C174.427 86.3466 175.007 86.5078 175.087 86.1249C175.507 83.9489 175.787 81.7729 175.887 79.5566C175.907 79.1738 175.307 79.1738 175.287 79.5566Z" fill="black"/>
<path opacity="0.12" d="M174.906 62.25C175.906 64.2044 177.106 67.0453 177.866 70.6316C178.866 75.3866 178.586 79.1946 178.406 80.9072C177.986 84.8562 177.626 88.2613 175.086 91.626C174.026 93.0565 171.866 95.9176 168.286 96.8645C165.846 97.4891 163.386 97.066 163.086 98.0331C162.946 98.5368 163.406 99.1816 163.886 99.4838C164.526 99.8666 165.386 99.8061 166.126 99.3024C165.406 99.8061 165.066 100.511 165.226 101.015C165.366 101.458 165.866 101.7 166.206 101.74C167.846 101.962 169.486 98.154 169.606 97.8719C170.246 97.8921 171.206 97.8518 172.286 97.5093C174.526 96.8242 175.886 95.3131 177.386 93.6408C178.006 92.9558 179.126 91.6663 180.166 89.7724C182.826 84.8764 182.606 79.9602 182.486 78.1469C182.146 72.183 179.646 68.0728 178.986 67.0654C177.626 64.8088 176.066 63.2574 174.906 62.25Z" fill="#3F3F3F"/>
<path opacity="0.11" d="M182.607 79.4561C181.887 81.7126 180.767 84.4326 179.027 87.2937C176.007 92.2703 172.387 95.5343 169.807 97.4886C170.467 97.5289 171.467 97.5088 172.587 97.2267C176.387 96.2193 178.407 92.8747 179.207 91.5449C180.247 89.8122 180.647 88.3615 181.347 85.8632C182.087 83.2439 182.427 81.0075 182.607 79.4561Z" fill="#3F3F3F"/>
<path d="M150.906 60.4168C150.586 60.034 147.966 61.7466 146.186 63.0965C144.026 64.7285 142.166 66.1389 140.386 68.6977C138.026 72.0826 137.306 75.3667 137.066 76.7167C136.886 77.7644 136.326 81.4313 137.566 85.9042C138.606 89.6719 140.366 91.9487 142.546 94.7694C143.946 96.6029 145.026 97.6103 146.526 98.2752C147.906 98.8998 149.166 99.0207 150.006 99.0207C150.446 99.6654 150.946 100.391 151.506 101.197C151.986 101.882 152.266 102.265 152.746 102.708C153.206 103.131 153.926 103.755 154.486 103.534C154.786 103.433 154.946 103.111 155.226 102.607C155.506 102.083 155.446 101.982 155.646 101.781C156.066 101.338 156.506 101.62 157.066 101.277C157.626 100.915 157.366 100.431 158.066 99.4438C158.606 98.6781 158.906 98.7386 159.066 98.1946C159.226 97.5901 158.866 97.3887 158.986 96.6029C159.106 95.8171 159.546 95.5552 159.406 95.2731C159.246 94.9709 158.626 95.0918 157.746 95.1119C156.146 95.1321 154.766 94.7291 154.766 94.5276C154.766 94.306 156.186 94.5075 156.926 93.6008C157.346 93.077 157.526 92.1904 157.166 91.7673C156.746 91.2435 155.646 91.5054 154.266 91.8479C152.406 92.3113 152.306 92.6941 151.526 92.7747C149.126 92.9964 146.966 89.5309 146.226 88.3421C145.826 87.7175 144.586 85.602 144.146 82.5798C143.706 79.5374 144.286 77.0189 144.726 75.1451C144.846 74.6011 144.806 74.863 145.646 71.9617C147.126 66.8038 147.026 66.8239 147.386 65.9374C148.866 62.351 151.226 60.7795 150.906 60.4168Z" fill="white"/>
<path d="M150.366 60.2151C144.326 62.8948 139.346 67.9923 137.386 74.4195C135.246 81.3706 136.986 88.6038 141.466 94.2252C143.626 96.925 146.526 99.1615 150.066 99.3629C150.446 99.3831 150.446 98.7786 150.066 98.7585C146.906 98.5772 144.286 96.6228 142.286 94.2655C140.126 91.7066 138.386 88.5635 137.606 85.2995C136.006 78.7514 137.986 71.7398 142.406 66.7431C144.706 64.144 147.546 62.1292 150.706 60.7188C151.026 60.5778 150.726 60.0741 150.366 60.2151Z" fill="black"/>
<path d="M144.666 86.2065C145.906 89.3093 147.906 92.2711 151.306 93.1173C151.686 93.218 151.846 92.6337 151.466 92.533C148.286 91.7472 146.406 88.9466 145.246 86.0453C145.106 85.7028 144.526 85.8438 144.666 86.2065Z" fill="black"/>
<path d="M151.427 93.0771C152.627 92.9965 153.587 92.3921 154.707 92.0294C155.447 91.7877 156.707 91.5257 156.847 92.5533C157.027 93.8025 155.447 94.0644 154.547 94.1651C154.167 94.2054 154.167 94.8099 154.547 94.7696C155.447 94.6688 156.447 94.5278 157.067 93.8025C157.547 93.2182 157.707 92.3115 157.187 91.7071C155.807 90.0952 152.967 92.372 151.427 92.4727C151.047 92.513 151.047 93.1174 151.427 93.0771Z" fill="black"/>
<path d="M149.846 99.2019C150.626 100.371 151.346 101.62 152.206 102.728C152.726 103.413 153.426 104.058 154.346 103.997C155.026 103.937 155.666 103.413 155.666 102.688C155.686 101.741 154.486 101.015 153.886 100.471C153.606 100.209 153.166 100.632 153.466 100.894C153.806 101.197 154.646 101.741 154.806 102.144C154.826 102.486 154.826 102.808 154.846 103.151C154.226 103.453 153.706 103.413 153.306 103.03C152.986 102.788 152.766 102.506 152.526 102.164C151.766 101.096 151.086 99.9877 150.366 98.8997C150.146 98.5572 149.626 98.8594 149.846 99.2019Z" fill="black"/>
<path d="M154.446 94.7285C155.586 95.1517 156.786 95.0912 157.966 95.2927C158.166 95.3128 158.366 95.3531 158.566 95.4136C158.666 95.7158 158.766 96.018 158.846 96.3202C158.766 96.6829 157.646 96.7837 157.406 96.7837C156.646 96.8038 155.906 96.562 155.186 96.3605C154.806 96.2598 154.666 96.8239 155.026 96.9448C156.186 97.2874 159.566 98.053 159.686 95.9173C159.726 95.1718 159.006 94.8897 158.406 94.7688C157.146 94.5069 155.826 94.6077 154.606 94.1644C154.246 94.0234 154.086 94.6077 154.446 94.7285Z" fill="black"/>
<path d="M158.186 97.3078C158.606 97.6302 158.746 98.2144 158.486 98.6577C158.226 99.101 157.726 99.2219 157.246 99.2219C156.426 99.2017 155.606 98.8189 154.886 98.4361C154.546 98.2547 154.246 98.7786 154.586 98.9599C155.686 99.5644 157.426 100.33 158.606 99.4636C159.526 98.7786 159.366 97.4287 158.506 96.7839C158.166 96.5422 157.866 97.066 158.186 97.3078Z" fill="black"/>
<path d="M157.346 99.7863C157.546 100.471 157.086 101.177 156.406 101.358C155.666 101.559 154.926 101.177 154.366 100.733C154.066 100.492 153.646 100.915 153.946 101.156C154.746 101.801 155.806 102.265 156.826 101.841C157.686 101.479 158.226 100.532 157.946 99.6251C157.826 99.2423 157.246 99.4035 157.346 99.7863Z" fill="black"/>
<path opacity="0.11" d="M146.986 62.5117C145.826 64.184 144.366 66.6018 143.146 69.7248C141.166 74.8021 140.886 79.0735 140.826 80.6249C140.646 85.0776 140.546 87.6768 142.086 90.4572C144.046 94.0033 147.546 95.7562 151.926 97.9322C154.166 99.0403 156.086 99.7656 157.386 100.189C157.386 100.31 157.386 101.176 156.766 101.639C156.086 102.123 154.906 101.942 154.166 101.015C155.126 101.639 155.566 102.486 155.326 102.989C155.126 103.453 154.346 103.695 153.706 103.533C152.466 103.191 152.586 101.438 150.746 99.7455C150.326 99.3627 149.946 99.1008 149.666 98.9396C148.486 98.8187 146.466 98.4157 144.466 97.0456C144.106 96.8039 142.746 95.8166 140.886 92.9959C139.706 91.2027 138.246 88.9662 137.386 85.6015C137.106 84.5135 135.746 78.7108 138.366 72.4448C138.626 71.8 139.306 70.3091 140.506 68.5763C142.746 65.3929 145.326 63.5191 146.986 62.5117Z" fill="#3F3F3F"/>
<path d="M148.266 29.9722C146.066 31.5438 145.366 33.7802 144.006 38.1927C142.286 43.7535 141.046 47.763 143.166 50.886C145.266 53.9485 149.886 55.0365 154.666 54.2507C154.966 54.3716 155.386 54.5933 155.686 54.9962C156.086 55.5402 156.026 56.0842 156.146 56.9506C156.306 58.099 156.426 59.0661 156.986 59.4691C157.906 60.1541 159.846 59.2072 160.966 58.3408C162.706 57.011 163.446 55.238 163.746 54.5127C166.846 46.7959 168.386 42.9476 167.546 39.3008C167.306 38.2732 166.526 35.0697 163.746 32.39C159.686 28.5215 152.586 26.8895 148.266 29.9722Z" fill="white"/>
<path d="M145.227 34.5866C142.787 39.7445 143.667 47.3605 147.867 51.4304C151.467 54.8959 157.547 54.5736 160.867 50.9066C161.127 50.6245 160.707 50.1813 160.447 50.4835C157.247 54.0094 151.407 54.231 148.067 50.7857C144.267 46.877 143.447 39.7445 145.727 34.909C145.907 34.5463 145.387 34.2441 145.227 34.5866Z" fill="#161616"/>
<path d="M155.366 53.5059C155.346 55.6013 155.786 57.6161 156.646 59.5302C156.806 59.8928 157.326 59.5705 157.166 59.2279C156.346 57.4146 155.946 55.5005 155.966 53.5059C155.966 53.123 155.366 53.123 155.366 53.5059Z" fill="#161616"/>
<path d="M156.627 59.6715C158.627 60.84 161.167 59.0469 162.607 57.6969C162.887 57.435 162.467 57.0119 162.187 57.2738C160.987 58.4021 158.627 60.155 156.947 59.1677C156.587 58.9663 156.287 59.4901 156.627 59.6715Z" fill="#161616"/>
<path d="M148.506 45.0231C151.586 46.9976 155.746 44.2978 157.266 41.5173C157.446 41.1748 156.926 40.8726 156.746 41.2151C155.386 43.7135 151.606 46.2925 148.806 44.4993C148.486 44.2978 148.186 44.8216 148.506 45.0231Z" fill="#161616"/>
<path d="M156.027 40.9937C156.547 41.2557 156.947 41.6788 157.107 42.2429C157.227 42.6056 157.807 42.4646 157.687 42.0817C157.467 41.3766 156.987 40.7923 156.327 40.4699C155.987 40.3087 155.687 40.8326 156.027 40.9937Z" fill="#161616"/>
<path d="M150.446 33.8004C149.706 35.8958 148.806 37.9308 147.726 39.865C147.546 40.2075 148.046 40.5097 148.246 40.1672C149.346 38.1726 150.266 36.0973 151.026 33.9414C151.146 33.5989 150.566 33.4377 150.446 33.8004Z" fill="#161616"/>
<path d="M147.806 40.4098C148.426 41.2761 149.406 41.7798 150.466 41.6993C150.846 41.6791 150.846 41.0747 150.466 41.0948C149.626 41.1553 148.826 40.7926 148.326 40.1075C148.106 39.7852 147.586 40.0874 147.806 40.4098Z" fill="#161616"/>
<path d="M147.746 37.2458C147.686 36.7823 147.746 36.3189 147.926 35.8958C147.726 35.8958 147.546 35.8958 147.346 35.8958C147.506 36.4398 147.426 36.9838 147.126 37.4674C147.306 37.4875 147.486 37.5077 147.666 37.548C147.586 37.1652 147.606 36.7823 147.726 36.3995C147.846 36.0369 147.266 35.8757 147.146 36.2383C146.986 36.7219 146.966 37.2055 147.086 37.7092C147.146 37.9711 147.506 37.9912 147.626 37.7898C148.006 37.1853 148.106 36.4398 147.906 35.7548C147.826 35.4526 147.426 35.4929 147.326 35.7548C147.106 36.2988 147.066 36.8629 147.146 37.4271C147.226 37.7898 147.786 37.6286 147.746 37.2458Z" fill="#161616"/>
<path d="M155.406 35.9771C155.206 35.4734 155.286 34.9495 155.666 34.5869C155.506 34.5466 155.326 34.5063 155.166 34.4458C155.306 35.0301 155.226 35.5943 154.926 36.1181C155.106 36.1383 155.286 36.1584 155.466 36.1987C155.386 35.8159 155.426 35.4734 155.546 35.1107C155.666 34.7481 155.086 34.5869 154.966 34.9495C154.806 35.4129 154.786 35.8764 154.886 36.3599C154.946 36.6218 155.306 36.642 155.426 36.4405C155.806 35.7756 155.906 35.0301 155.726 34.3048C155.666 34.0832 155.386 34.0227 155.226 34.1638C154.706 34.6876 154.526 35.4734 154.806 36.1584C154.986 36.5009 155.566 36.3398 155.406 35.9771Z" fill="#161616"/>
<path d="M146.726 34.0424C147.066 33.297 148.006 33.035 148.646 33.5186C148.966 33.7402 149.266 33.2164 148.946 32.9947C148.046 32.3299 146.646 32.7127 146.206 33.7402C146.046 34.1029 146.566 34.4051 146.726 34.0424Z" fill="#161616"/>
<path d="M145.326 38.8983C145.286 38.9386 145.246 38.9789 145.206 39.0192C145.086 39.1401 145.086 39.3214 145.206 39.4423C145.326 39.5632 145.506 39.5632 145.626 39.4423C145.666 39.402 145.706 39.3617 145.746 39.3214C145.866 39.2005 145.866 39.0192 145.746 38.8983C145.626 38.7774 145.446 38.7774 145.326 38.8983Z" fill="#161616"/>
<path d="M147.087 38.8181C147.087 38.8584 147.107 38.8986 147.127 38.9591C147.127 38.9591 147.127 38.9591 147.127 38.9389C147.107 38.9994 147.107 39.0397 147.087 39.1001C146.947 39.2613 146.807 39.2613 146.667 39.1001C146.647 39.0397 146.647 38.9994 146.627 38.9389C146.627 38.9389 146.627 38.9389 146.627 38.9591C146.647 38.8986 146.647 38.8583 146.667 38.7979C146.667 38.7979 146.667 38.7979 146.667 38.8181C146.607 38.9591 146.627 39.1404 146.767 39.2412C146.887 39.3218 147.107 39.2815 147.187 39.1404C147.247 38.9994 147.247 38.8583 147.147 38.7375C147.087 38.677 146.987 38.6367 146.887 38.6367C146.787 38.6367 146.687 38.677 146.627 38.7375C146.507 38.8583 146.527 38.9994 146.587 39.1404C146.647 39.2815 146.867 39.3218 147.007 39.2412C147.127 39.1404 147.147 38.9591 147.087 38.8181Z" fill="#161616"/>
<path d="M146.047 40.9335C146.067 40.9335 146.107 40.9335 146.127 40.9335C146.507 40.9335 146.507 40.3291 146.127 40.3291C146.107 40.3291 146.067 40.3291 146.047 40.3291C145.667 40.3291 145.667 40.9335 146.047 40.9335C146.067 40.9335 146.107 40.9335 146.127 40.9335C146.507 40.9335 146.507 40.3291 146.127 40.3291C146.107 40.3291 146.067 40.3291 146.047 40.3291C145.667 40.3291 145.667 40.9335 146.047 40.9335Z" fill="#161616"/>
<path d="M154.686 37.9514C154.686 37.9111 154.686 37.8708 154.666 37.8305C154.646 37.6694 154.546 37.5283 154.366 37.5283C154.226 37.5283 154.046 37.6694 154.066 37.8305C154.066 37.8708 154.066 37.9111 154.086 37.9514C154.106 38.1126 154.206 38.2537 154.386 38.2537C154.526 38.2537 154.706 38.1328 154.686 37.9514Z" fill="#161616"/>
<path d="M156.046 37.6289C156.086 37.6289 156.126 37.6289 156.166 37.6289C156.326 37.6289 156.466 37.4878 156.466 37.3266C156.466 37.1655 156.326 37.0244 156.166 37.0244C156.126 37.0244 156.086 37.0244 156.046 37.0244C155.886 37.0244 155.746 37.1655 155.746 37.3266C155.746 37.4878 155.866 37.6289 156.046 37.6289Z" fill="#161616"/>
<path d="M155.366 38.7173C155.366 38.7576 155.366 38.7979 155.366 38.8381C155.366 38.9993 155.506 39.1404 155.666 39.1404C155.826 39.1404 155.966 38.9993 155.966 38.8381C155.966 38.7979 155.966 38.7576 155.966 38.7173C155.966 38.5561 155.826 38.415 155.666 38.415C155.506 38.4352 155.366 38.5561 155.366 38.7173Z" fill="#161616"/>
<path d="M154.126 32.7728C155.046 32.3295 156.146 32.4504 156.946 33.1153C157.246 33.3571 157.666 32.934 157.366 32.6922C156.346 31.846 155.006 31.6848 153.826 32.2691C153.466 32.4303 153.786 32.9541 154.126 32.7728Z" fill="#161616"/>
<path d="M163.007 35.936C163.247 35.6942 163.487 35.4726 163.747 35.2308C163.907 35.251 164.067 35.2711 164.227 35.2913C164.587 35.3719 164.867 35.5532 165.127 35.7748C165.707 36.2785 166.007 37.0039 166.067 37.7695C166.187 39.0388 165.687 40.7313 164.167 40.691C163.787 40.691 163.787 41.2954 164.167 41.2954C166.687 41.3559 167.187 37.9911 166.227 36.2181C165.747 35.3114 164.787 34.6062 163.727 34.6264C162.907 34.6465 162.067 35.1905 162.407 36.0972C162.567 36.4397 163.147 36.2987 163.007 35.936Z" fill="#161616"/>
<path d="M149.067 26.9101C148.667 27.0109 147.247 27.3735 145.567 28.7235C141.947 31.6651 140.887 36.2992 140.547 37.8304C139.887 40.8526 140.587 40.9534 139.827 43.4115C138.787 46.7963 137.307 47.1187 136.167 50.0805C135.787 51.0476 134.127 55.3593 136.087 58.9255C138.087 62.5522 142.827 63.5999 146.107 63.2574C149.887 62.8746 154.207 60.3762 155.227 56.4876C155.507 55.4399 155.487 54.4728 155.407 53.7676C154.467 53.828 152.767 53.828 150.847 53.0624C150.347 52.8609 148.467 52.055 146.827 50.0805C145.427 48.4082 144.927 46.7762 144.567 45.5875C144.227 44.4189 143.467 41.7593 144.227 38.4349C144.927 35.4126 146.487 33.4986 146.807 33.1157C148.747 30.8189 151.027 29.8719 152.107 29.5092C153.067 30.7584 154.007 31.6852 154.707 32.3098C156.227 33.6597 157.847 35.0903 160.247 35.5537C161.147 35.735 161.887 35.735 162.367 35.6947C162.487 35.5134 162.847 35.05 163.487 34.8686C164.547 34.5664 165.447 35.3723 165.607 35.5134C166.227 36.0574 166.387 36.7424 166.507 37.1655C166.587 37.4677 166.827 38.4953 166.347 39.5833C166.227 39.8452 166.047 40.228 165.667 40.5504C164.947 41.175 164.047 41.1347 163.787 41.1146C163.047 41.9205 162.027 43.2503 161.247 45.0837C159.967 48.106 160.127 50.7655 160.167 51.4909C160.307 53.3042 160.547 56.6488 163.207 58.8852C166.547 61.706 171.007 60.4769 171.527 60.3359C176.687 58.8449 178.367 53.546 178.507 53.0423C179.927 48.2672 177.467 44.0763 176.267 42.0414C174.607 39.2005 173.787 39.5229 170.087 35.3723C164.667 29.2876 164.627 26.5877 161.407 25.3587C159.687 24.714 156.807 24.3715 152.187 26.8094C151.507 26.7086 150.367 26.6079 149.067 26.9101Z" fill="#262626"/>
<path d="M155.766 54.1306C156.946 53.9895 158.186 53.1634 159.126 52.4583C159.426 52.2366 159.126 51.7128 158.826 51.9344C158.386 52.2769 157.906 52.559 157.406 52.8209C156.886 53.103 156.346 53.4455 155.746 53.5261C155.386 53.5664 155.386 54.1709 155.766 54.1306Z" fill="#161616"/>
<path d="M155.947 54.3921C156.707 54.2712 157.387 53.828 158.047 53.4452C158.687 53.0623 159.267 52.6392 159.787 52.0952C160.047 51.8132 159.627 51.3901 159.367 51.6721C158.507 52.5989 157.047 53.6063 155.787 53.828C155.407 53.8884 155.567 54.4727 155.947 54.3921Z" fill="#161616"/>
<path opacity="0.25" d="M168.346 33.7402C169.526 35.7349 171.106 38.7571 172.366 42.7062C173.906 47.5216 174.826 50.3222 173.306 52.5183C171.806 54.6943 168.386 55.5607 165.526 54.5936C162.666 53.6265 160.646 50.9468 160.466 47.8036C160.206 48.9521 159.926 50.9065 160.366 53.2638C160.666 54.8152 161.046 56.7897 162.706 58.4419C164.686 60.4164 167.206 60.6179 168.126 60.6985C169.066 60.779 171.546 60.8395 174.026 59.2881C176.486 57.7568 177.466 55.5607 177.866 54.6742C178.966 52.1758 178.806 49.9595 178.706 48.8312C178.446 45.6478 177.086 43.4315 176.466 42.4241C176.206 42.001 175.606 41.0742 172.726 38.0922C170.946 36.2185 169.426 34.7275 168.346 33.7402Z" fill="#3F3F3F"/>
<path opacity="0.15" d="M136.526 49.4756C136.286 50.3017 135.926 52.0747 136.626 54.0089C137.766 57.1722 141.326 59.4489 144.966 58.9049C147.946 58.4617 150.446 56.2051 151.326 53.1425C152.726 53.3239 154.126 53.5254 155.546 53.7067C155.586 54.3917 155.546 55.4394 155.166 56.6282C154.486 58.8042 153.126 60.0735 152.546 60.5974C149.886 62.995 146.686 63.1763 145.426 63.2368C143.766 63.3174 141.066 63.4786 138.586 61.6249C136.506 60.0937 135.726 58.0184 135.506 57.2931C134.226 53.3843 136.206 50.0196 136.526 49.4756Z" fill="#3F3F3F"/>
<path opacity="0.15" d="M161.427 41.0939C160.667 43.8341 159.647 47.5212 157.307 49.677C156.307 50.6039 153.927 52.2762 148.967 51.9336C149.567 52.3567 150.907 53.1627 152.807 53.344C154.707 53.5253 156.167 52.9813 156.827 52.6791C157.567 54.9156 158.327 57.152 159.067 59.3683C160.127 58.7639 161.187 58.1796 162.247 57.5751C161.527 56.4468 160.167 53.9686 160.087 50.6039C159.967 45.0833 163.387 41.4364 164.107 40.7111C164.387 40.6708 165.367 40.4492 165.987 39.5828C166.807 38.4142 166.467 36.7218 165.527 35.8151C165.347 35.6338 164.547 34.8682 163.747 35.0696C162.467 35.3517 162.307 37.8702 161.427 41.0939Z" fill="#3F3F3F"/>
</svg>
