<svg width="24" height="24" viewBox="0 0 24 24" fill="none" xmlns="http://www.w3.org/2000/svg">
<g id="simple-icons:slideshare" clip-path="url(#clip0_2883_9891)">
<path id="Vector" d="M3.22181 0.206125C1.76181 0.206125 1.05981 1.33312 1.05981 2.49312V10.3761C0.529813 9.87413 -0.0361865 10.2261 0.00181348 10.6711C0.0398135 11.1101 0.591813 12.2171 1.43781 13.1881C2.28081 14.1561 3.36181 14.9641 4.37781 15.4561C4.01934 16.6207 3.85349 17.8361 3.88681 19.0541C3.97681 20.1501 4.26481 21.0041 4.78981 21.8041C5.70781 23.2111 7.10981 23.7891 8.46381 23.7891C9.67281 23.7891 10.9578 23.2261 11.1618 21.4161V16.7221C12.4698 17.2741 14.6318 17.0851 15.6318 16.3321C15.8218 16.1921 15.9578 16.1251 16.0478 16.2191C16.1428 16.3091 16.1538 16.3851 15.9348 16.6581C15.1508 17.6433 14.0576 18.3356 12.8318 18.6231L12.8398 21.3431C12.8622 22.0015 13.1403 22.6253 13.6151 23.082C14.0899 23.5387 14.724 23.7924 15.3828 23.7891C17.0228 23.8041 17.8628 23.2331 18.5308 22.6251C19.1628 22.0581 19.9298 20.8711 20.0888 19.3821C20.1968 18.0563 20.0425 16.7223 19.6348 15.4561C20.7463 14.8842 21.745 14.1158 22.5828 13.1881C23.2128 12.4961 23.9998 11.1811 23.9998 10.6711C23.9998 10.1611 23.4438 9.88913 22.9638 10.3691V2.49312C22.9638 1.66912 22.4838 0.203125 20.8288 0.203125L3.22181 0.206125ZM3.64481 1.55612H20.4098C21.1658 1.55612 21.5798 1.83612 21.5798 2.78012V11.6841C20.5246 12.4551 19.3097 12.9793 18.0248 13.2181C16.4188 13.5701 15.0848 13.3051 14.3588 13.3661C13.6408 13.4261 12.9308 13.8951 13.0628 15.1561C12.5718 15.0021 11.8268 14.4731 11.3808 14.0391C10.9428 13.6111 10.5108 13.3281 9.84681 13.3471C8.83381 13.3771 8.18381 13.4491 7.27681 13.3571C5.53205 13.2114 3.85974 12.5941 2.43881 11.5711V2.77612C2.43881 1.90612 2.81681 1.55612 3.64481 1.55612ZM8.14181 6.54413C7.7441 6.53686 7.34892 6.60891 6.97937 6.75609C6.60981 6.90326 6.27329 7.1226 5.98945 7.40129C5.70562 7.67998 5.48017 8.01244 5.32627 8.37924C5.17236 8.74605 5.0931 9.13984 5.0931 9.53763C5.0931 9.93541 5.17236 10.3292 5.32627 10.696C5.48017 11.0628 5.70562 11.3953 5.98945 11.674C6.27329 11.9527 6.60981 12.172 6.97937 12.3192C7.34892 12.4663 7.7441 12.5384 8.14181 12.5311C8.91881 12.5065 9.65575 12.1806 10.1967 11.6222C10.7376 11.0639 11.0401 10.317 11.0401 9.53963C11.0401 8.76224 10.7376 8.01535 10.1967 7.45702C9.65575 6.89869 8.91881 6.57273 8.14181 6.54813V6.54413ZM15.8518 6.54413C15.4541 6.53686 15.0589 6.60891 14.6894 6.75609C14.3198 6.90326 13.9833 7.1226 13.6995 7.40129C13.4156 7.67998 13.1902 8.01244 13.0363 8.37924C12.8824 8.74605 12.8031 9.13984 12.8031 9.53763C12.8031 9.93541 12.8824 10.3292 13.0363 10.696C13.1902 11.0628 13.4156 11.3953 13.6995 11.674C13.9833 11.9527 14.3198 12.172 14.6894 12.3192C15.0589 12.4663 15.4541 12.5384 15.8518 12.5311C16.6288 12.5065 17.3657 12.1806 17.9067 11.6222C18.4476 11.0639 18.7501 10.317 18.7501 9.53963C18.7501 8.76224 18.4476 8.01535 17.9067 7.45702C17.3657 6.89869 16.6288 6.57273 15.8518 6.54813V6.54413Z" fill="#594D71"/>
</g>
<defs>
<clipPath id="clip0_2883_9891">
<rect width="24" height="24" fill="white"/>
</clipPath>
</defs>
</svg>
